<svg width="1404" height="476" viewBox="0 0 1404 476" fill="none" xmlns="http://www.w3.org/2000/svg">
<g filter="url(#filter0_d_1_6881)">
<rect x="617" y="306" width="108.667" height="108.667" rx="30.3333" fill="white"/>
</g>
<g filter="url(#filter1_d_1_6881)">
<rect x="625" y="314" width="108.667" height="108.667" rx="30.3333" fill="white"/>
</g>
<g filter="url(#filter2_d_1_6881)">
<rect x="633" y="322" width="108.667" height="108.667" rx="30.3333" fill="white"/>
<path d="M713.878 376.923C713.878 374.741 713.697 373.148 713.306 371.497H687.878V381.346H702.803C702.503 383.794 700.878 387.481 697.266 389.958L697.216 390.287L705.256 396.391L705.813 396.446C710.928 391.816 713.878 385.003 713.878 376.923Z" fill="#4285F4"/>
<path d="M687.876 402.875C695.188 402.875 701.327 400.516 705.811 396.446L697.265 389.958C694.978 391.521 691.908 392.612 687.876 392.612C680.714 392.612 674.635 387.982 672.469 381.583L672.151 381.609L663.791 387.95L663.682 388.247C668.135 396.918 677.283 402.875 687.876 402.875Z" fill="#34A853"/>
<path d="M672.47 381.582C671.898 379.931 671.567 378.161 671.567 376.333C671.567 374.504 671.898 372.735 672.44 371.084L672.425 370.732L663.96 364.29L663.683 364.419C661.848 368.017 660.794 372.057 660.794 376.333C660.794 380.609 661.848 384.649 663.683 388.247L672.47 381.582Z" fill="#FBBC05"/>
<path d="M687.876 360.054C692.962 360.054 696.392 362.207 698.348 364.006L705.992 356.692C701.298 352.416 695.189 349.792 687.876 349.792C677.283 349.792 668.135 355.749 663.682 364.419L672.439 371.084C674.636 364.684 680.714 360.054 687.876 360.054Z" fill="#EB4335"/>
</g>
<g filter="url(#filter3_d_1_6881)">
<rect x="1240" y="17" width="79.3209" height="79.3209" rx="22.1417" fill="white"/>
</g>
<g filter="url(#filter4_d_1_6881)">
<rect x="1245.84" y="22.8394" width="79.3209" height="79.3209" rx="22.1417" fill="white"/>
<path d="M1279.67 79.1061C1275.2 79.1061 1271.02 77.804 1267.51 75.5573C1270.49 75.7503 1275.76 75.2881 1279.03 72.1657C1274.1 71.9398 1271.88 68.1629 1271.59 66.5489C1272.01 66.7103 1274.01 66.904 1275.13 66.452C1269.47 65.0317 1268.6 60.0605 1268.79 58.5433C1269.86 59.2857 1271.66 59.544 1272.37 59.4794C1267.09 55.7026 1268.99 50.0212 1269.92 48.7945C1273.71 54.0426 1279.39 56.99 1286.41 57.154C1286.28 56.5732 1286.21 55.9685 1286.21 55.3475C1286.21 50.8905 1289.81 47.2773 1294.25 47.2773C1296.57 47.2773 1298.67 48.2637 1300.14 49.8414C1301.69 49.4778 1304.02 48.6267 1305.16 47.8907C1304.59 49.9566 1302.8 51.6801 1301.71 52.3188C1301.7 52.297 1301.72 52.3406 1301.71 52.3188C1302.67 52.1749 1305.24 51.6799 1306.26 50.9896C1305.75 52.1503 1303.86 54.08 1302.3 55.1604C1302.59 67.9495 1292.8 79.1061 1279.67 79.1061Z" fill="#47ACDF"/>
</g>
<g filter="url(#filter5_d_1_6881)">
<rect x="1029" y="102" width="57.5294" height="57.5294" rx="16.0588" fill="white"/>
</g>
<g filter="url(#filter6_d_1_6881)">
<rect x="1033.24" y="106.235" width="57.5294" height="57.5294" rx="16.0588" fill="white"/>
</g>
<g filter="url(#filter7_d_1_6881)">
<rect x="1037.47" y="110.471" width="57.5294" height="57.5294" rx="16.0588" fill="white"/>
<path d="M1058.66 143.042C1058.82 141.743 1059.35 141.016 1060.35 140.271C1061.79 139.261 1063.58 139.832 1063.58 139.832V136.445C1064.02 136.434 1064.45 136.459 1064.89 136.522V140.882C1064.89 140.882 1063.09 140.31 1061.66 141.32C1060.65 142.065 1060.12 142.793 1059.96 144.092C1059.96 144.797 1060.09 145.719 1060.7 146.516C1060.55 146.438 1060.4 146.35 1060.24 146.252C1058.9 145.35 1058.65 143.998 1058.66 143.042ZM1072.29 130.181C1071.3 129.099 1070.93 128.006 1070.8 127.238H1072.04C1072.04 127.238 1071.79 129.251 1073.6 131.231L1073.62 131.257C1073.14 130.951 1072.69 130.59 1072.29 130.181ZM1078.28 133.25V137.522C1078.28 137.522 1076.69 137.46 1075.52 137.161C1073.88 136.744 1072.83 136.103 1072.83 136.103C1072.83 136.103 1072.1 135.647 1072.04 135.615V144.436C1072.04 144.927 1071.91 146.154 1071.5 147.177C1070.96 148.515 1070.14 149.394 1069.98 149.573C1069.98 149.573 1068.98 150.761 1067.21 151.56C1065.61 152.282 1064.21 152.264 1063.79 152.282C1063.79 152.282 1061.36 152.378 1059.18 150.96C1058.71 150.647 1058.27 150.293 1057.86 149.902L1057.87 149.91C1060.06 151.328 1062.48 151.232 1062.48 151.232C1062.9 151.214 1064.3 151.232 1065.9 150.511C1067.67 149.711 1068.68 148.524 1068.68 148.524C1068.83 148.344 1069.66 147.466 1070.19 146.127C1070.6 145.104 1070.74 143.877 1070.74 143.386V134.566C1070.8 134.598 1071.52 135.055 1071.52 135.055C1071.52 135.055 1072.58 135.696 1074.22 136.113C1075.39 136.411 1076.97 136.473 1076.97 136.473V133.126C1077.52 133.248 1077.98 133.281 1078.28 133.25Z" fill="#EE1D52"/>
<path d="M1076.98 133.126V136.472C1076.98 136.472 1075.39 136.41 1074.22 136.112C1072.58 135.694 1071.52 135.054 1071.52 135.054C1071.52 135.054 1070.8 134.597 1070.74 134.565V143.387C1070.74 143.878 1070.6 145.105 1070.19 146.128C1069.66 147.467 1068.83 148.345 1068.68 148.525C1068.68 148.525 1067.67 149.712 1065.9 150.512C1064.3 151.233 1062.9 151.215 1062.48 151.233C1062.48 151.233 1060.06 151.329 1057.87 149.911L1057.86 149.903C1057.63 149.68 1057.42 149.444 1057.21 149.198C1056.52 148.348 1056.09 147.344 1055.98 147.057C1055.98 147.056 1055.98 147.055 1055.98 147.054C1055.81 146.556 1055.45 145.36 1055.5 144.202C1055.58 142.158 1056.3 140.904 1056.49 140.59C1057 139.733 1057.65 138.966 1058.43 138.324C1059.11 137.77 1059.89 137.329 1060.73 137.019C1061.63 136.655 1062.6 136.461 1063.58 136.445V139.832C1063.58 139.832 1061.79 139.263 1060.35 140.271C1059.35 141.016 1058.82 141.743 1058.66 143.042C1058.65 143.998 1058.9 145.35 1060.24 146.252C1060.39 146.351 1060.55 146.439 1060.7 146.516C1060.93 146.821 1061.22 147.086 1061.54 147.302C1062.85 148.131 1063.95 148.189 1065.36 147.65C1066.29 147.29 1067 146.479 1067.32 145.579C1067.53 145.018 1067.53 144.452 1067.53 143.868V127.238H1070.79C1070.93 128.006 1071.3 129.099 1072.29 130.181C1072.69 130.59 1073.13 130.951 1073.62 131.257C1073.76 131.406 1074.5 132.142 1075.44 132.593C1075.93 132.827 1076.44 133.005 1076.98 133.126Z" fill="black"/>
<path d="M1054.68 146.017V146.02L1054.76 146.239C1054.75 146.214 1054.72 146.136 1054.68 146.017Z" fill="#69C9D0"/>
<path d="M1060.73 137.019C1059.89 137.328 1059.11 137.769 1058.43 138.324C1057.65 138.967 1057 139.736 1056.49 140.594C1056.3 140.907 1055.59 142.163 1055.5 144.206C1055.45 145.365 1055.81 146.56 1055.98 147.058C1055.98 147.06 1055.98 147.061 1055.98 147.062C1056.09 147.346 1056.52 148.35 1057.21 149.202C1057.42 149.449 1057.63 149.685 1057.86 149.908C1057.13 149.418 1056.47 148.827 1055.91 148.152C1055.22 147.31 1054.79 146.316 1054.68 146.023C1054.68 146.021 1054.68 146.019 1054.68 146.016V146.013C1054.51 145.515 1054.15 144.319 1054.2 143.159C1054.28 141.116 1055 139.861 1055.19 139.547C1055.7 138.689 1056.35 137.92 1057.13 137.277C1057.81 136.722 1058.59 136.281 1059.43 135.972C1059.95 135.764 1060.49 135.611 1061.05 135.515C1061.89 135.375 1062.74 135.363 1063.58 135.479V136.445C1062.6 136.46 1061.63 136.655 1060.73 137.019Z" fill="#69C9D0"/>
<path d="M1070.8 127.238H1067.53V143.868C1067.53 144.453 1067.53 145.016 1067.33 145.58C1067 146.478 1066.29 147.29 1065.36 147.65C1063.95 148.191 1062.86 148.131 1061.55 147.302C1061.22 147.087 1060.93 146.823 1060.7 146.519C1061.82 147.089 1062.81 147.079 1064.05 146.603C1064.99 146.243 1065.69 145.431 1066.02 144.532C1066.22 143.97 1066.22 143.405 1066.22 142.821V126.188H1070.73C1070.73 126.188 1070.68 126.601 1070.8 127.238ZM1076.98 132.201V133.126C1076.45 133.005 1075.93 132.826 1075.44 132.593C1074.5 132.142 1073.77 131.406 1073.62 131.257C1073.79 131.362 1073.96 131.458 1074.14 131.543C1075.29 132.093 1076.42 132.256 1076.98 132.201Z" fill="#69C9D0"/>
</g>
<g filter="url(#filter8_d_1_6881)">
<rect x="1133" y="224" width="99.9501" height="99.9501" rx="27.9002" fill="white"/>
</g>
<g filter="url(#filter9_d_1_6881)">
<rect x="1140.36" y="231.358" width="99.9501" height="99.9501" rx="27.9002" fill="white"/>
</g>
<g filter="url(#filter10_d_1_6881)">
<rect x="1147.72" y="238.717" width="99.9501" height="99.9501" rx="27.9002" fill="white"/>
<path d="M1197.69 264.279C1184.23 264.279 1173.28 275.226 1173.28 288.691C1173.28 302.157 1184.23 313.104 1197.69 313.104C1211.16 313.104 1222.1 302.157 1222.1 288.691C1222.1 275.226 1211.16 264.279 1197.69 264.279Z" fill="#FC471E"/>
<path fill-rule="evenodd" clip-rule="evenodd" d="M1204.7 276.328C1204.68 276.468 1204.67 276.612 1204.67 276.758C1204.67 278.237 1205.84 279.436 1207.28 279.436C1208.73 279.436 1209.9 278.237 1209.9 276.758C1209.9 275.279 1208.73 274.08 1207.28 274.08C1206.64 274.08 1206.05 274.318 1205.59 274.713L1198.8 272.998L1196.35 283.051C1193.08 283.271 1190.14 284.283 1187.93 285.812C1187.3 285.18 1186.44 284.791 1185.49 284.791C1183.56 284.791 1182 286.389 1182 288.361C1182 289.733 1182.75 290.925 1183.86 291.522C1183.78 291.948 1183.74 292.383 1183.74 292.824C1183.74 298.246 1189.99 302.642 1197.69 302.642C1205.4 302.642 1211.64 298.246 1211.64 292.824C1211.64 292.383 1211.6 291.948 1211.52 291.522C1212.63 290.925 1213.39 289.733 1213.39 288.361C1213.39 286.389 1211.82 284.791 1209.9 284.791C1208.95 284.791 1208.09 285.18 1207.46 285.812C1205.04 284.147 1201.77 283.094 1198.15 283.011L1200.07 275.163L1204.7 276.328ZM1191.59 293.716C1193.03 293.716 1194.2 292.518 1194.2 291.039C1194.2 289.56 1193.03 288.361 1191.59 288.361C1190.14 288.361 1188.97 289.56 1188.97 291.039C1188.97 292.518 1190.14 293.716 1191.59 293.716ZM1203.79 293.716C1205.24 293.716 1206.41 292.518 1206.41 291.039C1206.41 289.56 1205.24 288.361 1203.79 288.361C1202.35 288.361 1201.18 289.56 1201.18 291.039C1201.18 292.518 1202.35 293.716 1203.79 293.716ZM1192.07 296.544C1191.67 296.271 1191.13 296.381 1190.86 296.792C1190.6 297.202 1190.7 297.756 1191.1 298.029C1193 299.324 1195.35 299.972 1197.69 299.972C1200.04 299.972 1202.38 299.324 1204.28 298.029C1204.68 297.756 1204.79 297.202 1204.52 296.792C1204.25 296.381 1203.71 296.271 1203.31 296.544C1201.71 297.639 1199.7 298.187 1197.69 298.187C1196.5 298.187 1195.31 297.994 1194.2 297.609C1193.44 297.345 1192.72 296.99 1192.07 296.544Z" fill="white"/>
</g>
<g filter="url(#filter11_d_1_6881)">
<rect x="951" y="306" width="52.8806" height="52.8806" rx="14.7611" fill="white"/>
<path d="M977.44 345.356C984.574 345.356 990.356 339.574 990.356 332.44C990.356 325.307 984.574 319.524 977.44 319.524C970.307 319.524 964.524 325.307 964.524 332.44C964.524 339.574 970.307 345.356 977.44 345.356Z" fill="url(#paint0_linear_1_6881)"/>
<path d="M977.44 344.388C984.039 344.388 989.388 339.039 989.388 332.44C989.388 325.842 984.039 320.493 977.44 320.493C970.842 320.493 965.493 325.842 965.493 332.44C965.493 339.039 970.842 344.388 977.44 344.388Z" fill="url(#paint1_radial_1_6881)"/>
<path d="M977.46 323.399C977.38 323.399 977.309 323.339 977.309 323.258V321.149C977.309 321.068 977.38 321.008 977.46 321.008C977.541 321.008 977.612 321.068 977.612 321.149V323.258C977.602 323.339 977.541 323.399 977.46 323.399Z" fill="#F3F3F3"/>
<path d="M977.461 323.409C977.37 323.409 977.299 323.339 977.299 323.258V321.149C977.299 321.068 977.37 320.998 977.461 320.998C977.551 320.998 977.622 321.068 977.622 321.149V323.258C977.622 323.339 977.541 323.409 977.461 323.409ZM977.461 321.018C977.39 321.018 977.319 321.078 977.319 321.149V323.258C977.319 323.328 977.38 323.389 977.461 323.389C977.531 323.389 977.602 323.328 977.602 323.258V321.149C977.592 321.078 977.531 321.018 977.461 321.018Z" fill="white"/>
<path d="M978.47 322.269C978.389 322.259 978.328 322.198 978.328 322.118L978.399 321.179C978.409 321.098 978.48 321.038 978.56 321.048C978.641 321.058 978.702 321.119 978.702 321.199L978.631 322.138C978.621 322.219 978.55 322.279 978.47 322.269V322.269Z" fill="#F3F3F3"/>
<path d="M978.47 322.279C978.379 322.269 978.318 322.198 978.318 322.117L978.389 321.179C978.399 321.098 978.47 321.028 978.56 321.038C978.651 321.048 978.712 321.118 978.712 321.199L978.641 322.138C978.631 322.228 978.56 322.289 978.47 322.279ZM978.56 321.058C978.49 321.058 978.419 321.108 978.419 321.179L978.348 322.117C978.348 322.188 978.399 322.249 978.48 322.259C978.55 322.259 978.621 322.208 978.621 322.138L978.692 321.199C978.692 321.128 978.631 321.068 978.56 321.058H978.56Z" fill="white"/>
<path d="M979.226 323.581C979.145 323.56 979.095 323.49 979.105 323.409L979.519 321.34C979.539 321.26 979.61 321.209 979.69 321.23C979.771 321.25 979.822 321.32 979.811 321.401L979.398 323.47C979.388 323.54 979.307 323.591 979.226 323.581H979.226Z" fill="#F3F3F3"/>
<path d="M979.226 323.591C979.135 323.57 979.085 323.49 979.095 323.409L979.509 321.34C979.529 321.26 979.61 321.199 979.7 321.219C979.791 321.239 979.842 321.32 979.832 321.401L979.418 323.47C979.398 323.55 979.317 323.601 979.226 323.591ZM979.7 321.239C979.63 321.229 979.559 321.27 979.539 321.34L979.125 323.409C979.115 323.48 979.156 323.55 979.236 323.57C979.307 323.58 979.378 323.54 979.398 323.469L979.812 321.401C979.822 321.32 979.771 321.26 979.7 321.239Z" fill="white"/>
<path d="M980.437 322.673C980.418 322.668 980.4 322.66 980.384 322.648C980.368 322.637 980.354 322.622 980.344 322.605C980.334 322.588 980.327 322.569 980.324 322.55C980.321 322.53 980.322 322.51 980.326 322.491L980.579 321.583C980.599 321.502 980.679 321.462 980.76 321.482C980.841 321.502 980.891 321.583 980.871 321.664L980.619 322.572C980.599 322.653 980.518 322.693 980.437 322.673Z" fill="#F3F3F3"/>
<path d="M980.437 322.683C980.357 322.662 980.296 322.572 980.326 322.491L980.579 321.583C980.599 321.502 980.69 321.452 980.77 321.472C980.851 321.492 980.912 321.583 980.881 321.663L980.629 322.572C980.609 322.652 980.528 322.703 980.437 322.683H980.437ZM980.77 321.502C980.7 321.482 980.619 321.522 980.599 321.593L980.347 322.501C980.326 322.572 980.367 322.642 980.447 322.662C980.518 322.683 980.599 322.642 980.619 322.572L980.871 321.663C980.881 321.593 980.841 321.522 980.77 321.502V321.502Z" fill="white"/>
<path d="M980.932 324.096C980.851 324.065 980.821 323.974 980.851 323.904L981.658 321.956C981.688 321.886 981.779 321.845 981.85 321.886C981.931 321.916 981.961 322.007 981.931 322.077L981.123 324.025C981.093 324.096 981.002 324.136 980.932 324.096H980.932Z" fill="#F3F3F3"/>
<path d="M980.932 324.105C980.893 324.091 980.862 324.061 980.844 324.023C980.827 323.985 980.826 323.942 980.841 323.904L981.648 321.956C981.678 321.875 981.769 321.845 981.86 321.875C981.899 321.89 981.93 321.92 981.947 321.957C981.964 321.995 981.966 322.038 981.951 322.077L981.144 324.025C981.103 324.105 981.012 324.146 980.932 324.105ZM981.85 321.896C981.779 321.865 981.699 321.896 981.668 321.966L980.861 323.914C980.831 323.984 980.871 324.055 980.942 324.085C981.012 324.115 981.093 324.085 981.123 324.015L981.931 322.067C981.951 322.006 981.921 321.926 981.85 321.896Z" fill="white"/>
<path d="M982.294 323.45C982.223 323.409 982.193 323.329 982.223 323.258L982.647 322.421C982.687 322.35 982.768 322.319 982.849 322.36C982.919 322.4 982.95 322.481 982.919 322.552L982.496 323.389C982.455 323.46 982.375 323.49 982.294 323.45H982.294Z" fill="#F3F3F3"/>
<path d="M982.294 323.46C982.213 323.419 982.183 323.328 982.223 323.248L982.647 322.41C982.688 322.329 982.778 322.299 982.859 322.34C982.94 322.38 982.97 322.471 982.93 322.552L982.506 323.389C982.466 323.47 982.375 323.5 982.294 323.46L982.294 323.46ZM982.849 322.36C982.778 322.33 982.698 322.35 982.667 322.42L982.244 323.258C982.213 323.318 982.244 323.399 982.304 323.439C982.375 323.47 982.455 323.45 982.486 323.379L982.91 322.541C982.94 322.481 982.91 322.4 982.849 322.36Z" fill="white"/>
<path d="M982.496 324.943C982.425 324.893 982.405 324.802 982.455 324.741L983.626 322.996C983.666 322.925 983.757 322.915 983.828 322.955C983.898 323.006 983.919 323.097 983.868 323.157L982.698 324.903C982.657 324.973 982.566 324.994 982.496 324.943Z" fill="#F3F3F3"/>
<path d="M982.496 324.953C982.425 324.903 982.405 324.802 982.445 324.731L983.616 322.985C983.666 322.915 983.757 322.895 983.838 322.945C983.908 322.995 983.929 323.096 983.888 323.167L982.718 324.913C982.667 324.983 982.566 325.003 982.496 324.953ZM983.828 322.965C983.767 322.925 983.676 322.935 983.636 322.995L982.466 324.741C982.425 324.802 982.445 324.882 982.506 324.923C982.566 324.963 982.657 324.953 982.698 324.893L983.868 323.157C983.908 323.096 983.888 323.006 983.828 322.965Z" fill="white"/>
<path d="M983.969 324.57C983.909 324.519 983.888 324.428 983.939 324.368L984.524 323.631C984.574 323.571 984.665 323.56 984.726 323.611C984.786 323.661 984.806 323.752 984.756 323.813L984.171 324.549C984.12 324.61 984.03 324.62 983.969 324.57H983.969Z" fill="#F3F3F3"/>
<path d="M983.959 324.58C983.888 324.529 983.878 324.428 983.929 324.358L984.514 323.621C984.564 323.55 984.665 323.54 984.736 323.601C984.806 323.651 984.817 323.752 984.766 323.823L984.181 324.559C984.13 324.63 984.029 324.64 983.959 324.58ZM984.716 323.621C984.655 323.571 984.574 323.581 984.524 323.641L983.939 324.378C983.898 324.438 983.908 324.519 983.969 324.569C984.029 324.62 984.11 324.61 984.161 324.549L984.746 323.813C984.786 323.752 984.776 323.661 984.716 323.621L984.716 323.621Z" fill="white"/>
<path d="M983.868 326.083C983.808 326.023 983.808 325.932 983.868 325.881L985.361 324.398C985.422 324.338 985.513 324.348 985.563 324.398C985.614 324.449 985.624 324.55 985.563 324.6L984.08 326.083C984.019 326.144 983.929 326.144 983.868 326.083Z" fill="#F3F3F3"/>
<path d="M983.858 326.093C983.829 326.063 983.812 326.024 983.812 325.982C983.812 325.941 983.829 325.901 983.858 325.871L985.351 324.388C985.381 324.359 985.421 324.342 985.462 324.342C985.504 324.342 985.544 324.359 985.573 324.388C985.602 324.417 985.619 324.457 985.619 324.499C985.619 324.54 985.602 324.58 985.573 324.61L984.08 326.093C984.05 326.122 984.01 326.138 983.969 326.138C983.927 326.138 983.888 326.122 983.858 326.093V326.093ZM985.563 324.398C985.513 324.347 985.422 324.347 985.372 324.398L983.878 325.881C983.828 325.932 983.828 326.022 983.878 326.073C983.929 326.123 984.019 326.123 984.07 326.073L985.563 324.59C985.614 324.539 985.614 324.458 985.563 324.398Z" fill="white"/>
<path d="M985.382 326.003C985.331 325.942 985.331 325.851 985.392 325.801L986.108 325.195C986.169 325.145 986.259 325.155 986.31 325.216C986.36 325.276 986.36 325.367 986.3 325.417L985.583 326.023C985.523 326.073 985.432 326.063 985.382 326.003Z" fill="#F3F3F3"/>
<path d="M985.372 326.013C985.311 325.942 985.321 325.841 985.382 325.791L986.098 325.185C986.159 325.125 986.259 325.135 986.32 325.205C986.381 325.276 986.371 325.377 986.31 325.427L985.594 326.033C985.533 326.093 985.432 326.083 985.372 326.013H985.372ZM986.3 325.216C986.249 325.155 986.169 325.155 986.108 325.195L985.392 325.801C985.341 325.851 985.331 325.932 985.382 325.992C985.432 326.053 985.513 326.053 985.573 326.013L986.29 325.407C986.35 325.357 986.35 325.276 986.3 325.216Z" fill="white"/>
<path d="M984.978 327.455C984.928 327.385 984.948 327.294 985.018 327.254L986.774 326.083C986.845 326.043 986.935 326.063 986.976 326.123C987.026 326.194 987.006 326.285 986.935 326.325L985.18 327.496C985.119 327.536 985.028 327.516 984.978 327.455Z" fill="#F3F3F3"/>
<path d="M984.968 327.456C984.918 327.385 984.938 327.284 985.008 327.234L986.764 326.063C986.835 326.013 986.936 326.033 986.986 326.114C987.037 326.184 987.016 326.285 986.946 326.335L985.19 327.506C985.119 327.557 985.018 327.536 984.968 327.456V327.456ZM986.966 326.134C986.926 326.073 986.845 326.053 986.784 326.093L985.028 327.264C984.968 327.304 984.948 327.385 984.998 327.456C985.039 327.516 985.119 327.536 985.18 327.496L986.936 326.325C986.996 326.275 987.006 326.194 986.966 326.134Z" fill="white"/>
<path d="M986.482 327.667C986.441 327.597 986.461 327.506 986.532 327.466L987.349 327.002C987.42 326.961 987.511 326.991 987.551 327.062C987.592 327.133 987.571 327.223 987.501 327.264L986.683 327.728C986.613 327.768 986.522 327.738 986.482 327.667L986.482 327.667Z" fill="#F3F3F3"/>
<path d="M986.472 327.678C986.431 327.597 986.451 327.506 986.522 327.466L987.339 327.002C987.41 326.961 987.511 326.991 987.551 327.062C987.592 327.143 987.572 327.234 987.501 327.274L986.684 327.738C986.613 327.778 986.512 327.748 986.472 327.678ZM987.541 327.072C987.501 327.002 987.42 326.981 987.36 327.022L986.542 327.486C986.482 327.526 986.462 327.607 986.492 327.667C986.532 327.738 986.613 327.758 986.673 327.718L987.491 327.254C987.551 327.223 987.572 327.143 987.541 327.072Z" fill="white"/>
<path d="M985.805 329.01C985.775 328.929 985.805 328.848 985.886 328.818L987.834 328.011C987.904 327.98 987.995 328.021 988.025 328.091C988.056 328.172 988.025 328.253 987.945 328.283L985.997 329.09C985.926 329.121 985.836 329.09 985.805 329.01Z" fill="#F3F3F3"/>
<path d="M985.795 329.019C985.765 328.939 985.795 328.848 985.876 328.808L987.824 328C987.862 327.986 987.905 327.987 987.943 328.004C987.981 328.021 988.011 328.052 988.025 328.091C988.056 328.172 988.025 328.263 987.945 328.303L985.997 329.11C985.958 329.125 985.915 329.124 985.878 329.107C985.84 329.09 985.81 329.058 985.795 329.019V329.019ZM988.005 328.101C987.975 328.031 987.894 328 987.834 328.021L985.886 328.828C985.816 328.858 985.785 328.939 985.816 329.009C985.846 329.08 985.927 329.11 985.987 329.09L987.935 328.283C988.005 328.253 988.036 328.172 988.005 328.101Z" fill="white"/>
<path d="M987.228 329.514C987.198 329.433 987.239 329.352 987.319 329.322L988.207 329.029C988.278 328.999 988.369 329.05 988.389 329.12C988.419 329.201 988.379 329.282 988.298 329.312L987.41 329.605C987.339 329.635 987.259 329.595 987.228 329.514V329.514Z" fill="#F3F3F3"/>
<path d="M987.218 329.524C987.188 329.444 987.228 329.353 987.319 329.323L988.207 329.03C988.288 329 988.378 329.05 988.409 329.131C988.439 329.212 988.399 329.302 988.308 329.333L987.42 329.625C987.339 329.645 987.248 329.605 987.218 329.524ZM988.388 329.141C988.368 329.07 988.288 329.03 988.217 329.05L987.329 329.343C987.258 329.363 987.228 329.444 987.248 329.514C987.269 329.585 987.349 329.625 987.42 329.605L988.308 329.312C988.378 329.282 988.409 329.212 988.388 329.141V329.141Z" fill="white"/>
<path d="M986.32 330.715C986.3 330.634 986.35 330.553 986.431 330.543L988.5 330.14C988.58 330.119 988.651 330.18 988.671 330.261C988.691 330.341 988.641 330.422 988.56 330.432L986.492 330.836C986.411 330.846 986.33 330.796 986.32 330.715H986.32Z" fill="#F3F3F3"/>
<path d="M986.3 330.715C986.279 330.624 986.34 330.543 986.421 330.523L988.489 330.12C988.57 330.099 988.651 330.16 988.671 330.251C988.691 330.342 988.631 330.422 988.55 330.443L986.481 330.846C986.401 330.866 986.32 330.806 986.3 330.715V330.715ZM988.651 330.261C988.641 330.19 988.57 330.14 988.499 330.15L986.431 330.554C986.36 330.564 986.31 330.644 986.33 330.715C986.34 330.786 986.411 330.836 986.481 330.826L988.55 330.422C988.621 330.402 988.671 330.331 988.651 330.261Z" fill="white"/>
<path d="M987.612 331.492C987.602 331.411 987.652 331.341 987.733 331.33L988.661 331.219C988.742 331.209 988.813 331.27 988.823 331.351C988.833 331.431 988.782 331.502 988.701 331.512L987.773 331.623C987.702 331.633 987.622 331.573 987.612 331.492H987.612Z" fill="#F3F3F3"/>
<path d="M987.602 331.492C987.591 331.401 987.652 331.32 987.733 331.31L988.661 331.199C988.742 331.189 988.822 331.25 988.832 331.341C988.843 331.431 988.782 331.512 988.701 331.522L987.773 331.633C987.692 331.643 987.612 331.583 987.602 331.492ZM988.822 331.351C988.812 331.28 988.742 331.219 988.671 331.23L987.743 331.341C987.672 331.351 987.622 331.421 987.632 331.492C987.642 331.563 987.712 331.623 987.783 331.613L988.711 331.502C988.782 331.492 988.832 331.421 988.822 331.351H988.822Z" fill="white"/>
<path d="M986.482 332.471C986.482 332.39 986.542 332.319 986.623 332.319H988.732C988.813 332.319 988.873 332.39 988.873 332.471C988.873 332.551 988.813 332.622 988.732 332.622H986.623C986.542 332.622 986.482 332.551 986.482 332.471Z" fill="#F3F3F3"/>
<path d="M986.472 332.471C986.472 332.38 986.542 332.309 986.623 332.309H988.732C988.813 332.309 988.883 332.38 988.883 332.471C988.883 332.561 988.813 332.632 988.732 332.632H986.623C986.542 332.632 986.472 332.561 986.472 332.471ZM988.863 332.481C988.863 332.41 988.802 332.339 988.732 332.339H986.623C986.552 332.339 986.492 332.4 986.492 332.481C986.492 332.551 986.552 332.622 986.623 332.622H988.732C988.803 332.612 988.863 332.551 988.863 332.481H988.863Z" fill="white"/>
<path d="M987.602 333.49C987.612 333.409 987.672 333.349 987.753 333.349L988.691 333.419C988.772 333.429 988.833 333.5 988.822 333.581C988.812 333.661 988.752 333.722 988.671 333.722L987.733 333.651C987.662 333.641 987.602 333.571 987.602 333.49H987.602Z" fill="#F3F3F3"/>
<path d="M987.592 333.49C987.602 333.399 987.672 333.338 987.753 333.338L988.692 333.409C988.772 333.419 988.843 333.49 988.833 333.581C988.823 333.671 988.752 333.732 988.671 333.732L987.733 333.661C987.652 333.651 987.592 333.57 987.592 333.49ZM988.823 333.581C988.833 333.51 988.772 333.439 988.702 333.439L987.763 333.369C987.692 333.369 987.632 333.419 987.622 333.5C987.612 333.57 987.672 333.641 987.743 333.641L988.681 333.712C988.752 333.712 988.813 333.651 988.823 333.581Z" fill="white"/>
<path d="M986.3 334.226C986.32 334.146 986.391 334.095 986.472 334.105L988.54 334.519C988.621 334.539 988.671 334.61 988.651 334.69C988.631 334.771 988.56 334.822 988.48 334.812L986.411 334.398C986.34 334.388 986.29 334.307 986.3 334.226Z" fill="#F3F3F3"/>
<path d="M986.29 334.226C986.31 334.135 986.391 334.085 986.471 334.095L988.54 334.509C988.621 334.529 988.681 334.61 988.661 334.7C988.641 334.791 988.56 334.842 988.479 334.832L986.411 334.418C986.33 334.398 986.28 334.317 986.29 334.226V334.226ZM988.641 334.7C988.651 334.63 988.611 334.559 988.54 334.539L986.471 334.125C986.401 334.115 986.33 334.156 986.31 334.236C986.3 334.307 986.34 334.378 986.411 334.398L988.479 334.811C988.56 334.822 988.621 334.771 988.641 334.7Z" fill="white"/>
<path d="M987.208 335.437C987.213 335.418 987.221 335.4 987.233 335.384C987.244 335.368 987.259 335.355 987.276 335.344C987.293 335.334 987.311 335.327 987.331 335.324C987.35 335.321 987.37 335.322 987.39 335.326L988.298 335.579C988.378 335.599 988.419 335.68 988.399 335.76C988.394 335.78 988.386 335.798 988.374 335.814C988.362 335.83 988.348 335.843 988.331 335.854C988.314 335.864 988.295 335.871 988.276 335.874C988.256 335.877 988.236 335.876 988.217 335.871L987.309 335.619C987.228 335.599 987.188 335.518 987.208 335.437H987.208Z" fill="#F3F3F3"/>
<path d="M987.198 335.437C987.218 335.357 987.309 335.296 987.39 335.326L988.298 335.578C988.379 335.599 988.429 335.689 988.409 335.77C988.389 335.851 988.298 335.911 988.217 335.881L987.309 335.629C987.228 335.609 987.178 335.528 987.198 335.437L987.198 335.437ZM988.379 335.77C988.399 335.7 988.358 335.619 988.288 335.599L987.38 335.346C987.309 335.326 987.238 335.367 987.218 335.447C987.198 335.518 987.238 335.599 987.309 335.619L988.217 335.871C988.288 335.881 988.358 335.841 988.379 335.77Z" fill="white"/>
<path d="M985.785 335.921C985.815 335.841 985.906 335.81 985.977 335.841L987.924 336.648C987.995 336.678 988.035 336.769 988.005 336.84C987.975 336.92 987.884 336.951 987.813 336.92L985.866 336.113C985.785 336.083 985.755 335.992 985.785 335.921V335.921Z" fill="#F3F3F3"/>
<path d="M985.775 335.911C985.79 335.873 985.819 335.841 985.857 335.824C985.895 335.807 985.938 335.806 985.977 335.821L987.924 336.628C988.005 336.658 988.035 336.749 988.005 336.84C987.99 336.879 987.961 336.91 987.923 336.927C987.885 336.944 987.842 336.945 987.803 336.931L985.856 336.123C985.775 336.083 985.745 335.992 985.775 335.911ZM987.985 336.83C988.015 336.759 987.985 336.678 987.914 336.648L985.967 335.841C985.896 335.811 985.826 335.851 985.795 335.922C985.765 335.992 985.795 336.073 985.866 336.103L987.813 336.911C987.884 336.931 987.965 336.9 987.985 336.83Z" fill="white"/>
<path d="M986.441 337.284C986.482 337.213 986.562 337.183 986.633 337.213L987.47 337.637C987.541 337.667 987.571 337.758 987.531 337.839C987.49 337.909 987.41 337.94 987.339 337.909L986.502 337.485C986.431 337.445 986.401 337.354 986.441 337.284Z" fill="#F3F3F3"/>
<path d="M986.431 337.273C986.471 337.193 986.562 337.163 986.643 337.203L987.48 337.627C987.561 337.667 987.591 337.758 987.551 337.839C987.511 337.919 987.42 337.95 987.339 337.909L986.502 337.485C986.421 337.455 986.391 337.354 986.431 337.273ZM987.521 337.828C987.551 337.758 987.531 337.677 987.46 337.647L986.623 337.223C986.562 337.193 986.482 337.223 986.441 337.284C986.411 337.354 986.431 337.435 986.502 337.465L987.339 337.889C987.41 337.919 987.491 337.899 987.521 337.828Z" fill="white"/>
<path d="M984.958 337.476C985.008 337.405 985.089 337.385 985.16 337.435L986.915 338.606C986.986 338.646 986.996 338.737 986.956 338.808C986.905 338.878 986.825 338.898 986.754 338.848L984.998 337.677C984.928 337.627 984.907 337.536 984.958 337.476Z" fill="#F3F3F3"/>
<path d="M984.948 337.466C984.998 337.395 985.099 337.375 985.17 337.415L986.926 338.586C986.996 338.636 987.016 338.727 986.966 338.808C986.915 338.878 986.815 338.898 986.744 338.858L984.988 337.688C984.907 337.637 984.897 337.536 984.948 337.466ZM986.936 338.797C986.976 338.737 986.966 338.646 986.905 338.606L985.15 337.435C985.089 337.395 985.008 337.415 984.968 337.476C984.928 337.536 984.938 337.627 984.998 337.667L986.754 338.838C986.815 338.878 986.895 338.858 986.936 338.798V338.797Z" fill="white"/>
<path d="M985.331 338.939C985.382 338.878 985.472 338.858 985.533 338.909L986.27 339.484C986.33 339.534 986.34 339.625 986.29 339.686C986.239 339.746 986.149 339.766 986.088 339.716L985.351 339.141C985.291 339.09 985.281 338.999 985.331 338.939Z" fill="#F3F3F3"/>
<path d="M985.321 338.928C985.371 338.858 985.472 338.848 985.543 338.898L986.28 339.473C986.35 339.524 986.36 339.625 986.31 339.695C986.259 339.766 986.159 339.776 986.088 339.726L985.351 339.15C985.281 339.1 985.271 338.999 985.321 338.928ZM986.29 339.685C986.34 339.625 986.33 339.544 986.27 339.494L985.533 338.918C985.472 338.878 985.392 338.888 985.341 338.949C985.291 339.009 985.301 339.09 985.361 339.14L986.098 339.716C986.159 339.756 986.239 339.746 986.29 339.685H986.29Z" fill="white"/>
<path d="M983.828 338.838C983.888 338.777 983.979 338.777 984.029 338.838L985.523 340.321C985.583 340.382 985.573 340.473 985.523 340.523C985.462 340.583 985.372 340.583 985.321 340.523L983.828 339.04C983.777 338.989 983.777 338.888 983.828 338.838Z" fill="#F3F3F3"/>
<path d="M983.828 338.828C983.857 338.799 983.897 338.782 983.939 338.782C983.98 338.782 984.02 338.799 984.05 338.828L985.543 340.311C985.572 340.341 985.589 340.38 985.589 340.422C985.589 340.463 985.572 340.503 985.543 340.533C985.514 340.562 985.474 340.578 985.432 340.578C985.391 340.578 985.351 340.562 985.321 340.533L983.828 339.05C983.757 338.989 983.757 338.888 983.828 338.828ZM985.523 340.513C985.573 340.462 985.573 340.372 985.523 340.321L984.029 338.838C983.979 338.787 983.888 338.787 983.838 338.838C983.787 338.888 983.787 338.979 983.838 339.029L985.331 340.513C985.382 340.573 985.463 340.573 985.523 340.513Z" fill="white"/>
<path d="M983.918 340.341C983.979 340.291 984.07 340.291 984.12 340.351L984.736 341.058C984.786 341.118 984.776 341.209 984.716 341.26C984.655 341.31 984.564 341.31 984.514 341.25L983.898 340.543C983.848 340.493 983.858 340.402 983.918 340.341Z" fill="#F3F3F3"/>
<path d="M983.908 340.341C983.979 340.281 984.07 340.291 984.13 340.351L984.746 341.058C984.806 341.118 984.796 341.219 984.726 341.28C984.655 341.34 984.564 341.33 984.504 341.27L983.888 340.563C983.838 340.493 983.838 340.392 983.908 340.341H983.908ZM984.716 341.26C984.776 341.209 984.776 341.128 984.736 341.068L984.12 340.362C984.07 340.311 983.989 340.301 983.929 340.351C983.868 340.402 983.868 340.483 983.908 340.543L984.524 341.25C984.574 341.31 984.655 341.31 984.716 341.26H984.716Z" fill="white"/>
<path d="M982.465 339.958C982.536 339.907 982.627 339.927 982.667 339.998L983.838 341.744C983.878 341.814 983.858 341.905 983.797 341.946C983.727 341.996 983.636 341.976 983.596 341.905L982.425 340.159C982.385 340.089 982.405 339.998 982.465 339.958H982.465Z" fill="#F3F3F3"/>
<path d="M982.465 339.948C982.536 339.897 982.637 339.918 982.687 339.988L983.858 341.734C983.908 341.804 983.888 341.905 983.807 341.956C983.737 342.006 983.636 341.986 983.585 341.915L982.415 340.17C982.365 340.089 982.385 339.998 982.465 339.948V339.948ZM983.797 341.936C983.858 341.895 983.878 341.815 983.838 341.754L982.667 340.008C982.627 339.948 982.546 339.938 982.476 339.978C982.415 340.019 982.395 340.099 982.435 340.16L983.606 341.905C983.646 341.956 983.737 341.976 983.797 341.936L983.797 341.936Z" fill="white"/>
<path d="M982.254 341.451C982.324 341.411 982.415 341.431 982.455 341.502L982.92 342.319C982.96 342.39 982.93 342.481 982.859 342.521C982.788 342.561 982.698 342.541 982.657 342.47L982.193 341.653C982.163 341.582 982.183 341.492 982.253 341.451L982.254 341.451Z" fill="#F3F3F3"/>
<path d="M982.253 341.442C982.334 341.401 982.425 341.421 982.465 341.492L982.929 342.309C982.97 342.38 982.95 342.481 982.869 342.521C982.788 342.562 982.697 342.541 982.657 342.471L982.193 341.653C982.153 341.583 982.173 341.492 982.253 341.442H982.253ZM982.859 342.511C982.919 342.471 982.95 342.39 982.909 342.33L982.445 341.512C982.405 341.452 982.324 341.431 982.264 341.462C982.203 341.502 982.173 341.583 982.213 341.643L982.677 342.461C982.708 342.521 982.798 342.552 982.859 342.511V342.511Z" fill="white"/>
<path d="M980.912 340.785C980.992 340.755 981.073 340.785 981.103 340.856L981.921 342.803C981.951 342.874 981.911 342.965 981.84 342.995C981.769 343.025 981.679 342.995 981.648 342.924L980.831 340.977C980.801 340.906 980.841 340.815 980.912 340.785Z" fill="#F3F3F3"/>
<path d="M980.911 340.775C980.992 340.745 981.083 340.775 981.123 340.856L981.941 342.803C981.955 342.842 981.954 342.885 981.937 342.923C981.92 342.961 981.889 342.99 981.85 343.005C981.769 343.035 981.678 343.005 981.638 342.924L980.821 340.977C980.79 340.906 980.831 340.816 980.911 340.775ZM981.83 342.985C981.9 342.955 981.931 342.874 981.9 342.813L981.083 340.866C981.053 340.795 980.972 340.765 980.901 340.795C980.831 340.826 980.8 340.906 980.831 340.967L981.648 342.914C981.688 342.985 981.759 343.015 981.83 342.985Z" fill="white"/>
<path d="M980.417 342.218C980.498 342.188 980.578 342.228 980.609 342.309L980.901 343.197C980.932 343.267 980.881 343.358 980.811 343.379C980.73 343.409 980.649 343.368 980.619 343.288L980.326 342.4C980.296 342.329 980.336 342.248 980.417 342.218H980.417Z" fill="#F3F3F3"/>
<path d="M980.407 342.208C980.446 342.194 980.489 342.195 980.527 342.212C980.565 342.229 980.594 342.26 980.609 342.299L980.902 343.187C980.932 343.268 980.881 343.359 980.801 343.389C980.762 343.404 980.719 343.402 980.681 343.385C980.643 343.368 980.614 343.337 980.599 343.298L980.306 342.41C980.286 342.329 980.326 342.239 980.407 342.208ZM980.801 343.369C980.871 343.349 980.912 343.268 980.892 343.197L980.599 342.309C980.579 342.239 980.498 342.208 980.427 342.229C980.357 342.249 980.316 342.329 980.336 342.4L980.629 343.288C980.634 343.305 980.643 343.321 980.655 343.335C980.666 343.348 980.681 343.359 980.697 343.367C980.713 343.374 980.731 343.378 980.749 343.379C980.766 343.379 980.784 343.376 980.801 343.369V343.369Z" fill="white"/>
<path d="M979.226 341.3C979.307 341.28 979.388 341.33 979.398 341.411L979.822 343.48C979.842 343.56 979.781 343.631 979.701 343.651C979.62 343.671 979.539 343.621 979.529 343.54L979.105 341.471C979.095 341.401 979.146 341.32 979.226 341.3L979.226 341.3Z" fill="#F3F3F3"/>
<path d="M979.226 341.29C979.317 341.269 979.398 341.33 979.418 341.411L979.842 343.479C979.862 343.56 979.801 343.651 979.721 343.661C979.63 343.681 979.549 343.621 979.529 343.54L979.105 341.471C979.085 341.39 979.136 341.31 979.226 341.29L979.226 341.29ZM979.701 343.641C979.771 343.631 979.822 343.56 979.812 343.479L979.388 341.411C979.378 341.34 979.297 341.29 979.226 341.31C979.156 341.32 979.105 341.39 979.115 341.471L979.539 343.54C979.559 343.611 979.63 343.651 979.701 343.641L979.701 343.641Z" fill="white"/>
<path d="M978.46 342.612C978.54 342.602 978.611 342.652 978.631 342.733L978.752 343.661C978.762 343.742 978.702 343.812 978.621 343.822C978.54 343.833 978.47 343.782 978.45 343.701L978.328 342.773C978.318 342.692 978.379 342.622 978.46 342.612Z" fill="#F3F3F3"/>
<path d="M978.459 342.602C978.55 342.592 978.631 342.652 978.641 342.733L978.762 343.661C978.772 343.742 978.712 343.823 978.621 343.833C978.53 343.843 978.449 343.782 978.439 343.702L978.318 342.773C978.308 342.693 978.368 342.612 978.459 342.602ZM978.611 343.813C978.681 343.803 978.742 343.732 978.732 343.661L978.611 342.733C978.601 342.662 978.53 342.612 978.459 342.622C978.389 342.632 978.328 342.703 978.338 342.773L978.459 343.702C978.469 343.772 978.54 343.823 978.611 343.813Z" fill="white"/>
<path d="M977.42 341.481C977.501 341.481 977.571 341.542 977.571 341.623V343.732C977.571 343.812 977.501 343.873 977.42 343.873C977.339 343.873 977.269 343.812 977.269 343.732V341.623C977.279 341.542 977.339 341.481 977.42 341.481Z" fill="#F3F3F3"/>
<path d="M977.42 341.471C977.511 341.471 977.582 341.542 977.582 341.623V343.731C977.582 343.812 977.511 343.883 977.42 343.883C977.329 343.883 977.259 343.812 977.259 343.731V341.623C977.259 341.542 977.339 341.471 977.42 341.471ZM977.42 343.863C977.491 343.863 977.561 343.802 977.561 343.731V341.623C977.561 341.552 977.501 341.491 977.42 341.491C977.349 341.491 977.279 341.552 977.279 341.623V343.731C977.289 343.802 977.349 343.863 977.42 343.863Z" fill="white"/>
<path d="M976.411 342.611C976.492 342.622 976.552 342.682 976.552 342.763L976.482 343.701C976.472 343.782 976.401 343.843 976.32 343.833C976.239 343.822 976.179 343.762 976.179 343.681L976.25 342.743C976.26 342.662 976.33 342.601 976.411 342.611Z" fill="#F3F3F3"/>
<path d="M976.411 342.602C976.502 342.612 976.562 342.682 976.562 342.763L976.492 343.702C976.482 343.782 976.411 343.853 976.32 343.843C976.23 343.833 976.169 343.762 976.169 343.681L976.24 342.743C976.25 342.652 976.32 342.592 976.411 342.602ZM976.32 343.823C976.391 343.823 976.462 343.772 976.462 343.702L976.532 342.763C976.532 342.692 976.482 342.632 976.401 342.622C976.33 342.622 976.26 342.672 976.26 342.743L976.189 343.681C976.189 343.752 976.25 343.813 976.32 343.823H976.32Z" fill="white"/>
<path d="M975.654 341.3C975.735 341.32 975.785 341.39 975.775 341.471L975.361 343.54C975.341 343.621 975.271 343.671 975.19 343.651C975.109 343.631 975.059 343.56 975.069 343.479L975.483 341.411C975.493 341.34 975.573 341.29 975.654 341.3Z" fill="#F3F3F3"/>
<path d="M975.654 341.29C975.745 341.31 975.796 341.391 975.786 341.471L975.372 343.54C975.352 343.621 975.271 343.681 975.18 343.661C975.089 343.641 975.039 343.56 975.049 343.48L975.463 341.411C975.483 341.33 975.564 341.28 975.654 341.29L975.654 341.29ZM975.18 343.641C975.251 343.651 975.321 343.611 975.342 343.54L975.755 341.471C975.765 341.401 975.725 341.33 975.644 341.31C975.574 341.3 975.503 341.34 975.483 341.411L975.069 343.48C975.059 343.56 975.109 343.621 975.18 343.641Z" fill="white"/>
<path d="M974.444 342.208C974.524 342.228 974.575 342.309 974.555 342.39L974.302 343.298C974.282 343.379 974.201 343.419 974.121 343.399C974.102 343.394 974.083 343.386 974.067 343.374C974.051 343.363 974.038 343.348 974.028 343.331C974.017 343.314 974.01 343.295 974.007 343.276C974.004 343.256 974.005 343.236 974.01 343.217L974.262 342.309C974.282 342.228 974.363 342.188 974.444 342.208H974.444Z" fill="#F3F3F3"/>
<path d="M974.443 342.198C974.524 342.219 974.585 342.309 974.554 342.39L974.302 343.298C974.282 343.379 974.191 343.429 974.111 343.409C974.03 343.389 973.969 343.298 973.999 343.218L974.252 342.309C974.272 342.229 974.353 342.178 974.443 342.198V342.198ZM974.111 343.379C974.181 343.399 974.262 343.359 974.282 343.288L974.534 342.38C974.554 342.309 974.514 342.239 974.433 342.219C974.363 342.198 974.282 342.239 974.262 342.309L974.01 343.218C973.999 343.288 974.04 343.359 974.111 343.379Z" fill="white"/>
<path d="M973.949 340.785C974.03 340.815 974.06 340.906 974.03 340.977L973.222 342.924C973.192 342.995 973.101 343.035 973.031 342.995C972.96 342.955 972.92 342.874 972.95 342.803L973.757 340.856C973.787 340.785 973.878 340.745 973.949 340.785H973.949Z" fill="#F3F3F3"/>
<path d="M973.949 340.775C973.988 340.79 974.019 340.819 974.036 340.857C974.053 340.895 974.054 340.938 974.04 340.977L973.232 342.924C973.202 343.005 973.111 343.035 973.02 343.005C972.982 342.99 972.95 342.961 972.933 342.923C972.916 342.885 972.915 342.842 972.93 342.803L973.737 340.856C973.777 340.775 973.868 340.735 973.949 340.775ZM973.031 342.985C973.101 343.015 973.182 342.985 973.212 342.914L974.019 340.967C974.05 340.896 974.009 340.826 973.939 340.795C973.868 340.765 973.787 340.795 973.757 340.866L972.95 342.813C972.93 342.874 972.96 342.955 973.031 342.985Z" fill="white"/>
<path d="M972.587 341.431C972.657 341.471 972.688 341.552 972.657 341.623L972.233 342.46C972.193 342.531 972.112 342.561 972.032 342.521C971.961 342.48 971.931 342.4 971.961 342.329L972.385 341.492C972.425 341.421 972.506 341.391 972.587 341.431Z" fill="#F3F3F3"/>
<path d="M972.587 341.421C972.668 341.461 972.698 341.552 972.657 341.633L972.234 342.47C972.193 342.551 972.102 342.581 972.022 342.541C971.941 342.501 971.911 342.41 971.951 342.329L972.375 341.492C972.415 341.411 972.506 341.381 972.587 341.421ZM972.032 342.521C972.103 342.551 972.183 342.531 972.213 342.46L972.637 341.623C972.667 341.562 972.637 341.482 972.577 341.441C972.506 341.411 972.425 341.431 972.395 341.502L971.971 342.339C971.941 342.4 971.971 342.481 972.032 342.521V342.521Z" fill="white"/>
<path d="M972.385 339.938C972.455 339.988 972.476 340.079 972.425 340.14L971.255 341.885C971.214 341.956 971.123 341.966 971.053 341.926C970.982 341.875 970.962 341.784 971.012 341.724L972.183 339.978C972.223 339.907 972.314 339.887 972.385 339.938V339.938Z" fill="#F3F3F3"/>
<path d="M972.385 339.927C972.456 339.978 972.476 340.079 972.435 340.149L971.265 341.895C971.214 341.966 971.124 341.986 971.043 341.936C970.972 341.885 970.952 341.784 970.992 341.713L972.163 339.968C972.213 339.897 972.314 339.877 972.385 339.927ZM971.053 341.915C971.113 341.956 971.204 341.946 971.245 341.885L972.415 340.139C972.456 340.079 972.435 339.998 972.375 339.958C972.314 339.917 972.223 339.928 972.183 339.988L971.013 341.724C970.972 341.784 970.992 341.875 971.053 341.915V341.915Z" fill="white"/>
<path d="M970.912 340.311C970.972 340.362 970.992 340.452 970.942 340.513L970.357 341.249C970.306 341.31 970.215 341.32 970.155 341.27C970.094 341.219 970.074 341.128 970.125 341.068L970.71 340.331C970.76 340.271 970.851 340.261 970.912 340.311Z" fill="#F3F3F3"/>
<path d="M970.922 340.301C970.992 340.351 971.002 340.452 970.952 340.523L970.367 341.26C970.316 341.33 970.215 341.34 970.145 341.28C970.074 341.229 970.064 341.128 970.115 341.058L970.7 340.321C970.75 340.25 970.851 340.24 970.922 340.301ZM970.165 341.26C970.225 341.31 970.306 341.3 970.357 341.239L970.942 340.503C970.982 340.442 970.972 340.362 970.912 340.311C970.851 340.261 970.77 340.271 970.72 340.331L970.135 341.068C970.094 341.128 970.104 341.219 970.165 341.26H970.165Z" fill="white"/>
<path d="M971.012 338.797C971.073 338.858 971.073 338.949 971.012 338.999L969.519 340.482C969.459 340.543 969.368 340.533 969.317 340.482C969.267 340.432 969.257 340.331 969.317 340.281L970.801 338.797C970.861 338.737 970.952 338.737 971.012 338.797Z" fill="#F3F3F3"/>
<path d="M971.023 338.787C971.052 338.817 971.068 338.857 971.068 338.898C971.068 338.94 971.052 338.979 971.023 339.009L969.529 340.492C969.5 340.522 969.46 340.538 969.418 340.538C969.377 340.538 969.337 340.522 969.307 340.492C969.278 340.463 969.262 340.423 969.262 340.381C969.262 340.34 969.278 340.3 969.307 340.27L970.801 338.787C970.83 338.758 970.87 338.742 970.912 338.742C970.953 338.742 970.993 338.758 971.023 338.787ZM969.317 340.482C969.368 340.533 969.459 340.533 969.509 340.482L971.002 338.999C971.053 338.948 971.053 338.858 971.002 338.807C970.952 338.757 970.861 338.757 970.811 338.807L969.317 340.291C969.267 340.341 969.267 340.422 969.317 340.482V340.482Z" fill="white"/>
<path d="M969.499 338.878C969.549 338.939 969.549 339.03 969.489 339.08L968.772 339.686C968.712 339.736 968.621 339.726 968.571 339.665C968.52 339.605 968.52 339.514 968.581 339.463L969.297 338.858C969.358 338.808 969.448 338.818 969.499 338.878Z" fill="#F3F3F3"/>
<path d="M969.509 338.868C969.57 338.939 969.559 339.039 969.499 339.09L968.782 339.695C968.722 339.756 968.621 339.746 968.561 339.675C968.5 339.605 968.51 339.504 968.571 339.453L969.287 338.848C969.347 338.787 969.448 338.797 969.509 338.868L969.509 338.868ZM968.581 339.665C968.631 339.726 968.712 339.726 968.772 339.685L969.489 339.08C969.539 339.029 969.549 338.949 969.499 338.888C969.448 338.828 969.368 338.828 969.307 338.868L968.591 339.473C968.53 339.524 968.53 339.605 968.581 339.665V339.665Z" fill="white"/>
<path d="M969.903 337.425C969.953 337.496 969.933 337.587 969.862 337.627L968.107 338.797C968.036 338.838 967.945 338.818 967.905 338.757C967.854 338.686 967.875 338.596 967.945 338.555L969.701 337.385C969.762 337.344 969.852 337.365 969.903 337.425H969.903Z" fill="#F3F3F3"/>
<path d="M969.913 337.425C969.963 337.496 969.943 337.597 969.872 337.647L968.117 338.818C968.046 338.868 967.945 338.848 967.895 338.767C967.844 338.697 967.864 338.596 967.935 338.545L969.691 337.375C969.761 337.324 969.862 337.344 969.913 337.425H969.913ZM967.915 338.747C967.955 338.807 968.036 338.828 968.096 338.787L969.852 337.617C969.913 337.577 969.933 337.496 969.882 337.425C969.842 337.365 969.761 337.344 969.701 337.385L967.945 338.555C967.885 338.606 967.874 338.686 967.915 338.747Z" fill="white"/>
<path d="M968.399 337.213C968.44 337.284 968.419 337.375 968.349 337.415L967.531 337.879C967.461 337.92 967.37 337.889 967.33 337.819C967.289 337.748 967.309 337.657 967.38 337.617L968.197 337.153C968.268 337.112 968.359 337.143 968.399 337.213H968.399Z" fill="#F3F3F3"/>
<path d="M968.409 337.203C968.45 337.284 968.43 337.375 968.359 337.415L967.542 337.879C967.471 337.919 967.37 337.889 967.33 337.819C967.289 337.738 967.309 337.647 967.38 337.607L968.197 337.143C968.268 337.102 968.369 337.133 968.409 337.203H968.409ZM967.34 337.809C967.38 337.879 967.461 337.899 967.521 337.859L968.339 337.395C968.399 337.354 968.419 337.274 968.389 337.213C968.349 337.143 968.268 337.122 968.208 337.163L967.39 337.627C967.33 337.657 967.309 337.738 967.34 337.809H967.34Z" fill="white"/>
<path d="M969.075 335.872C969.105 335.952 969.075 336.033 968.994 336.063L967.047 336.87C966.976 336.901 966.885 336.86 966.855 336.79C966.825 336.709 966.855 336.628 966.936 336.598L968.883 335.791C968.954 335.761 969.045 335.791 969.075 335.872Z" fill="#F3F3F3"/>
<path d="M969.085 335.861C969.115 335.942 969.085 336.033 969.004 336.073L967.057 336.88C967.018 336.895 966.975 336.894 966.937 336.877C966.899 336.859 966.87 336.828 966.855 336.789C966.825 336.709 966.855 336.618 966.936 336.578L968.883 335.77C968.922 335.756 968.965 335.757 969.003 335.774C969.041 335.791 969.07 335.822 969.085 335.861ZM966.875 336.779C966.906 336.85 966.986 336.88 967.047 336.86L968.994 336.053C969.065 336.023 969.095 335.942 969.065 335.871C969.035 335.801 968.954 335.77 968.893 335.791L966.946 336.598C966.875 336.628 966.845 336.709 966.875 336.779V336.779Z" fill="white"/>
<path d="M967.652 335.366C967.683 335.447 967.642 335.528 967.562 335.558L966.674 335.851C966.603 335.881 966.512 335.831 966.492 335.76C966.462 335.679 966.502 335.599 966.583 335.568L967.471 335.276C967.541 335.245 967.622 335.286 967.652 335.366Z" fill="#F3F3F3"/>
<path d="M967.662 335.357C967.693 335.437 967.652 335.528 967.561 335.558L966.673 335.851C966.593 335.881 966.502 335.831 966.472 335.75C966.441 335.669 966.482 335.579 966.573 335.548L967.46 335.256C967.541 335.235 967.632 335.276 967.662 335.357L967.662 335.357ZM966.492 335.74C966.512 335.811 966.593 335.851 966.663 335.831L967.551 335.538C967.622 335.518 967.652 335.437 967.632 335.367C967.612 335.296 967.531 335.256 967.461 335.276L966.573 335.569C966.502 335.599 966.472 335.669 966.492 335.74Z" fill="white"/>
<path d="M968.561 334.166C968.581 334.247 968.53 334.327 968.45 334.337L966.381 334.741C966.3 334.761 966.23 334.701 966.21 334.62C966.189 334.539 966.24 334.458 966.32 334.448L968.389 334.045C968.47 334.035 968.551 334.085 968.561 334.166H968.561Z" fill="#F3F3F3"/>
<path d="M968.581 334.166C968.601 334.257 968.54 334.337 968.46 334.357L966.391 334.761C966.31 334.781 966.23 334.721 966.209 334.63C966.189 334.539 966.25 334.458 966.331 334.438L968.399 334.035C968.48 334.014 968.561 334.075 968.581 334.166ZM966.23 334.62C966.24 334.69 966.31 334.741 966.381 334.731L968.45 334.327C968.52 334.317 968.571 334.236 968.551 334.166C968.54 334.095 968.47 334.045 968.399 334.055L966.331 334.458C966.26 334.479 966.209 334.549 966.23 334.62V334.62Z" fill="white"/>
<path d="M967.269 333.389C967.279 333.469 967.229 333.54 967.148 333.55L966.22 333.661C966.139 333.671 966.068 333.611 966.058 333.53C966.048 333.449 966.098 333.379 966.179 333.368L967.108 333.257C967.178 333.247 967.259 333.308 967.269 333.389Z" fill="#F3F3F3"/>
<path d="M967.279 333.389C967.289 333.48 967.229 333.56 967.148 333.571L966.22 333.682C966.139 333.692 966.058 333.631 966.048 333.54C966.038 333.45 966.099 333.369 966.179 333.359L967.108 333.248C967.188 333.238 967.269 333.298 967.279 333.389L967.279 333.389ZM966.058 333.53C966.068 333.601 966.139 333.661 966.21 333.651L967.138 333.54C967.208 333.53 967.259 333.46 967.249 333.389C967.239 333.318 967.168 333.258 967.098 333.268L966.169 333.379C966.099 333.389 966.048 333.46 966.058 333.53Z" fill="white"/>
<path d="M968.399 332.41C968.399 332.491 968.339 332.562 968.258 332.562H966.149C966.068 332.562 966.008 332.491 966.008 332.41C966.008 332.33 966.068 332.259 966.149 332.259H968.258C968.339 332.259 968.399 332.33 968.399 332.41L968.399 332.41Z" fill="#F3F3F3"/>
<path d="M968.409 332.41C968.409 332.501 968.339 332.571 968.258 332.571H966.149C966.068 332.571 965.998 332.501 965.998 332.41C965.998 332.319 966.068 332.249 966.149 332.249H968.258C968.339 332.249 968.409 332.319 968.409 332.41ZM966.018 332.4C966.018 332.471 966.078 332.541 966.149 332.541H968.258C968.328 332.541 968.389 332.481 968.389 332.4C968.389 332.329 968.328 332.259 968.258 332.259H966.149C966.078 332.269 966.018 332.329 966.018 332.4H966.018Z" fill="white"/>
<path d="M967.279 331.391C967.269 331.471 967.208 331.532 967.128 331.532L966.189 331.461C966.109 331.451 966.048 331.381 966.058 331.3C966.068 331.219 966.129 331.159 966.21 331.159L967.148 331.229C967.219 331.239 967.279 331.31 967.279 331.391Z" fill="#E2E2E2"/>
<path d="M967.289 331.391C967.279 331.482 967.208 331.542 967.128 331.542L966.189 331.472C966.108 331.462 966.038 331.391 966.048 331.3C966.058 331.21 966.129 331.149 966.209 331.149L967.148 331.22C967.229 331.23 967.289 331.31 967.289 331.391ZM966.058 331.3C966.048 331.371 966.108 331.442 966.179 331.442L967.118 331.512C967.188 331.512 967.249 331.462 967.259 331.381C967.269 331.31 967.208 331.24 967.138 331.24L966.199 331.169C966.129 331.169 966.068 331.23 966.058 331.3V331.3Z" fill="white"/>
<path d="M968.581 330.654C968.56 330.735 968.49 330.785 968.409 330.775L966.341 330.351C966.26 330.331 966.209 330.261 966.23 330.18C966.25 330.099 966.32 330.049 966.401 330.059L968.47 330.473C968.54 330.493 968.591 330.573 968.581 330.654Z" fill="#F3F3F3"/>
<path d="M968.591 330.654C968.571 330.745 968.49 330.795 968.409 330.785L966.341 330.372C966.26 330.351 966.199 330.271 966.22 330.18C966.24 330.089 966.32 330.039 966.401 330.049L968.47 330.462C968.551 330.483 968.601 330.563 968.591 330.654ZM966.24 330.18C966.23 330.25 966.27 330.321 966.341 330.341L968.409 330.755C968.48 330.765 968.551 330.725 968.571 330.644C968.581 330.573 968.54 330.503 968.47 330.482L966.401 330.069C966.321 330.059 966.26 330.109 966.24 330.18H966.24Z" fill="white"/>
<path d="M967.673 329.444C967.668 329.463 967.66 329.481 967.648 329.497C967.637 329.513 967.622 329.526 967.605 329.537C967.588 329.547 967.569 329.554 967.55 329.557C967.53 329.56 967.51 329.559 967.491 329.554L966.583 329.302C966.502 329.282 966.462 329.201 966.482 329.121C966.487 329.101 966.495 329.083 966.507 329.067C966.518 329.051 966.533 329.038 966.55 329.027C966.567 329.017 966.585 329.01 966.605 329.007C966.625 329.004 966.644 329.005 966.664 329.01L967.572 329.262C967.653 329.282 967.693 329.363 967.673 329.443V329.444Z" fill="#F3F3F3"/>
<path d="M967.683 329.443C967.663 329.524 967.572 329.584 967.491 329.554L966.583 329.302C966.502 329.282 966.452 329.191 966.472 329.11C966.492 329.029 966.583 328.969 966.664 328.999L967.572 329.251C967.652 329.272 967.703 329.352 967.683 329.443V329.443ZM966.502 329.11C966.482 329.181 966.522 329.261 966.593 329.282L967.501 329.534C967.572 329.554 967.642 329.514 967.663 329.433C967.683 329.362 967.642 329.282 967.572 329.261L966.664 329.009C966.593 328.999 966.522 329.039 966.502 329.11V329.11Z" fill="white"/>
<path d="M969.095 328.959C969.065 329.04 968.974 329.07 968.904 329.04L966.956 328.233C966.885 328.202 966.845 328.112 966.875 328.041C966.906 327.96 966.996 327.93 967.067 327.96L969.015 328.767C969.095 328.798 969.126 328.889 969.095 328.959V328.959Z" fill="#F3F3F3"/>
<path d="M969.105 328.969C969.091 329.008 969.061 329.039 969.023 329.056C968.985 329.073 968.942 329.075 968.904 329.06L966.956 328.253C966.875 328.223 966.845 328.132 966.875 328.041C966.89 328.002 966.92 327.971 966.958 327.954C966.995 327.937 967.038 327.935 967.077 327.95L969.025 328.757C969.105 328.798 969.136 328.889 969.105 328.969ZM966.896 328.051C966.865 328.122 966.896 328.202 966.966 328.233L968.914 329.04C968.984 329.07 969.055 329.03 969.085 328.959C969.115 328.888 969.085 328.808 969.015 328.777L967.067 327.97C966.997 327.95 966.916 327.98 966.896 328.051Z" fill="white"/>
<path d="M968.44 327.597C968.399 327.667 968.318 327.698 968.248 327.667L967.41 327.244C967.34 327.213 967.309 327.123 967.35 327.042C967.39 326.971 967.471 326.941 967.541 326.971L968.379 327.395C968.45 327.435 968.48 327.526 968.44 327.597Z" fill="#F3F3F3"/>
<path d="M968.45 327.607C968.409 327.688 968.319 327.718 968.238 327.678L967.4 327.254C967.32 327.214 967.289 327.123 967.33 327.042C967.37 326.961 967.461 326.931 967.542 326.971L968.379 327.395C968.46 327.425 968.49 327.527 968.45 327.607ZM967.36 327.052C967.33 327.123 967.35 327.204 967.421 327.234L968.258 327.658C968.319 327.688 968.399 327.658 968.44 327.597C968.47 327.526 968.45 327.446 968.379 327.415L967.531 326.992C967.471 326.962 967.39 326.982 967.36 327.052L967.36 327.052Z" fill="white"/>
<path d="M969.923 327.405C969.872 327.476 969.792 327.496 969.721 327.445L967.975 326.285C967.905 326.245 967.895 326.154 967.935 326.083C967.975 326.012 968.066 325.992 968.137 326.043L969.892 327.213C969.953 327.254 969.973 327.344 969.923 327.405Z" fill="#F3F3F3"/>
<path d="M969.933 327.415C969.882 327.486 969.781 327.506 969.711 327.465L967.965 326.295C967.895 326.245 967.874 326.154 967.925 326.073C967.975 326.002 968.076 325.982 968.147 326.023L969.892 327.193C969.973 327.244 969.983 327.344 969.933 327.415ZM967.945 326.083C967.905 326.144 967.915 326.234 967.975 326.275L969.731 327.445C969.791 327.486 969.872 327.466 969.913 327.405C969.953 327.344 969.943 327.254 969.882 327.213L968.126 326.043C968.066 326.002 967.985 326.023 967.945 326.083H967.945Z" fill="white"/>
<path d="M969.549 325.942C969.499 326.002 969.408 326.023 969.348 325.972L968.611 325.397C968.55 325.346 968.54 325.256 968.591 325.195C968.641 325.135 968.732 325.114 968.793 325.165L969.529 325.74C969.59 325.79 969.6 325.881 969.549 325.942Z" fill="#F3F3F3"/>
<path d="M969.56 325.952C969.509 326.023 969.408 326.033 969.338 325.982L968.601 325.407C968.53 325.357 968.52 325.256 968.571 325.185C968.621 325.115 968.722 325.105 968.793 325.155L969.529 325.73C969.6 325.781 969.61 325.882 969.56 325.952V325.952ZM968.591 325.195C968.54 325.256 968.551 325.337 968.611 325.387L969.348 325.962C969.408 326.003 969.489 325.992 969.539 325.932C969.59 325.871 969.58 325.791 969.519 325.74L968.783 325.165C968.722 325.125 968.641 325.135 968.591 325.195H968.591Z" fill="white"/>
<path d="M971.053 326.043C970.992 326.104 970.901 326.104 970.851 326.043L969.348 324.56C969.287 324.499 969.297 324.408 969.348 324.358C969.408 324.297 969.499 324.297 969.549 324.358L971.043 325.841C971.103 325.892 971.103 325.993 971.053 326.043L971.053 326.043Z" fill="#F3F3F3"/>
<path d="M971.053 326.053C971.023 326.082 970.984 326.099 970.942 326.099C970.901 326.099 970.861 326.082 970.831 326.053L969.338 324.57C969.308 324.54 969.292 324.5 969.292 324.459C969.292 324.417 969.308 324.377 969.338 324.348C969.367 324.319 969.407 324.302 969.449 324.302C969.49 324.302 969.53 324.319 969.56 324.348L971.053 325.831C971.124 325.892 971.124 325.992 971.053 326.053V326.053ZM969.358 324.368C969.307 324.418 969.307 324.509 969.358 324.56L970.851 326.043C970.902 326.093 970.993 326.093 971.043 326.043C971.094 325.992 971.094 325.902 971.043 325.851L969.55 324.358C969.499 324.307 969.418 324.307 969.358 324.368V324.368Z" fill="white"/>
<path d="M970.962 324.539C970.902 324.59 970.811 324.59 970.76 324.529L970.145 323.823C970.094 323.762 970.104 323.672 970.165 323.621C970.225 323.571 970.316 323.571 970.367 323.631L970.982 324.338C971.033 324.388 971.023 324.479 970.962 324.539Z" fill="#F3F3F3"/>
<path d="M970.972 324.539C970.902 324.6 970.811 324.59 970.75 324.529L970.135 323.823C970.074 323.762 970.084 323.661 970.155 323.601C970.226 323.54 970.316 323.55 970.377 323.611L970.992 324.317C971.043 324.388 971.043 324.489 970.972 324.539ZM970.165 323.621C970.104 323.671 970.104 323.752 970.145 323.813L970.76 324.519C970.811 324.569 970.892 324.58 970.952 324.529C971.013 324.479 971.013 324.398 970.972 324.337L970.357 323.631C970.306 323.571 970.225 323.571 970.165 323.621Z" fill="white"/>
<path d="M972.415 324.923C972.345 324.973 972.254 324.953 972.213 324.882L971.033 323.136C970.992 323.066 971.013 322.975 971.073 322.935C971.144 322.884 971.235 322.905 971.275 322.975L972.445 324.721C972.496 324.791 972.476 324.882 972.415 324.923V324.923Z" fill="#F3F3F3"/>
<path d="M972.415 324.933C972.345 324.983 972.244 324.963 972.193 324.893L971.023 323.147C970.972 323.076 970.993 322.975 971.073 322.925C971.144 322.875 971.245 322.895 971.295 322.965L972.466 324.711C972.516 324.792 972.496 324.883 972.415 324.933ZM971.083 322.945C971.023 322.985 971.002 323.066 971.043 323.127L972.213 324.872C972.254 324.933 972.334 324.943 972.405 324.903C972.465 324.862 972.486 324.782 972.445 324.721L971.275 322.985C971.235 322.925 971.144 322.905 971.083 322.945H971.083Z" fill="white"/>
<path d="M972.627 323.43C972.557 323.47 972.466 323.45 972.425 323.379L971.961 322.562C971.921 322.491 971.951 322.4 972.022 322.36C972.092 322.32 972.183 322.34 972.224 322.41L972.688 323.228C972.718 323.298 972.698 323.389 972.627 323.43H972.627Z" fill="#F3F3F3"/>
<path d="M972.627 323.44C972.546 323.48 972.455 323.46 972.415 323.389L971.951 322.572C971.91 322.501 971.931 322.4 972.011 322.36C972.092 322.32 972.183 322.34 972.223 322.41L972.687 323.228C972.728 323.298 972.708 323.389 972.627 323.44H972.627ZM972.022 322.37C971.961 322.41 971.931 322.491 971.971 322.552L972.435 323.369C972.476 323.429 972.556 323.45 972.617 323.419C972.677 323.379 972.708 323.298 972.667 323.238L972.203 322.42C972.173 322.36 972.082 322.33 972.022 322.37Z" fill="white"/>
<path d="M973.969 324.095C973.888 324.125 973.807 324.095 973.777 324.025L972.96 322.077C972.93 322.006 972.97 321.916 973.041 321.885C973.121 321.855 973.202 321.885 973.232 321.956L974.05 323.903C974.08 323.974 974.04 324.065 973.969 324.095V324.095Z" fill="#F3F3F3"/>
<path d="M973.969 324.105C973.889 324.136 973.798 324.105 973.757 324.025L972.94 322.077C972.925 322.038 972.927 321.995 972.944 321.957C972.961 321.92 972.992 321.89 973.031 321.875C973.112 321.845 973.202 321.875 973.243 321.956L974.06 323.903C974.09 323.974 974.05 324.065 973.969 324.105H973.969ZM973.051 321.895C972.98 321.926 972.95 322.006 972.98 322.067L973.798 324.014C973.828 324.085 973.909 324.115 973.979 324.085C974.05 324.055 974.08 323.974 974.05 323.913L973.233 321.966C973.192 321.895 973.122 321.865 973.051 321.895L973.051 321.895Z" fill="white"/>
<path d="M974.463 322.663C974.383 322.693 974.302 322.652 974.272 322.572L973.979 321.684C973.949 321.613 973.999 321.522 974.07 321.502C974.14 321.482 974.231 321.512 974.261 321.593L974.554 322.481C974.584 322.552 974.544 322.632 974.463 322.662V322.663Z" fill="#F3F3F3"/>
<path d="M974.474 322.673C974.435 322.687 974.392 322.686 974.354 322.669C974.316 322.652 974.287 322.62 974.272 322.582L973.979 321.694C973.949 321.613 973.999 321.522 974.08 321.492C974.119 321.477 974.162 321.479 974.2 321.496C974.238 321.513 974.267 321.544 974.282 321.583L974.575 322.471C974.595 322.552 974.554 322.642 974.474 322.673ZM974.08 321.512C974.01 321.532 973.969 321.613 973.989 321.684L974.282 322.572C974.302 322.642 974.383 322.673 974.454 322.652C974.524 322.632 974.564 322.552 974.544 322.481L974.252 321.593C974.247 321.576 974.238 321.56 974.226 321.546C974.214 321.533 974.2 321.522 974.184 321.514C974.168 321.507 974.15 321.502 974.132 321.502C974.114 321.502 974.097 321.505 974.08 321.512V321.512Z" fill="white"/>
<path d="M975.654 323.581C975.573 323.601 975.493 323.55 975.483 323.47L975.059 321.401C975.039 321.32 975.099 321.25 975.18 321.23C975.261 321.209 975.341 321.26 975.351 321.341L975.775 323.409C975.785 323.48 975.735 323.56 975.654 323.581Z" fill="#F3F3F3"/>
<path d="M975.654 323.591C975.563 323.611 975.483 323.55 975.462 323.469L975.039 321.401C975.018 321.32 975.079 321.229 975.16 321.219C975.251 321.199 975.331 321.26 975.351 321.34L975.775 323.409C975.795 323.49 975.745 323.57 975.654 323.591ZM975.18 321.239C975.109 321.25 975.059 321.32 975.069 321.401L975.493 323.47C975.503 323.54 975.583 323.591 975.654 323.57C975.725 323.56 975.775 323.49 975.765 323.409L975.341 321.34C975.321 321.27 975.251 321.229 975.18 321.239H975.18Z" fill="white"/>
<path d="M976.421 322.269C976.34 322.279 976.27 322.228 976.25 322.148L976.129 321.219C976.118 321.139 976.179 321.068 976.26 321.058C976.34 321.048 976.411 321.098 976.431 321.179L976.552 322.107C976.562 322.188 976.502 322.259 976.421 322.269Z" fill="#F3F3F3"/>
<path d="M976.421 322.279C976.33 322.289 976.25 322.229 976.24 322.148L976.119 321.22C976.108 321.139 976.169 321.058 976.26 321.048C976.351 321.038 976.431 321.098 976.441 321.179L976.562 322.107C976.573 322.188 976.512 322.269 976.421 322.279ZM976.27 321.068C976.199 321.078 976.139 321.149 976.149 321.22L976.27 322.148C976.28 322.219 976.351 322.269 976.421 322.259C976.492 322.249 976.552 322.178 976.542 322.107L976.421 321.179C976.411 321.109 976.34 321.058 976.27 321.068Z" fill="white"/>
<path d="M977.511 344.378C984.109 344.378 989.458 339.029 989.458 332.43C989.458 325.832 984.109 320.483 977.511 320.483C970.913 320.483 965.564 325.832 965.564 332.43C965.564 339.029 970.913 344.378 977.511 344.378Z" fill="url(#paint2_linear_1_6881)" fill-opacity="0.2"/>
<path d="M985.785 324.852L976.149 331.028H976.139V331.038L976.128 331.048L970.115 340.967L978.954 333.853L978.964 333.843V333.833L985.785 324.852L985.785 324.852Z" fill="black" fill-opacity="0.05"/>
<path d="M985.604 324.277L976.078 331.048L978.903 333.853L985.604 324.277Z" fill="#CD151E"/>
<path d="M976.088 331.028L977.511 332.43L985.604 324.277L976.088 331.028Z" fill="#FA5153"/>
<path d="M976.088 331.027L978.914 333.833L969.388 340.603L976.088 331.027V331.027Z" fill="#ACACAC"/>
<path d="M969.388 340.603L977.511 332.43L976.088 331.027L969.388 340.603Z" fill="#EEEEEE"/>
</g>
<g filter="url(#filter12_d_1_6881)">
<rect x="791" y="145" width="86.0036" height="86.0036" rx="24.0071" fill="white"/>
</g>
<g filter="url(#filter13_d_1_6881)">
<rect x="797.332" y="151.332" width="86.0036" height="86.0036" rx="24.0071" fill="white"/>
</g>
<g filter="url(#filter14_d_1_6881)">
<rect x="803.663" y="157.663" width="86.0036" height="86.0036" rx="24.0071" fill="white"/>
<path d="M862.42 199.164C864.491 199.164 866.171 197.485 866.171 195.414C866.171 193.342 864.491 191.663 862.42 191.663C860.348 191.663 858.668 193.342 858.668 195.414V199.164H862.42ZM851.916 199.164C853.988 199.164 855.668 197.485 855.668 195.413V184.911C855.668 182.839 853.988 181.16 851.916 181.16C849.845 181.16 848.165 182.839 848.165 184.911V195.413C848.165 197.485 849.845 199.164 851.916 199.164Z" fill="#2EB67D"/>
<path d="M830.91 202.165C828.838 202.165 827.159 203.845 827.159 205.916C827.159 207.988 828.838 209.667 830.91 209.667C832.982 209.667 834.661 207.987 834.661 205.916V202.165H830.91ZM841.413 202.165C839.342 202.165 837.662 203.845 837.662 205.916V216.419C837.662 218.49 839.342 220.17 841.413 220.17C843.485 220.17 845.164 218.49 845.164 216.419V205.916C845.164 203.845 843.485 202.165 841.413 202.165Z" fill="#E01E5A"/>
<path d="M848.165 216.42C848.165 218.491 849.845 220.17 851.916 220.17C853.988 220.17 855.667 218.491 855.667 216.419C855.667 214.348 853.988 212.668 851.916 212.668L848.165 212.668L848.165 216.42ZM848.165 205.916C848.165 207.988 849.845 209.667 851.917 209.667L862.419 209.667C864.491 209.667 866.17 207.988 866.17 205.916C866.17 203.844 864.491 202.165 862.419 202.165L851.917 202.165C849.845 202.165 848.165 203.844 848.165 205.916Z" fill="#ECB22E"/>
<path d="M845.164 184.91C845.164 182.838 843.485 181.159 841.413 181.159C839.342 181.159 837.662 182.839 837.662 184.91C837.662 186.982 839.342 188.661 841.413 188.661L845.164 188.661L845.164 184.91ZM845.164 195.413C845.164 193.342 843.484 191.662 841.413 191.662L830.91 191.662C828.839 191.662 827.159 193.342 827.159 195.413C827.159 197.485 828.839 199.165 830.91 199.165L841.413 199.165C843.484 199.165 845.164 197.485 845.164 195.413Z" fill="#36C5F0"/>
</g>
<g filter="url(#filter15_d_1_6881)">
<rect x="811.663" y="165.663" width="86.0036" height="86.0036" rx="24.0071" fill="white"/>
<path d="M870.42 207.164C872.491 207.164 874.171 205.485 874.171 203.414C874.171 201.342 872.491 199.663 870.42 199.663C868.348 199.663 866.668 201.342 866.668 203.414V207.164H870.42ZM859.916 207.164C861.988 207.164 863.668 205.485 863.668 203.413V192.911C863.668 190.839 861.988 189.16 859.916 189.16C857.845 189.16 856.165 190.839 856.165 192.911V203.413C856.165 205.485 857.845 207.164 859.916 207.164Z" fill="#2EB67D"/>
<path d="M838.91 210.165C836.838 210.165 835.159 211.845 835.159 213.916C835.159 215.988 836.838 217.667 838.91 217.667C840.982 217.667 842.661 215.987 842.661 213.916V210.165H838.91ZM849.413 210.165C847.342 210.165 845.662 211.845 845.662 213.916V224.419C845.662 226.49 847.342 228.17 849.413 228.17C851.485 228.17 853.164 226.49 853.164 224.419V213.916C853.164 211.845 851.485 210.165 849.413 210.165Z" fill="#E01E5A"/>
<path d="M856.165 224.42C856.165 226.491 857.845 228.17 859.916 228.17C861.988 228.17 863.667 226.491 863.667 224.419C863.667 222.348 861.988 220.668 859.916 220.668L856.165 220.668L856.165 224.42ZM856.165 213.916C856.165 215.988 857.845 217.667 859.917 217.667L870.419 217.667C872.491 217.667 874.17 215.988 874.17 213.916C874.17 211.844 872.491 210.165 870.419 210.165L859.917 210.165C857.845 210.165 856.165 211.844 856.165 213.916Z" fill="#ECB22E"/>
<path d="M853.164 192.91C853.164 190.838 851.485 189.159 849.413 189.159C847.342 189.159 845.662 190.839 845.662 192.91C845.662 194.982 847.342 196.661 849.413 196.661L853.164 196.661L853.164 192.91ZM853.164 203.413C853.164 201.342 851.484 199.662 849.413 199.662L838.91 199.662C836.839 199.662 835.159 201.342 835.159 203.413C835.159 205.485 836.839 207.165 838.91 207.165L849.413 207.165C851.484 207.165 853.164 205.485 853.164 203.413Z" fill="#36C5F0"/>
</g>
<g filter="url(#filter16_d_1_6881)">
<rect x="505" y="119" width="77.287" height="77.287" rx="21.574" fill="white"/>
</g>
<g filter="url(#filter17_d_1_6881)">
<rect x="510.69" y="124.69" width="77.287" height="77.287" rx="21.574" fill="white"/>
<rect x="530.456" y="144.456" width="37.7545" height="37.7545" rx="4.26738" fill="url(#paint3_radial_1_6881)"/>
<rect x="530.456" y="144.456" width="37.7545" height="37.7545" rx="4.26738" fill="url(#paint4_radial_1_6881)"/>
<rect x="530.456" y="144.456" width="37.7545" height="37.7545" rx="4.26738" fill="url(#paint5_radial_1_6881)"/>
<path d="M558.772 155.917C558.772 157.034 557.866 157.94 556.749 157.94C555.632 157.94 554.727 157.034 554.727 155.917C554.727 154.8 555.632 153.895 556.749 153.895C557.866 153.895 558.772 154.8 558.772 155.917Z" fill="white"/>
<path fill-rule="evenodd" clip-rule="evenodd" d="M549.333 170.075C553.057 170.075 556.075 167.057 556.075 163.333C556.075 159.61 553.057 156.591 549.333 156.591C545.61 156.591 542.592 159.61 542.592 163.333C542.592 167.057 545.61 170.075 549.333 170.075ZM549.333 167.378C551.567 167.378 553.379 165.567 553.379 163.333C553.379 161.099 551.567 159.288 549.333 159.288C547.099 159.288 545.288 161.099 545.288 163.333C545.288 165.567 547.099 167.378 549.333 167.378Z" fill="white"/>
<path fill-rule="evenodd" clip-rule="evenodd" d="M535.85 162.794C535.85 158.263 535.85 155.998 536.731 154.267C537.507 152.745 538.745 151.507 540.267 150.731C541.998 149.85 544.263 149.85 548.794 149.85H549.873C554.404 149.85 556.669 149.85 558.4 150.731C559.922 151.507 561.16 152.745 561.935 154.267C562.817 155.998 562.817 158.263 562.817 162.794V163.873C562.817 168.404 562.817 170.669 561.935 172.4C561.16 173.922 559.922 175.16 558.4 175.935C556.669 176.817 554.404 176.817 549.873 176.817H548.794C544.263 176.817 541.998 176.817 540.267 175.935C538.745 175.16 537.507 173.922 536.731 172.4C535.85 170.669 535.85 168.404 535.85 163.873V162.794ZM548.794 152.546H549.873C552.183 152.546 553.753 152.548 554.967 152.648C556.149 152.744 556.754 152.919 557.175 153.134C558.19 153.651 559.015 154.476 559.533 155.491C559.747 155.913 559.923 156.518 560.019 157.7C560.118 158.914 560.12 160.484 560.12 162.794V163.873C560.12 166.183 560.118 167.753 560.019 168.967C559.923 170.149 559.747 170.754 559.533 171.175C559.015 172.19 558.19 173.015 557.175 173.532C556.754 173.747 556.149 173.922 554.967 174.019C553.753 174.118 552.183 174.12 549.873 174.12H548.794C546.484 174.12 544.914 174.118 543.7 174.019C542.518 173.922 541.913 173.747 541.491 173.532C540.476 173.015 539.651 172.19 539.134 171.175C538.919 170.754 538.744 170.149 538.648 168.967C538.549 167.753 538.546 166.183 538.546 163.873V162.794C538.546 160.484 538.549 158.914 538.648 157.7C538.744 156.518 538.919 155.913 539.134 155.491C539.651 154.476 540.476 153.651 541.491 153.134C541.913 152.919 542.518 152.744 543.7 152.648C544.914 152.548 546.484 152.546 548.794 152.546Z" fill="white"/>
</g>
<g filter="url(#filter18_d_1_6881)">
<rect x="330.444" y="130.444" width="50.5561" height="50.5561" rx="14.1123" fill="white"/>
<rect x="343.374" y="143.374" width="24.6965" height="24.6965" rx="12.3483" fill="#1275B1"/>
<path d="M352.739 150.158C352.739 150.982 352.025 151.651 351.144 151.651C350.262 151.651 349.548 150.982 349.548 150.158C349.548 149.334 350.262 148.666 351.144 148.666C352.025 148.666 352.739 149.334 352.739 150.158Z" fill="white"/>
<path d="M349.766 152.748H352.494V161.014H349.766V152.748Z" fill="white"/>
<path d="M356.886 152.748H354.158V161.014H356.886C356.886 161.014 356.886 158.411 356.886 156.784C356.886 155.808 357.219 154.827 358.55 154.827C360.054 154.827 360.044 156.105 360.037 157.095C360.028 158.389 360.05 159.71 360.05 161.014H362.778V156.651C362.755 153.865 362.029 152.582 359.641 152.582C358.223 152.582 357.344 153.226 356.886 153.808V152.748Z" fill="white"/>
</g>
<g filter="url(#filter19_d_1_6881)">
<rect x="267.93" y="269.931" width="94.139" height="94.139" rx="26.2781" fill="white"/>
</g>
<g filter="url(#filter20_d_1_6881)">
<rect x="274.861" y="276.861" width="94.139" height="94.139" rx="26.2781" fill="white"/>
<circle cx="321.93" cy="323.931" r="22.9933" fill="#1ED760"/>
<path d="M332.383 333.166C331.99 333.789 331.152 333.964 330.498 333.59C325.338 330.598 318.87 329.925 311.223 331.57C310.489 331.72 309.756 331.296 309.599 330.598C309.442 329.9 309.887 329.202 310.62 329.052C318.974 327.232 326.15 328.005 331.912 331.371C332.566 331.745 332.776 332.543 332.383 333.166ZM335.054 327.481C334.557 328.254 333.509 328.479 332.697 328.03C326.805 324.564 317.822 323.567 310.856 325.586C309.939 325.836 308.996 325.362 308.735 324.514C308.473 323.642 308.97 322.744 309.887 322.495C317.848 320.201 327.748 321.298 334.531 325.262C335.29 325.711 335.552 326.708 335.054 327.481ZM335.29 321.547C328.219 317.558 316.565 317.184 309.808 319.129C308.735 319.453 307.582 318.88 307.242 317.832C306.901 316.81 307.53 315.713 308.604 315.389C316.356 313.145 329.24 313.594 337.359 318.181C338.328 318.73 338.642 319.927 338.066 320.849C337.516 321.797 336.259 322.121 335.29 321.547Z" fill="white"/>
</g>
<g filter="url(#filter21_d_1_6881)">
<rect x="103" y="43" width="80.3378" height="80.3378" rx="22.4256" fill="white"/>
</g>
<g filter="url(#filter22_d_1_6881)">
<rect x="108.914" y="48.9146" width="80.3378" height="80.3378" rx="22.4256" fill="white"/>
</g>
<g filter="url(#filter23_d_1_6881)">
<rect x="114.829" y="54.8286" width="80.3378" height="80.3378" rx="22.4256" fill="white"/>
<path d="M135.718 86.5053C135.898 83.7318 138.128 81.5583 140.904 81.4208C144.924 81.2216 150.669 80.9814 154.998 80.9814C159.327 80.9814 165.072 81.2216 169.092 81.4208C171.867 81.5583 174.097 83.7318 174.277 86.5053C174.45 89.1625 174.62 92.432 174.62 94.9974C174.62 97.5628 174.45 100.832 174.277 103.49C174.097 106.263 171.867 108.437 169.092 108.574C165.072 108.773 159.327 109.013 154.998 109.013C150.669 109.013 144.924 108.773 140.904 108.574C138.128 108.437 135.898 106.263 135.718 103.49C135.545 100.832 135.375 97.5628 135.375 94.9974C135.375 92.432 135.545 89.1625 135.718 86.5053Z" fill="#FC0D1B"/>
<path d="M150.793 89.3911V100.604L162.006 94.9975L150.793 89.3911Z" fill="white"/>
</g>
<defs>
<filter id="filter0_d_1_6881" x="595" y="284" width="160.667" height="160.667" filterUnits="userSpaceOnUse" color-interpolation-filters="sRGB">
<feFlood flood-opacity="0" result="BackgroundImageFix"/>
<feColorMatrix in="SourceAlpha" type="matrix" values="0 0 0 0 0 0 0 0 0 0 0 0 0 0 0 0 0 0 127 0" result="hardAlpha"/>
<feOffset dx="4" dy="4"/>
<feGaussianBlur stdDeviation="13"/>
<feColorMatrix type="matrix" values="0 0 0 0 0.679167 0 0 0 0 0.270833 0 0 0 0 1 0 0 0 0.16 0"/>
<feBlend mode="normal" in2="BackgroundImageFix" result="effect1_dropShadow_1_6881"/>
<feBlend mode="normal" in="SourceGraphic" in2="effect1_dropShadow_1_6881" result="shape"/>
</filter>
<filter id="filter1_d_1_6881" x="603" y="292" width="160.667" height="160.667" filterUnits="userSpaceOnUse" color-interpolation-filters="sRGB">
<feFlood flood-opacity="0" result="BackgroundImageFix"/>
<feColorMatrix in="SourceAlpha" type="matrix" values="0 0 0 0 0 0 0 0 0 0 0 0 0 0 0 0 0 0 127 0" result="hardAlpha"/>
<feOffset dx="4" dy="4"/>
<feGaussianBlur stdDeviation="13"/>
<feColorMatrix type="matrix" values="0 0 0 0 0.679167 0 0 0 0 0.270833 0 0 0 0 1 0 0 0 0.16 0"/>
<feBlend mode="normal" in2="BackgroundImageFix" result="effect1_dropShadow_1_6881"/>
<feBlend mode="normal" in="SourceGraphic" in2="effect1_dropShadow_1_6881" result="shape"/>
</filter>
<filter id="filter2_d_1_6881" x="611" y="300" width="160.667" height="160.667" filterUnits="userSpaceOnUse" color-interpolation-filters="sRGB">
<feFlood flood-opacity="0" result="BackgroundImageFix"/>
<feColorMatrix in="SourceAlpha" type="matrix" values="0 0 0 0 0 0 0 0 0 0 0 0 0 0 0 0 0 0 127 0" result="hardAlpha"/>
<feOffset dx="4" dy="4"/>
<feGaussianBlur stdDeviation="13"/>
<feColorMatrix type="matrix" values="0 0 0 0 0.679167 0 0 0 0 0.270833 0 0 0 0 1 0 0 0 0.16 0"/>
<feBlend mode="normal" in2="BackgroundImageFix" result="effect1_dropShadow_1_6881"/>
<feBlend mode="normal" in="SourceGraphic" in2="effect1_dropShadow_1_6881" result="shape"/>
</filter>
<filter id="filter3_d_1_6881" x="1223.94" y="0.941175" width="117.278" height="117.278" filterUnits="userSpaceOnUse" color-interpolation-filters="sRGB">
<feFlood flood-opacity="0" result="BackgroundImageFix"/>
<feColorMatrix in="SourceAlpha" type="matrix" values="0 0 0 0 0 0 0 0 0 0 0 0 0 0 0 0 0 0 127 0" result="hardAlpha"/>
<feOffset dx="2.91979" dy="2.91979"/>
<feGaussianBlur stdDeviation="9.48931"/>
<feColorMatrix type="matrix" values="0 0 0 0 0.679167 0 0 0 0 0.270833 0 0 0 0 1 0 0 0 0.16 0"/>
<feBlend mode="normal" in2="BackgroundImageFix" result="effect1_dropShadow_1_6881"/>
<feBlend mode="normal" in="SourceGraphic" in2="effect1_dropShadow_1_6881" result="shape"/>
</filter>
<filter id="filter4_d_1_6881" x="1229.78" y="6.78053" width="117.278" height="117.278" filterUnits="userSpaceOnUse" color-interpolation-filters="sRGB">
<feFlood flood-opacity="0" result="BackgroundImageFix"/>
<feColorMatrix in="SourceAlpha" type="matrix" values="0 0 0 0 0 0 0 0 0 0 0 0 0 0 0 0 0 0 127 0" result="hardAlpha"/>
<feOffset dx="2.91979" dy="2.91979"/>
<feGaussianBlur stdDeviation="9.48931"/>
<feColorMatrix type="matrix" values="0 0 0 0 0.679167 0 0 0 0 0.270833 0 0 0 0 1 0 0 0 0.16 0"/>
<feBlend mode="normal" in2="BackgroundImageFix" result="effect1_dropShadow_1_6881"/>
<feBlend mode="normal" in="SourceGraphic" in2="effect1_dropShadow_1_6881" result="shape"/>
</filter>
<filter id="filter5_d_1_6881" x="1017.35" y="90.3529" width="85.0588" height="85.0587" filterUnits="userSpaceOnUse" color-interpolation-filters="sRGB">
<feFlood flood-opacity="0" result="BackgroundImageFix"/>
<feColorMatrix in="SourceAlpha" type="matrix" values="0 0 0 0 0 0 0 0 0 0 0 0 0 0 0 0 0 0 127 0" result="hardAlpha"/>
<feOffset dx="2.11765" dy="2.11765"/>
<feGaussianBlur stdDeviation="6.88235"/>
<feColorMatrix type="matrix" values="0 0 0 0 0.679167 0 0 0 0 0.270833 0 0 0 0 1 0 0 0 0.16 0"/>
<feBlend mode="normal" in2="BackgroundImageFix" result="effect1_dropShadow_1_6881"/>
<feBlend mode="normal" in="SourceGraphic" in2="effect1_dropShadow_1_6881" result="shape"/>
</filter>
<filter id="filter6_d_1_6881" x="1021.59" y="94.5883" width="85.0588" height="85.0587" filterUnits="userSpaceOnUse" color-interpolation-filters="sRGB">
<feFlood flood-opacity="0" result="BackgroundImageFix"/>
<feColorMatrix in="SourceAlpha" type="matrix" values="0 0 0 0 0 0 0 0 0 0 0 0 0 0 0 0 0 0 127 0" result="hardAlpha"/>
<feOffset dx="2.11765" dy="2.11765"/>
<feGaussianBlur stdDeviation="6.88235"/>
<feColorMatrix type="matrix" values="0 0 0 0 0.679167 0 0 0 0 0.270833 0 0 0 0 1 0 0 0 0.16 0"/>
<feBlend mode="normal" in2="BackgroundImageFix" result="effect1_dropShadow_1_6881"/>
<feBlend mode="normal" in="SourceGraphic" in2="effect1_dropShadow_1_6881" result="shape"/>
</filter>
<filter id="filter7_d_1_6881" x="1025.82" y="98.8236" width="85.0588" height="85.0587" filterUnits="userSpaceOnUse" color-interpolation-filters="sRGB">
<feFlood flood-opacity="0" result="BackgroundImageFix"/>
<feColorMatrix in="SourceAlpha" type="matrix" values="0 0 0 0 0 0 0 0 0 0 0 0 0 0 0 0 0 0 127 0" result="hardAlpha"/>
<feOffset dx="2.11765" dy="2.11765"/>
<feGaussianBlur stdDeviation="6.88235"/>
<feColorMatrix type="matrix" values="0 0 0 0 0.679167 0 0 0 0 0.270833 0 0 0 0 1 0 0 0 0.16 0"/>
<feBlend mode="normal" in2="BackgroundImageFix" result="effect1_dropShadow_1_6881"/>
<feBlend mode="normal" in="SourceGraphic" in2="effect1_dropShadow_1_6881" result="shape"/>
</filter>
<filter id="filter8_d_1_6881" x="1112.76" y="203.765" width="147.779" height="147.779" filterUnits="userSpaceOnUse" color-interpolation-filters="sRGB">
<feFlood flood-opacity="0" result="BackgroundImageFix"/>
<feColorMatrix in="SourceAlpha" type="matrix" values="0 0 0 0 0 0 0 0 0 0 0 0 0 0 0 0 0 0 127 0" result="hardAlpha"/>
<feOffset dx="3.67914" dy="3.67914"/>
<feGaussianBlur stdDeviation="11.9572"/>
<feColorMatrix type="matrix" values="0 0 0 0 0.679167 0 0 0 0 0.270833 0 0 0 0 1 0 0 0 0.16 0"/>
<feBlend mode="normal" in2="BackgroundImageFix" result="effect1_dropShadow_1_6881"/>
<feBlend mode="normal" in="SourceGraphic" in2="effect1_dropShadow_1_6881" result="shape"/>
</filter>
<filter id="filter9_d_1_6881" x="1120.12" y="211.123" width="147.779" height="147.779" filterUnits="userSpaceOnUse" color-interpolation-filters="sRGB">
<feFlood flood-opacity="0" result="BackgroundImageFix"/>
<feColorMatrix in="SourceAlpha" type="matrix" values="0 0 0 0 0 0 0 0 0 0 0 0 0 0 0 0 0 0 127 0" result="hardAlpha"/>
<feOffset dx="3.67914" dy="3.67914"/>
<feGaussianBlur stdDeviation="11.9572"/>
<feColorMatrix type="matrix" values="0 0 0 0 0.679167 0 0 0 0 0.270833 0 0 0 0 1 0 0 0 0.16 0"/>
<feBlend mode="normal" in2="BackgroundImageFix" result="effect1_dropShadow_1_6881"/>
<feBlend mode="normal" in="SourceGraphic" in2="effect1_dropShadow_1_6881" result="shape"/>
</filter>
<filter id="filter10_d_1_6881" x="1127.48" y="218.482" width="147.779" height="147.779" filterUnits="userSpaceOnUse" color-interpolation-filters="sRGB">
<feFlood flood-opacity="0" result="BackgroundImageFix"/>
<feColorMatrix in="SourceAlpha" type="matrix" values="0 0 0 0 0 0 0 0 0 0 0 0 0 0 0 0 0 0 127 0" result="hardAlpha"/>
<feOffset dx="3.67914" dy="3.67914"/>
<feGaussianBlur stdDeviation="11.9572"/>
<feColorMatrix type="matrix" values="0 0 0 0 0.679167 0 0 0 0 0.270833 0 0 0 0 1 0 0 0 0.16 0"/>
<feBlend mode="normal" in2="BackgroundImageFix" result="effect1_dropShadow_1_6881"/>
<feBlend mode="normal" in="SourceGraphic" in2="effect1_dropShadow_1_6881" result="shape"/>
</filter>
<filter id="filter11_d_1_6881" x="940.294" y="295.294" width="78.1854" height="78.1852" filterUnits="userSpaceOnUse" color-interpolation-filters="sRGB">
<feFlood flood-opacity="0" result="BackgroundImageFix"/>
<feColorMatrix in="SourceAlpha" type="matrix" values="0 0 0 0 0 0 0 0 0 0 0 0 0 0 0 0 0 0 127 0" result="hardAlpha"/>
<feOffset dx="1.94652" dy="1.94652"/>
<feGaussianBlur stdDeviation="6.3262"/>
<feColorMatrix type="matrix" values="0 0 0 0 0.679167 0 0 0 0 0.270833 0 0 0 0 1 0 0 0 0.16 0"/>
<feBlend mode="normal" in2="BackgroundImageFix" result="effect1_dropShadow_1_6881"/>
<feBlend mode="normal" in="SourceGraphic" in2="effect1_dropShadow_1_6881" result="shape"/>
</filter>
<filter id="filter12_d_1_6881" x="773.588" y="127.588" width="127.159" height="127.158" filterUnits="userSpaceOnUse" color-interpolation-filters="sRGB">
<feFlood flood-opacity="0" result="BackgroundImageFix"/>
<feColorMatrix in="SourceAlpha" type="matrix" values="0 0 0 0 0 0 0 0 0 0 0 0 0 0 0 0 0 0 127 0" result="hardAlpha"/>
<feOffset dx="3.16578" dy="3.16578"/>
<feGaussianBlur stdDeviation="10.2888"/>
<feColorMatrix type="matrix" values="0 0 0 0 0.679167 0 0 0 0 0.270833 0 0 0 0 1 0 0 0 0.16 0"/>
<feBlend mode="normal" in2="BackgroundImageFix" result="effect1_dropShadow_1_6881"/>
<feBlend mode="normal" in="SourceGraphic" in2="effect1_dropShadow_1_6881" result="shape"/>
</filter>
<filter id="filter13_d_1_6881" x="779.92" y="133.92" width="127.159" height="127.158" filterUnits="userSpaceOnUse" color-interpolation-filters="sRGB">
<feFlood flood-opacity="0" result="BackgroundImageFix"/>
<feColorMatrix in="SourceAlpha" type="matrix" values="0 0 0 0 0 0 0 0 0 0 0 0 0 0 0 0 0 0 127 0" result="hardAlpha"/>
<feOffset dx="3.16578" dy="3.16578"/>
<feGaussianBlur stdDeviation="10.2888"/>
<feColorMatrix type="matrix" values="0 0 0 0 0.679167 0 0 0 0 0.270833 0 0 0 0 1 0 0 0 0.16 0"/>
<feBlend mode="normal" in2="BackgroundImageFix" result="effect1_dropShadow_1_6881"/>
<feBlend mode="normal" in="SourceGraphic" in2="effect1_dropShadow_1_6881" result="shape"/>
</filter>
<filter id="filter14_d_1_6881" x="786.251" y="140.251" width="127.159" height="127.158" filterUnits="userSpaceOnUse" color-interpolation-filters="sRGB">
<feFlood flood-opacity="0" result="BackgroundImageFix"/>
<feColorMatrix in="SourceAlpha" type="matrix" values="0 0 0 0 0 0 0 0 0 0 0 0 0 0 0 0 0 0 127 0" result="hardAlpha"/>
<feOffset dx="3.16578" dy="3.16578"/>
<feGaussianBlur stdDeviation="10.2888"/>
<feColorMatrix type="matrix" values="0 0 0 0 0.679167 0 0 0 0 0.270833 0 0 0 0 1 0 0 0 0.16 0"/>
<feBlend mode="normal" in2="BackgroundImageFix" result="effect1_dropShadow_1_6881"/>
<feBlend mode="normal" in="SourceGraphic" in2="effect1_dropShadow_1_6881" result="shape"/>
</filter>
<filter id="filter15_d_1_6881" x="794.251" y="148.251" width="127.159" height="127.158" filterUnits="userSpaceOnUse" color-interpolation-filters="sRGB">
<feFlood flood-opacity="0" result="BackgroundImageFix"/>
<feColorMatrix in="SourceAlpha" type="matrix" values="0 0 0 0 0 0 0 0 0 0 0 0 0 0 0 0 0 0 127 0" result="hardAlpha"/>
<feOffset dx="3.16578" dy="3.16578"/>
<feGaussianBlur stdDeviation="10.2888"/>
<feColorMatrix type="matrix" values="0 0 0 0 0.679167 0 0 0 0 0.270833 0 0 0 0 1 0 0 0 0.16 0"/>
<feBlend mode="normal" in2="BackgroundImageFix" result="effect1_dropShadow_1_6881"/>
<feBlend mode="normal" in="SourceGraphic" in2="effect1_dropShadow_1_6881" result="shape"/>
</filter>
<filter id="filter16_d_1_6881" x="489.353" y="103.353" width="114.271" height="114.271" filterUnits="userSpaceOnUse" color-interpolation-filters="sRGB">
<feFlood flood-opacity="0" result="BackgroundImageFix"/>
<feColorMatrix in="SourceAlpha" type="matrix" values="0 0 0 0 0 0 0 0 0 0 0 0 0 0 0 0 0 0 127 0" result="hardAlpha"/>
<feOffset dx="2.84492" dy="2.84492"/>
<feGaussianBlur stdDeviation="9.24599"/>
<feColorMatrix type="matrix" values="0 0 0 0 0.679167 0 0 0 0 0.270833 0 0 0 0 1 0 0 0 0.16 0"/>
<feBlend mode="normal" in2="BackgroundImageFix" result="effect1_dropShadow_1_6881"/>
<feBlend mode="normal" in="SourceGraphic" in2="effect1_dropShadow_1_6881" result="shape"/>
</filter>
<filter id="filter17_d_1_6881" x="495.043" y="109.043" width="114.271" height="114.271" filterUnits="userSpaceOnUse" color-interpolation-filters="sRGB">
<feFlood flood-opacity="0" result="BackgroundImageFix"/>
<feColorMatrix in="SourceAlpha" type="matrix" values="0 0 0 0 0 0 0 0 0 0 0 0 0 0 0 0 0 0 127 0" result="hardAlpha"/>
<feOffset dx="2.84492" dy="2.84492"/>
<feGaussianBlur stdDeviation="9.24599"/>
<feColorMatrix type="matrix" values="0 0 0 0 0.679167 0 0 0 0 0.270833 0 0 0 0 1 0 0 0 0.16 0"/>
<feBlend mode="normal" in2="BackgroundImageFix" result="effect1_dropShadow_1_6881"/>
<feBlend mode="normal" in="SourceGraphic" in2="effect1_dropShadow_1_6881" result="shape"/>
</filter>
<filter id="filter18_d_1_6881" x="320.209" y="120.209" width="74.7487" height="74.7487" filterUnits="userSpaceOnUse" color-interpolation-filters="sRGB">
<feFlood flood-opacity="0" result="BackgroundImageFix"/>
<feColorMatrix in="SourceAlpha" type="matrix" values="0 0 0 0 0 0 0 0 0 0 0 0 0 0 0 0 0 0 127 0" result="hardAlpha"/>
<feOffset dx="1.86096" dy="1.86096"/>
<feGaussianBlur stdDeviation="6.04813"/>
<feColorMatrix type="matrix" values="0 0 0 0 0.679167 0 0 0 0 0.270833 0 0 0 0 1 0 0 0 0.16 0"/>
<feBlend mode="normal" in2="BackgroundImageFix" result="effect1_dropShadow_1_6881"/>
<feBlend mode="normal" in="SourceGraphic" in2="effect1_dropShadow_1_6881" result="shape"/>
</filter>
<filter id="filter19_d_1_6881" x="248.872" y="250.872" width="139.187" height="139.187" filterUnits="userSpaceOnUse" color-interpolation-filters="sRGB">
<feFlood flood-opacity="0" result="BackgroundImageFix"/>
<feColorMatrix in="SourceAlpha" type="matrix" values="0 0 0 0 0 0 0 0 0 0 0 0 0 0 0 0 0 0 127 0" result="hardAlpha"/>
<feOffset dx="3.46524" dy="3.46524"/>
<feGaussianBlur stdDeviation="11.262"/>
<feColorMatrix type="matrix" values="0 0 0 0 0.679167 0 0 0 0 0.270833 0 0 0 0 1 0 0 0 0.16 0"/>
<feBlend mode="normal" in2="BackgroundImageFix" result="effect1_dropShadow_1_6881"/>
<feBlend mode="normal" in="SourceGraphic" in2="effect1_dropShadow_1_6881" result="shape"/>
</filter>
<filter id="filter20_d_1_6881" x="255.802" y="257.803" width="139.187" height="139.187" filterUnits="userSpaceOnUse" color-interpolation-filters="sRGB">
<feFlood flood-opacity="0" result="BackgroundImageFix"/>
<feColorMatrix in="SourceAlpha" type="matrix" values="0 0 0 0 0 0 0 0 0 0 0 0 0 0 0 0 0 0 127 0" result="hardAlpha"/>
<feOffset dx="3.46524" dy="3.46524"/>
<feGaussianBlur stdDeviation="11.262"/>
<feColorMatrix type="matrix" values="0 0 0 0 0.679167 0 0 0 0 0.270833 0 0 0 0 1 0 0 0 0.16 0"/>
<feBlend mode="normal" in2="BackgroundImageFix" result="effect1_dropShadow_1_6881"/>
<feBlend mode="normal" in="SourceGraphic" in2="effect1_dropShadow_1_6881" result="shape"/>
</filter>
<filter id="filter21_d_1_6881" x="86.7353" y="26.7353" width="118.782" height="118.782" filterUnits="userSpaceOnUse" color-interpolation-filters="sRGB">
<feFlood flood-opacity="0" result="BackgroundImageFix"/>
<feColorMatrix in="SourceAlpha" type="matrix" values="0 0 0 0 0 0 0 0 0 0 0 0 0 0 0 0 0 0 127 0" result="hardAlpha"/>
<feOffset dx="2.95722" dy="2.95722"/>
<feGaussianBlur stdDeviation="9.61096"/>
<feColorMatrix type="matrix" values="0 0 0 0 0.679167 0 0 0 0 0.270833 0 0 0 0 1 0 0 0 0.16 0"/>
<feBlend mode="normal" in2="BackgroundImageFix" result="effect1_dropShadow_1_6881"/>
<feBlend mode="normal" in="SourceGraphic" in2="effect1_dropShadow_1_6881" result="shape"/>
</filter>
<filter id="filter22_d_1_6881" x="92.6495" y="32.6498" width="118.782" height="118.782" filterUnits="userSpaceOnUse" color-interpolation-filters="sRGB">
<feFlood flood-opacity="0" result="BackgroundImageFix"/>
<feColorMatrix in="SourceAlpha" type="matrix" values="0 0 0 0 0 0 0 0 0 0 0 0 0 0 0 0 0 0 127 0" result="hardAlpha"/>
<feOffset dx="2.95722" dy="2.95722"/>
<feGaussianBlur stdDeviation="9.61096"/>
<feColorMatrix type="matrix" values="0 0 0 0 0.679167 0 0 0 0 0.270833 0 0 0 0 1 0 0 0 0.16 0"/>
<feBlend mode="normal" in2="BackgroundImageFix" result="effect1_dropShadow_1_6881"/>
<feBlend mode="normal" in="SourceGraphic" in2="effect1_dropShadow_1_6881" result="shape"/>
</filter>
<filter id="filter23_d_1_6881" x="98.5642" y="38.5639" width="118.782" height="118.782" filterUnits="userSpaceOnUse" color-interpolation-filters="sRGB">
<feFlood flood-opacity="0" result="BackgroundImageFix"/>
<feColorMatrix in="SourceAlpha" type="matrix" values="0 0 0 0 0 0 0 0 0 0 0 0 0 0 0 0 0 0 127 0" result="hardAlpha"/>
<feOffset dx="2.95722" dy="2.95722"/>
<feGaussianBlur stdDeviation="9.61096"/>
<feColorMatrix type="matrix" values="0 0 0 0 0.679167 0 0 0 0 0.270833 0 0 0 0 1 0 0 0 0.16 0"/>
<feBlend mode="normal" in2="BackgroundImageFix" result="effect1_dropShadow_1_6881"/>
<feBlend mode="normal" in="SourceGraphic" in2="effect1_dropShadow_1_6881" result="shape"/>
</filter>
<linearGradient id="paint0_linear_1_6881" x1="977.44" y1="345.356" x2="977.44" y2="319.524" gradientUnits="userSpaceOnUse">
<stop offset="0.25" stop-color="#DBDBDA"/>
<stop offset="1" stop-color="white"/>
</linearGradient>
<radialGradient id="paint1_radial_1_6881" cx="0" cy="0" r="1" gradientUnits="userSpaceOnUse" gradientTransform="translate(979.119 329.816) scale(14.5834 14.5833)">
<stop stop-color="#2ABCE1"/>
<stop offset="0.11363" stop-color="#2ABBE1"/>
<stop offset="1" stop-color="#3375F8"/>
</radialGradient>
<linearGradient id="paint2_linear_1_6881" x1="977.284" y1="329.014" x2="971.708" y2="339.018" gradientUnits="userSpaceOnUse">
<stop stop-opacity="0"/>
<stop offset="1"/>
</linearGradient>
<radialGradient id="paint3_radial_1_6881" cx="0" cy="0" r="1" gradientUnits="userSpaceOnUse" gradientTransform="translate(543.94 172.772) rotate(-55.3758) scale(34.41)">
<stop stop-color="#B13589"/>
<stop offset="0.79309" stop-color="#C62F94"/>
<stop offset="1" stop-color="#8A3AC8"/>
</radialGradient>
<radialGradient id="paint4_radial_1_6881" cx="0" cy="0" r="1" gradientUnits="userSpaceOnUse" gradientTransform="translate(542.591 183.559) rotate(-65.1363) scale(30.4655)">
<stop stop-color="#E0E8B7"/>
<stop offset="0.444662" stop-color="#FB8A2E"/>
<stop offset="0.71474" stop-color="#E2425C"/>
<stop offset="1" stop-color="#E2425C" stop-opacity="0"/>
</radialGradient>
<radialGradient id="paint5_radial_1_6881" cx="0" cy="0" r="1" gradientUnits="userSpaceOnUse" gradientTransform="translate(528.434 145.804) rotate(-8.1301) scale(52.4394 11.2162)">
<stop offset="0.156701" stop-color="#406ADC"/>
<stop offset="0.467799" stop-color="#6A45BE"/>
<stop offset="1" stop-color="#6A45BE" stop-opacity="0"/>
</radialGradient>
</defs>
</svg>
