<svg width="1313" height="62" viewBox="0 0 1313 62" fill="none" xmlns="http://www.w3.org/2000/svg">
<rect width="1313" height="62" fill="#FCFCFD"/>
<circle cx="31" cy="31" r="7" fill="#FB5F5B"/>
<circle cx="52" cy="31" r="7" fill="#F3C86D"/>
<circle cx="73" cy="31" r="7" fill="#65CC75"/>
<line x1="165.5" y1="15" x2="165.5" y2="47" stroke="#D2D0DD"/>
<path d="M194.999 36V31.744L191.351 24.8H192.871L195.671 30.464L198.471 24.8H199.975L196.343 31.744V36H194.999ZM203.626 36.192C202.88 36.192 202.208 36.0213 201.61 35.68C201.013 35.3387 200.538 34.8587 200.186 34.24C199.845 33.6107 199.674 32.8747 199.674 32.032C199.674 31.1893 199.85 30.4587 200.202 29.84C200.554 29.2107 201.029 28.7253 201.626 28.384C202.234 28.0427 202.912 27.872 203.658 27.872C204.405 27.872 205.077 28.0427 205.674 28.384C206.272 28.7253 206.741 29.2107 207.082 29.84C207.434 30.4587 207.61 31.1893 207.61 32.032C207.61 32.8747 207.434 33.6107 207.082 34.24C206.73 34.8587 206.25 35.3387 205.642 35.68C205.045 36.0213 204.373 36.192 203.626 36.192ZM203.626 35.04C204.085 35.04 204.512 34.928 204.906 34.704C205.301 34.48 205.621 34.144 205.866 33.696C206.112 33.248 206.234 32.6933 206.234 32.032C206.234 31.3707 206.112 30.816 205.866 30.368C205.632 29.92 205.317 29.584 204.922 29.36C204.528 29.136 204.106 29.024 203.658 29.024C203.2 29.024 202.773 29.136 202.378 29.36C201.984 29.584 201.664 29.92 201.418 30.368C201.173 30.816 201.05 31.3707 201.05 32.032C201.05 32.6933 201.173 33.248 201.418 33.696C201.664 34.144 201.978 34.48 202.362 34.704C202.757 34.928 203.178 35.04 203.626 35.04ZM212.375 36.192C211.436 36.192 210.69 35.9093 210.135 35.344C209.58 34.768 209.303 33.888 209.303 32.704V28.064H210.647V32.56C210.647 34.2133 211.324 35.04 212.679 35.04C213.372 35.04 213.943 34.7947 214.391 34.304C214.85 33.8027 215.079 33.0933 215.079 32.176V28.064H216.423V36H215.207L215.111 34.576C214.866 35.0773 214.498 35.472 214.007 35.76C213.527 36.048 212.983 36.192 212.375 36.192ZM221.339 36V25.904H217.995V24.8H226.027V25.904H222.683V36H221.339ZM229.688 36.192C228.749 36.192 228.002 35.9093 227.448 35.344C226.893 34.768 226.616 33.888 226.616 32.704V28.064H227.96V32.56C227.96 34.2133 228.637 35.04 229.992 35.04C230.685 35.04 231.256 34.7947 231.704 34.304C232.162 33.8027 232.392 33.0933 232.392 32.176V28.064H233.736V36H232.52L232.424 34.576C232.178 35.0773 231.81 35.472 231.32 35.76C230.84 36.048 230.296 36.192 229.688 36.192ZM240.188 36.192C239.537 36.192 238.956 36.0587 238.444 35.792C237.942 35.5253 237.558 35.152 237.292 34.672L237.164 36H235.948V24.48H237.292V29.376C237.548 28.992 237.91 28.6453 238.38 28.336C238.86 28.0267 239.468 27.872 240.204 27.872C240.993 27.872 241.681 28.0533 242.268 28.416C242.854 28.7787 243.308 29.2747 243.628 29.904C243.958 30.5333 244.124 31.248 244.124 32.048C244.124 32.848 243.958 33.5627 243.628 34.192C243.308 34.8107 242.849 35.3013 242.252 35.664C241.665 36.016 240.977 36.192 240.188 36.192ZM240.044 35.024C240.577 35.024 241.046 34.9013 241.452 34.656C241.857 34.4 242.177 34.048 242.412 33.6C242.646 33.152 242.764 32.6293 242.764 32.032C242.764 31.4347 242.646 30.912 242.412 30.464C242.177 30.016 241.857 29.6693 241.452 29.424C241.046 29.168 240.577 29.04 240.044 29.04C239.51 29.04 239.041 29.168 238.636 29.424C238.23 29.6693 237.91 30.016 237.676 30.464C237.441 30.912 237.324 31.4347 237.324 32.032C237.324 32.6293 237.441 33.152 237.676 33.6C237.91 34.048 238.23 34.4 238.636 34.656C239.041 34.9013 239.51 35.024 240.044 35.024ZM249.563 36.192C248.805 36.192 248.133 36.0213 247.547 35.68C246.96 35.328 246.496 34.8427 246.155 34.224C245.824 33.6053 245.659 32.8747 245.659 32.032C245.659 31.2 245.824 30.4747 246.155 29.856C246.485 29.2267 246.944 28.7413 247.531 28.4C248.128 28.048 248.816 27.872 249.595 27.872C250.363 27.872 251.024 28.048 251.579 28.4C252.144 28.7413 252.576 29.1947 252.875 29.76C253.173 30.3253 253.323 30.9333 253.323 31.584C253.323 31.7013 253.317 31.8187 253.307 31.936C253.307 32.0533 253.307 32.1867 253.307 32.336H246.987C247.019 32.944 247.157 33.4507 247.403 33.856C247.659 34.2507 247.973 34.5493 248.347 34.752C248.731 34.9547 249.136 35.056 249.563 35.056C250.117 35.056 250.581 34.928 250.955 34.672C251.328 34.416 251.6 34.0693 251.771 33.632H253.099C252.885 34.368 252.475 34.9813 251.867 35.472C251.269 35.952 250.501 36.192 249.563 36.192ZM249.563 29.008C248.923 29.008 248.352 29.2053 247.851 29.6C247.36 29.984 247.077 30.5493 247.003 31.296H251.995C251.963 30.5813 251.717 30.0213 251.259 29.616C250.8 29.2107 250.235 29.008 249.563 29.008Z" fill="#6C6685"/>
<line x1="342.5" y1="15" x2="342.5" y2="47" stroke="#D2D0DD"/>
<path d="M372.752 36.192C371.931 36.192 371.216 36.0427 370.608 35.744C370 35.4453 369.531 35.0293 369.2 34.496C368.869 33.9627 368.704 33.344 368.704 32.64H370.112C370.112 33.0773 370.213 33.4827 370.416 33.856C370.619 34.2187 370.912 34.512 371.296 34.736C371.691 34.9493 372.176 35.056 372.752 35.056C373.509 35.056 374.096 34.8747 374.512 34.512C374.928 34.1493 375.136 33.696 375.136 33.152C375.136 32.704 375.04 32.3467 374.848 32.08C374.656 31.8027 374.395 31.5787 374.064 31.408C373.744 31.2373 373.371 31.088 372.944 30.96C372.528 30.832 372.091 30.688 371.632 30.528C370.768 30.2293 370.128 29.8613 369.712 29.424C369.296 28.976 369.088 28.3947 369.088 27.68C369.077 27.0827 369.216 26.5547 369.504 26.096C369.792 25.6267 370.197 25.264 370.72 25.008C371.253 24.7413 371.883 24.608 372.608 24.608C373.323 24.608 373.941 24.7413 374.464 25.008C374.997 25.2747 375.408 25.6427 375.696 26.112C375.995 26.5813 376.149 27.1147 376.16 27.712H374.752C374.752 27.4027 374.672 27.0987 374.512 26.8C374.352 26.4907 374.107 26.24 373.776 26.048C373.456 25.856 373.051 25.76 372.56 25.76C371.952 25.7493 371.451 25.904 371.056 26.224C370.672 26.544 370.48 26.9867 370.48 27.552C370.48 28.032 370.613 28.4 370.88 28.656C371.157 28.912 371.541 29.1253 372.032 29.296C372.523 29.456 373.088 29.6427 373.728 29.856C374.261 30.048 374.741 30.272 375.168 30.528C375.595 30.784 375.925 31.1147 376.16 31.52C376.405 31.9253 376.528 32.4427 376.528 33.072C376.528 33.6053 376.389 34.112 376.112 34.592C375.835 35.0613 375.413 35.4453 374.848 35.744C374.293 36.0427 373.595 36.192 372.752 36.192ZM378.354 39.52V28.064H379.57L379.698 29.376C379.954 28.992 380.317 28.6453 380.786 28.336C381.266 28.0267 381.874 27.872 382.61 27.872C383.399 27.872 384.087 28.0533 384.674 28.416C385.261 28.7787 385.714 29.2747 386.034 29.904C386.365 30.5333 386.53 31.248 386.53 32.048C386.53 32.848 386.365 33.5627 386.034 34.192C385.714 34.8107 385.255 35.3013 384.658 35.664C384.071 36.016 383.383 36.192 382.594 36.192C381.943 36.192 381.362 36.0587 380.85 35.792C380.349 35.5253 379.965 35.152 379.698 34.672V39.52H378.354ZM382.45 35.024C382.983 35.024 383.453 34.9013 383.858 34.656C384.263 34.4 384.583 34.048 384.818 33.6C385.053 33.152 385.17 32.6293 385.17 32.032C385.17 31.4347 385.053 30.912 384.818 30.464C384.583 30.016 384.263 29.6693 383.858 29.424C383.453 29.168 382.983 29.04 382.45 29.04C381.917 29.04 381.447 29.168 381.042 29.424C380.637 29.6693 380.317 30.016 380.082 30.464C379.847 30.912 379.73 31.4347 379.73 32.032C379.73 32.6293 379.847 33.152 380.082 33.6C380.317 34.048 380.637 34.4 381.042 34.656C381.447 34.9013 381.917 35.024 382.45 35.024ZM392.017 36.192C391.27 36.192 390.598 36.0213 390.001 35.68C389.404 35.3387 388.929 34.8587 388.577 34.24C388.236 33.6107 388.065 32.8747 388.065 32.032C388.065 31.1893 388.241 30.4587 388.593 29.84C388.945 29.2107 389.42 28.7253 390.017 28.384C390.625 28.0427 391.302 27.872 392.049 27.872C392.796 27.872 393.468 28.0427 394.065 28.384C394.662 28.7253 395.132 29.2107 395.473 29.84C395.825 30.4587 396.001 31.1893 396.001 32.032C396.001 32.8747 395.825 33.6107 395.473 34.24C395.121 34.8587 394.641 35.3387 394.033 35.68C393.436 36.0213 392.764 36.192 392.017 36.192ZM392.017 35.04C392.476 35.04 392.902 34.928 393.297 34.704C393.692 34.48 394.012 34.144 394.257 33.696C394.502 33.248 394.625 32.6933 394.625 32.032C394.625 31.3707 394.502 30.816 394.257 30.368C394.022 29.92 393.708 29.584 393.313 29.36C392.918 29.136 392.497 29.024 392.049 29.024C391.59 29.024 391.164 29.136 390.769 29.36C390.374 29.584 390.054 29.92 389.809 30.368C389.564 30.816 389.441 31.3707 389.441 32.032C389.441 32.6933 389.564 33.248 389.809 33.696C390.054 34.144 390.369 34.48 390.753 34.704C391.148 34.928 391.569 35.04 392.017 35.04ZM400.693 36C399.968 36 399.397 35.824 398.981 35.472C398.565 35.12 398.357 34.4853 398.357 33.568V29.2H396.981V28.064H398.357L398.533 26.16H399.701V28.064H402.037V29.2H399.701V33.568C399.701 34.0693 399.802 34.4107 400.005 34.592C400.208 34.7627 400.565 34.848 401.077 34.848H401.909V36H400.693ZM404.561 26.304C404.294 26.304 404.07 26.2187 403.889 26.048C403.718 25.8667 403.633 25.6427 403.633 25.376C403.633 25.12 403.718 24.9067 403.889 24.736C404.07 24.5653 404.294 24.48 404.561 24.48C404.817 24.48 405.035 24.5653 405.217 24.736C405.398 24.9067 405.489 25.12 405.489 25.376C405.489 25.6427 405.398 25.8667 405.217 26.048C405.035 26.2187 404.817 26.304 404.561 26.304ZM403.889 36V28.064H405.233V36H403.889ZM408.005 36V29.2H406.805V28.064H408.005V26.688C408.005 25.92 408.197 25.36 408.581 25.008C408.965 24.656 409.525 24.48 410.261 24.48H411.061V25.632H410.469C410.063 25.632 409.775 25.7173 409.605 25.888C409.434 26.048 409.349 26.3253 409.349 26.72V28.064H411.301V29.2H409.349V36H408.005ZM413.765 39.52L415.733 35.232H415.269L412.117 28.064H413.573L416.197 34.24L418.981 28.064H420.373L415.173 39.52H413.765Z" fill="#6C6685"/>
<line x1="489.5" y1="15" x2="489.5" y2="47" stroke="#D2D0DD"/>
<path d="M516.184 36V24.8H517.528V36H516.184ZM519.823 36V28.064H521.039L521.119 29.488C521.375 28.9867 521.743 28.592 522.223 28.304C522.703 28.016 523.247 27.872 523.855 27.872C524.793 27.872 525.54 28.16 526.095 28.736C526.66 29.3013 526.943 30.176 526.943 31.36V36H525.599V31.504C525.599 29.8507 524.916 29.024 523.551 29.024C522.868 29.024 522.297 29.2747 521.839 29.776C521.391 30.2667 521.167 30.9707 521.167 31.888V36H519.823ZM532.019 36.192C531.07 36.192 530.28 35.952 529.651 35.472C529.022 34.992 528.654 34.3413 528.547 33.52H529.923C530.008 33.936 530.227 34.2987 530.579 34.608C530.942 34.9067 531.427 35.056 532.035 35.056C532.6 35.056 533.016 34.9387 533.283 34.704C533.55 34.4587 533.683 34.1707 533.683 33.84C533.683 33.36 533.507 33.04 533.155 32.88C532.814 32.72 532.328 32.576 531.699 32.448C531.272 32.3627 530.846 32.24 530.419 32.08C529.992 31.92 529.635 31.696 529.347 31.408C529.059 31.1093 528.915 30.72 528.915 30.24C528.915 29.5467 529.171 28.9813 529.683 28.544C530.206 28.096 530.91 27.872 531.795 27.872C532.638 27.872 533.326 28.0853 533.859 28.512C534.403 28.928 534.718 29.5253 534.803 30.304H533.475C533.422 29.8987 533.246 29.584 532.947 29.36C532.659 29.1253 532.27 29.008 531.779 29.008C531.299 29.008 530.926 29.1093 530.659 29.312C530.403 29.5147 530.275 29.7813 530.275 30.112C530.275 30.432 530.44 30.6827 530.771 30.864C531.112 31.0453 531.571 31.2 532.147 31.328C532.638 31.4347 533.102 31.568 533.539 31.728C533.987 31.8773 534.35 32.1067 534.627 32.416C534.915 32.7147 535.059 33.152 535.059 33.728C535.07 34.4427 534.798 35.0347 534.243 35.504C533.699 35.9627 532.958 36.192 532.019 36.192ZM539.756 36C539.03 36 538.46 35.824 538.044 35.472C537.628 35.12 537.42 34.4853 537.42 33.568V29.2H536.044V28.064H537.42L537.596 26.16H538.764V28.064H541.1V29.2H538.764V33.568C538.764 34.0693 538.865 34.4107 539.068 34.592C539.27 34.7627 539.628 34.848 540.14 34.848H540.972V36H539.756ZM545.447 36.192C544.786 36.192 544.236 36.08 543.799 35.856C543.362 35.632 543.036 35.3333 542.823 34.96C542.61 34.5867 542.503 34.1813 542.503 33.744C542.503 32.9333 542.812 32.3093 543.431 31.872C544.05 31.4347 544.892 31.216 545.959 31.216H548.103V31.12C548.103 30.4267 547.922 29.904 547.559 29.552C547.196 29.1893 546.711 29.008 546.103 29.008C545.58 29.008 545.127 29.1413 544.743 29.408C544.37 29.664 544.135 30.0427 544.039 30.544H542.663C542.716 29.968 542.908 29.4827 543.239 29.088C543.58 28.6933 544.002 28.3947 544.503 28.192C545.004 27.9787 545.538 27.872 546.103 27.872C547.212 27.872 548.044 28.1707 548.599 28.768C549.164 29.3547 549.447 30.1387 549.447 31.12V36H548.247L548.167 34.576C547.943 35.024 547.612 35.408 547.175 35.728C546.748 36.0373 546.172 36.192 545.447 36.192ZM545.655 35.056C546.167 35.056 546.604 34.9227 546.967 34.656C547.34 34.3893 547.623 34.0427 547.815 33.616C548.007 33.1893 548.103 32.7413 548.103 32.272V32.256H546.071C545.282 32.256 544.722 32.3947 544.391 32.672C544.071 32.9387 543.911 33.2747 543.911 33.68C543.911 34.096 544.06 34.432 544.359 34.688C544.668 34.9333 545.1 35.056 545.655 35.056ZM554.599 33.504C554.151 33.504 553.741 33.4453 553.367 33.328L552.567 34.08C552.685 34.1653 552.829 34.24 552.999 34.304C553.181 34.3573 553.437 34.4107 553.767 34.464C554.098 34.5067 554.562 34.5547 555.159 34.608C556.226 34.6827 556.989 34.928 557.447 35.344C557.906 35.76 558.135 36.304 558.135 36.976C558.135 37.4347 558.007 37.872 557.751 38.288C557.506 38.704 557.122 39.0453 556.599 39.312C556.087 39.5787 555.426 39.712 554.615 39.712C553.901 39.712 553.266 39.616 552.711 39.424C552.157 39.2427 551.725 38.96 551.415 38.576C551.106 38.2027 550.951 37.728 550.951 37.152C550.951 36.8533 551.031 36.528 551.191 36.176C551.351 35.8347 551.65 35.5093 552.087 35.2C551.853 35.104 551.65 35.0027 551.479 34.896C551.319 34.7787 551.17 34.6507 551.031 34.512V34.144L552.391 32.8C551.762 32.2667 551.447 31.5627 551.447 30.688C551.447 30.1653 551.57 29.6907 551.815 29.264C552.061 28.8373 552.418 28.5013 552.887 28.256C553.357 28 553.927 27.872 554.599 27.872C555.058 27.872 555.474 27.936 555.847 28.064H558.775V29.072L557.287 29.136C557.597 29.584 557.751 30.1013 557.751 30.688C557.751 31.2107 557.623 31.6853 557.367 32.112C557.122 32.5387 556.765 32.88 556.295 33.136C555.837 33.3813 555.271 33.504 554.599 33.504ZM554.599 32.4C555.165 32.4 555.613 32.256 555.943 31.968C556.285 31.6693 556.455 31.2427 556.455 30.688C556.455 30.144 556.285 29.728 555.943 29.44C555.613 29.1413 555.165 28.992 554.599 28.992C554.023 28.992 553.565 29.1413 553.223 29.44C552.893 29.728 552.727 30.144 552.727 30.688C552.727 31.2427 552.893 31.6693 553.223 31.968C553.565 32.256 554.023 32.4 554.599 32.4ZM552.263 37.024C552.263 37.5573 552.487 37.952 552.935 38.208C553.383 38.4747 553.943 38.608 554.615 38.608C555.277 38.608 555.805 38.464 556.199 38.176C556.605 37.888 556.807 37.504 556.807 37.024C556.807 36.6827 556.669 36.384 556.391 36.128C556.114 35.8827 555.602 35.7387 554.855 35.696C554.269 35.6533 553.762 35.6 553.335 35.536C552.898 35.7707 552.61 36.0213 552.471 36.288C552.333 36.5653 552.263 36.8107 552.263 37.024ZM560.292 36V28.064H561.508L561.62 29.584C561.865 29.0613 562.238 28.6453 562.74 28.336C563.241 28.0267 563.86 27.872 564.596 27.872V29.28H564.228C563.758 29.28 563.326 29.3653 562.932 29.536C562.537 29.696 562.222 29.9733 561.988 30.368C561.753 30.7627 561.636 31.3067 561.636 32V36H560.292ZM568.744 36.192C568.083 36.192 567.533 36.08 567.096 35.856C566.659 35.632 566.333 35.3333 566.12 34.96C565.907 34.5867 565.8 34.1813 565.8 33.744C565.8 32.9333 566.109 32.3093 566.728 31.872C567.347 31.4347 568.189 31.216 569.256 31.216H571.4V31.12C571.4 30.4267 571.219 29.904 570.856 29.552C570.493 29.1893 570.008 29.008 569.4 29.008C568.877 29.008 568.424 29.1413 568.04 29.408C567.667 29.664 567.432 30.0427 567.336 30.544H565.96C566.013 29.968 566.205 29.4827 566.536 29.088C566.877 28.6933 567.299 28.3947 567.8 28.192C568.301 27.9787 568.835 27.872 569.4 27.872C570.509 27.872 571.341 28.1707 571.896 28.768C572.461 29.3547 572.744 30.1387 572.744 31.12V36H571.544L571.464 34.576C571.24 35.024 570.909 35.408 570.472 35.728C570.045 36.0373 569.469 36.192 568.744 36.192ZM568.952 35.056C569.464 35.056 569.901 34.9227 570.264 34.656C570.637 34.3893 570.92 34.0427 571.112 33.616C571.304 33.1893 571.4 32.7413 571.4 32.272V32.256H569.368C568.579 32.256 568.019 32.3947 567.688 32.672C567.368 32.9387 567.208 33.2747 567.208 33.68C567.208 34.096 567.357 34.432 567.656 34.688C567.965 34.9333 568.397 35.056 568.952 35.056ZM574.76 36V28.064H575.976L576.072 29.216C576.328 28.7893 576.67 28.4587 577.096 28.224C577.523 27.9893 578.003 27.872 578.536 27.872C579.166 27.872 579.704 28 580.152 28.256C580.611 28.512 580.963 28.9013 581.208 29.424C581.486 28.944 581.864 28.5653 582.344 28.288C582.835 28.0107 583.363 27.872 583.928 27.872C584.878 27.872 585.635 28.16 586.2 28.736C586.766 29.3013 587.048 30.176 587.048 31.36V36H585.72V31.504C585.72 30.6827 585.555 30.064 585.224 29.648C584.894 29.232 584.419 29.024 583.8 29.024C583.16 29.024 582.627 29.2747 582.2 29.776C581.784 30.2667 581.576 30.9707 581.576 31.888V36H580.232V31.504C580.232 30.6827 580.067 30.064 579.736 29.648C579.406 29.232 578.931 29.024 578.312 29.024C577.683 29.024 577.155 29.2747 576.728 29.776C576.312 30.2667 576.104 30.9707 576.104 31.888V36H574.76Z" fill="#6C6685"/>
<line x1="680.5" y1="15" x2="680.5" y2="47" stroke="#D2D0DD"/>
<path d="M707.184 36V24.8H710.8C711.675 24.8 712.389 24.944 712.944 25.232C713.499 25.52 713.909 25.9147 714.176 26.416C714.443 26.9173 714.576 27.472 714.576 28.08C714.576 28.784 714.384 29.4187 714 29.984C713.627 30.5493 713.04 30.9493 712.24 31.184L714.688 36H713.104L710.832 31.376H710.736H708.528V36H707.184ZM708.528 30.32H710.704C711.568 30.32 712.197 30.112 712.592 29.696C712.987 29.28 713.184 28.7467 713.184 28.096C713.184 27.4347 712.987 26.912 712.592 26.528C712.208 26.1333 711.573 25.936 710.688 25.936H708.528V30.32ZM719.672 36.192C718.915 36.192 718.243 36.0213 717.656 35.68C717.069 35.328 716.605 34.8427 716.264 34.224C715.933 33.6053 715.768 32.8747 715.768 32.032C715.768 31.2 715.933 30.4747 716.264 29.856C716.595 29.2267 717.053 28.7413 717.64 28.4C718.237 28.048 718.925 27.872 719.704 27.872C720.472 27.872 721.133 28.048 721.688 28.4C722.253 28.7413 722.685 29.1947 722.984 29.76C723.283 30.3253 723.432 30.9333 723.432 31.584C723.432 31.7013 723.427 31.8187 723.416 31.936C723.416 32.0533 723.416 32.1867 723.416 32.336H717.096C717.128 32.944 717.267 33.4507 717.512 33.856C717.768 34.2507 718.083 34.5493 718.456 34.752C718.84 34.9547 719.245 35.056 719.672 35.056C720.227 35.056 720.691 34.928 721.064 34.672C721.437 34.416 721.709 34.0693 721.88 33.632H723.208C722.995 34.368 722.584 34.9813 721.976 35.472C721.379 35.952 720.611 36.192 719.672 36.192ZM719.672 29.008C719.032 29.008 718.461 29.2053 717.96 29.6C717.469 29.984 717.187 30.5493 717.112 31.296H722.104C722.072 30.5813 721.827 30.0213 721.368 29.616C720.909 29.2107 720.344 29.008 719.672 29.008ZM728.813 36.192C728.024 36.192 727.331 36.0107 726.733 35.648C726.147 35.2853 725.688 34.7893 725.357 34.16C725.037 33.5307 724.877 32.816 724.877 32.016C724.877 31.216 725.043 30.5067 725.373 29.888C725.704 29.2587 726.163 28.768 726.749 28.416C727.336 28.0533 728.029 27.872 728.829 27.872C729.48 27.872 730.056 28.0053 730.557 28.272C731.059 28.5387 731.448 28.912 731.725 29.392V24.48H733.069V36H731.853L731.725 34.688C731.469 35.072 731.101 35.4187 730.621 35.728C730.141 36.0373 729.539 36.192 728.813 36.192ZM728.957 35.024C729.491 35.024 729.96 34.9013 730.365 34.656C730.781 34.4 731.101 34.048 731.325 33.6C731.56 33.152 731.677 32.6293 731.677 32.032C731.677 31.4347 731.56 30.912 731.325 30.464C731.101 30.016 730.781 29.6693 730.365 29.424C729.96 29.168 729.491 29.04 728.957 29.04C728.435 29.04 727.965 29.168 727.549 29.424C727.144 29.6693 726.824 30.016 726.589 30.464C726.365 30.912 726.253 31.4347 726.253 32.032C726.253 32.6293 726.365 33.152 726.589 33.6C726.824 34.048 727.144 34.4 727.549 34.656C727.965 34.9013 728.435 35.024 728.957 35.024ZM738.86 36.192C738.071 36.192 737.378 36.0107 736.78 35.648C736.194 35.2853 735.735 34.7893 735.404 34.16C735.084 33.5307 734.924 32.816 734.924 32.016C734.924 31.216 735.09 30.5067 735.42 29.888C735.751 29.2587 736.21 28.768 736.796 28.416C737.383 28.0533 738.076 27.872 738.876 27.872C739.527 27.872 740.103 28.0053 740.604 28.272C741.106 28.5387 741.495 28.912 741.772 29.392V24.48H743.116V36H741.9L741.772 34.688C741.516 35.072 741.148 35.4187 740.668 35.728C740.188 36.0373 739.586 36.192 738.86 36.192ZM739.004 35.024C739.538 35.024 740.007 34.9013 740.412 34.656C740.828 34.4 741.148 34.048 741.372 33.6C741.607 33.152 741.724 32.6293 741.724 32.032C741.724 31.4347 741.607 30.912 741.372 30.464C741.148 30.016 740.828 29.6693 740.412 29.424C740.007 29.168 739.538 29.04 739.004 29.04C738.482 29.04 738.012 29.168 737.596 29.424C737.191 29.6693 736.871 30.016 736.636 30.464C736.412 30.912 736.3 31.4347 736.3 32.032C736.3 32.6293 736.412 33.152 736.636 33.6C736.871 34.048 737.191 34.4 737.596 34.656C738.012 34.9013 738.482 35.024 739.004 35.024ZM746.123 26.304C745.856 26.304 745.632 26.2187 745.451 26.048C745.28 25.8667 745.195 25.6427 745.195 25.376C745.195 25.12 745.28 24.9067 745.451 24.736C745.632 24.5653 745.856 24.48 746.123 24.48C746.379 24.48 746.598 24.5653 746.779 24.736C746.96 24.9067 747.051 25.12 747.051 25.376C747.051 25.6427 746.96 25.8667 746.779 26.048C746.598 26.2187 746.379 26.304 746.123 26.304ZM745.451 36V28.064H746.795V36H745.451ZM752.271 36C751.546 36 750.975 35.824 750.559 35.472C750.143 35.12 749.935 34.4853 749.935 33.568V29.2H748.559V28.064H749.935L750.111 26.16H751.279V28.064H753.615V29.2H751.279V33.568C751.279 34.0693 751.381 34.4107 751.583 34.592C751.786 34.7627 752.143 34.848 752.655 34.848H753.487V36H752.271Z" fill="#6C6685"/>
<line x1="844.5" y1="15" x2="844.5" y2="47" stroke="#D2D0DD"/>
<path d="M873.808 36V25.904H870.464V24.8H878.496V25.904H875.152V36H873.808ZM880.813 36L878.493 28.064H879.837L881.517 34.288L883.373 28.064H884.893L886.765 34.288L888.429 28.064H889.789L887.469 36H886.093L884.141 29.456L882.189 36H880.813ZM892.092 26.304C891.825 26.304 891.601 26.2187 891.42 26.048C891.249 25.8667 891.164 25.6427 891.164 25.376C891.164 25.12 891.249 24.9067 891.42 24.736C891.601 24.5653 891.825 24.48 892.092 24.48C892.348 24.48 892.567 24.5653 892.748 24.736C892.929 24.9067 893.02 25.12 893.02 25.376C893.02 25.6427 892.929 25.8667 892.748 26.048C892.567 26.2187 892.348 26.304 892.092 26.304ZM891.42 36V28.064H892.764V36H891.42ZM898.24 36C897.515 36 896.944 35.824 896.528 35.472C896.112 35.12 895.904 34.4853 895.904 33.568V29.2H894.528V28.064H895.904L896.08 26.16H897.248V28.064H899.584V29.2H897.248V33.568C897.248 34.0693 897.349 34.4107 897.552 34.592C897.755 34.7627 898.112 34.848 898.624 34.848H899.456V36H898.24ZM904.428 36C903.702 36 903.132 35.824 902.716 35.472C902.3 35.12 902.092 34.4853 902.092 33.568V29.2H900.715V28.064H902.092L902.268 26.16H903.436V28.064H905.772V29.2H903.436V33.568C903.436 34.0693 903.537 34.4107 903.74 34.592C903.942 34.7627 904.3 34.848 904.812 34.848H905.644V36H904.428ZM910.828 36.192C910.071 36.192 909.399 36.0213 908.812 35.68C908.226 35.328 907.762 34.8427 907.42 34.224C907.09 33.6053 906.924 32.8747 906.924 32.032C906.924 31.2 907.09 30.4747 907.42 29.856C907.751 29.2267 908.21 28.7413 908.796 28.4C909.394 28.048 910.082 27.872 910.86 27.872C911.628 27.872 912.29 28.048 912.844 28.4C913.41 28.7413 913.842 29.1947 914.14 29.76C914.439 30.3253 914.588 30.9333 914.588 31.584C914.588 31.7013 914.583 31.8187 914.572 31.936C914.572 32.0533 914.572 32.1867 914.572 32.336H908.252C908.284 32.944 908.423 33.4507 908.668 33.856C908.924 34.2507 909.239 34.5493 909.612 34.752C909.996 34.9547 910.402 35.056 910.828 35.056C911.383 35.056 911.847 34.928 912.22 34.672C912.594 34.416 912.866 34.0693 913.036 33.632H914.364C914.151 34.368 913.74 34.9813 913.132 35.472C912.535 35.952 911.767 36.192 910.828 36.192ZM910.828 29.008C910.188 29.008 909.618 29.2053 909.116 29.6C908.626 29.984 908.343 30.5493 908.268 31.296H913.26C913.228 30.5813 912.983 30.0213 912.524 29.616C912.066 29.2107 911.5 29.008 910.828 29.008ZM916.37 36V28.064H917.586L917.698 29.584C917.943 29.0613 918.316 28.6453 918.818 28.336C919.319 28.0267 919.938 27.872 920.674 27.872V29.28H920.306C919.836 29.28 919.404 29.3653 919.01 29.536C918.615 29.696 918.3 29.9733 918.066 30.368C917.831 30.7627 917.714 31.3067 917.714 32V36H916.37Z" fill="#6C6685"/>
</svg>
