<svg width="21" height="20" viewBox="0 0 21 20" fill="none" xmlns="http://www.w3.org/2000/svg">
<path d="M10.6999 6.6665C8.85896 6.6665 7.36658 8.15889 7.36658 9.99984C7.36658 11.8408 8.85896 13.3332 10.6999 13.3332C12.5409 13.3332 14.0332 11.8408 14.0332 9.99984C14.0332 8.15889 12.5409 6.6665 10.6999 6.6665ZM10.6999 6.6665H18.3416M3.99158 5.04984L7.81658 11.6665M9.76658 18.2832L13.5832 11.6665M19.0332 9.99984C19.0332 14.6022 15.3023 18.3332 10.6999 18.3332C6.09754 18.3332 2.36658 14.6022 2.36658 9.99984C2.36658 5.39746 6.09754 1.6665 10.6999 1.6665C15.3023 1.6665 19.0332 5.39746 19.0332 9.99984Z" stroke="#544762" stroke-width="1.66667" stroke-linecap="round" stroke-linejoin="round"/>
</svg>
