<svg width="576" height="360" viewBox="0 0 576 360" fill="none" xmlns="http://www.w3.org/2000/svg">
<rect width="576" height="360" rx="24" fill="url(#paint0_linear_1_7012)"/>
<rect x="43" y="48" width="63.9333" height="42" rx="4.2" fill="url(#paint1_linear_1_7012)"/>
<g opacity="0.28" clip-path="url(#clip0_1_7012)">
<path d="M89.0016 69.3109C89.0016 68.1598 88.9063 67.3198 88.7 66.4487H75.2874V71.6442H83.1603C83.0016 72.9354 82.1445 74.8798 80.2397 76.1864L80.213 76.3604L84.4538 79.58L84.7476 79.6087C87.446 77.1665 89.0016 73.5731 89.0016 69.3109Z" fill="#05A8CD"/>
<path d="M75.2865 83C79.1436 83 82.3816 81.7555 84.7468 79.6089L80.2388 76.1865C79.0325 77.011 77.4134 77.5866 75.2865 77.5866C71.5087 77.5866 68.3024 75.1444 67.1595 71.7688L66.9919 71.7827L62.5823 75.1272L62.5246 75.2843C64.8738 79.8577 69.6992 83 75.2865 83Z" fill="#05A8CD"/>
<path d="M67.1603 71.7688C66.8587 70.8977 66.6842 69.9643 66.6842 68.9999C66.6842 68.0354 66.8587 67.1021 67.1444 66.231L67.1365 66.0455L62.6715 62.6473L62.5254 62.7154C61.5572 64.6132 61.0016 66.7444 61.0016 68.9999C61.0016 71.2555 61.5572 73.3865 62.5254 75.2843L67.1603 71.7688Z" fill="#05A8CD"/>
<path d="M75.2866 60.4133C77.9691 60.4133 79.7786 61.5488 80.8103 62.4978L84.8421 58.64C82.366 56.3844 79.1437 55 75.2866 55C69.6992 55 64.8738 58.1422 62.5246 62.7155L67.1436 66.2311C68.3025 62.8555 71.5088 60.4133 75.2866 60.4133Z" fill="#05A8CD"/>
</g>
<rect x="120.933" y="48" width="89.9254" height="6.3664" rx="3.1832" fill="url(#paint2_linear_1_7012)"/>
<rect x="120.933" y="59.5391" width="36.2089" height="2.7853" rx="1.39265" fill="url(#paint3_linear_1_7012)"/>
<rect x="120.933" y="75.853" width="17.9055" height="2.7853" rx="1.39265" fill="url(#paint4_linear_1_7012)"/>
<rect x="120.933" y="66.3033" width="72.0199" height="6.3664" rx="3.1832" fill="url(#paint5_linear_1_7012)"/>
<rect x="43" y="122" width="63.9333" height="42" rx="4.2" fill="url(#paint6_linear_1_7012)"/>
<g opacity="0.28">
<path d="M61.2445 137.941C61.373 135.962 62.9639 134.412 64.9445 134.313C67.8124 134.171 71.9115 134 75 134C78.0885 134 82.1876 134.171 85.0555 134.313C87.0361 134.412 88.627 135.962 88.7555 137.941C88.8786 139.837 89 142.17 89 144C89 145.83 88.8786 148.163 88.7555 150.059C88.627 152.038 87.0361 153.588 85.0555 153.687C82.1876 153.829 78.0885 154 75 154C71.9115 154 67.8124 153.829 64.9445 153.687C62.9639 153.588 61.373 152.038 61.2445 150.059C61.1214 148.163 61 145.83 61 144C61 142.17 61.1214 139.837 61.2445 137.941Z" fill="#05A8CD"/>
<path d="M72 140V148L80 144L72 140Z" fill="white"/>
</g>
<rect x="120.933" y="122" width="89.9254" height="6.3664" rx="3.1832" fill="url(#paint7_linear_1_7012)"/>
<rect x="120.933" y="133.539" width="36.2089" height="2.7853" rx="1.39265" fill="url(#paint8_linear_1_7012)"/>
<rect x="120.933" y="149.853" width="17.9055" height="2.7853" rx="1.39265" fill="url(#paint9_linear_1_7012)"/>
<rect x="120.933" y="140.303" width="72.0199" height="6.3664" rx="3.1832" fill="url(#paint10_linear_1_7012)"/>
<rect x="43" y="196" width="63.9333" height="42" rx="4.2" fill="url(#paint11_linear_1_7012)"/>
<g opacity="0.28">
<g clip-path="url(#clip1_1_7012)">
<path d="M82.7263 208.02C82.7263 208.02 83.5166 208.794 82.7263 208.02C81.6669 206.81 81.0831 205.257 81.0835 203.649H76.2948V222.866C76.2578 223.906 75.8188 224.891 75.0701 225.614C74.3214 226.337 73.3215 226.741 72.2809 226.741C70.0802 226.741 68.2515 224.943 68.2515 222.711C68.2515 220.046 70.8241 218.047 73.4742 218.868V213.971C68.1275 213.258 63.4473 217.411 63.4473 222.711C63.4473 227.872 67.7246 231.545 72.2654 231.545C77.1316 231.545 81.0835 227.593 81.0835 222.711V212.963C83.0254 214.358 85.3568 215.106 87.7475 215.102V210.313C87.7475 210.313 84.8339 210.453 82.7263 208.02Z" fill="#05A8CD"/>
</g>
</g>
<rect x="120.933" y="196" width="89.9254" height="6.3664" rx="3.1832" fill="url(#paint12_linear_1_7012)"/>
<rect x="120.933" y="207.539" width="36.2089" height="2.7853" rx="1.39265" fill="url(#paint13_linear_1_7012)"/>
<rect x="120.933" y="223.853" width="17.9055" height="2.7853" rx="1.39265" fill="url(#paint14_linear_1_7012)"/>
<rect x="120.933" y="214.303" width="72.0199" height="6.3664" rx="3.1832" fill="url(#paint15_linear_1_7012)"/>
<rect x="43" y="270" width="63.9333" height="42" rx="4.2" fill="url(#paint16_linear_1_7012)"/>
<g opacity="0.28" clip-path="url(#clip2_1_7012)">
<path d="M75.0002 277C67.2784 277 61.0002 283.278 61.0002 291C61.0002 298.722 67.2784 305 75.0002 305C82.7221 305 89.0002 298.722 89.0002 291C89.0002 283.278 82.7221 277 75.0002 277Z" fill="#05A8CD"/>
<path fill-rule="evenodd" clip-rule="evenodd" d="M79.0195 283.909C79.0068 283.99 79.0002 284.072 79.0002 284.156C79.0002 285.004 79.6718 285.692 80.5002 285.692C81.3287 285.692 82.0002 285.004 82.0002 284.156C82.0002 283.308 81.3287 282.621 80.5002 282.621C80.1311 282.621 79.7931 282.757 79.5318 282.983L75.6364 282L74.2285 287.765C72.3556 287.891 70.6712 288.472 69.4005 289.348C69.0398 288.986 68.5455 288.763 68.0002 288.763C66.8957 288.763 66.0002 289.679 66.0002 290.81C66.0002 291.597 66.4339 292.28 67.0699 292.623C67.024 292.867 67.0002 293.116 67.0002 293.369C67.0002 296.479 70.582 299 75.0002 299C79.4185 299 83.0002 296.479 83.0002 293.369C83.0002 293.116 82.9765 292.867 82.9306 292.623C83.5666 292.28 84.0002 291.597 84.0002 290.81C84.0002 289.679 83.1048 288.763 82.0002 288.763C81.455 288.763 80.9607 288.986 80.5999 289.348C79.2156 288.393 77.3402 287.79 75.2649 287.742L76.364 283.241L79.0195 283.909ZM71.5002 293.881C72.3287 293.881 73.0002 293.194 73.0002 292.346C73.0002 291.498 72.3287 290.81 71.5002 290.81C70.6718 290.81 70.0002 291.498 70.0002 292.346C70.0002 293.194 70.6718 293.881 71.5002 293.881ZM78.5002 293.881C79.3287 293.881 80.0002 293.194 80.0002 292.346C80.0002 291.498 79.3287 290.81 78.5002 290.81C77.6718 290.81 77.0002 291.498 77.0002 292.346C77.0002 293.194 77.6718 293.881 78.5002 293.881ZM71.7776 295.503C71.5478 295.346 71.2374 295.41 71.0842 295.645C70.931 295.88 70.9931 296.198 71.2229 296.355C72.311 297.097 73.6556 297.469 75.0002 297.469C76.3449 297.469 77.6895 297.097 78.7776 296.355C79.0074 296.198 79.0694 295.88 78.9163 295.645C78.7631 295.41 78.4527 295.346 78.2229 295.503C77.3028 296.131 76.1515 296.445 75.0002 296.445C74.3175 296.445 73.6348 296.334 73.0002 296.114C72.5648 295.962 72.1521 295.758 71.7776 295.503Z" fill="white"/>
</g>
<rect x="120.933" y="270" width="89.9254" height="6.3664" rx="3.1832" fill="url(#paint17_linear_1_7012)"/>
<rect x="120.933" y="281.539" width="36.2089" height="2.7853" rx="1.39265" fill="url(#paint18_linear_1_7012)"/>
<rect x="120.933" y="297.853" width="17.9055" height="2.7853" rx="1.39265" fill="url(#paint19_linear_1_7012)"/>
<rect x="120.933" y="288.303" width="72.0199" height="6.3664" rx="3.1832" fill="url(#paint20_linear_1_7012)"/>
<rect x="261" y="113" width="200.215" height="60" rx="12" fill="white"/>
<rect x="273" y="122" width="63.9333" height="42" rx="4.2" fill="url(#paint21_linear_1_7012)"/>
<g opacity="0.28">
<path d="M291.245 137.941C291.373 135.962 292.964 134.412 294.944 134.313C297.812 134.171 301.911 134 305 134C308.089 134 312.188 134.171 315.056 134.313C317.036 134.412 318.627 135.962 318.755 137.941C318.879 139.837 319 142.17 319 144C319 145.83 318.879 148.163 318.755 150.059C318.627 152.038 317.036 153.588 315.056 153.687C312.188 153.829 308.089 154 305 154C301.911 154 297.812 153.829 294.944 153.687C292.964 153.588 291.373 152.038 291.245 150.059C291.121 148.163 291 145.83 291 144C291 142.17 291.121 139.837 291.245 137.941Z" fill="#05A8CD"/>
<path d="M302 140V148L310 144L302 140Z" fill="white"/>
</g>
<rect x="350.933" y="122" width="89.9254" height="6.3664" rx="3.1832" fill="url(#paint22_linear_1_7012)"/>
<rect x="350.933" y="133.539" width="36.2089" height="2.7853" rx="1.39265" fill="url(#paint23_linear_1_7012)"/>
<rect x="350.933" y="149.853" width="17.9055" height="2.7853" rx="1.39265" fill="url(#paint24_linear_1_7012)"/>
<rect x="350.933" y="140.303" width="72.0199" height="6.3664" rx="3.1832" fill="url(#paint25_linear_1_7012)"/>
<rect x="261" y="187" width="200.215" height="60" rx="12" fill="white"/>
<rect x="273" y="196" width="63.9333" height="42" rx="4.2" fill="url(#paint26_linear_1_7012)"/>
<g opacity="0.28" clip-path="url(#clip3_1_7012)">
<path d="M305 203C297.278 203 291 209.278 291 217C291 224.722 297.278 231 305 231C312.722 231 319 224.722 319 217C319 209.278 312.722 203 305 203Z" fill="#05A8CD"/>
<path fill-rule="evenodd" clip-rule="evenodd" d="M309.02 209.909C309.007 209.99 309 210.072 309 210.156C309 211.004 309.672 211.692 310.5 211.692C311.329 211.692 312 211.004 312 210.156C312 209.308 311.329 208.621 310.5 208.621C310.131 208.621 309.793 208.757 309.532 208.983L305.636 208L304.229 213.765C302.356 213.891 300.671 214.472 299.401 215.348C299.04 214.986 298.545 214.763 298 214.763C296.896 214.763 296 215.679 296 216.81C296 217.597 296.434 218.28 297.07 218.623C297.024 218.867 297 219.116 297 219.369C297 222.479 300.582 225 305 225C309.419 225 313 222.479 313 219.369C313 219.116 312.977 218.867 312.931 218.623C313.567 218.28 314 217.597 314 216.81C314 215.679 313.105 214.763 312 214.763C311.455 214.763 310.961 214.986 310.6 215.348C309.216 214.393 307.34 213.79 305.265 213.742L306.364 209.241L309.02 209.909ZM301.5 219.881C302.329 219.881 303 219.194 303 218.346C303 217.498 302.329 216.81 301.5 216.81C300.672 216.81 300 217.498 300 218.346C300 219.194 300.672 219.881 301.5 219.881ZM308.5 219.881C309.329 219.881 310 219.194 310 218.346C310 217.498 309.329 216.81 308.5 216.81C307.672 216.81 307 217.498 307 218.346C307 219.194 307.672 219.881 308.5 219.881ZM301.778 221.503C301.548 221.346 301.237 221.41 301.084 221.645C300.931 221.88 300.993 222.198 301.223 222.355C302.311 223.097 303.656 223.469 305 223.469C306.345 223.469 307.69 223.097 308.778 222.355C309.007 222.198 309.069 221.88 308.916 221.645C308.763 221.41 308.453 221.346 308.223 221.503C307.303 222.131 306.152 222.445 305 222.445C304.318 222.445 303.635 222.334 303 222.114C302.565 221.962 302.152 221.758 301.778 221.503Z" fill="white"/>
</g>
<rect x="350.933" y="196" width="89.9254" height="6.3664" rx="3.1832" fill="url(#paint27_linear_1_7012)"/>
<rect x="350.933" y="207.539" width="36.2089" height="2.7853" rx="1.39265" fill="url(#paint28_linear_1_7012)"/>
<rect x="350.933" y="223.853" width="17.9055" height="2.7853" rx="1.39265" fill="url(#paint29_linear_1_7012)"/>
<rect x="350.933" y="214.303" width="72.0199" height="6.3664" rx="3.1832" fill="url(#paint30_linear_1_7012)"/>
<defs>
<linearGradient id="paint0_linear_1_7012" x1="567" y1="351" x2="7" y2="6.49996" gradientUnits="userSpaceOnUse">
<stop stop-color="#05A8CD" stop-opacity="0.09"/>
<stop offset="1" stop-color="#05A8CD" stop-opacity="0.02"/>
</linearGradient>
<linearGradient id="paint1_linear_1_7012" x1="105.934" y1="88.95" x2="42.1149" y2="51.5981" gradientUnits="userSpaceOnUse">
<stop stop-color="#05A8CD" stop-opacity="0.21"/>
<stop offset="1" stop-color="#05A8CD" stop-opacity="0.06"/>
</linearGradient>
<linearGradient id="paint2_linear_1_7012" x1="209.454" y1="54.2072" x2="205.502" y2="32.7444" gradientUnits="userSpaceOnUse">
<stop stop-color="#05A8CD" stop-opacity="0.28"/>
<stop offset="1" stop-color="#05A8CD" stop-opacity="0.02"/>
<stop offset="1" stop-color="#05A8CD" stop-opacity="0.31"/>
</linearGradient>
<linearGradient id="paint3_linear_1_7012" x1="156.576" y1="62.2547" x2="154.709" y2="52.92" gradientUnits="userSpaceOnUse">
<stop stop-color="#05A8CD" stop-opacity="0.09"/>
<stop offset="1" stop-color="#05A8CD" stop-opacity="0.02"/>
</linearGradient>
<linearGradient id="paint4_linear_1_7012" x1="138.559" y1="78.5687" x2="135.184" y2="70.2259" gradientUnits="userSpaceOnUse">
<stop stop-color="#05A8CD" stop-opacity="0.09"/>
<stop offset="1" stop-color="#05A8CD" stop-opacity="0.02"/>
</linearGradient>
<linearGradient id="paint5_linear_1_7012" x1="191.828" y1="72.5106" x2="186.982" y2="51.4341" gradientUnits="userSpaceOnUse">
<stop stop-color="#05A8CD" stop-opacity="0.28"/>
<stop offset="1" stop-color="#05A8CD" stop-opacity="0.02"/>
<stop offset="1" stop-color="#05A8CD" stop-opacity="0.31"/>
</linearGradient>
<linearGradient id="paint6_linear_1_7012" x1="105.934" y1="162.95" x2="42.1149" y2="125.598" gradientUnits="userSpaceOnUse">
<stop stop-color="#05A8CD" stop-opacity="0.21"/>
<stop offset="1" stop-color="#05A8CD" stop-opacity="0.06"/>
</linearGradient>
<linearGradient id="paint7_linear_1_7012" x1="209.454" y1="128.207" x2="205.502" y2="106.744" gradientUnits="userSpaceOnUse">
<stop stop-color="#05A8CD" stop-opacity="0.28"/>
<stop offset="1" stop-color="#05A8CD" stop-opacity="0.02"/>
<stop offset="1" stop-color="#05A8CD" stop-opacity="0.31"/>
</linearGradient>
<linearGradient id="paint8_linear_1_7012" x1="156.576" y1="136.255" x2="154.709" y2="126.92" gradientUnits="userSpaceOnUse">
<stop stop-color="#05A8CD" stop-opacity="0.09"/>
<stop offset="1" stop-color="#05A8CD" stop-opacity="0.02"/>
</linearGradient>
<linearGradient id="paint9_linear_1_7012" x1="138.559" y1="152.569" x2="135.184" y2="144.226" gradientUnits="userSpaceOnUse">
<stop stop-color="#05A8CD" stop-opacity="0.09"/>
<stop offset="1" stop-color="#05A8CD" stop-opacity="0.02"/>
</linearGradient>
<linearGradient id="paint10_linear_1_7012" x1="191.828" y1="146.511" x2="186.982" y2="125.434" gradientUnits="userSpaceOnUse">
<stop stop-color="#05A8CD" stop-opacity="0.28"/>
<stop offset="1" stop-color="#05A8CD" stop-opacity="0.02"/>
<stop offset="1" stop-color="#05A8CD" stop-opacity="0.31"/>
</linearGradient>
<linearGradient id="paint11_linear_1_7012" x1="105.934" y1="236.95" x2="42.1149" y2="199.598" gradientUnits="userSpaceOnUse">
<stop stop-color="#05A8CD" stop-opacity="0.21"/>
<stop offset="1" stop-color="#05A8CD" stop-opacity="0.06"/>
</linearGradient>
<linearGradient id="paint12_linear_1_7012" x1="209.454" y1="202.207" x2="205.502" y2="180.744" gradientUnits="userSpaceOnUse">
<stop stop-color="#05A8CD" stop-opacity="0.28"/>
<stop offset="1" stop-color="#05A8CD" stop-opacity="0.02"/>
<stop offset="1" stop-color="#05A8CD" stop-opacity="0.31"/>
</linearGradient>
<linearGradient id="paint13_linear_1_7012" x1="156.576" y1="210.255" x2="154.709" y2="200.92" gradientUnits="userSpaceOnUse">
<stop stop-color="#05A8CD" stop-opacity="0.09"/>
<stop offset="1" stop-color="#05A8CD" stop-opacity="0.02"/>
</linearGradient>
<linearGradient id="paint14_linear_1_7012" x1="138.559" y1="226.569" x2="135.184" y2="218.226" gradientUnits="userSpaceOnUse">
<stop stop-color="#05A8CD" stop-opacity="0.09"/>
<stop offset="1" stop-color="#05A8CD" stop-opacity="0.02"/>
</linearGradient>
<linearGradient id="paint15_linear_1_7012" x1="191.828" y1="220.511" x2="186.982" y2="199.434" gradientUnits="userSpaceOnUse">
<stop stop-color="#05A8CD" stop-opacity="0.28"/>
<stop offset="1" stop-color="#05A8CD" stop-opacity="0.02"/>
<stop offset="1" stop-color="#05A8CD" stop-opacity="0.31"/>
</linearGradient>
<linearGradient id="paint16_linear_1_7012" x1="105.934" y1="310.95" x2="42.1149" y2="273.598" gradientUnits="userSpaceOnUse">
<stop stop-color="#05A8CD" stop-opacity="0.21"/>
<stop offset="1" stop-color="#05A8CD" stop-opacity="0.06"/>
</linearGradient>
<linearGradient id="paint17_linear_1_7012" x1="209.454" y1="276.207" x2="205.502" y2="254.744" gradientUnits="userSpaceOnUse">
<stop stop-color="#05A8CD" stop-opacity="0.28"/>
<stop offset="1" stop-color="#05A8CD" stop-opacity="0.02"/>
<stop offset="1" stop-color="#05A8CD" stop-opacity="0.31"/>
</linearGradient>
<linearGradient id="paint18_linear_1_7012" x1="156.576" y1="284.255" x2="154.709" y2="274.92" gradientUnits="userSpaceOnUse">
<stop stop-color="#05A8CD" stop-opacity="0.09"/>
<stop offset="1" stop-color="#05A8CD" stop-opacity="0.02"/>
</linearGradient>
<linearGradient id="paint19_linear_1_7012" x1="138.559" y1="300.569" x2="135.184" y2="292.226" gradientUnits="userSpaceOnUse">
<stop stop-color="#05A8CD" stop-opacity="0.09"/>
<stop offset="1" stop-color="#05A8CD" stop-opacity="0.02"/>
</linearGradient>
<linearGradient id="paint20_linear_1_7012" x1="191.828" y1="294.511" x2="186.982" y2="273.434" gradientUnits="userSpaceOnUse">
<stop stop-color="#05A8CD" stop-opacity="0.28"/>
<stop offset="1" stop-color="#05A8CD" stop-opacity="0.02"/>
<stop offset="1" stop-color="#05A8CD" stop-opacity="0.31"/>
</linearGradient>
<linearGradient id="paint21_linear_1_7012" x1="335.934" y1="162.95" x2="272.115" y2="125.598" gradientUnits="userSpaceOnUse">
<stop stop-color="#05A8CD" stop-opacity="0.21"/>
<stop offset="1" stop-color="#05A8CD" stop-opacity="0.06"/>
</linearGradient>
<linearGradient id="paint22_linear_1_7012" x1="439.454" y1="128.207" x2="435.502" y2="106.744" gradientUnits="userSpaceOnUse">
<stop stop-color="#05A8CD" stop-opacity="0.28"/>
<stop offset="1" stop-color="#05A8CD" stop-opacity="0.02"/>
<stop offset="1" stop-color="#05A8CD" stop-opacity="0.31"/>
</linearGradient>
<linearGradient id="paint23_linear_1_7012" x1="386.576" y1="136.255" x2="384.709" y2="126.92" gradientUnits="userSpaceOnUse">
<stop stop-color="#05A8CD" stop-opacity="0.09"/>
<stop offset="1" stop-color="#05A8CD" stop-opacity="0.02"/>
</linearGradient>
<linearGradient id="paint24_linear_1_7012" x1="368.559" y1="152.569" x2="365.184" y2="144.226" gradientUnits="userSpaceOnUse">
<stop stop-color="#05A8CD" stop-opacity="0.09"/>
<stop offset="1" stop-color="#05A8CD" stop-opacity="0.02"/>
</linearGradient>
<linearGradient id="paint25_linear_1_7012" x1="421.828" y1="146.511" x2="416.982" y2="125.434" gradientUnits="userSpaceOnUse">
<stop stop-color="#05A8CD" stop-opacity="0.28"/>
<stop offset="1" stop-color="#05A8CD" stop-opacity="0.02"/>
<stop offset="1" stop-color="#05A8CD" stop-opacity="0.31"/>
</linearGradient>
<linearGradient id="paint26_linear_1_7012" x1="335.934" y1="236.95" x2="272.115" y2="199.598" gradientUnits="userSpaceOnUse">
<stop stop-color="#05A8CD" stop-opacity="0.21"/>
<stop offset="1" stop-color="#05A8CD" stop-opacity="0.06"/>
</linearGradient>
<linearGradient id="paint27_linear_1_7012" x1="439.454" y1="202.207" x2="435.502" y2="180.744" gradientUnits="userSpaceOnUse">
<stop stop-color="#05A8CD" stop-opacity="0.28"/>
<stop offset="1" stop-color="#05A8CD" stop-opacity="0.02"/>
<stop offset="1" stop-color="#05A8CD" stop-opacity="0.31"/>
</linearGradient>
<linearGradient id="paint28_linear_1_7012" x1="386.576" y1="210.255" x2="384.709" y2="200.92" gradientUnits="userSpaceOnUse">
<stop stop-color="#05A8CD" stop-opacity="0.09"/>
<stop offset="1" stop-color="#05A8CD" stop-opacity="0.02"/>
</linearGradient>
<linearGradient id="paint29_linear_1_7012" x1="368.559" y1="226.569" x2="365.184" y2="218.226" gradientUnits="userSpaceOnUse">
<stop stop-color="#05A8CD" stop-opacity="0.09"/>
<stop offset="1" stop-color="#05A8CD" stop-opacity="0.02"/>
</linearGradient>
<linearGradient id="paint30_linear_1_7012" x1="421.828" y1="220.511" x2="416.982" y2="199.434" gradientUnits="userSpaceOnUse">
<stop stop-color="#05A8CD" stop-opacity="0.28"/>
<stop offset="1" stop-color="#05A8CD" stop-opacity="0.02"/>
<stop offset="1" stop-color="#05A8CD" stop-opacity="0.31"/>
</linearGradient>
<clipPath id="clip0_1_7012">
<rect width="30.8" height="30.8" fill="white" transform="translate(59.8 53.6)"/>
</clipPath>
<clipPath id="clip1_1_7012">
<rect width="47.208" height="47.208" fill="white" transform="translate(43 194)"/>
</clipPath>
<clipPath id="clip2_1_7012">
<rect width="30.8" height="30.8" fill="white" transform="translate(59.8 275.6)"/>
</clipPath>
<clipPath id="clip3_1_7012">
<rect width="30.8" height="30.8" fill="white" transform="translate(289.8 201.6)"/>
</clipPath>
</defs>
</svg>
