<svg width="134" height="53" viewBox="0 0 134 53" fill="none" xmlns="http://www.w3.org/2000/svg">
<path d="M62.61 20.744C62.498 20.568 62.242 20.456 61.842 20.408C61.458 20.36 60.986 20.352 60.426 20.384C60.202 20.416 59.986 20.4 59.778 20.336C59.57 20.288 59.402 20.2 59.274 20.072C59.162 19.96 59.122 19.84 59.154 19.712C59.17 19.52 59.33 19.368 59.634 19.256C59.954 19.144 60.458 19.08 61.146 19.064L62.418 19.04L62.658 18.56C62.722 18.384 62.802 18.136 62.898 17.816C62.994 17.496 63.098 17.152 63.21 16.784C63.274 16.56 63.37 16.256 63.498 15.872C63.626 15.488 63.762 15.08 63.906 14.648C64.05 14.216 64.178 13.832 64.29 13.496C64.402 13.144 64.474 12.896 64.506 12.752C64.57 12.608 64.658 12.368 64.77 12.032C64.882 11.68 64.986 11.328 65.082 10.976C65.194 10.608 65.266 10.344 65.298 10.184C65.714 8.92 65.986 8.024 66.114 7.496C66.242 6.952 66.274 6.672 66.21 6.656C66.146 6.656 65.986 6.664 65.73 6.68C65.49 6.696 65.218 6.72 64.914 6.752C64.626 6.768 64.362 6.792 64.122 6.824C63.898 6.856 63.762 6.888 63.714 6.92C63.634 7.032 63.498 7.056 63.306 6.992C63.114 6.928 62.994 6.816 62.946 6.656C62.93 6.512 62.922 6.4 62.922 6.32C62.938 6.24 62.986 6.176 63.066 6.128C63.178 6.032 63.394 5.928 63.714 5.816C64.034 5.688 64.394 5.576 64.794 5.48C65.21 5.384 65.602 5.312 65.97 5.264C66.242 5.232 66.514 5.176 66.786 5.096C67.058 5 67.274 4.888 67.434 4.76C67.578 4.712 67.714 4.672 67.842 4.64C67.986 4.608 68.13 4.6 68.274 4.616C68.402 4.696 68.618 4.736 68.922 4.736C69.242 4.736 69.578 4.728 69.93 4.712C70.826 4.632 71.426 4.608 71.73 4.64C72.05 4.672 72.266 4.8 72.378 5.024C72.458 5.328 72.474 5.568 72.426 5.744C72.378 5.904 72.218 5.976 71.946 5.96C71.802 5.992 71.538 6.024 71.154 6.056C70.786 6.072 70.394 6.088 69.978 6.104C68.842 6.2 68.234 6.312 68.154 6.44C68.09 6.504 68.034 6.568 67.986 6.632C67.954 6.696 67.906 6.768 67.842 6.848C67.858 6.912 67.818 7.12 67.722 7.472C67.642 7.808 67.538 8.152 67.41 8.504C67.346 8.712 67.25 9.008 67.122 9.392C66.994 9.776 66.858 10.176 66.714 10.592C66.586 10.992 66.466 11.36 66.354 11.696C66.242 12.016 66.162 12.232 66.114 12.344C66.05 12.488 65.994 12.648 65.946 12.824C65.914 12.984 65.89 13.104 65.874 13.184C65.65 13.968 65.45 14.632 65.274 15.176C65.114 15.72 64.962 16.2 64.818 16.616C64.69 17.016 64.57 17.408 64.458 17.792C64.346 18.16 64.226 18.568 64.098 19.016C64.098 19.016 64.218 19.008 64.458 18.992C64.714 18.96 65.05 18.928 65.466 18.896C66.218 18.816 66.754 18.768 67.074 18.752C67.41 18.736 67.634 18.76 67.746 18.824C67.858 18.872 67.938 18.968 67.986 19.112C68.306 19.544 68.346 19.84 68.106 20C67.866 20.16 67.298 20.232 66.402 20.216C65.57 20.248 64.93 20.272 64.482 20.288C64.05 20.32 63.746 20.36 63.57 20.408C63.41 20.456 63.314 20.536 63.282 20.648C63.282 20.776 63.218 20.84 63.09 20.84C62.962 20.84 62.802 20.808 62.61 20.744ZM72.1417 19.832C71.9657 19.8 71.7817 19.712 71.5897 19.568C71.4137 19.408 71.2537 19.232 71.1097 19.04C70.9817 18.832 70.8937 18.648 70.8457 18.488C70.8457 18.456 70.8217 18.416 70.7737 18.368C70.7417 18.32 70.7257 18.296 70.7257 18.296C70.6617 18.248 70.6217 18.04 70.6057 17.672C70.6057 17.288 70.6297 16.864 70.6777 16.4C70.7257 15.936 70.7817 15.568 70.8457 15.296C70.9257 15.04 71.0457 14.696 71.2057 14.264C71.3657 13.816 71.5017 13.416 71.6137 13.064L72.2617 11.672L71.3017 11.408C71.1897 11.376 71.0937 11.312 71.0137 11.216C70.9497 11.12 70.9177 11.04 70.9177 10.976C70.9177 10.848 70.9897 10.696 71.1337 10.52C71.2777 10.328 71.3817 10.232 71.4457 10.232C71.5257 10.248 71.6697 10.256 71.8777 10.256C72.1017 10.256 72.3177 10.248 72.5257 10.232C72.7337 10.216 72.8617 10.2 72.9097 10.184C72.9737 10.152 73.0377 10.112 73.1017 10.064C73.1657 10 73.2137 9.912 73.2457 9.8C73.3257 9.624 73.3977 9.464 73.4617 9.32C73.5257 9.16 73.6137 8.984 73.7257 8.792C73.8377 8.584 73.9257 8.408 73.9897 8.264C74.0697 8.12 74.1897 7.92 74.3497 7.664C74.4297 7.552 74.5177 7.416 74.6137 7.256C74.7097 7.096 74.8297 6.96 74.9737 6.848C75.1177 6.72 75.2617 6.664 75.4057 6.68C75.5657 6.68 75.7657 6.784 76.0057 6.992C76.1337 7.152 76.2057 7.272 76.2217 7.352C76.2377 7.432 76.1737 7.584 76.0297 7.808C75.9017 8.08 75.7497 8.352 75.5737 8.624C75.4137 8.896 75.2617 9.168 75.1177 9.44C74.8617 9.792 74.8137 9.992 74.9737 10.04C75.1337 10.088 75.5817 10.056 76.3177 9.944C76.7817 9.864 77.1177 9.888 77.3257 10.016C77.5337 10.128 77.6537 10.32 77.6857 10.592C77.7337 10.976 77.6937 11.208 77.5657 11.288C77.4377 11.368 77.0697 11.408 76.4617 11.408C76.0777 11.472 75.7497 11.512 75.4777 11.528C75.2057 11.528 75.0057 11.528 74.8777 11.528C74.6697 11.544 74.5337 11.552 74.4697 11.552C74.4057 11.552 74.3097 11.568 74.1817 11.6C74.0537 11.632 73.9577 11.688 73.8937 11.768C73.8457 11.832 73.7897 11.928 73.7257 12.056C73.6617 12.12 73.5657 12.288 73.4377 12.56C73.3097 12.832 73.1497 13.128 72.9577 13.448C72.7337 14.12 72.5417 14.792 72.3817 15.464C72.2217 16.12 72.0937 16.76 71.9977 17.384C71.9337 17.784 71.9417 18.064 72.0217 18.224C72.1017 18.368 72.3097 18.456 72.6457 18.488C72.8217 18.504 73.1017 18.504 73.4857 18.488C73.8857 18.456 74.1977 18.408 74.4217 18.344C74.5977 18.264 74.7817 18.184 74.9737 18.104C75.1657 18.008 75.3417 17.912 75.5017 17.816C75.6457 17.736 75.7897 17.656 75.9337 17.576C76.0777 17.48 76.1497 17.432 76.1497 17.432C76.2297 17.304 76.3177 17.264 76.4137 17.312C76.5097 17.36 76.5897 17.48 76.6537 17.672C76.6537 17.864 76.6137 18.064 76.5337 18.272C76.4537 18.48 76.1577 18.728 75.6457 19.016C74.9257 19.464 74.2617 19.736 73.6537 19.832C73.0617 19.912 72.5577 19.912 72.1417 19.832ZM80.951 9.32C80.791 9.336 80.687 9.336 80.639 9.32C80.591 9.304 80.511 9.248 80.399 9.152C80.383 9.04 80.399 8.936 80.447 8.84C80.495 8.744 80.559 8.64 80.639 8.528C80.831 8.208 81.047 7.832 81.287 7.4C81.543 6.952 81.711 6.608 81.791 6.368C81.791 6.304 81.799 6.248 81.815 6.2C81.543 6.248 81.263 6.152 80.975 5.912C80.671 5.624 80.567 5.336 80.663 5.048C80.775 4.744 81.039 4.448 81.455 4.16C81.743 3.984 81.951 3.888 82.079 3.872C82.223 3.856 82.439 3.912 82.727 4.04C82.999 4.2 83.183 4.384 83.279 4.592C83.391 4.784 83.407 4.984 83.327 5.192C83.279 5.56 83.191 5.904 83.063 6.224C82.951 6.544 82.847 6.856 82.751 7.16C82.655 7.512 82.495 7.84 82.271 8.144C82.047 8.448 81.799 8.76 81.527 9.08C81.543 9.144 81.495 9.184 81.383 9.2C81.271 9.216 81.127 9.256 80.951 9.32ZM82.4675 20.096C82.1635 19.968 81.8755 19.8 81.6035 19.592C81.3315 19.368 81.1555 19.184 81.0755 19.04C81.0755 18.896 81.0995 18.8 81.1475 18.752C81.1955 18.688 81.3315 18.664 81.5555 18.68C81.7955 18.68 82.1795 18.712 82.7075 18.776C82.8995 18.776 83.1395 18.76 83.4275 18.728C83.7155 18.696 83.9795 18.648 84.2195 18.584C84.4755 18.52 84.6195 18.44 84.6515 18.344C84.7315 18.344 84.7475 18.32 84.6995 18.272C84.6515 18.208 84.5955 18.144 84.5315 18.08C84.4675 18.08 84.3955 18.056 84.3155 18.008C84.2355 17.944 84.1635 17.912 84.0995 17.912C84.0995 17.832 84.0195 17.744 83.8595 17.648C83.7155 17.536 83.5635 17.448 83.4035 17.384C83.0515 17.096 82.7475 16.84 82.4915 16.616C82.2355 16.376 82.1395 16.216 82.2035 16.136C82.2035 16.072 82.2035 16.04 82.2035 16.04C82.2035 16.024 82.2035 16.016 82.2035 16.016C82.0915 16.016 81.9635 15.856 81.8195 15.536C81.6915 15.216 81.6275 14.928 81.6275 14.672C81.6275 14.48 81.6835 14.24 81.7955 13.952C81.9075 13.648 82.0595 13.336 82.2515 13.016C82.4435 12.696 82.6435 12.432 82.8515 12.224C83.1395 11.952 83.4995 11.664 83.9315 11.36C84.3635 11.04 84.7875 10.76 85.2035 10.52C85.6355 10.264 85.9955 10.096 86.2835 10.016C86.5715 9.904 86.8355 9.848 87.0755 9.848C87.3315 9.848 87.5555 9.904 87.7475 10.016C87.9075 10.096 88.0515 10.216 88.1795 10.376C88.3235 10.52 88.4435 10.672 88.5395 10.832C88.6515 10.976 88.7235 11.104 88.7555 11.216C88.7555 11.408 88.7395 11.624 88.7075 11.864C88.6755 12.088 88.6275 12.288 88.5635 12.464C88.5155 12.64 88.4355 12.728 88.3235 12.728C88.3235 12.728 88.2995 12.736 88.2515 12.752C88.2195 12.752 88.2035 12.792 88.2035 12.872C88.2035 13.032 88.0835 13.216 87.8435 13.424C87.5395 13.632 87.2755 13.76 87.0515 13.808C86.8275 13.84 86.6915 13.752 86.6435 13.544C86.5955 13.48 86.5635 13.424 86.5475 13.376C86.5315 13.328 86.4915 13.304 86.4275 13.304C86.4275 13.304 86.4035 13.28 86.3555 13.232C86.3075 13.184 86.2835 13.104 86.2835 12.992C86.2835 12.928 86.3075 12.872 86.3555 12.824C86.4035 12.76 86.4275 12.728 86.4275 12.728C86.5075 12.728 86.6115 12.64 86.7395 12.464C86.8675 12.272 86.9795 12.072 87.0755 11.864C87.1875 11.64 87.2435 11.488 87.2435 11.408C87.2435 11.312 87.2275 11.256 87.1955 11.24C87.1795 11.224 87.1075 11.216 86.9795 11.216C86.7555 11.312 86.4835 11.44 86.1635 11.6C85.8435 11.76 85.5395 11.92 85.2515 12.08C84.9795 12.224 84.7795 12.36 84.6515 12.488C84.5875 12.6 84.5475 12.672 84.5315 12.704C84.5155 12.72 84.4755 12.728 84.4115 12.728C84.4115 12.664 84.3555 12.696 84.2435 12.824C84.1475 12.936 84.0195 13.096 83.8595 13.304C83.7155 13.512 83.5715 13.72 83.4275 13.928C83.2995 14.12 83.2035 14.264 83.1395 14.36C83.1075 14.392 83.0675 14.488 83.0195 14.648C82.9875 14.792 82.9715 14.928 82.9715 15.056C82.9075 15.248 82.9155 15.384 82.9955 15.464C83.0755 15.528 83.2515 15.672 83.5235 15.896C84.0835 16.312 84.5235 16.656 84.8435 16.928C85.1635 17.2 85.4035 17.424 85.5635 17.6C85.7235 17.776 85.8195 17.936 85.8515 18.08C86.1395 18.56 86.2275 18.928 86.1155 19.184C86.0035 19.44 85.7315 19.664 85.2995 19.856C85.1395 19.936 84.8755 20 84.5075 20.048C84.1395 20.096 83.7635 20.12 83.3795 20.12C82.9955 20.136 82.6915 20.128 82.4675 20.096ZM96.2437 21.8C96.0357 21.816 95.8437 21.72 95.6677 21.512C95.4917 21.304 95.3477 21 95.2357 20.6C95.1397 20.216 95.0917 19.76 95.0917 19.232C95.0277 18.576 95.0837 17.744 95.2597 16.736C95.4357 15.712 95.6997 14.568 96.0517 13.304C96.1797 12.872 96.3637 12.344 96.6037 11.72C96.8437 11.096 97.0917 10.48 97.3477 9.872C97.6197 9.264 97.8597 8.752 98.0677 8.336C98.2757 7.904 98.4037 7.664 98.4517 7.616C98.5477 7.648 98.5957 7.576 98.5957 7.4C98.5957 7.368 98.6597 7.248 98.7877 7.04C98.9157 6.832 99.0357 6.608 99.1477 6.368C99.3557 6.064 99.6037 5.768 99.8917 5.48C100.18 5.176 100.476 4.912 100.78 4.688C101.1 4.448 101.388 4.28 101.644 4.184C101.884 4.088 102.124 4.04 102.364 4.04C102.668 4.04 102.94 4.112 103.18 4.256C103.436 4.4 103.636 4.6 103.78 4.856C103.924 5.096 103.996 5.368 103.996 5.672C103.996 5.928 103.94 6.176 103.828 6.416C103.78 6.656 103.684 6.912 103.54 7.184C103.412 7.44 103.276 7.68 103.132 7.904C103.004 8.112 102.9 8.272 102.82 8.384C102.612 8.496 102.436 8.544 102.292 8.528C102.148 8.512 102.116 8.448 102.196 8.336C102.196 8.272 102.212 8.192 102.244 8.096C102.292 8 102.324 7.896 102.34 7.784C102.34 7.752 102.372 7.656 102.436 7.496C102.516 7.336 102.556 7.176 102.556 7.016C102.7 6.44 102.764 6.032 102.748 5.792C102.748 5.552 102.676 5.432 102.532 5.432C102.452 5.416 102.324 5.448 102.148 5.528C101.972 5.608 101.812 5.704 101.668 5.816C101.524 5.912 101.452 6 101.452 6.08C101.452 6.128 101.452 6.16 101.452 6.176C101.404 6.16 101.252 6.296 100.996 6.584C100.756 6.856 100.484 7.192 100.18 7.592C99.8917 7.976 99.6517 8.328 99.4597 8.648C99.3317 8.92 99.1637 9.28 98.9557 9.728C98.7477 10.176 98.5077 10.752 98.2357 11.456L98.0437 12.032L98.4277 12.08C98.5557 12.096 98.7557 12.088 99.0277 12.056C99.2997 12.008 99.5637 11.96 99.8197 11.912C100.364 11.832 100.748 11.832 100.972 11.912C101.196 11.992 101.364 12.16 101.476 12.416C101.652 12.8 101.524 13.064 101.092 13.208C100.66 13.336 99.8357 13.432 98.6197 13.496C98.3637 13.464 98.1397 13.456 97.9477 13.472C97.7717 13.472 97.6517 13.504 97.5877 13.568C97.5237 13.6 97.4357 13.776 97.3237 14.096C97.2117 14.4 97.0917 14.768 96.9637 15.2C96.8517 15.616 96.7637 16.016 96.6997 16.4C96.5717 16.896 96.4837 17.408 96.4357 17.936C96.3877 18.448 96.3717 18.928 96.3877 19.376C96.4037 19.808 96.4437 20.144 96.5077 20.384C96.6037 20.768 96.6277 21.08 96.5797 21.32C96.5477 21.56 96.4357 21.72 96.2437 21.8ZM103.18 19.448C103.1 19.608 102.98 19.656 102.82 19.592C102.676 19.528 102.556 19.464 102.46 19.4C102.348 19.4 102.252 19.368 102.172 19.304C102.092 19.24 102.036 19.144 102.004 19.016C101.972 18.92 101.964 18.808 101.98 18.68C101.996 18.536 102.028 18.376 102.076 18.2C102.14 18.008 102.204 17.8 102.268 17.576C102.396 17.048 102.484 16.664 102.532 16.424C102.58 16.184 102.628 15.976 102.676 15.8C102.724 15.624 102.788 15.368 102.868 15.032C102.996 14.712 103.1 14.4 103.18 14.096C103.26 13.792 103.38 13.488 103.54 13.184C103.652 12.768 103.788 12.376 103.948 12.008C104.124 11.624 104.292 11.304 104.452 11.048C104.484 11 104.54 10.936 104.62 10.856C104.716 10.776 104.796 10.736 104.86 10.736C104.988 10.608 105.1 10.56 105.196 10.592C105.308 10.608 105.444 10.68 105.604 10.808C105.796 11.016 105.868 11.256 105.82 11.528C105.788 11.8 105.596 12.2 105.244 12.728C105.052 13.224 104.876 13.656 104.716 14.024C104.556 14.376 104.444 14.712 104.38 15.032C104.556 14.776 104.748 14.544 104.956 14.336C105.18 14.112 105.364 13.928 105.508 13.784C105.86 13.432 106.148 13.176 106.372 13.016C106.612 12.856 106.892 12.672 107.212 12.464C107.404 12.336 107.588 12.224 107.764 12.128C107.94 12.016 108.132 11.936 108.34 11.888C108.564 11.84 108.804 11.84 109.06 11.888C109.22 11.872 109.348 11.92 109.444 12.032C109.556 12.144 109.644 12.296 109.708 12.488C109.772 12.68 109.812 12.904 109.828 13.16C109.46 13.08 109.132 13.096 108.844 13.208C108.556 13.304 108.308 13.424 108.1 13.568C107.908 13.712 107.756 13.824 107.644 13.904C107.404 14.064 107.1 14.28 106.732 14.552C106.364 14.808 105.996 15.12 105.628 15.488C105.34 15.808 105.092 16.08 104.884 16.304C104.692 16.528 104.532 16.728 104.404 16.904C104.292 17.08 104.204 17.264 104.14 17.456C103.98 17.824 103.812 18.224 103.636 18.656C103.46 19.088 103.308 19.352 103.18 19.448ZM114.853 19.16C114.517 19.448 114.125 19.616 113.677 19.664C113.245 19.712 112.821 19.648 112.405 19.472C111.989 19.28 111.645 18.992 111.373 18.608C111.101 18.256 110.925 17.856 110.845 17.408C110.765 16.944 110.757 16.344 110.821 15.608C110.869 14.984 111.069 14.36 111.421 13.736C111.773 13.096 112.197 12.528 112.693 12.032C113.205 11.536 113.709 11.192 114.205 11C114.445 10.84 114.645 10.768 114.805 10.784C114.981 10.784 115.245 10.8 115.597 10.832C115.965 10.88 116.237 10.952 116.413 11.048C116.605 11.144 116.757 11.272 116.869 11.432C117.109 11.672 117.269 11.912 117.349 12.152C117.429 12.376 117.469 12.6 117.469 12.824C117.405 13.176 117.165 13.608 116.749 14.12C116.349 14.616 115.821 15.024 115.165 15.344C114.813 15.456 114.429 15.504 114.013 15.488C113.597 15.472 113.253 15.368 112.981 15.176C112.677 15.048 112.477 15.072 112.381 15.248C112.285 15.408 112.197 15.808 112.117 16.448C112.053 17.056 112.101 17.504 112.261 17.792C112.421 18.064 112.637 18.224 112.909 18.272C113.229 18.336 113.477 18.384 113.653 18.416C113.845 18.432 114.077 18.36 114.349 18.2C114.605 18.04 114.765 17.952 114.829 17.936C114.893 17.904 114.941 17.872 114.973 17.84C115.021 17.792 115.125 17.688 115.285 17.528C115.397 17.416 115.485 17.336 115.549 17.288C115.613 17.224 115.685 17.192 115.765 17.192C115.845 17.192 115.917 17.232 115.981 17.312C116.045 17.376 116.109 17.424 116.173 17.456C116.333 17.456 116.365 17.552 116.269 17.744C116.189 17.936 116.021 18.168 115.765 18.44C115.509 18.696 115.205 18.936 114.853 19.16ZM114.829 14.072C115.005 13.992 115.189 13.88 115.381 13.736C115.573 13.576 115.733 13.408 115.861 13.232C116.005 13.04 116.077 12.88 116.077 12.752C116.077 12.528 115.973 12.344 115.765 12.2C115.557 12.04 115.245 12.016 114.829 12.128C114.653 12.176 114.453 12.296 114.229 12.488C114.005 12.664 113.789 12.864 113.581 13.088C113.389 13.312 113.229 13.512 113.101 13.688C112.989 13.864 112.949 13.968 112.981 14C113.029 14.08 113.165 14.144 113.389 14.192C113.613 14.224 113.861 14.232 114.133 14.216C114.421 14.2 114.653 14.152 114.829 14.072ZM120.737 20.072C120.033 20.072 119.457 19.808 119.009 19.28C118.561 18.736 118.345 18.064 118.361 17.264C118.393 16.688 118.505 16.072 118.697 15.416C118.905 14.744 119.177 14.104 119.513 13.496C119.849 12.872 120.217 12.328 120.617 11.864C121.017 11.4 121.433 11.072 121.865 10.88C122.025 10.8 122.193 10.736 122.369 10.688C122.561 10.64 122.753 10.616 122.945 10.616C123.121 10.616 123.305 10.648 123.497 10.712C123.689 10.76 123.849 10.816 123.977 10.88C124.249 10.992 124.457 11.128 124.601 11.288C124.745 11.448 124.873 11.696 124.985 12.032C125.033 12.336 125.057 12.552 125.057 12.68C125.057 12.808 125.017 13 124.937 13.256C124.745 13.832 124.497 14.328 124.193 14.744C123.889 15.16 123.481 15.512 122.969 15.8C122.841 15.88 122.689 15.944 122.513 15.992C122.353 16.024 122.185 16.04 122.009 16.04C121.689 16.04 121.377 15.984 121.073 15.872C120.785 15.744 120.553 15.56 120.377 15.32L120.209 15.128L120.137 15.32C119.977 15.752 119.849 16.152 119.753 16.52C119.673 16.888 119.633 17.224 119.633 17.528C119.633 17.72 119.649 17.904 119.681 18.08C119.729 18.256 119.793 18.408 119.873 18.536C119.937 18.632 120.041 18.704 120.185 18.752C120.345 18.784 120.513 18.8 120.689 18.8C120.801 18.8 120.913 18.8 121.025 18.8C121.153 18.784 121.273 18.752 121.385 18.704C121.657 18.608 121.873 18.504 122.033 18.392C122.209 18.28 122.385 18.16 122.561 18.032L122.657 17.984H122.633C122.825 17.888 122.993 17.792 123.137 17.696C123.297 17.6 123.377 17.552 123.377 17.552C123.441 17.552 123.505 17.512 123.569 17.432C123.697 17.368 123.857 17.392 124.049 17.504C124.257 17.616 124.361 17.76 124.361 17.936C124.345 18.016 124.273 18.144 124.145 18.32C124.017 18.48 123.873 18.632 123.713 18.776C123.569 18.92 123.449 19 123.353 19.016C123.337 19.032 123.281 19.064 123.185 19.112C123.089 19.144 123.025 19.176 122.993 19.208H123.017C122.873 19.4 122.729 19.496 122.585 19.496H122.393C122.329 19.608 122.121 19.736 121.769 19.88C121.417 20.008 121.073 20.072 120.737 20.072ZM121.817 14.792C122.105 14.792 122.353 14.712 122.561 14.552C122.785 14.376 122.977 14.184 123.137 13.976C123.457 13.544 123.641 13.128 123.689 12.728C123.753 12.312 123.705 12.024 123.545 11.864C123.449 11.816 123.361 11.792 123.281 11.792C123.217 11.776 123.081 11.8 122.873 11.864C122.729 11.896 122.529 12.016 122.273 12.224C122.017 12.432 121.761 12.664 121.505 12.92C121.265 13.176 121.081 13.392 120.953 13.568L120.641 14.072C120.769 14.024 120.889 14 121.001 14C121.129 13.984 121.201 13.992 121.217 14.024C121.217 14.168 121.241 14.304 121.289 14.432C121.353 14.544 121.425 14.632 121.505 14.696C121.601 14.76 121.705 14.792 121.817 14.792ZM128.566 15.92C128.118 16 127.822 15.784 127.678 15.272C127.534 14.76 127.574 14.056 127.798 13.16C127.894 12.968 127.974 12.784 128.038 12.608C128.102 12.416 128.134 12.264 128.134 12.152C128.198 11.944 128.278 11.704 128.374 11.432C128.486 11.144 128.598 10.88 128.71 10.64C128.822 10.384 128.902 10.216 128.95 10.136C129.014 10.136 129.078 10.08 129.142 9.968C129.222 9.856 129.262 9.744 129.262 9.632C129.262 9.504 129.286 9.36 129.334 9.2C129.398 9.04 129.462 8.928 129.526 8.864C129.526 8.784 129.558 8.696 129.622 8.6C129.686 8.504 129.718 8.424 129.718 8.36C129.718 8.296 129.734 8.24 129.766 8.192C129.814 8.144 129.838 8.088 129.838 8.024C129.982 7.768 130.166 7.392 130.39 6.896C130.63 6.384 130.862 5.848 131.086 5.288C131.326 4.728 131.526 4.232 131.686 3.8C131.846 3.368 131.926 3.104 131.926 3.008C131.958 2.88 132.006 2.784 132.07 2.72C132.134 2.656 132.23 2.64 132.358 2.672C132.422 2.624 132.486 2.6 132.55 2.6C132.614 2.584 132.678 2.576 132.742 2.576C132.742 2.576 132.766 2.608 132.814 2.672C132.878 2.736 132.966 2.832 133.078 2.96C133.206 3.072 133.278 3.2 133.294 3.344C133.31 3.488 133.318 3.656 133.318 3.848C133.302 4.152 133.19 4.496 132.982 4.88C132.774 5.264 132.542 5.688 132.286 6.152C132.126 6.456 131.966 6.744 131.806 7.016C131.662 7.288 131.59 7.456 131.59 7.52C131.59 7.584 131.558 7.68 131.494 7.808C131.43 7.936 131.358 8.096 131.278 8.288C131.182 8.448 131.078 8.64 130.966 8.864C130.854 9.088 130.75 9.296 130.654 9.488C130.574 9.664 130.534 9.776 130.534 9.824C130.518 9.888 130.494 9.952 130.462 10.016C130.446 10.08 130.406 10.144 130.342 10.208C130.278 10.208 130.238 10.256 130.222 10.352C130.222 10.432 130.222 10.472 130.222 10.472C130.222 10.536 130.182 10.688 130.102 10.928C130.038 11.152 129.926 11.424 129.766 11.744C129.462 12.592 129.246 13.272 129.118 13.784C128.99 14.28 128.91 14.704 128.878 15.056C128.846 15.44 128.814 15.664 128.782 15.728C128.766 15.792 128.694 15.856 128.566 15.92ZM127.27 19.76C126.966 19.872 126.71 19.928 126.502 19.928C126.31 19.912 126.094 19.816 125.854 19.64C125.55 19.352 125.446 19.064 125.542 18.776C125.654 18.472 125.918 18.176 126.334 17.888C126.622 17.712 126.83 17.616 126.958 17.6C127.102 17.584 127.318 17.64 127.606 17.768C128.086 18.072 128.294 18.408 128.23 18.776C128.182 19.144 127.862 19.472 127.27 19.76Z" fill="url(#paint0_linear_1_6659)"/>
<path d="M48.8584 13.563C23.5752 13.563 12.605 29.2373 5.85079 40.4961M23.5752 37.5607C22.2435 37.6381 4.25449 43.7963 4.23652 42.0938C4.21855 40.3914 5.58074 22.2122 5.58074 22.2122" stroke="url(#paint1_linear_1_6659)" stroke-width="1.6188" stroke-miterlimit="10" stroke-linecap="round" stroke-linejoin="round"/>
<defs>
<linearGradient id="paint0_linear_1_6659" x1="68.8893" y1="24" x2="69.3344" y2="0.992902" gradientUnits="userSpaceOnUse">
<stop stop-color="#2D0077"/>
<stop offset="0.928811" stop-color="#9C1EFF"/>
</linearGradient>
<linearGradient id="paint1_linear_1_6659" x1="31.6741" y1="50.4118" x2="40.4411" y2="12.9236" gradientUnits="userSpaceOnUse">
<stop stop-color="#9C1EFF"/>
<stop offset="1" stop-color="#5717C1"/>
</linearGradient>
</defs>
</svg>
