<svg width="171" height="40" viewBox="0 0 171 40" fill="none" xmlns="http://www.w3.org/2000/svg">
<path opacity="0.3" fill-rule="evenodd" clip-rule="evenodd" d="M3.60004 17.4849V21.867L24.0553 38.1331V38.1334L24.0555 38.1333L24.0557 38.1334V38.1332L30.7486 34.4993V30.1172L24.0555 33.7512L3.60004 17.4849ZM31.4476 23.1352L30.7493 23.4972V27.8793L31.4476 27.5173C32.9444 26.7413 33.6977 25.6032 33.6701 24.4412V20.1211C33.6682 21.2611 32.9168 22.3732 31.4476 23.1352Z" fill="url(#paint0_linear_1_6645)"/>
<path opacity="0.6" fill-rule="evenodd" clip-rule="evenodd" d="M19.5556 12.7208L19.9745 12.5308C20.217 12.4358 20.4769 12.3959 20.7362 12.4139C20.9954 12.4318 21.2477 12.5072 21.4752 12.6348L21.0819 12.8348L20.2263 13.2448L19.5556 12.7208ZM3.60004 13.2206L10.2776 18.5307L24.0554 29.4888L30.7486 25.8528V27.8789V30.1169L24.0557 33.7508V33.7511L24.0554 33.7509L24.0553 33.751V33.7508L3.60004 17.4847V13.2206ZM33.6695 15.7946C33.6705 15.8356 33.6705 15.8766 33.6695 15.9175V15.7946ZM33.6695 15.9175V20.0587V20.1207C33.6675 21.2608 32.9162 22.3728 31.4469 23.1348L30.7487 23.4968V21.4728L29.0375 20.1187L29.5489 19.8547L31.4469 18.8707C32.8909 18.1221 33.643 17.0365 33.6695 15.9175Z" fill="url(#paint1_linear_1_6645)"/>
<path opacity="0.9" fill-rule="evenodd" clip-rule="evenodd" d="M19.4667 12.6529L17.2225 10.9008L16.7484 10.5428L16.003 9.96081L16.8606 9.5608L18.0191 9.03878L18.1843 8.96278L19.9741 8.14876C20.2378 8.04614 20.5217 8.00911 20.8023 8.04077C21.0829 8.07243 21.3519 8.17186 21.587 8.33077L24.2482 10.3828C24.6612 10.6988 24.6101 11.1408 24.1381 11.3668L23.902 11.4808L22.3856 12.2089L21.4788 12.6429C21.2513 12.5134 20.9987 12.4363 20.7387 12.417C20.4787 12.3976 20.2177 12.4365 19.9741 12.5309L19.5552 12.7209L19.4667 12.6529ZM23.5285 24.6874L19.4256 21.4253L13.6626 16.8412L10.2776 14.1491L3.60004 8.83896V13.1031V13.2211L10.2776 18.5312L24.0557 29.4895L30.749 25.8534V25.7354V23.4973V21.4733L24.0557 25.1074L23.5285 24.6874ZM33.67 11.4745C33.67 11.5328 33.6681 11.5911 33.6641 11.6492V11.4745H33.67ZM33.6641 11.6492V15.7926C33.6917 16.9546 32.9384 18.0927 31.4416 18.8687L29.5435 19.8527L29.0321 20.1167L25.6884 17.4707L26.1152 17.2487L27.614 16.4726L29.5494 15.4726L31.4475 14.4886C32.8416 13.7655 33.5911 12.7274 33.6641 11.6492Z" fill="url(#paint2_linear_1_6645)"/>
<path d="M32.0904 8.76273L25.4384 3.7206C23.0997 1.94856 18.8827 1.46655 16.0209 2.64458L3.60001 8.84473L10.2874 14.1549L13.6606 16.8409L19.4236 21.423L23.5285 24.6871L24.0556 25.1071L30.7431 21.473L29.0319 20.119L25.6882 17.4729L26.115 17.2509L27.6137 16.4749L29.5492 15.4749L31.4472 14.4909C32.9165 13.7288 33.6698 12.6168 33.6698 11.4768C33.6718 10.5268 33.1525 9.56275 32.0904 8.76273ZM24.1383 11.3628L23.9022 11.4768L22.3858 12.2048L21.479 12.6388L21.0856 12.8388L20.2301 13.2488L19.5613 12.7208L19.4728 12.6528L17.2286 10.9008L16.7605 10.5348L16.0091 9.96276L16.8667 9.56275L18.0252 9.04073L18.1845 8.96273L19.9684 8.16271C20.2321 8.06008 20.516 8.02306 20.7966 8.05472C21.0772 8.08638 21.3462 8.18581 21.5813 8.34472L24.2484 10.3828C24.6614 10.6988 24.6103 11.1408 24.1383 11.3628Z" fill="white"/>
<path d="M10.2723 14.1738L3.58493 8.86372L3.5551 8.84004L3.58918 8.82303L16.0101 2.62288L16.0117 2.62209L16.0117 2.62215C17.4472 2.03124 19.2212 1.85711 20.9286 2.05222C22.6359 2.24732 24.2793 2.81194 25.453 3.70128L32.105 8.74336C33.1714 9.54666 33.696 10.5172 33.694 11.4768M10.2723 14.1738L33.6698 11.4768M10.2723 14.1738L10.2723 14.1739L13.6455 16.8599L13.6456 16.8599L19.4085 21.442L23.5134 24.7061L23.5134 24.7061L24.0405 25.1261L24.0531 25.1361L24.0672 25.1284L30.7546 21.4943L30.7869 21.4768L30.7581 21.454L29.0469 20.1L25.7326 17.4772M10.2723 14.1738L25.7326 17.4772M33.694 11.4768L33.6698 11.4768M33.694 11.4768C33.694 11.4768 33.694 11.4768 33.694 11.4768H33.6698M33.694 11.4768C33.694 12.6287 32.9329 13.7477 31.4584 14.5124L29.5603 15.4964L29.5603 15.4964L27.6249 16.4965L27.6137 16.4749M33.6698 11.4768C33.6698 12.6168 32.9165 13.7288 31.4472 14.4909L29.5492 15.4749L27.6137 16.4749M27.6137 16.4749L26.115 17.2509L26.1262 17.2725L27.6249 16.4965L27.6137 16.4749ZM25.7326 17.4772L26.1261 17.2725L25.7326 17.4772ZM24.1279 11.3408L24.1277 11.341L23.8917 11.4549L23.8917 11.455L22.3753 12.1829L22.3753 12.183L21.4685 12.6169L21.468 12.6172L21.0752 12.817L21.0747 12.8172L20.2332 13.2204L19.5763 12.7018L19.5761 12.7016L19.4877 12.6337L19.4876 12.6336L17.2435 10.8817L17.2435 10.8817L16.7754 10.5157L16.7751 10.5155L16.0557 9.96777L16.8766 9.58486L16.8769 9.58472L18.0351 9.06284L18.0351 9.06285L18.0358 9.06251L18.1944 8.98486L18.1951 8.98451L19.9778 8.18509C20.2376 8.08405 20.5174 8.04762 20.7939 8.07882C21.0703 8.11001 21.3354 8.20792 21.5671 8.36441L24.2337 10.402C24.4357 10.5566 24.5201 10.7385 24.5011 10.9053C24.4822 11.0722 24.359 11.2322 24.1279 11.3408Z" stroke="#8C33E6" stroke-opacity="0.5" stroke-width="0.0485011"/>
<path opacity="0.15" fill-rule="evenodd" clip-rule="evenodd" d="M19.977 13.0481L19.973 8.14795L16.0098 9.95199L19.977 13.0481ZM33.6707 11.4744C33.6707 11.5327 33.6688 11.5909 33.6648 11.6491V11.4744H33.6707ZM33.6648 11.6491C33.5918 12.7273 32.8423 13.7654 31.4482 14.4885L29.5501 15.4725L27.6147 16.4725L26.1159 17.2486L25.6891 17.4706L29.0328 20.1166L30.744 21.4707V21.4755L24.0565 25.1064V38.1327L30.7499 34.4986V27.8678L31.4423 27.5088C32.9391 26.7328 33.6924 25.5948 33.6648 24.4327V20.1206V20.0586V11.6491Z" fill="#14142A"/>
<g clip-path="url(#clip0_1_6645)">
<path fill-rule="evenodd" clip-rule="evenodd" d="M83.7434 17.4328C83.7434 17.9866 83.6629 18.5086 83.5008 18.9978C83.3397 19.4848 83.1098 19.9147 82.8121 20.2832C82.5144 20.6527 82.1658 20.9428 81.7664 21.1567C81.5747 21.2573 81.3713 21.3346 81.1572 21.3865C80.9157 21.4394 80.6614 21.4701 80.3913 21.4712C80.0861 21.4701 79.8043 21.4362 79.5437 21.3769C79.46 21.3568 79.3774 21.3346 79.2968 21.306C79.2767 21.2997 79.2566 21.2933 79.2364 21.2869C79.1305 21.2488 79.0277 21.2054 78.9292 21.1567C78.5033 20.9439 78.1378 20.6538 77.8316 20.2832C77.5254 19.9158 77.2923 19.4817 77.1302 18.9829C76.9681 18.4842 76.8876 17.9495 76.8876 17.3778V17.3227C76.8876 16.7689 76.9681 16.248 77.1302 15.7588C77.2923 15.2697 77.5212 14.8408 77.8189 14.4713C78.1166 14.1018 78.4652 13.8117 78.8656 13.5999C79.0574 13.4972 79.2608 13.422 79.4748 13.3691C79.7164 13.3161 79.9696 13.2854 80.2398 13.2833C80.5449 13.2854 80.8267 13.3182 81.0873 13.3786C81.171 13.3987 81.2537 13.422 81.3342 13.4485C81.3554 13.4559 81.3755 13.4622 81.3946 13.4697C81.5005 13.5078 81.6033 13.5501 81.7029 13.5999C82.1277 13.8117 82.4932 14.1018 82.7994 14.4713C83.1056 14.8408 83.3397 15.2749 83.5008 15.7726C83.6629 16.2702 83.7434 16.806 83.7434 17.3778V17.4328ZM83.5272 10.2762V11.1921C83.2465 10.9401 82.9477 10.7135 82.6267 10.5145C82.5282 10.4488 82.4328 10.3789 82.3311 10.3196C81.9391 10.0909 81.4931 9.9247 80.9972 9.81459C80.5682 9.70976 80.1232 9.65576 79.6602 9.65576C79.6263 9.65576 79.5977 9.66 79.5649 9.66106C79.5288 9.66 79.497 9.65576 79.461 9.65576C78.5192 9.65576 77.6578 9.85906 76.8759 10.2635C76.0941 10.6701 75.4224 11.2249 74.8609 11.9259C74.2983 12.6268 73.8586 13.4474 73.5397 14.3887C73.2208 15.33 73.0619 16.3264 73.0619 17.3778V17.4328C73.0619 18.4842 73.2208 19.4774 73.5397 20.4092C73.8586 21.3399 74.2983 22.152 74.8609 22.8434C75.3164 23.4056 75.8483 23.8673 76.449 24.2411C76.5475 24.3056 76.6429 24.3766 76.7456 24.4348C77.1366 24.6635 77.5826 24.8308 78.0774 24.942C78.5075 25.0458 78.9535 25.0998 79.4155 25.0998C79.4483 25.0998 79.478 25.0945 79.5108 25.0945C79.5468 25.0945 79.5786 25.0998 79.6146 25.0998C80.5554 25.0998 81.4178 24.8965 82.1997 24.4909C82.686 24.2379 83.1257 23.9213 83.5272 23.5528V24.4793H87.7365V10.2762H83.5272ZM131.261 17.4328C131.261 17.9866 131.181 18.5086 131.019 18.9978C130.858 19.4848 130.628 19.9147 130.33 20.2832C130.032 20.6527 129.684 20.9428 129.284 21.1567C129.091 21.2573 128.888 21.3346 128.674 21.3865C128.432 21.4394 128.179 21.4701 127.909 21.4712C127.604 21.4701 127.322 21.4362 127.061 21.3769C126.978 21.3568 126.895 21.3346 126.815 21.306C126.794 21.2997 126.774 21.2933 126.754 21.2869C126.648 21.2488 126.546 21.2054 126.446 21.1567C126.021 20.9439 125.656 20.6538 125.349 20.2832C125.043 19.9158 124.809 19.4817 124.648 18.9829C124.486 18.4842 124.405 17.9495 124.405 17.3778V17.3227C124.405 16.7689 124.486 16.248 124.648 15.7588C124.809 15.2697 125.039 14.8408 125.337 14.4713C125.634 14.1018 125.983 13.8117 126.382 13.5999C126.574 13.4972 126.779 13.422 126.993 13.3691C127.233 13.3161 127.487 13.2854 127.758 13.2833C128.063 13.2854 128.344 13.3182 128.605 13.3786C128.689 13.3987 128.771 13.422 128.852 13.4485C128.872 13.4559 128.892 13.4622 128.912 13.4697C129.017 13.5078 129.121 13.5501 129.22 13.5999C129.645 13.8117 130.011 14.1018 130.317 14.4713C130.623 14.8408 130.858 15.2749 131.019 15.7726C131.181 16.2702 131.261 16.806 131.261 17.3778V17.4328ZM131.044 10.2762V11.1921C130.764 10.9401 130.464 10.7135 130.143 10.5145C130.046 10.4488 129.95 10.3789 129.848 10.3196C129.457 10.0909 129.011 9.9247 128.515 9.81459C128.086 9.70976 127.64 9.65576 127.178 9.65576C127.144 9.65576 127.115 9.66 127.083 9.66106C127.047 9.66 127.015 9.65576 126.979 9.65576C126.037 9.65576 125.176 9.85906 124.394 10.2635C123.611 10.6701 122.94 11.2249 122.378 11.9259C121.816 12.6268 121.376 13.4474 121.057 14.3887C120.739 15.33 120.58 16.3264 120.58 17.3778V17.4328C120.58 18.4842 120.739 19.4774 121.057 20.4092C121.376 21.3399 121.816 22.152 122.378 22.8434C122.833 23.4056 123.365 23.8673 123.967 24.2411C124.065 24.3056 124.161 24.3766 124.262 24.4348C124.653 24.6635 125.099 24.8308 125.595 24.942C126.024 25.0458 126.47 25.0998 126.933 25.0998C126.966 25.0998 126.995 25.0945 127.028 25.0945C127.064 25.0945 127.095 25.0998 127.132 25.0998C128.073 25.0998 128.935 24.8965 129.717 24.4909C130.204 24.2379 130.643 23.9213 131.044 23.5528V24.4793H135.254V10.2762H131.044ZM161.46 24.6044L157.583 18.5437L156.116 20.0938V24.6044H151.906V4.3999H156.116V15.1671L161.045 9.77026H166.086L160.437 15.6097L166.279 24.6044H161.46ZM148.011 24.1756C147.088 24.6838 145.888 24.9369 144.411 24.9369C143.303 24.9369 142.274 24.7346 141.323 24.3291C140.372 23.9225 139.555 23.373 138.872 22.6816C138.189 21.9902 137.654 21.178 137.266 20.2452C136.878 19.3135 136.685 18.3224 136.685 17.271V17.2149C136.685 16.1635 136.878 15.1671 137.266 14.2258C137.654 13.2845 138.189 12.4639 138.872 11.763C139.555 11.061 140.372 10.5083 141.323 10.1017C142.274 9.69617 143.321 9.49287 144.466 9.49287C145.869 9.49287 147.032 9.71417 147.955 10.1578C148.879 10.6004 149.692 11.2092 150.393 11.9843L147.817 14.752C147.336 14.2533 146.844 13.8573 146.336 13.5619C145.828 13.2665 145.195 13.1193 144.439 13.1193C143.903 13.1193 143.419 13.2252 142.985 13.438C142.551 13.6498 142.172 13.9399 141.849 14.3095C141.526 14.6779 141.277 15.1078 141.101 15.597C140.926 16.0851 140.839 16.606 140.839 17.1598V17.2149C140.839 17.7877 140.926 18.3224 141.101 18.8211C141.277 19.3188 141.531 19.7518 141.863 20.1213C142.195 20.4909 142.592 20.781 143.054 20.9928C143.515 21.2056 144.032 21.3115 144.605 21.3115C145.306 21.3115 145.921 21.1685 146.446 20.8826C146.973 20.5968 147.494 20.2135 148.011 19.7338L150.476 22.2242C149.756 23.0183 148.934 23.6695 148.011 24.1756ZM109.787 22.2391C109.501 22.8384 109.099 23.3318 108.582 23.7194C108.065 24.1069 107.46 24.397 106.767 24.5918C106.076 24.7845 105.332 24.8819 104.538 24.8819C103.486 24.8819 102.411 24.7019 101.312 24.3419C100.214 23.983 99.1658 23.4144 98.1689 22.6404L99.9689 19.8727C100.781 20.4624 101.589 20.9061 102.393 21.2015C103.195 21.4958 103.947 21.6441 104.65 21.6441C105.259 21.6441 105.706 21.5424 105.992 21.3391C106.279 21.1358 106.422 20.869 106.422 20.5365V20.4815C106.422 20.2602 106.338 20.0654 106.172 19.9002C106.007 19.7339 105.78 19.591 105.494 19.4714C105.207 19.3517 104.879 19.2363 104.511 19.1251C104.141 19.0139 103.753 18.8943 103.348 18.7651C102.83 18.6179 102.309 18.4379 101.783 18.2251C101.256 18.0134 100.781 17.737 100.357 17.395C99.9318 17.0541 99.5854 16.6337 99.3184 16.135C99.0503 15.6384 98.9169 15.0285 98.9169 14.3096V14.2535C98.9169 13.4975 99.0599 12.8283 99.3459 12.2481C99.632 11.6657 100.02 11.1723 100.509 10.7668C100.998 10.3602 101.571 10.0563 102.226 9.853C102.881 9.64971 103.587 9.54912 104.344 9.54912C105.286 9.54912 106.241 9.70053 107.211 10.0044C108.18 10.3094 109.071 10.7297 109.883 11.2655L108.277 14.1709C107.539 13.7474 106.818 13.4096 106.117 13.1608C105.416 12.9109 104.797 12.7859 104.262 12.7859C103.744 12.7859 103.357 12.8834 103.099 13.0782C102.839 13.2709 102.711 13.5165 102.711 13.8109V13.8659C102.711 14.0692 102.793 14.2492 102.96 14.4059C103.126 14.5627 103.348 14.7109 103.625 14.8496C103.902 14.9862 104.221 15.1207 104.58 15.2498C104.94 15.3801 105.323 15.5092 105.729 15.6384C106.246 15.8036 106.772 16.0016 107.308 16.2324C107.844 16.4632 108.323 16.7449 108.749 17.0774C109.172 17.4098 109.523 17.8143 109.801 18.2939C110.077 18.7757 110.216 19.3559 110.216 20.0389V20.0939C110.216 20.9241 110.073 21.6398 109.787 22.2391ZM118.924 24.6487C118.388 24.8064 118.389 24.8541 117.687 24.8541C117.04 24.8541 116.454 24.7842 115.928 24.6455C115.402 24.5078 114.95 24.2632 114.571 23.9128C114.192 23.5623 113.897 23.1059 113.685 22.5427C113.473 21.9804 113.366 21.2657 113.366 20.3985V13.8571H111.338V10.2592H113.366V5.97842H117.576V10.2592H119.592V13.8571H117.576V19.705C117.576 20.6664 118.028 21.145 118.933 21.145L118.924 24.6487ZM96.6242 24.6487C96.0881 24.8064 96.0892 24.8541 95.3878 24.8541C94.7405 24.8541 94.1557 24.7842 93.6291 24.6455C93.1026 24.5078 92.6502 24.2632 92.2719 23.9128C91.8937 23.5623 91.5981 23.1059 91.3852 22.5427C91.1733 21.9804 91.0673 21.2657 91.0673 20.3985V13.8571H89.0395V10.2592H91.0673V5.97842H95.2766V10.2592H97.2938V13.8571H95.2766V19.705C95.2766 20.6664 95.729 21.145 96.6337 21.145L96.6242 24.6487ZM67.4214 24.6044H71.6306V4.3999H67.4214V24.6044ZM62.1706 17.2147C62.1706 17.8469 62.0742 18.4133 61.8803 18.9142C61.6864 19.416 61.4226 19.848 61.091 20.2112C60.7584 20.5733 60.3748 20.8518 59.9415 21.0466C59.5082 21.2414 59.042 21.3389 58.543 21.3389C58.0451 21.3389 57.5779 21.2414 57.1445 21.0466C56.7102 20.8518 56.3319 20.5733 56.0088 20.2112C55.6857 19.848 55.4272 19.4118 55.2333 18.9014C55.0394 18.39 54.9419 17.8289 54.9419 17.2147V17.1597C54.9419 16.5466 55.0394 15.9854 55.2333 15.473C55.4272 14.9637 55.6857 14.5274 56.0088 14.1643C56.3319 13.8011 56.7102 13.5237 57.1445 13.3289C57.5779 13.133 58.0451 13.0366 58.543 13.0366C59.042 13.0366 59.5082 13.133 59.9415 13.3289C60.3748 13.5237 60.7584 13.8011 61.091 14.1643C61.4226 14.5274 61.6864 14.9637 61.8803 15.473C62.0742 15.9854 62.1706 16.5466 62.1706 17.1597V17.2147ZM65.4232 13.8806C65.0449 12.9298 64.5417 12.1272 63.9145 11.4718C63.2862 10.8175 62.5658 10.323 61.7543 9.99158C60.9416 9.65911 60.1015 9.49287 59.2338 9.49287C58.1267 9.49287 57.2071 9.71734 56.4781 10.1663C55.7492 10.6152 55.1252 11.187 54.6082 11.8826V9.77028H50.4V29.0335H54.6082V22.6848C55.1072 23.2713 55.7206 23.7838 56.4506 24.2232C57.1795 24.6626 58.1076 24.8818 59.2338 24.8818C60.1206 24.8818 60.9692 24.7156 61.7818 24.3831C62.5944 24.0517 63.3095 23.5583 63.9283 22.9029C64.5459 22.2485 65.0449 21.4449 65.4232 20.4951C65.8014 19.5453 65.991 18.4516 65.991 17.2149V17.1598C65.991 15.9242 65.8014 14.8304 65.4232 13.8806Z" fill="#313131"/>
<path fill-rule="evenodd" clip-rule="evenodd" d="M143.142 28.7549H145.634C145.886 28.7549 146.116 28.7771 146.323 28.8216C146.531 28.8661 146.709 28.9389 146.857 29.0402C147.006 29.1415 147.121 29.2762 147.202 29.4442C147.284 29.6122 147.325 29.8197 147.325 30.0668C147.325 30.3336 147.264 30.5559 147.143 30.7338C147.022 30.9117 146.843 31.0575 146.605 31.1711C146.932 31.265 147.175 31.4293 147.336 31.664C147.496 31.8987 147.577 32.1816 147.577 32.5126C147.577 32.7795 147.525 33.0105 147.421 33.2056C147.317 33.4008 147.178 33.5602 147.002 33.6837C146.827 33.8072 146.626 33.8987 146.401 33.9579C146.176 34.0172 145.945 34.0469 145.708 34.0469H143.142V28.7549ZM144.306 30.8967H145.486C145.693 30.8967 145.864 30.8473 145.997 30.7485C146.131 30.6497 146.198 30.4891 146.198 30.2667C146.198 30.1432 146.175 30.0419 146.131 29.9629C146.086 29.8838 146.027 29.822 145.953 29.7776C145.879 29.7331 145.793 29.7022 145.697 29.6849C145.6 29.6676 145.5 29.659 145.397 29.659H144.306V30.8967ZM145.552 33.1426H144.306V31.6898H145.575C145.827 31.6898 146.029 31.7479 146.183 31.864C146.336 31.9801 146.413 32.1741 146.413 32.4458C146.413 32.5842 146.389 32.6978 146.342 32.7868C146.295 32.8757 146.232 32.9461 146.153 32.998C146.074 33.0499 145.982 33.087 145.879 33.1092C145.775 33.1314 145.666 33.1426 145.552 33.1426ZM150.482 28.7549H154.442V29.7332H151.646V30.8672H154.212V31.7715H151.646V33.0685H154.502V34.0469H150.482V28.7549ZM156.991 29.7332H158.578V34.0469H159.743V29.7332H161.33V28.7549H156.991V29.7332ZM164.709 32.0011H166.081L165.414 30.0592H165.399L164.709 32.0011ZM166.015 28.7549H164.821L162.818 34.0469H163.99L164.405 32.8684H166.385L166.786 34.0469H167.995L166.015 28.7549Z" fill="#BC4CD0"/>
</g>
<defs>
<linearGradient id="paint0_linear_1_6645" x1="720.166" y1="1318.08" x2="947.942" y2="1318.08" gradientUnits="userSpaceOnUse">
<stop stop-color="#AE06FA"/>
<stop offset="1" stop-color="#6D5DD4"/>
</linearGradient>
<linearGradient id="paint1_linear_1_6645" x1="720.153" y1="1124.17" x2="947.925" y2="1124.17" gradientUnits="userSpaceOnUse">
<stop stop-color="#AE06FA"/>
<stop offset="1" stop-color="#6D5DD4"/>
</linearGradient>
<linearGradient id="paint2_linear_1_6645" x1="14678.1" y1="17.6934" x2="15047.3" y2="17.6934" gradientUnits="userSpaceOnUse">
<stop stop-color="#AE06FA"/>
<stop offset="1" stop-color="#6D5DD4"/>
</linearGradient>
<clipPath id="clip0_1_6645">
<rect width="117.6" height="31.6235" fill="white" transform="translate(50.4 4.3999)"/>
</clipPath>
</defs>
</svg>
