<svg width="736" height="933" viewBox="0 0 736 933" fill="none" xmlns="http://www.w3.org/2000/svg">
<path fill-rule="evenodd" clip-rule="evenodd" d="M290.034 766.191C182.99 733.268 109.323 634.346 108.012 521.908C106.842 421.503 190.194 347.741 284.777 315.227C368.07 286.594 454.327 317.416 514.143 382.296C592.913 467.736 679.343 579.145 620.702 679.597C557.003 788.712 410.448 803.227 290.034 766.191Z" fill="#F3F0FF"/>
<g filter="url(#filter0_dd_1_7252)">
<g clip-path="url(#clip0_1_7252)">
<rect width="281.69" height="609.953" transform="translate(232.775 238.772)" fill="url(#paint0_linear_1_7252)"/>
<path opacity="0.35" d="M485.545 253.796C485.545 252.897 486.273 252.168 487.172 252.168H499.692C500.591 252.168 501.319 252.897 501.319 253.796V258.303C501.319 259.202 500.591 259.93 499.692 259.93H487.172C486.273 259.93 485.545 259.202 485.545 258.303V253.796Z" stroke="black" stroke-width="0.751174"/>
<path opacity="0.4" d="M502.446 254.547V257.552C503.051 257.297 503.444 256.705 503.444 256.049C503.444 255.393 503.051 254.801 502.446 254.547Z" fill="black"/>
<path d="M486.671 254.296C486.671 253.743 487.12 253.295 487.673 253.295H499.191C499.744 253.295 500.193 253.743 500.193 254.296V257.802C500.193 258.355 499.744 258.804 499.191 258.804H487.673C487.12 258.804 486.671 258.355 486.671 257.802V254.296Z" fill="black"/>
<path fill-rule="evenodd" clip-rule="evenodd" d="M475.652 253.501C477.316 253.501 478.917 254.141 480.124 255.288C480.215 255.376 480.36 255.375 480.449 255.285L481.318 254.409C481.363 254.363 481.388 254.301 481.388 254.237C481.387 254.173 481.361 254.111 481.316 254.066C478.149 251.032 473.154 251.032 469.988 254.066C469.942 254.111 469.916 254.173 469.916 254.237C469.915 254.301 469.94 254.363 469.986 254.409L470.854 255.285C470.944 255.375 471.089 255.376 471.18 255.288C472.386 254.141 473.987 253.501 475.652 253.501ZM475.652 256.352C476.567 256.352 477.448 256.692 478.126 257.306C478.218 257.393 478.363 257.391 478.452 257.302L479.319 256.425C479.365 256.38 479.39 256.317 479.39 256.252C479.389 256.188 479.362 256.126 479.316 256.081C477.251 254.16 474.054 254.16 471.99 256.081C471.943 256.126 471.917 256.188 471.916 256.252C471.916 256.317 471.941 256.38 471.987 256.425L472.854 257.302C472.943 257.391 473.088 257.393 473.179 257.306C473.857 256.693 474.738 256.353 475.652 256.352ZM477.39 258.271C477.391 258.336 477.365 258.398 477.319 258.444L475.819 259.958C475.775 260.002 475.715 260.028 475.652 260.028C475.589 260.028 475.53 260.002 475.486 259.958L473.985 258.444C473.939 258.398 473.913 258.336 473.914 258.271C473.916 258.206 473.944 258.144 473.992 258.101C474.95 257.29 476.354 257.29 477.312 258.101C477.36 258.144 477.388 258.206 477.39 258.271Z" fill="black"/>
<path fill-rule="evenodd" clip-rule="evenodd" d="M465.388 252.043H464.637C464.222 252.043 463.886 252.379 463.886 252.794V259.304C463.886 259.719 464.222 260.055 464.637 260.055H465.388C465.803 260.055 466.139 259.719 466.139 259.304V252.794C466.139 252.379 465.803 252.043 465.388 252.043ZM461.131 253.796H461.883C462.297 253.796 462.634 254.132 462.634 254.547V259.304C462.634 259.719 462.297 260.055 461.883 260.055H461.131C460.717 260.055 460.38 259.719 460.38 259.304V254.547C460.38 254.132 460.717 253.796 461.131 253.796ZM458.377 255.549H457.626C457.211 255.549 456.875 255.885 456.875 256.3V259.304C456.875 259.719 457.211 260.056 457.626 260.056H458.377C458.792 260.056 459.128 259.719 459.128 259.304V256.3C459.128 255.885 458.792 255.549 458.377 255.549ZM454.872 257.051H454.121C453.706 257.051 453.369 257.387 453.369 257.802V259.304C453.369 259.719 453.706 260.056 454.121 260.056H454.872C455.287 260.056 455.623 259.719 455.623 259.304V257.802C455.623 257.387 455.287 257.051 454.872 257.051Z" fill="black"/>
<path d="M260.809 259.998C262.828 259.998 264.028 258.419 264.028 255.745C264.028 254.738 263.835 253.891 263.466 253.236C262.933 252.218 262.014 251.668 260.853 251.668C259.126 251.668 257.904 252.829 257.904 254.457C257.904 255.987 259.005 257.098 260.518 257.098C261.447 257.098 262.201 256.664 262.575 255.91H262.592C262.592 255.91 262.614 255.91 262.619 255.91C262.63 255.91 262.669 255.91 262.669 255.91C262.669 257.725 261.981 258.809 260.82 258.809C260.138 258.809 259.61 258.435 259.428 257.835H258.014C258.251 259.139 259.357 259.998 260.809 259.998ZM260.859 255.97C259.945 255.97 259.296 255.321 259.296 254.413C259.296 253.528 259.978 252.851 260.864 252.851C261.75 252.851 262.432 253.539 262.432 254.435C262.432 255.321 261.766 255.97 260.859 255.97Z" fill="black"/>
<path d="M266.35 259.921C266.872 259.921 267.23 259.546 267.23 259.051C267.23 258.551 266.872 258.182 266.35 258.182C265.832 258.182 265.469 258.551 265.469 259.051C265.469 259.546 265.832 259.921 266.35 259.921ZM266.35 255.794C266.872 255.794 267.23 255.426 267.23 254.931C267.23 254.43 266.872 254.061 266.35 254.061C265.832 254.061 265.469 254.43 265.469 254.931C265.469 255.426 265.832 255.794 266.35 255.794Z" fill="black"/>
<path d="M272.38 259.805H273.739V258.325H274.812V257.126H273.739V251.866H271.736C270.333 253.979 269.216 255.745 268.501 257.06V258.325H272.38V259.805ZM269.816 257.076C270.74 255.448 271.565 254.144 272.325 253.021H272.402V257.159H269.816V257.076Z" fill="black"/>
<path d="M277.838 259.805H279.257V251.866H277.843L275.769 253.318V254.683L277.744 253.296H277.838V259.805Z" fill="black"/>
<rect x="323.667" y="838.96" width="100.657" height="3.75587" rx="1.87793" fill="black"/>
</g>
<path d="M528.294 388.217H529.406C530.02 388.217 530.517 388.717 530.517 389.334V462.262C530.517 462.879 530.02 463.378 529.406 463.378H528.294V388.217Z" fill="#303030"/>
<path d="M219.223 479.006L218.111 479.006C217.497 479.006 216.999 478.507 216.999 477.89L216.999 433.984C216.999 433.368 217.497 432.868 218.111 432.868L219.223 432.868L219.223 479.006Z" fill="#303030"/>
<path d="M219.223 417.984L218.111 417.984C217.497 417.984 216.999 417.484 216.999 416.868L216.999 372.962C216.999 372.345 217.497 371.846 218.111 371.846L219.223 371.846L219.223 417.984Z" fill="#333333"/>
<path d="M219.223 349.521L218.111 349.521C217.497 349.521 216.999 349.021 216.999 348.404L216.999 326.823C216.999 326.207 217.497 325.707 218.111 325.707L219.223 325.707L219.223 349.521Z" fill="#333333"/>
<path fill-rule="evenodd" clip-rule="evenodd" d="M221.58 257.924C219.223 265.21 219.223 274.213 219.223 292.219V795.278C219.223 813.285 219.223 822.288 221.58 829.574C226.346 844.3 237.845 855.845 252.512 860.63C259.769 862.998 268.736 862.998 286.67 862.998H460.846C478.78 862.998 487.747 862.998 495.004 860.63C509.671 855.845 521.17 844.3 525.936 829.574C528.293 822.288 528.293 813.285 528.293 795.278V292.219C528.293 274.213 528.293 265.21 525.936 257.924C521.17 243.198 509.671 231.652 495.004 226.867C487.747 224.5 478.78 224.5 460.846 224.5H286.67C268.736 224.5 259.769 224.5 252.512 226.867C237.845 231.652 226.346 243.198 221.58 257.924ZM297.788 242.732V246.081L297.841 246.079L297.788 246.453C297.788 255.289 304.922 262.453 313.723 262.453H433.794C442.595 262.453 449.729 255.289 449.729 246.453L449.676 246.079L449.729 246.081V242.732C449.729 240.472 451.554 238.639 453.805 238.639L463.352 238.639C478.276 238.639 485.738 238.639 491.69 240.897C501.044 244.446 508.428 251.86 511.963 261.252C514.211 267.227 514.211 274.72 514.211 289.704V797.794C514.211 812.778 514.211 820.27 511.963 826.246C508.428 835.638 501.044 843.052 491.69 846.601C485.738 848.858 478.276 848.858 463.352 848.858H284.165C269.241 848.858 261.779 848.858 255.827 846.601C246.473 843.052 239.089 835.638 235.554 826.246C233.305 820.27 233.305 812.778 233.305 797.794V289.704C233.305 274.72 233.305 267.227 235.554 261.252C239.089 251.86 246.473 244.446 255.827 240.897C261.779 238.639 269.241 238.639 284.165 238.639L293.711 238.639C295.963 238.639 297.788 240.472 297.788 242.732Z" fill="#333333"/>
<path fill-rule="evenodd" clip-rule="evenodd" d="M461.143 225.989H286.374C268.658 225.989 259.976 225.998 252.97 228.283C238.755 232.921 227.61 244.111 222.991 258.384C220.714 265.417 220.705 274.135 220.705 291.922V795.576C220.705 813.363 220.714 822.081 222.991 829.114C227.61 843.387 238.755 854.577 252.97 859.215C259.976 861.5 268.658 861.509 286.374 861.509H461.143C478.859 861.509 487.541 861.5 494.547 859.215C508.762 854.577 519.907 843.387 524.526 829.114C526.803 822.081 526.812 813.363 526.812 795.576V291.922C526.812 274.135 526.803 265.417 524.526 258.384C519.907 244.111 508.762 232.921 494.547 228.283C487.541 225.998 478.859 225.989 461.143 225.989ZM222.286 258.154C219.964 265.328 219.964 274.193 219.964 291.922V795.576C219.964 813.305 219.964 822.17 222.286 829.344C226.978 843.844 238.3 855.211 252.741 859.923C259.886 862.254 268.716 862.254 286.374 862.254H461.143C478.801 862.254 487.63 862.254 494.776 859.923C509.217 855.211 520.539 843.844 525.231 829.344C527.553 822.17 527.553 813.305 527.553 795.576V291.922C527.553 274.193 527.553 265.328 525.231 258.154C520.539 243.654 509.217 232.287 494.776 227.575C487.63 225.244 478.801 225.244 461.143 225.244H286.374C268.716 225.244 259.886 225.244 252.741 227.575C238.3 232.287 226.978 243.654 222.286 258.154Z" fill="#303030"/>
<path fill-rule="evenodd" clip-rule="evenodd" d="M225.107 259.073C222.93 265.799 222.93 274.11 222.93 290.731V796.767C222.93 813.388 222.93 821.699 225.107 828.424C229.506 842.018 240.12 852.675 253.659 857.091C260.357 859.277 268.635 859.277 285.189 859.277H462.331C478.885 859.277 487.162 859.277 493.861 857.091C507.4 852.675 518.014 842.018 522.413 828.424C524.59 821.699 524.59 813.388 524.59 796.767V290.731C524.59 274.11 524.59 265.799 522.413 259.073C518.014 245.48 507.4 234.823 493.861 230.406C487.162 228.221 478.885 228.221 462.331 228.221H285.189C268.635 228.221 260.357 228.221 253.659 230.406C240.12 234.823 229.506 245.48 225.107 259.073ZM297.789 242.732V246.081L297.842 246.079L297.789 246.453C297.789 255.289 304.923 262.453 313.724 262.453H433.795C442.596 262.453 449.73 255.289 449.73 246.453L449.677 246.079L449.73 246.081V242.732C449.73 240.472 451.555 238.639 453.806 238.639L463.353 238.639C478.277 238.639 485.739 238.639 491.691 240.897C501.045 244.446 508.429 251.86 511.964 261.252C514.213 267.228 514.213 274.72 514.213 289.704V797.794C514.213 812.778 514.213 820.27 511.964 826.246C508.429 835.638 501.045 843.052 491.691 846.601C485.739 848.859 478.277 848.859 463.353 848.859H284.166C269.242 848.859 261.78 848.859 255.828 846.601C246.474 843.052 239.09 835.638 235.555 826.246C233.306 820.27 233.306 812.778 233.306 797.794V289.704C233.306 274.72 233.306 267.228 235.555 261.252C239.09 251.86 246.474 244.446 255.828 240.897C261.78 238.639 269.242 238.639 284.166 238.639L293.712 238.639C295.964 238.639 297.789 240.472 297.789 242.732Z" fill="#121515"/>
<rect x="462.33" y="224.5" width="4.44705" height="3.72085" fill="#414141"/>
<rect x="524.589" y="288.499" width="3.70594" height="4.46502" fill="#414141"/>
<rect x="219.224" y="288.499" width="3.70589" height="4.46502" fill="#414141"/>
<rect x="219.224" y="794.534" width="3.70589" height="4.465" fill="#414141"/>
<rect x="524.589" y="794.534" width="3.70594" height="4.465" fill="#414141"/>
<rect x="280.741" y="859.277" width="4.44707" height="3.72084" fill="#414141"/>
<path fill-rule="evenodd" clip-rule="evenodd" d="M405.259 254.267C408.534 254.267 411.188 251.601 411.188 248.313C411.188 245.026 408.534 242.36 405.259 242.36C401.984 242.36 399.329 245.026 399.329 248.313C399.329 251.601 401.984 254.267 405.259 254.267Z" fill="#262C2D"/>
<path fill-rule="evenodd" clip-rule="evenodd" d="M405.258 252.034C407.305 252.034 408.964 250.368 408.964 248.313C408.964 246.258 407.305 244.593 405.258 244.593C403.212 244.593 401.552 246.258 401.552 248.313C401.552 250.368 403.212 252.034 405.258 252.034Z" fill="#121515"/>
<path opacity="0.4" fill-rule="evenodd" clip-rule="evenodd" d="M405.259 247.57C405.669 247.57 406.001 247.237 406.001 246.826C406.001 246.414 405.669 246.081 405.259 246.081C404.85 246.081 404.518 246.414 404.518 246.826C404.518 247.237 404.85 247.57 405.259 247.57Z" fill="#636F73"/>
<path fill-rule="evenodd" clip-rule="evenodd" d="M355.601 248.313C355.601 247.08 356.6 246.081 357.833 246.081H389.686C390.919 246.081 391.918 247.08 391.918 248.313C391.918 249.546 390.919 250.546 389.686 250.546H357.833C356.6 250.546 355.601 249.546 355.601 248.313Z" fill="#262C2D"/>
</g>
<g filter="url(#filter1_d_1_7252)">
<rect x="79" y="130.104" width="65.47" height="65.47" rx="18.2754" fill="white"/>
<path d="M96.0233 155.919C96.1701 153.659 97.9873 151.888 100.249 151.776C103.525 151.613 108.207 151.417 111.735 151.417C115.263 151.417 119.945 151.613 123.22 151.776C125.483 151.888 127.3 153.659 127.447 155.919C127.587 158.084 127.726 160.749 127.726 162.84C127.726 164.93 127.587 167.595 127.447 169.76C127.3 172.02 125.483 173.792 123.22 173.904C119.945 174.066 115.263 174.262 111.735 174.262C108.207 174.262 103.525 174.066 100.249 173.904C97.9873 173.792 96.1701 172.02 96.0233 169.76C95.8826 167.595 95.744 164.93 95.744 162.84C95.744 160.749 95.8826 158.084 96.0233 155.919Z" fill="#FC0D1B"/>
<path d="M108.308 158.271V167.408L117.446 162.84L108.308 158.271Z" fill="white"/>
</g>
<g filter="url(#filter2_d_1_7252)">
<rect x="93" y="303.104" width="65.47" height="65.47" rx="18.2754" fill="white"/>
<circle cx="125.735" cy="335.84" r="15.9909" fill="#1ED760"/>
<path d="M133.004 342.262C132.731 342.695 132.148 342.817 131.693 342.557C128.105 340.476 123.606 340.008 118.288 341.152C117.778 341.256 117.268 340.961 117.159 340.476C117.05 339.99 117.359 339.505 117.869 339.401C123.679 338.135 128.67 338.673 132.677 341.013C133.132 341.274 133.278 341.828 133.004 342.262ZM134.862 338.308C134.516 338.846 133.788 339.002 133.223 338.69C129.125 336.28 122.878 335.586 118.033 336.991C117.396 337.164 116.74 336.835 116.558 336.245C116.376 335.638 116.722 335.014 117.359 334.841C122.896 333.245 129.781 334.008 134.498 336.765C135.026 337.077 135.208 337.771 134.862 338.308ZM135.026 334.182C130.108 331.407 122.004 331.147 117.305 332.5C116.558 332.725 115.756 332.326 115.52 331.598C115.283 330.887 115.72 330.124 116.467 329.899C121.858 328.338 130.819 328.65 136.465 331.841C137.139 332.222 137.357 333.055 136.957 333.696C136.574 334.355 135.7 334.58 135.026 334.182Z" fill="white"/>
</g>
<g filter="url(#filter3_d_1_7252)">
<rect x="282" y="167.104" width="65.47" height="65.47" rx="18.2754" fill="white"/>
<rect x="298.744" y="183.849" width="31.9819" height="31.9819" rx="3.61491" fill="url(#paint1_radial_1_7252)"/>
<rect x="298.744" y="183.849" width="31.9819" height="31.9819" rx="3.61491" fill="url(#paint2_radial_1_7252)"/>
<rect x="298.744" y="183.849" width="31.9819" height="31.9819" rx="3.61491" fill="url(#paint3_radial_1_7252)"/>
<path d="M322.73 193.557C322.73 194.504 321.963 195.271 321.017 195.271C320.071 195.271 319.304 194.504 319.304 193.557C319.304 192.611 320.071 191.844 321.017 191.844C321.963 191.844 322.73 192.611 322.73 193.557Z" fill="white"/>
<path fill-rule="evenodd" clip-rule="evenodd" d="M314.735 205.551C317.889 205.551 320.446 202.994 320.446 199.84C320.446 196.685 317.889 194.129 314.735 194.129C311.581 194.129 309.024 196.685 309.024 199.84C309.024 202.994 311.581 205.551 314.735 205.551ZM314.735 203.266C316.627 203.266 318.161 201.732 318.161 199.84C318.161 197.947 316.627 196.413 314.735 196.413C312.842 196.413 311.308 197.947 311.308 199.84C311.308 201.732 312.842 203.266 314.735 203.266Z" fill="white"/>
<path fill-rule="evenodd" clip-rule="evenodd" d="M303.313 199.383C303.313 195.545 303.313 193.625 304.06 192.159C304.717 190.87 305.765 189.821 307.055 189.164C308.521 188.417 310.44 188.417 314.278 188.417H315.192C319.03 188.417 320.949 188.417 322.415 189.164C323.705 189.821 324.753 190.87 325.41 192.159C326.157 193.625 326.157 195.545 326.157 199.383V200.296C326.157 204.135 326.157 206.054 325.41 207.52C324.753 208.809 323.705 209.858 322.415 210.515C320.949 211.262 319.03 211.262 315.192 211.262H314.278C310.44 211.262 308.521 211.262 307.055 210.515C305.765 209.858 304.717 208.809 304.06 207.52C303.313 206.054 303.313 204.135 303.313 200.296V199.383ZM314.278 190.702H315.192C317.149 190.702 318.479 190.704 319.507 190.788C320.508 190.87 321.021 191.018 321.378 191.2C322.238 191.638 322.937 192.337 323.375 193.197C323.557 193.554 323.705 194.066 323.787 195.068C323.871 196.096 323.873 197.426 323.873 199.383V200.296C323.873 202.253 323.871 203.583 323.787 204.612C323.705 205.613 323.557 206.125 323.375 206.483C322.937 207.342 322.238 208.041 321.378 208.479C321.021 208.661 320.508 208.81 319.507 208.891C318.479 208.975 317.149 208.977 315.192 208.977H314.278C312.321 208.977 310.991 208.975 309.963 208.891C308.961 208.81 308.449 208.661 308.092 208.479C307.232 208.041 306.533 207.342 306.095 206.483C305.913 206.125 305.765 205.613 305.683 204.612C305.599 203.583 305.597 202.253 305.597 200.296V199.383C305.597 197.426 305.599 196.096 305.683 195.068C305.765 194.066 305.913 193.554 306.095 193.197C306.533 192.337 307.232 191.638 308.092 191.2C308.449 191.018 308.961 190.87 309.963 190.788C310.991 190.704 312.321 190.702 314.278 190.702Z" fill="white"/>
</g>
<g filter="url(#filter4_d_1_7252)">
<rect x="592" y="232.104" width="65.47" height="65.47" rx="18.2754" fill="white"/>
<path d="M619.925 278.546C616.23 278.546 612.785 277.471 609.886 275.617C612.348 275.776 616.691 275.395 619.393 272.818C615.329 272.631 613.496 269.514 613.257 268.182C613.602 268.315 615.249 268.475 616.179 268.102C611.503 266.929 610.786 262.826 610.945 261.574C611.822 262.187 613.31 262.4 613.894 262.347C609.537 259.229 611.105 254.54 611.875 253.527C615.002 257.859 619.688 260.292 625.485 260.427C625.375 259.948 625.318 259.449 625.318 258.936C625.318 255.257 628.291 252.275 631.959 252.275C633.875 252.275 635.602 253.089 636.815 254.391C638.095 254.091 640.023 253.389 640.965 252.781C640.49 254.487 639.011 255.909 638.117 256.436C638.11 256.418 638.124 256.454 638.117 256.436C638.902 256.317 641.028 255.909 641.868 255.339C641.453 256.297 639.885 257.89 638.599 258.782C638.838 269.338 630.762 278.546 619.925 278.546Z" fill="#47ACDF"/>
</g>
<g filter="url(#filter5_d_1_7252)">
<rect x="428" y="74.1045" width="65.47" height="65.47" rx="18.2754" fill="white"/>
<path d="M472.728 105.697C474.305 105.697 475.584 104.419 475.584 102.842C475.584 101.265 474.305 99.9864 472.728 99.9864C471.151 99.9864 469.873 101.265 469.873 102.842V105.697H472.728ZM464.733 105.697C466.31 105.697 467.588 104.419 467.588 102.841V94.8465C467.588 93.2694 466.31 91.991 464.733 91.991C463.156 91.991 461.877 93.2694 461.877 94.8465V102.841C461.877 104.419 463.156 105.697 464.733 105.697Z" fill="#2EB67D"/>
<path d="M448.741 107.982C447.164 107.982 445.886 109.26 445.886 110.837C445.886 112.414 447.165 113.693 448.742 113.693C450.319 113.693 451.597 112.414 451.597 110.837V107.982H448.741ZM456.737 107.982C455.16 107.982 453.882 109.26 453.882 110.837V118.832C453.882 120.41 455.16 121.688 456.737 121.688C458.314 121.688 459.593 120.41 459.593 118.832V110.837C459.593 109.26 458.314 107.982 456.737 107.982Z" fill="#E01E5A"/>
<path d="M461.877 118.833C461.877 120.41 463.156 121.688 464.733 121.688C466.31 121.688 467.588 120.41 467.588 118.833C467.588 117.256 466.309 115.977 464.732 115.977L461.877 115.977L461.877 118.833ZM461.877 110.837C461.877 112.414 463.156 113.693 464.733 113.693L472.728 113.693C474.305 113.693 475.583 112.414 475.583 110.837C475.583 109.26 474.305 107.982 472.728 107.982L464.733 107.982C463.156 107.982 461.877 109.26 461.877 110.837Z" fill="#ECB22E"/>
<path d="M459.592 94.846C459.592 93.2691 458.314 91.9907 456.737 91.9907C455.16 91.9907 453.882 93.2692 453.882 94.8461C453.882 96.4232 455.16 97.7018 456.737 97.7018L459.592 97.7018L459.592 94.846ZM459.592 102.842C459.592 101.265 458.314 99.9862 456.737 99.9862L448.742 99.9862C447.165 99.9862 445.886 101.265 445.886 102.842C445.886 104.419 447.165 105.697 448.742 105.697L456.737 105.697C458.314 105.697 459.592 104.419 459.592 102.842Z" fill="#36C5F0"/>
</g>
<g filter="url(#filter6_d_1_7252)">
<rect x="158" y="441.104" width="65.47" height="65.47" rx="18.2754" fill="white"/>
<path d="M206.728 474.195C206.728 472.88 206.619 471.92 206.383 470.925H191.063V476.86H200.056C199.874 478.334 198.895 480.555 196.72 482.048L196.689 482.246L201.533 485.924L201.869 485.957C204.951 483.167 206.728 479.063 206.728 474.195Z" fill="#4285F4"/>
<path d="M191.062 489.83C195.468 489.83 199.166 488.409 201.868 485.957L196.719 482.048C195.341 482.99 193.491 483.647 191.062 483.647C186.747 483.647 183.085 480.858 181.779 477.002L181.588 477.018L176.551 480.838L176.485 481.017C179.168 486.241 184.68 489.83 191.062 489.83Z" fill="#34A853"/>
<path d="M181.78 477.002C181.436 476.007 181.236 474.941 181.236 473.839C181.236 472.738 181.436 471.672 181.762 470.677L181.753 470.465L176.653 466.583L176.486 466.661C175.38 468.829 174.746 471.263 174.746 473.839C174.746 476.416 175.38 478.85 176.486 481.018L181.78 477.002Z" fill="#FBBC05"/>
<path d="M191.062 464.032C194.126 464.032 196.193 465.329 197.371 466.413L201.976 462.006C199.148 459.43 195.468 457.849 191.062 457.849C184.68 457.849 179.168 461.438 176.485 466.661L181.761 470.677C183.085 466.821 186.747 464.032 191.062 464.032Z" fill="#EB4335"/>
</g>
<g filter="url(#filter7_d_1_7252)">
<rect x="545" y="368.104" width="65.47" height="65.47" rx="18.2754" fill="white"/>
<path d="M577.735 384.849C568.915 384.849 561.744 392.02 561.744 400.84C561.744 409.66 568.915 416.831 577.735 416.831C586.555 416.831 593.726 409.66 593.726 400.84C593.726 392.02 586.555 384.849 577.735 384.849Z" fill="#FC471E"/>
<path fill-rule="evenodd" clip-rule="evenodd" d="M582.326 392.741C582.311 392.832 582.304 392.927 582.304 393.022C582.304 393.991 583.071 394.776 584.017 394.776C584.963 394.776 585.73 393.991 585.73 393.022C585.73 392.054 584.963 391.269 584.017 391.269C583.595 391.269 583.209 391.424 582.911 391.683L578.462 390.56L576.853 397.145C574.714 397.289 572.79 397.952 571.339 398.953C570.927 398.539 570.362 398.284 569.739 398.284C568.478 398.284 567.455 399.331 567.455 400.623C567.455 401.522 567.95 402.302 568.677 402.694C568.624 402.972 568.597 403.257 568.597 403.546C568.597 407.098 572.688 409.977 577.735 409.977C582.781 409.977 586.873 407.098 586.873 403.546C586.873 403.257 586.845 402.972 586.793 402.694C587.519 402.302 588.015 401.522 588.015 400.623C588.015 399.331 586.992 398.284 585.73 398.284C585.108 398.284 584.543 398.539 584.131 398.953C582.55 397.862 580.408 397.173 578.037 397.118L579.293 391.978L582.326 392.741ZM573.737 404.131C574.683 404.131 575.45 403.345 575.45 402.377C575.45 401.408 574.683 400.623 573.737 400.623C572.791 400.623 572.024 401.408 572.024 402.377C572.024 403.345 572.791 404.131 573.737 404.131ZM581.733 404.131C582.679 404.131 583.446 403.345 583.446 402.377C583.446 401.408 582.679 400.623 581.733 400.623C580.786 400.623 580.019 401.408 580.019 402.377C580.019 403.345 580.786 404.131 581.733 404.131ZM574.054 405.983C573.791 405.804 573.437 405.876 573.262 406.145C573.087 406.414 573.158 406.777 573.42 406.956C574.663 407.804 576.199 408.228 577.735 408.228C579.271 408.228 580.807 407.804 582.049 406.956C582.312 406.777 582.383 406.414 582.208 406.145C582.033 405.876 581.678 405.804 581.416 405.983C580.365 406.7 579.05 407.059 577.735 407.059C576.955 407.059 576.175 406.933 575.45 406.68C574.953 406.507 574.482 406.275 574.054 405.983Z" fill="white"/>
</g>
<path opacity="0.3" fill-rule="evenodd" clip-rule="evenodd" d="M270.5 526.96V532.438L296.069 552.771V552.771L304.436 548.229V542.751L296.07 547.294V547.293L270.5 526.96ZM305.309 534.023L304.436 534.476V539.953L305.309 539.501C307.18 538.531 308.122 537.108 308.087 535.656V530.256C308.085 531.681 307.146 533.071 305.309 534.023Z" fill="url(#paint4_linear_1_7252)"/>
<path opacity="0.6" fill-rule="evenodd" clip-rule="evenodd" d="M290.445 521.006L290.968 520.768C291.271 520.649 291.596 520.599 291.92 520.622C292.244 520.644 292.56 520.739 292.844 520.898L292.352 521.148L291.283 521.661L290.445 521.006ZM270.5 521.63L278.847 528.268L296.069 541.966L304.436 537.421V539.953V542.751L296.07 547.293V547.293L296.069 547.293L296.069 547.293V547.293L270.5 526.961V521.63ZM308.087 524.848C308.088 524.9 308.088 524.951 308.087 525.002V524.848ZM308.087 525.002V530.178V530.256C308.084 531.681 307.145 533.071 305.308 534.023L304.436 534.476V531.946L302.297 530.253L302.936 529.923L305.308 528.693C307.113 527.758 308.053 526.401 308.087 525.002Z" fill="url(#paint5_linear_1_7252)"/>
<path opacity="0.9" fill-rule="evenodd" clip-rule="evenodd" d="M290.334 520.92L287.528 518.73L286.936 518.283L286.004 517.555L287.076 517.055L288.524 516.403L288.73 516.308L290.968 515.29C291.297 515.162 291.652 515.116 292.003 515.155C292.354 515.195 292.69 515.319 292.984 515.518L296.31 518.083C296.827 518.478 296.763 519.03 296.173 519.313L295.878 519.455L293.982 520.365L292.849 520.908C292.564 520.746 292.249 520.65 291.924 520.626C291.599 520.601 291.272 520.65 290.968 520.768L290.444 521.005L290.334 520.92ZM295.411 535.963L290.282 531.886L283.078 526.155L278.847 522.79L270.5 516.153V521.483V521.63L278.847 528.268L296.07 541.966L304.436 537.421V537.273V534.476V531.946L296.07 536.488L295.411 535.963ZM308.087 519.448C308.087 519.521 308.085 519.594 308.08 519.666V519.448H308.087ZM308.08 519.666V524.846C308.115 526.298 307.173 527.721 305.302 528.691L302.929 529.921L302.29 530.251L298.11 526.943L298.644 526.666L300.517 525.696L302.937 524.445L305.309 523.215C307.052 522.312 307.989 521.014 308.08 519.666Z" fill="url(#paint6_linear_1_7252)"/>
<path d="M306.113 516.058L297.798 509.755C294.875 507.54 289.603 506.938 286.026 508.41L270.5 516.16L278.859 522.798L283.076 526.156L290.28 531.883L295.411 535.963L296.07 536.488L304.429 531.946L302.29 530.253L298.11 526.946L298.644 526.668L300.517 525.698L302.936 524.448L305.309 523.218C307.146 522.266 308.087 520.876 308.087 519.45C308.09 518.263 307.441 517.058 306.113 516.058ZM296.173 519.308L295.878 519.45L293.982 520.361L292.849 520.903L292.357 521.153L291.288 521.666L290.452 521.006L290.341 520.921L287.536 518.73L286.951 518.273L286.011 517.558L287.083 517.058L288.531 516.405L288.731 516.308L290.961 515.308C291.29 515.18 291.645 515.133 291.996 515.173C292.346 515.212 292.683 515.337 292.977 515.535L296.31 518.083C296.827 518.478 296.763 519.03 296.173 519.308Z" fill="white"/>
<path d="M298.166 526.951L302.309 530.229L304.448 531.922L304.484 531.951L304.443 531.972L296.084 536.515L296.066 536.525L296.051 536.512L295.392 535.987L295.392 535.987L290.261 531.907L283.057 526.179L283.057 526.179L278.84 522.822L278.84 522.822L270.481 516.184L270.444 516.155L270.486 516.133L286.013 508.383L286.015 508.382L286.015 508.382C287.809 507.644 290.026 507.426 292.161 507.67C294.295 507.914 296.349 508.619 297.816 509.731L297.798 509.755L297.816 509.731L306.131 516.034C307.464 517.038 308.12 518.251 308.118 519.451M298.166 526.951L308.087 519.45M298.166 526.951L298.658 526.695L298.658 526.695L300.531 525.725M298.166 526.951L300.531 525.725M308.118 519.451L308.087 519.45M308.118 519.451C308.118 519.451 308.118 519.451 308.118 519.45H308.087M308.118 519.451C308.118 520.89 307.166 522.289 305.323 523.245L305.309 523.218M308.087 519.45C308.087 520.876 307.146 522.266 305.309 523.218M305.309 523.218L305.323 523.245L302.95 524.475L302.95 524.475L300.531 525.725M305.309 523.218L300.531 525.725M300.531 525.725L300.531 525.725M300.531 525.725L300.531 525.725M296.16 519.281L296.16 519.281L295.865 519.423L295.865 519.423L293.969 520.333L293.969 520.333L292.836 520.876L292.835 520.876L292.344 521.126L292.343 521.126L291.292 521.63L290.47 520.982L290.47 520.981L290.36 520.897L290.359 520.896L287.554 518.707L287.554 518.707L286.969 518.249L286.969 518.249L286.07 517.564L287.096 517.086L287.096 517.085L288.544 516.433L288.544 516.433L288.545 516.433L288.743 516.336L288.744 516.335L290.972 515.336C291.297 515.21 291.647 515.164 291.992 515.203C292.338 515.242 292.669 515.364 292.959 515.56L296.292 518.107C296.292 518.107 296.292 518.107 296.292 518.107C296.545 518.3 296.65 518.528 296.626 518.736C296.603 518.945 296.449 519.145 296.16 519.281Z" stroke="#8C33E6" stroke-opacity="0.5" stroke-width="0.0606264"/>
<path opacity="0.15" fill-rule="evenodd" clip-rule="evenodd" d="M290.971 521.415L290.966 515.29L286.012 517.545L290.971 521.415ZM308.088 519.448C308.088 519.521 308.086 519.593 308.081 519.666V519.448H308.088ZM308.081 519.666C307.99 521.014 307.053 522.312 305.31 523.215L302.937 524.445L300.518 525.695L298.645 526.665L298.111 526.943L302.291 530.251L304.43 531.943V531.949L296.07 536.488V552.771L304.437 548.228V539.94L305.303 539.491C307.174 538.521 308.115 537.098 308.081 535.646V530.256V530.178V519.666Z" fill="#14142A"/>
<g clip-path="url(#clip1_1_7252)">
<path fill-rule="evenodd" clip-rule="evenodd" d="M370.679 528.396C370.679 529.088 370.579 529.74 370.376 530.352C370.175 530.961 369.887 531.498 369.515 531.959C369.143 532.421 368.707 532.783 368.208 533.051C367.968 533.176 367.714 533.273 367.447 533.338C367.145 533.404 366.827 533.442 366.489 533.444C366.108 533.442 365.755 533.4 365.43 533.326C365.325 533.301 365.222 533.273 365.121 533.237C365.096 533.229 365.071 533.221 365.046 533.213C364.913 533.166 364.785 533.111 364.661 533.051C364.129 532.784 363.672 532.422 363.289 531.959C362.907 531.499 362.615 530.957 362.413 530.333C362.21 529.71 362.109 529.042 362.109 528.327V528.258C362.109 527.566 362.21 526.915 362.413 526.303C362.615 525.692 362.901 525.156 363.274 524.694C363.646 524.232 364.081 523.869 364.582 523.604C364.822 523.476 365.076 523.382 365.343 523.316C365.645 523.25 365.962 523.211 366.3 523.209C366.681 523.211 367.033 523.252 367.359 523.328C367.464 523.353 367.567 523.382 367.668 523.415C367.694 523.424 367.719 523.432 367.743 523.442C367.876 523.489 368.004 523.542 368.129 523.604C368.66 523.869 369.116 524.232 369.499 524.694C369.882 525.156 370.175 525.698 370.376 526.32C370.579 526.942 370.679 527.612 370.679 528.327V528.396ZM370.409 519.45V520.595C370.058 520.28 369.684 519.997 369.283 519.748C369.16 519.666 369.041 519.578 368.914 519.504C368.424 519.218 367.866 519.01 367.246 518.873C366.71 518.742 366.154 518.674 365.575 518.674C365.533 518.674 365.497 518.68 365.456 518.681C365.411 518.68 365.371 518.674 365.326 518.674C364.149 518.674 363.072 518.928 362.095 519.434C361.117 519.942 360.278 520.636 359.576 521.512C358.873 522.388 358.323 523.414 357.924 524.59C357.526 525.767 357.327 527.013 357.327 528.327V528.396C357.327 529.71 357.526 530.951 357.924 532.116C358.323 533.279 358.873 534.295 359.576 535.159C360.145 535.862 360.81 536.439 361.561 536.906C361.684 536.987 361.803 537.075 361.932 537.148C362.42 537.434 362.978 537.643 363.597 537.782C364.134 537.912 364.692 537.979 365.269 537.979C365.31 537.979 365.347 537.973 365.388 537.973C365.433 537.973 365.473 537.979 365.518 537.979C366.694 537.979 367.772 537.725 368.749 537.218C369.357 536.902 369.907 536.506 370.409 536.046V537.204H375.67V519.45H370.409ZM430.076 528.396C430.076 529.088 429.976 529.74 429.773 530.352C429.572 530.961 429.284 531.498 428.912 531.959C428.54 532.421 428.105 532.783 427.605 533.051C427.364 533.176 427.11 533.273 426.842 533.338C426.54 533.404 426.224 533.442 425.886 533.444C425.505 533.442 425.153 533.4 424.827 533.326C424.722 533.301 424.619 533.273 424.518 533.237C424.493 533.229 424.468 533.221 424.443 533.213C424.31 533.166 424.182 533.111 424.057 533.051C423.526 532.784 423.069 532.422 422.687 531.959C422.304 531.499 422.011 530.957 421.81 530.333C421.607 529.71 421.507 529.042 421.507 528.327V528.258C421.507 527.566 421.607 526.915 421.81 526.303C422.011 525.692 422.299 525.156 422.671 524.694C423.043 524.232 423.479 523.869 423.978 523.604C424.218 523.476 424.473 523.382 424.741 523.316C425.041 523.25 425.359 523.211 425.697 523.209C426.078 523.211 426.431 523.252 426.756 523.328C426.861 523.353 426.964 523.382 427.065 523.415C427.09 523.424 427.115 523.432 427.14 523.442C427.272 523.489 427.401 523.542 427.524 523.604C428.057 523.869 428.514 524.232 428.896 524.694C429.279 525.156 429.572 525.698 429.773 526.32C429.976 526.942 430.076 527.612 430.076 528.327V528.396ZM429.805 519.45V520.595C429.455 520.28 429.081 519.997 428.679 519.748C428.558 519.666 428.437 519.578 428.31 519.504C427.821 519.218 427.264 519.01 426.644 518.873C426.108 518.742 425.55 518.674 424.973 518.674C424.93 518.674 424.894 518.68 424.853 518.681C424.808 518.68 424.769 518.674 424.724 518.674C423.546 518.674 422.47 518.928 421.492 519.434C420.514 519.942 419.675 520.636 418.972 521.512C418.27 522.388 417.721 523.414 417.322 524.59C416.923 525.767 416.725 527.013 416.725 528.327V528.396C416.725 529.71 416.923 530.951 417.322 532.116C417.721 533.279 418.27 534.295 418.972 535.159C419.542 535.862 420.206 536.439 420.959 536.906C421.082 536.987 421.201 537.075 421.328 537.148C421.817 537.434 422.374 537.643 422.994 537.782C423.53 537.912 424.088 537.979 424.667 537.979C424.708 537.979 424.744 537.973 424.785 537.973C424.83 537.973 424.869 537.979 424.916 537.979C426.092 537.979 427.168 537.725 428.147 537.218C428.755 536.902 429.304 536.506 429.805 536.046V537.204H435.068V519.45H429.805ZM467.825 537.36L462.979 529.784L461.145 531.722V537.36H455.882V512.104H461.145V525.563L467.306 518.817H473.607L466.546 526.117L473.849 537.36H467.825ZM451.014 536.824C449.861 537.459 448.36 537.776 446.514 537.776C445.129 537.776 443.843 537.523 442.654 537.016C441.464 536.508 440.443 535.821 439.59 534.957C438.736 534.092 438.067 533.077 437.583 531.911C437.098 530.746 436.856 529.508 436.856 528.193V528.123C436.856 526.809 437.098 525.563 437.583 524.387C438.067 523.21 438.736 522.185 439.59 521.308C440.443 520.431 441.464 519.74 442.654 519.232C443.843 518.725 445.151 518.471 446.583 518.471C448.336 518.471 449.79 518.747 450.944 519.302C452.099 519.855 453.114 520.616 453.991 521.585L450.772 525.045C450.17 524.421 449.555 523.926 448.92 523.557C448.285 523.188 447.494 523.004 446.548 523.004C445.878 523.004 445.273 523.136 444.731 523.402C444.188 523.667 443.714 524.03 443.312 524.491C442.908 524.952 442.597 525.489 442.377 526.101C442.157 526.711 442.048 527.362 442.048 528.054V528.123C442.048 528.839 442.157 529.508 442.377 530.131C442.597 530.753 442.913 531.294 443.329 531.756C443.744 532.218 444.24 532.581 444.818 532.846C445.394 533.112 446.04 533.244 446.756 533.244C447.633 533.244 448.401 533.065 449.058 532.708C449.716 532.351 450.368 531.871 451.014 531.272L454.094 534.385C453.195 535.377 452.168 536.191 451.014 536.824ZM403.234 534.403C402.876 535.152 402.374 535.769 401.728 536.253C401.082 536.738 400.325 537.101 399.459 537.344C398.594 537.585 397.665 537.707 396.673 537.707C395.358 537.707 394.014 537.482 392.64 537.032C391.267 536.583 389.957 535.872 388.711 534.905L390.961 531.445C391.977 532.182 392.986 532.737 393.991 533.106C394.994 533.474 395.934 533.659 396.812 533.659C397.573 533.659 398.132 533.532 398.49 533.278C398.849 533.024 399.028 532.691 399.028 532.275V532.206C399.028 531.929 398.923 531.686 398.715 531.479C398.508 531.272 398.225 531.093 397.867 530.943C397.509 530.794 397.099 530.65 396.638 530.511C396.176 530.372 395.692 530.222 395.184 530.061C394.538 529.877 393.887 529.652 393.228 529.386C392.57 529.121 391.977 528.776 391.446 528.348C390.915 527.922 390.482 527.396 390.148 526.773C389.813 526.152 389.646 525.39 389.646 524.491V524.421C389.646 523.476 389.825 522.64 390.182 521.914C390.54 521.186 391.025 520.57 391.636 520.063C392.247 519.554 392.963 519.175 393.782 518.921C394.602 518.666 395.484 518.541 396.431 518.541C397.608 518.541 398.801 518.73 400.014 519.11C401.225 519.491 402.338 520.016 403.354 520.686L401.346 524.318C400.423 523.788 399.523 523.366 398.646 523.055C397.769 522.743 396.996 522.587 396.327 522.587C395.68 522.587 395.196 522.708 394.873 522.952C394.549 523.193 394.388 523.5 394.388 523.868V523.937C394.388 524.191 394.492 524.416 394.7 524.612C394.908 524.808 395.184 524.993 395.531 525.166C395.877 525.337 396.276 525.505 396.725 525.667C397.175 525.829 397.654 525.991 398.161 526.152C398.808 526.359 399.465 526.606 400.135 526.895C400.805 527.183 401.403 527.535 401.936 527.951C402.465 528.367 402.904 528.872 403.251 529.472C403.596 530.074 403.77 530.799 403.77 531.653V531.722C403.77 532.759 403.591 533.654 403.234 534.403ZM414.655 537.416C413.985 537.613 413.986 537.673 413.109 537.673C412.3 537.673 411.568 537.585 410.91 537.412C410.253 537.24 409.687 536.934 409.214 536.496C408.74 536.058 408.371 535.487 408.106 534.783C407.841 534.08 407.707 533.187 407.707 532.103V523.926H405.173V519.429H407.707V514.078H412.97V519.429H415.49V523.926H412.97V531.236C412.97 532.438 413.536 533.036 414.667 533.036L414.655 537.416ZM386.78 537.416C386.11 537.613 386.112 537.673 385.235 537.673C384.426 537.673 383.695 537.585 383.037 537.412C382.378 537.24 381.813 536.934 381.34 536.496C380.867 536.058 380.498 535.487 380.232 534.783C379.967 534.08 379.834 533.187 379.834 532.103V523.926H377.3V519.429H379.834V514.078H385.096V519.429H387.617V523.926H385.096V531.236C385.096 532.438 385.661 533.036 386.792 533.036L386.78 537.416ZM350.276 537.36H355.538V512.104H350.276V537.36ZM343.713 528.123C343.713 528.913 343.593 529.621 343.35 530.247C343.108 530.875 342.778 531.415 342.364 531.869C341.948 532.321 341.469 532.669 340.927 532.913C340.385 533.156 339.803 533.278 339.179 533.278C338.556 533.278 337.972 533.156 337.431 532.913C336.888 532.669 336.415 532.321 336.011 531.869C335.607 531.415 335.284 530.869 335.042 530.231C334.799 529.592 334.677 528.891 334.677 528.123V528.054C334.677 527.288 334.799 526.586 335.042 525.946C335.284 525.309 335.607 524.764 336.011 524.31C336.415 523.856 336.888 523.509 337.431 523.266C337.972 523.021 338.556 522.9 339.179 522.9C339.803 522.9 340.385 523.021 340.927 523.266C341.469 523.509 341.948 523.856 342.364 524.31C342.778 524.764 343.108 525.309 343.35 525.946C343.593 526.586 343.713 527.288 343.713 528.054V528.123ZM347.779 523.955C347.306 522.767 346.677 521.764 345.893 520.944C345.108 520.126 344.207 519.508 343.193 519.094C342.177 518.678 341.127 518.471 340.042 518.471C338.658 518.471 337.509 518.751 336.598 519.312C335.687 519.874 334.906 520.588 334.26 521.458V518.817H329V542.896H334.26V534.961C334.884 535.694 335.651 536.334 336.563 536.884C337.474 537.433 338.634 537.707 340.042 537.707C341.151 537.707 342.211 537.499 343.227 537.083C344.243 536.669 345.137 536.052 345.91 535.233C346.682 534.415 347.306 533.411 347.779 532.223C348.252 531.036 348.489 529.669 348.489 528.123V528.054C348.489 526.51 348.252 525.143 347.779 523.955Z" fill="#EEEEEE"/>
<path fill-rule="evenodd" clip-rule="evenodd" d="M444.927 542.548H448.042C448.357 542.548 448.645 542.576 448.904 542.632C449.164 542.687 449.386 542.778 449.572 542.905C449.757 543.032 449.901 543.2 450.003 543.41C450.105 543.62 450.156 543.879 450.156 544.188C450.156 544.522 450.08 544.8 449.929 545.022C449.777 545.244 449.553 545.427 449.257 545.569C449.664 545.686 449.969 545.891 450.17 546.185C450.371 546.478 450.471 546.832 450.471 547.246C450.471 547.579 450.406 547.868 450.276 548.112C450.147 548.356 449.972 548.555 449.753 548.709C449.533 548.864 449.283 548.978 449.002 549.052C448.72 549.126 448.432 549.163 448.135 549.163H444.927V542.548ZM446.383 545.226H447.857C448.116 545.226 448.33 545.164 448.496 545.04C448.663 544.917 448.747 544.716 448.747 544.438C448.747 544.284 448.719 544.157 448.663 544.058C448.608 543.959 448.534 543.882 448.441 543.827C448.348 543.771 448.242 543.733 448.121 543.711C448 543.689 447.875 543.678 447.746 543.678H446.383V545.226ZM447.94 548.033H446.383V546.217H447.968C448.283 546.217 448.537 546.29 448.728 546.435C448.92 546.58 449.016 546.822 449.016 547.162C449.016 547.335 448.986 547.477 448.928 547.588C448.869 547.699 448.79 547.787 448.691 547.852C448.592 547.917 448.478 547.963 448.348 547.991C448.218 548.019 448.082 548.033 447.94 548.033ZM454.103 542.548H459.053V543.771H455.558V545.189H458.765V546.319H455.558V547.94H459.127V549.163H454.103V542.548ZM462.239 543.771H464.223V549.163H465.678V543.771H467.662V542.548H462.239V543.771ZM471.887 546.606H473.602L472.768 544.179H472.749L471.887 546.606ZM473.518 542.548H472.026L469.523 549.163H470.988L471.507 547.69H473.982L474.483 549.163H475.994L473.518 542.548Z" fill="#BC4CD0"/>
</g>
<defs>
<filter id="filter0_dd_1_7252" x="195.966" y="203.467" width="404.132" height="730.141" filterUnits="userSpaceOnUse" color-interpolation-filters="sRGB">
<feFlood flood-opacity="0" result="BackgroundImageFix"/>
<feColorMatrix in="SourceAlpha" type="matrix" values="0 0 0 0 0 0 0 0 0 0 0 0 0 0 0 0 0 0 127 0" result="hardAlpha"/>
<feMorphology radius="1.50235" operator="erode" in="SourceAlpha" result="effect1_dropShadow_1_7252"/>
<feOffset dx="12.0188" dy="12.0188"/>
<feGaussianBlur stdDeviation="12.0188"/>
<feColorMatrix type="matrix" values="0 0 0 0 0.0627451 0 0 0 0 0.0941176 0 0 0 0 0.156863 0 0 0 0.08 0"/>
<feBlend mode="normal" in2="BackgroundImageFix" result="effect1_dropShadow_1_7252"/>
<feColorMatrix in="SourceAlpha" type="matrix" values="0 0 0 0 0 0 0 0 0 0 0 0 0 0 0 0 0 0 127 0" result="hardAlpha"/>
<feMorphology radius="3.00469" operator="erode" in="SourceAlpha" result="effect2_dropShadow_1_7252"/>
<feOffset dx="24.0376" dy="24.0376"/>
<feGaussianBlur stdDeviation="24.0376"/>
<feColorMatrix type="matrix" values="0 0 0 0 0.0627451 0 0 0 0 0.0941176 0 0 0 0 0.156863 0 0 0 0.2 0"/>
<feBlend mode="normal" in2="effect1_dropShadow_1_7252" result="effect2_dropShadow_1_7252"/>
<feBlend mode="normal" in="SourceGraphic" in2="effect2_dropShadow_1_7252" result="shape"/>
</filter>
<filter id="filter1_d_1_7252" x="0.677017" y="56.3503" width="222.116" height="222.116" filterUnits="userSpaceOnUse" color-interpolation-filters="sRGB">
<feFlood flood-opacity="0" result="BackgroundImageFix"/>
<feColorMatrix in="SourceAlpha" type="matrix" values="0 0 0 0 0 0 0 0 0 0 0 0 0 0 0 0 0 0 127 0" result="hardAlpha"/>
<feOffset dy="4.56884"/>
<feGaussianBlur stdDeviation="39.1615"/>
<feColorMatrix type="matrix" values="0 0 0 0 0.679167 0 0 0 0 0.270833 0 0 0 0 1 0 0 0 0.25 0"/>
<feBlend mode="normal" in2="BackgroundImageFix" result="effect1_dropShadow_1_7252"/>
<feBlend mode="normal" in="SourceGraphic" in2="effect1_dropShadow_1_7252" result="shape"/>
</filter>
<filter id="filter2_d_1_7252" x="14.677" y="229.35" width="222.116" height="222.116" filterUnits="userSpaceOnUse" color-interpolation-filters="sRGB">
<feFlood flood-opacity="0" result="BackgroundImageFix"/>
<feColorMatrix in="SourceAlpha" type="matrix" values="0 0 0 0 0 0 0 0 0 0 0 0 0 0 0 0 0 0 127 0" result="hardAlpha"/>
<feOffset dy="4.56884"/>
<feGaussianBlur stdDeviation="39.1615"/>
<feColorMatrix type="matrix" values="0 0 0 0 0.679167 0 0 0 0 0.270833 0 0 0 0 1 0 0 0 0.25 0"/>
<feBlend mode="normal" in2="BackgroundImageFix" result="effect1_dropShadow_1_7252"/>
<feBlend mode="normal" in="SourceGraphic" in2="effect1_dropShadow_1_7252" result="shape"/>
</filter>
<filter id="filter3_d_1_7252" x="203.677" y="93.3503" width="222.116" height="222.116" filterUnits="userSpaceOnUse" color-interpolation-filters="sRGB">
<feFlood flood-opacity="0" result="BackgroundImageFix"/>
<feColorMatrix in="SourceAlpha" type="matrix" values="0 0 0 0 0 0 0 0 0 0 0 0 0 0 0 0 0 0 127 0" result="hardAlpha"/>
<feOffset dy="4.56884"/>
<feGaussianBlur stdDeviation="39.1615"/>
<feColorMatrix type="matrix" values="0 0 0 0 0.679167 0 0 0 0 0.270833 0 0 0 0 1 0 0 0 0.25 0"/>
<feBlend mode="normal" in2="BackgroundImageFix" result="effect1_dropShadow_1_7252"/>
<feBlend mode="normal" in="SourceGraphic" in2="effect1_dropShadow_1_7252" result="shape"/>
</filter>
<filter id="filter4_d_1_7252" x="513.677" y="158.35" width="222.116" height="222.116" filterUnits="userSpaceOnUse" color-interpolation-filters="sRGB">
<feFlood flood-opacity="0" result="BackgroundImageFix"/>
<feColorMatrix in="SourceAlpha" type="matrix" values="0 0 0 0 0 0 0 0 0 0 0 0 0 0 0 0 0 0 127 0" result="hardAlpha"/>
<feOffset dy="4.56884"/>
<feGaussianBlur stdDeviation="39.1615"/>
<feColorMatrix type="matrix" values="0 0 0 0 0.679167 0 0 0 0 0.270833 0 0 0 0 1 0 0 0 0.25 0"/>
<feBlend mode="normal" in2="BackgroundImageFix" result="effect1_dropShadow_1_7252"/>
<feBlend mode="normal" in="SourceGraphic" in2="effect1_dropShadow_1_7252" result="shape"/>
</filter>
<filter id="filter5_d_1_7252" x="349.677" y="0.35035" width="222.116" height="222.116" filterUnits="userSpaceOnUse" color-interpolation-filters="sRGB">
<feFlood flood-opacity="0" result="BackgroundImageFix"/>
<feColorMatrix in="SourceAlpha" type="matrix" values="0 0 0 0 0 0 0 0 0 0 0 0 0 0 0 0 0 0 127 0" result="hardAlpha"/>
<feOffset dy="4.56884"/>
<feGaussianBlur stdDeviation="39.1615"/>
<feColorMatrix type="matrix" values="0 0 0 0 0.679167 0 0 0 0 0.270833 0 0 0 0 1 0 0 0 0.25 0"/>
<feBlend mode="normal" in2="BackgroundImageFix" result="effect1_dropShadow_1_7252"/>
<feBlend mode="normal" in="SourceGraphic" in2="effect1_dropShadow_1_7252" result="shape"/>
</filter>
<filter id="filter6_d_1_7252" x="79.677" y="367.35" width="222.116" height="222.116" filterUnits="userSpaceOnUse" color-interpolation-filters="sRGB">
<feFlood flood-opacity="0" result="BackgroundImageFix"/>
<feColorMatrix in="SourceAlpha" type="matrix" values="0 0 0 0 0 0 0 0 0 0 0 0 0 0 0 0 0 0 127 0" result="hardAlpha"/>
<feOffset dy="4.56884"/>
<feGaussianBlur stdDeviation="39.1615"/>
<feColorMatrix type="matrix" values="0 0 0 0 0.679167 0 0 0 0 0.270833 0 0 0 0 1 0 0 0 0.25 0"/>
<feBlend mode="normal" in2="BackgroundImageFix" result="effect1_dropShadow_1_7252"/>
<feBlend mode="normal" in="SourceGraphic" in2="effect1_dropShadow_1_7252" result="shape"/>
</filter>
<filter id="filter7_d_1_7252" x="466.677" y="294.35" width="222.116" height="222.116" filterUnits="userSpaceOnUse" color-interpolation-filters="sRGB">
<feFlood flood-opacity="0" result="BackgroundImageFix"/>
<feColorMatrix in="SourceAlpha" type="matrix" values="0 0 0 0 0 0 0 0 0 0 0 0 0 0 0 0 0 0 127 0" result="hardAlpha"/>
<feOffset dy="4.56884"/>
<feGaussianBlur stdDeviation="39.1615"/>
<feColorMatrix type="matrix" values="0 0 0 0 0.679167 0 0 0 0 0.270833 0 0 0 0 1 0 0 0 0.25 0"/>
<feBlend mode="normal" in2="BackgroundImageFix" result="effect1_dropShadow_1_7252"/>
<feBlend mode="normal" in="SourceGraphic" in2="effect1_dropShadow_1_7252" result="shape"/>
</filter>
<linearGradient id="paint0_linear_1_7252" x1="43.1951" y1="609.953" x2="114.592" y2="33.8639" gradientUnits="userSpaceOnUse">
<stop stop-color="#2D0077"/>
<stop offset="0.928811" stop-color="#9C1EFF"/>
</linearGradient>
<radialGradient id="paint1_radial_1_7252" cx="0" cy="0" r="1" gradientUnits="userSpaceOnUse" gradientTransform="translate(310.166 207.835) rotate(-55.3758) scale(29.1487)">
<stop stop-color="#B13589"/>
<stop offset="0.79309" stop-color="#C62F94"/>
<stop offset="1" stop-color="#8A3AC8"/>
</radialGradient>
<radialGradient id="paint2_radial_1_7252" cx="0" cy="0" r="1" gradientUnits="userSpaceOnUse" gradientTransform="translate(309.024 216.973) rotate(-65.1363) scale(25.8074)">
<stop stop-color="#E0E8B7"/>
<stop offset="0.444662" stop-color="#FB8A2E"/>
<stop offset="0.71474" stop-color="#E2425C"/>
<stop offset="1" stop-color="#E2425C" stop-opacity="0"/>
</radialGradient>
<radialGradient id="paint3_radial_1_7252" cx="0" cy="0" r="1" gradientUnits="userSpaceOnUse" gradientTransform="translate(297.031 184.991) rotate(-8.1301) scale(44.4215 9.50131)">
<stop offset="0.156701" stop-color="#406ADC"/>
<stop offset="0.467799" stop-color="#6A45BE"/>
<stop offset="1" stop-color="#6A45BE" stop-opacity="0"/>
</radialGradient>
<linearGradient id="paint4_linear_1_7252" x1="1166.2" y1="2152.73" x2="1450.92" y2="2152.73" gradientUnits="userSpaceOnUse">
<stop stop-color="#AE06FA"/>
<stop offset="1" stop-color="#6D5DD4"/>
</linearGradient>
<linearGradient id="paint5_linear_1_7252" x1="1166.19" y1="1910.32" x2="1450.91" y2="1910.32" gradientUnits="userSpaceOnUse">
<stop stop-color="#AE06FA"/>
<stop offset="1" stop-color="#6D5DD4"/>
</linearGradient>
<linearGradient id="paint6_linear_1_7252" x1="18613.7" y1="527.221" x2="19075.2" y2="527.221" gradientUnits="userSpaceOnUse">
<stop stop-color="#AE06FA"/>
<stop offset="1" stop-color="#6D5DD4"/>
</linearGradient>
<clipPath id="clip0_1_7252">
<rect width="281.69" height="609.953" fill="white" transform="translate(232.775 238.772)"/>
</clipPath>
<clipPath id="clip1_1_7252">
<rect width="147" height="39.5294" fill="white" transform="translate(329 512.104)"/>
</clipPath>
</defs>
</svg>
