<svg width="576" height="360" viewBox="0 0 576 360" fill="none" xmlns="http://www.w3.org/2000/svg">
<rect width="576" height="360" rx="24" fill="url(#paint0_linear_1_7100)"/>
<g filter="url(#filter0_d_1_7100)">
<rect x="31.5198" y="149.43" width="272.571" height="44.7853" rx="22.3927" transform="rotate(2.38808 31.5198 149.43)" fill="white" shape-rendering="crispEdges"/>
<path d="M51.9295 178.216L49.0904 165.62L51.1162 165.704L53.1564 176.114L56.4294 165.926L58.5085 166.012L60.833 176.434L63.7328 166.23L65.7586 166.315L61.828 178.611L59.6246 178.519L57.3126 168.65L54.0981 178.289L51.9295 178.216ZM66.897 178.823L67.4306 166.028L69.3142 166.107L69.0889 171.509C69.4063 171.012 69.8316 170.632 70.3647 170.37C70.9101 170.096 71.5027 169.972 72.1424 169.999C73.1968 170.043 74.0122 170.409 74.5887 171.098C75.1652 171.786 75.4261 172.788 75.3712 174.103L75.16 179.167L73.2942 179.09L73.4972 174.221C73.5684 172.515 72.9228 171.633 71.5604 171.576C70.8496 171.547 70.2469 171.771 69.7523 172.249C69.2695 172.727 69.0089 173.428 68.9703 174.352L68.7806 178.901L66.897 178.823ZM80.3549 179.598C79.6086 179.566 78.9978 179.416 78.5224 179.147C78.0471 178.878 77.6994 178.537 77.4792 178.125C77.2596 177.7 77.1599 177.245 77.1801 176.759C77.2157 175.907 77.5756 175.245 78.2597 174.775C78.9439 174.305 79.902 174.096 81.134 174.147L83.4441 174.244L83.4508 174.084C83.4795 173.397 83.3114 172.874 82.9466 172.514C82.5937 172.155 82.1211 171.964 81.5288 171.939C81.0075 171.917 80.546 172.028 80.1442 172.273C79.7547 172.506 79.5081 172.869 79.4045 173.363L77.5209 173.285C77.6068 172.647 77.8427 172.111 78.2288 171.677C78.6271 171.23 79.1156 170.901 79.6941 170.687C80.2849 170.463 80.9239 170.365 81.611 170.394C82.8431 170.445 83.7831 170.81 84.4312 171.49C85.0798 172.158 85.3808 173.049 85.3344 174.162L85.1084 179.582L83.4735 179.514L83.3766 177.997C83.1076 178.472 82.7292 178.866 82.2415 179.178C81.7538 179.49 81.125 179.63 80.3549 179.598ZM80.7918 178.085C81.3012 178.106 81.7326 178.006 82.0861 177.783C82.4519 177.549 82.7379 177.235 82.9443 176.84C83.1624 176.445 83.3054 176.006 83.373 175.522L81.2762 175.435C80.5298 175.404 79.9913 175.512 79.6606 175.759C79.3417 176.007 79.1741 176.326 79.1578 176.717C79.141 177.12 79.2757 177.446 79.562 177.695C79.8606 177.933 80.2706 178.063 80.7918 178.085ZM90.8272 179.821C89.9624 179.785 89.284 179.549 88.7919 179.113C88.3002 178.665 88.0769 177.902 88.1219 176.824L88.3034 172.471L86.793 172.408L86.859 170.826L88.3694 170.889L88.6938 168.66L90.3464 168.729L90.253 170.968L92.7408 171.071L92.6748 172.653L90.187 172.549L90.0055 176.903C89.9852 177.388 90.0718 177.73 90.2653 177.928C90.4712 178.115 90.8288 178.219 91.3382 178.24L92.3511 178.282L92.2844 179.881L90.8272 179.821ZM100.552 180.226L98.325 171.304L100.209 171.383L101.637 178.1L103.834 171.534L105.93 171.621L107.572 178.347L109.556 171.773L111.439 171.851L108.477 180.557L106.54 180.476L104.804 173.461L102.489 180.307L100.552 180.226ZM115.201 181.051C114.454 181.02 113.843 180.87 113.368 180.601C112.893 180.332 112.545 179.991 112.325 179.578C112.105 179.153 112.006 178.698 112.026 178.213C112.061 177.36 112.421 176.698 113.105 176.228C113.79 175.759 114.748 175.549 115.98 175.601L118.29 175.697L118.296 175.537C118.325 174.85 118.157 174.327 117.792 173.967C117.439 173.608 116.967 173.417 116.374 173.392C115.853 173.37 115.392 173.482 114.99 173.726C114.6 173.959 114.354 174.322 114.25 174.816L112.366 174.738C112.452 174.101 112.688 173.565 113.074 173.13C113.473 172.684 113.961 172.354 114.54 172.141C115.131 171.916 115.77 171.818 116.457 171.847C117.689 171.898 118.629 172.264 119.277 172.943C119.925 173.611 120.226 174.502 120.18 175.616L119.954 181.035L118.319 180.967L118.222 179.45C117.953 179.925 117.575 180.319 117.087 180.631C116.599 180.943 115.971 181.083 115.201 181.051ZM115.637 179.538C116.147 179.559 116.578 179.459 116.932 179.236C117.297 179.002 117.584 178.688 117.79 178.293C118.008 177.898 118.151 177.459 118.219 176.976L116.122 176.888C115.375 176.857 114.837 176.965 114.506 177.212C114.187 177.46 114.02 177.78 114.003 178.171C113.987 178.573 114.121 178.899 114.408 179.149C114.706 179.387 115.116 179.516 115.637 179.538ZM125.66 181.487C124.546 181.441 123.639 181.13 122.94 180.555C122.24 179.98 121.855 179.24 121.786 178.335L123.687 178.414C123.765 178.821 123.976 179.18 124.319 179.491C124.663 179.79 125.125 179.952 125.705 179.976C126.274 180 126.693 179.898 126.964 179.672C127.234 179.446 127.376 179.179 127.389 178.871C127.408 178.421 127.237 178.111 126.876 177.942C126.527 177.761 126.036 177.592 125.402 177.435C124.908 177.308 124.417 177.145 123.927 176.947C123.448 176.749 123.05 176.483 122.732 176.149C122.426 175.804 122.284 175.353 122.307 174.796C122.34 174.026 122.662 173.399 123.276 172.914C123.89 172.418 124.73 172.192 125.796 172.236C126.78 172.277 127.563 172.547 128.148 173.046C128.744 173.546 129.078 174.23 129.148 175.1L127.336 175.024C127.292 174.642 127.127 174.339 126.84 174.113C126.564 173.888 126.184 173.765 125.698 173.745C125.224 173.725 124.853 173.811 124.584 174.001C124.315 174.18 124.174 174.423 124.161 174.731C124.149 175.039 124.316 175.29 124.664 175.482C125.024 175.675 125.497 175.855 126.084 176.022C126.67 176.177 127.209 176.354 127.699 176.552C128.202 176.739 128.6 177.005 128.894 177.35C129.188 177.694 129.322 178.186 129.295 178.826C129.274 179.632 128.932 180.288 128.27 180.795C127.62 181.302 126.75 181.532 125.66 181.487ZM139.417 181.847C138.552 181.811 137.874 181.575 137.381 181.139C136.89 180.691 136.666 179.929 136.711 178.851L136.893 174.497L135.383 174.434L135.448 172.852L136.959 172.915L137.283 170.686L138.936 170.755L138.843 172.994L141.33 173.098L141.264 174.679L138.777 174.575L138.595 178.929C138.575 179.415 138.661 179.757 138.855 179.955C139.061 180.141 139.418 180.245 139.928 180.266L140.941 180.309L140.874 181.908L139.417 181.847ZM142.905 181.993L143.439 169.198L145.322 169.277L145.097 174.679C145.414 174.182 145.84 173.802 146.373 173.539C146.918 173.265 147.511 173.142 148.15 173.169C149.205 173.212 150.02 173.579 150.597 174.267C151.173 174.956 151.434 175.958 151.379 177.273L151.168 182.337L149.302 182.259L149.505 177.39C149.576 175.685 148.931 174.803 147.568 174.746C146.858 174.717 146.255 174.941 145.76 175.419C145.277 175.897 145.017 176.598 144.978 177.522L144.789 182.071L142.905 181.993ZM156.363 182.767C155.617 182.736 155.006 182.586 154.53 182.317C154.055 182.048 153.707 181.707 153.487 181.295C153.267 180.87 153.168 180.415 153.188 179.929C153.224 179.076 153.583 178.415 154.268 177.945C154.952 177.475 155.91 177.266 157.142 177.317L159.452 177.414L159.459 177.254C159.487 176.567 159.319 176.043 158.955 175.684C158.602 175.325 158.129 175.133 157.537 175.109C157.015 175.087 156.554 175.198 156.152 175.443C155.763 175.675 155.516 176.039 155.412 176.533L153.529 176.455C153.615 175.817 153.851 175.281 154.237 174.846C154.635 174.4 155.123 174.07 155.702 173.857C156.293 173.633 156.932 173.535 157.619 173.563C158.851 173.615 159.791 173.98 160.439 174.66C161.088 175.328 161.389 176.219 161.342 177.332L161.116 182.752L159.481 182.684L159.385 181.167C159.115 181.642 158.737 182.036 158.249 182.348C157.762 182.66 157.133 182.8 156.363 182.767ZM156.8 181.255C157.309 181.276 157.741 181.175 158.094 180.953C158.46 180.719 158.746 180.404 158.952 180.009C159.17 179.615 159.313 179.176 159.381 178.692L157.284 178.605C156.538 178.574 155.999 178.682 155.668 178.929C155.35 179.177 155.182 179.496 155.166 179.887C155.149 180.29 155.284 180.616 155.57 180.865C155.869 181.103 156.278 181.233 156.8 181.255ZM166.835 182.991C165.97 182.954 165.292 182.719 164.8 182.283C164.308 181.835 164.085 181.072 164.13 179.994L164.311 175.64L162.801 175.577L162.867 173.996L164.377 174.059L164.702 171.829L166.354 171.898L166.261 174.137L168.749 174.241L168.683 175.823L166.195 175.719L166.013 180.073C165.993 180.558 166.08 180.9 166.273 181.098C166.479 181.285 166.837 181.389 167.346 181.41L168.359 181.452L168.292 183.051L166.835 182.991ZM177.271 183.426L174.333 174.474L176.305 174.556L178.465 181.678L181.21 174.761L183.165 174.842L179.51 183.519L177.271 183.426ZM185.848 173.281C185.493 173.266 185.201 173.147 184.973 172.924C184.757 172.69 184.657 172.407 184.67 172.075C184.684 171.743 184.808 171.475 185.042 171.272C185.288 171.056 185.589 170.956 185.945 170.971C186.3 170.986 186.586 171.11 186.801 171.345C187.029 171.568 187.136 171.845 187.123 172.177C187.109 172.509 186.979 172.782 186.732 172.997C186.498 173.201 186.204 173.296 185.848 173.281ZM184.469 183.726L184.837 174.912L186.72 174.991L186.353 183.805L184.469 183.726ZM192.846 184.289C191.994 184.253 191.25 184.021 190.615 183.591C189.98 183.161 189.494 182.589 189.156 181.874C188.818 181.16 188.667 180.359 188.704 179.47C188.741 178.582 188.958 177.802 189.353 177.13C189.75 176.446 190.282 175.922 190.95 175.559C191.63 175.184 192.397 175.014 193.25 175.049C193.949 175.078 194.553 175.24 195.063 175.534C195.585 175.829 195.983 176.231 196.259 176.741L196.481 171.41L198.365 171.489L197.831 184.283L196.143 184.213L196.004 182.836C195.703 183.239 195.297 183.59 194.786 183.889C194.275 184.188 193.628 184.322 192.846 184.289ZM193.252 182.668C194.058 182.702 194.727 182.451 195.26 181.915C195.804 181.38 196.095 180.674 196.131 179.798C196.168 178.909 195.937 178.182 195.439 177.615C194.953 177.037 194.307 176.731 193.501 176.698C192.696 176.664 192.021 176.915 191.476 177.45C190.932 177.973 190.642 178.679 190.605 179.567C190.58 180.148 190.677 180.668 190.896 181.128C191.114 181.588 191.425 181.957 191.829 182.235C192.245 182.502 192.719 182.646 193.252 182.668ZM204.32 184.767C203.455 184.731 202.693 184.51 202.033 184.102C201.386 183.684 200.887 183.123 200.537 182.42C200.186 181.717 200.03 180.91 200.068 179.998C200.107 179.073 200.324 178.27 200.721 177.586C201.129 176.903 201.673 176.38 202.353 176.016C203.044 175.654 203.834 175.491 204.723 175.528C205.588 175.564 206.332 175.791 206.955 176.208C207.579 176.614 208.055 177.144 208.384 177.799C208.713 178.453 208.861 179.166 208.829 179.936C208.824 180.054 208.813 180.184 208.795 180.326C208.789 180.456 208.777 180.604 208.759 180.769L201.899 180.483C201.923 181.339 202.174 182.002 202.653 182.473C203.144 182.932 203.721 183.176 204.385 183.204C204.918 183.226 205.367 183.126 205.732 182.904C206.11 182.67 206.396 182.35 206.591 181.943L208.475 182.021C208.203 182.841 207.701 183.514 206.967 184.041C206.244 184.569 205.362 184.811 204.32 184.767ZM204.64 177.073C204.013 177.047 203.448 177.213 202.946 177.572C202.445 177.919 202.126 178.463 201.988 179.205L206.964 179.413C206.957 178.724 206.737 178.169 206.303 177.748C205.87 177.326 205.316 177.101 204.64 177.073ZM214.697 185.2C213.856 185.165 213.106 184.944 212.446 184.537C211.799 184.118 211.294 183.557 210.932 182.854C210.57 182.138 210.409 181.319 210.447 180.395C210.486 179.471 210.715 178.673 211.134 178.003C211.566 177.32 212.128 176.804 212.819 176.453C213.51 176.09 214.271 175.926 215.1 175.961C215.941 175.996 216.685 176.223 217.332 176.641C217.992 177.048 218.502 177.61 218.864 178.325C219.238 179.029 219.406 179.843 219.368 180.767C219.329 181.691 219.094 182.494 218.662 183.176C218.242 183.847 217.687 184.364 216.995 184.726C216.304 185.077 215.538 185.235 214.697 185.2ZM214.764 183.583C215.215 183.602 215.634 183.507 216.022 183.297C216.423 183.089 216.75 182.77 217.006 182.342C217.261 181.901 217.403 181.349 217.431 180.686C217.458 180.023 217.363 179.467 217.144 179.019C216.938 178.559 216.644 178.209 216.262 177.967C215.893 177.726 215.483 177.596 215.033 177.578C214.582 177.559 214.157 177.654 213.757 177.863C213.368 178.072 213.046 178.397 212.791 178.837C212.535 179.265 212.394 179.811 212.366 180.475C212.339 181.138 212.434 181.7 212.652 182.16C212.871 182.608 213.165 182.953 213.535 183.194C213.904 183.435 214.314 183.564 214.764 183.583ZM229.865 185.833C229 185.797 228.232 185.569 227.562 185.149C226.903 184.73 226.392 184.169 226.03 183.466C225.68 182.751 225.524 181.937 225.562 181.025C225.6 180.113 225.823 179.321 226.231 178.65C226.651 177.967 227.207 177.445 227.898 177.082C228.602 176.719 229.386 176.556 230.25 176.592C231.34 176.638 232.241 176.96 232.951 177.56C233.674 178.159 234.122 178.949 234.294 179.93L232.322 179.847C232.224 179.357 231.979 178.967 231.588 178.677C231.196 178.388 230.728 178.232 230.183 178.209C229.721 178.19 229.29 178.291 228.889 178.512C228.488 178.72 228.16 179.045 227.905 179.485C227.649 179.914 227.508 180.454 227.481 181.105C227.454 181.757 227.549 182.313 227.768 182.773C227.986 183.221 228.286 183.571 228.667 183.825C229.048 184.078 229.47 184.214 229.932 184.233C230.477 184.256 230.956 184.14 231.37 183.884C231.785 183.628 232.061 183.254 232.2 182.762L234.173 182.844C233.932 183.783 233.426 184.528 232.656 185.077C231.885 185.626 230.955 185.878 229.865 185.833ZM239.069 186.217C238.323 186.185 237.712 186.035 237.237 185.766C236.761 185.497 236.414 185.156 236.193 184.744C235.974 184.319 235.874 183.864 235.894 183.379C235.93 182.526 236.29 181.864 236.974 181.394C237.658 180.924 238.616 180.715 239.848 180.766L242.158 180.863L242.165 180.703C242.194 180.016 242.026 179.493 241.661 179.133C241.308 178.774 240.835 178.583 240.243 178.558C239.722 178.536 239.26 178.647 238.858 178.892C238.469 179.125 238.222 179.488 238.119 179.982L236.235 179.904C236.321 179.267 236.557 178.73 236.943 178.296C237.341 177.849 237.83 177.52 238.408 177.306C238.999 177.082 239.638 176.984 240.325 177.013C241.557 177.064 242.497 177.43 243.145 178.109C243.794 178.777 244.095 179.668 244.049 180.781L243.823 186.201L242.188 186.133L242.091 184.616C241.822 185.091 241.443 185.485 240.956 185.797C240.468 186.109 239.839 186.249 239.069 186.217ZM239.506 184.704C240.015 184.725 240.447 184.625 240.8 184.402C241.166 184.168 241.452 183.854 241.659 183.459C241.877 183.064 242.02 182.625 242.087 182.142L239.99 182.054C239.244 182.023 238.706 182.131 238.375 182.378C238.056 182.626 237.888 182.945 237.872 183.336C237.855 183.739 237.99 184.065 238.276 184.314C238.575 184.552 238.985 184.682 239.506 184.704ZM246.019 186.293L246.552 173.499L248.436 173.577L247.902 186.371L246.019 186.293ZM250.288 186.471L250.821 173.677L252.705 173.755L252.171 186.549L250.288 186.471ZM258.67 187.034C257.806 186.998 257.044 186.776 256.384 186.369C255.737 185.95 255.238 185.39 254.888 184.687C254.537 183.984 254.381 183.176 254.419 182.264C254.458 181.34 254.675 180.536 255.072 179.853C255.48 179.17 256.024 178.646 256.704 178.283C257.395 177.92 258.185 177.757 259.074 177.794C259.938 177.831 260.683 178.057 261.306 178.475C261.93 178.881 262.406 179.411 262.735 180.065C263.064 180.72 263.212 181.432 263.18 182.202C263.175 182.321 263.163 182.451 263.146 182.593C263.14 182.723 263.128 182.871 263.109 183.036L256.25 182.75C256.274 183.605 256.525 184.269 257.004 184.739C257.495 185.199 258.072 185.443 258.736 185.47C259.269 185.493 259.718 185.393 260.083 185.171C260.461 184.937 260.747 184.617 260.942 184.209L262.826 184.288C262.554 185.107 262.051 185.781 261.317 186.308C260.595 186.835 259.713 187.078 258.67 187.034ZM258.991 179.34C258.363 179.314 257.799 179.48 257.297 179.839C256.796 180.186 256.477 180.73 256.339 181.472L261.315 181.68C261.308 180.991 261.088 180.436 260.654 180.014C260.221 179.593 259.667 179.368 258.991 179.34ZM268.941 187.462C268.088 187.427 267.344 187.194 266.71 186.764C266.075 186.334 265.588 185.762 265.25 185.048C264.912 184.334 264.762 183.532 264.799 182.644C264.836 181.755 265.052 180.975 265.448 180.303C265.845 179.62 266.377 179.096 267.045 178.732C267.725 178.357 268.491 178.187 269.344 178.223C270.043 178.252 270.648 178.414 271.158 178.708C271.679 179.003 272.078 179.405 272.353 179.915L272.576 174.584L274.459 174.662L273.926 187.457L272.238 187.386L272.099 186.01C271.797 186.413 271.391 186.764 270.88 187.063C270.369 187.362 269.723 187.495 268.941 187.462ZM269.347 185.842C270.153 185.875 270.822 185.624 271.354 185.089C271.899 184.554 272.189 183.848 272.226 182.971C272.263 182.083 272.032 181.355 271.534 180.788C271.047 180.21 270.402 179.905 269.596 179.871C268.79 179.837 268.115 180.088 267.571 180.623C267.027 181.146 266.736 181.852 266.699 182.741C266.675 183.321 266.772 183.841 266.99 184.302C267.208 184.762 267.519 185.131 267.923 185.408C268.339 185.675 268.814 185.819 269.347 185.842ZM277.822 183.934L277.872 181.035L278.547 181.063C279.187 181.09 279.776 181.055 280.314 180.959C280.864 180.863 281.306 180.65 281.64 180.32C281.986 179.99 282.173 179.488 282.201 178.812C282.228 178.161 282.048 177.643 281.661 177.259C281.274 176.863 280.755 176.652 280.103 176.624C279.428 176.596 278.887 176.758 278.481 177.109C278.074 177.46 277.858 177.949 277.832 178.577L276.055 178.503C276.073 177.791 276.253 177.17 276.596 176.638C276.95 176.107 277.43 175.7 278.035 175.417C278.652 175.134 279.363 175.009 280.169 175.043C280.951 175.075 281.638 175.252 282.23 175.574C282.821 175.895 283.271 176.341 283.58 176.912C283.901 177.471 284.045 178.136 284.013 178.906C283.978 179.747 283.765 180.432 283.375 180.962C282.986 181.48 282.466 181.856 281.815 182.089C281.165 182.312 280.426 182.405 279.596 182.371L279.475 184.003L277.822 183.934ZM278.5 187.754C278.132 187.739 277.841 187.614 277.625 187.38C277.41 187.133 277.309 186.85 277.322 186.53C277.336 186.199 277.46 185.925 277.695 185.709C277.93 185.482 278.231 185.376 278.598 185.391C278.942 185.405 279.221 185.535 279.436 185.782C279.664 186.017 279.771 186.3 279.757 186.632C279.744 186.952 279.613 187.225 279.367 187.452C279.132 187.668 278.843 187.769 278.5 187.754Z" fill="#05A8CD"/>
</g>
<g filter="url(#filter1_d_1_7100)">
<rect x="305.424" y="142.783" width="240.463" height="43.2316" rx="21.6158" transform="rotate(-2.26085 305.424 142.783)" fill="white" shape-rendering="crispEdges"/>
<path d="M327.417 169.569L323.686 157.628L325.649 157.55L328.437 167.442L330.797 157.347L332.812 157.268L335.875 167.149L337.874 157.068L339.837 156.99L337.007 169.173L334.872 169.258L331.864 159.909L329.517 169.469L327.417 169.569ZM341.919 168.98L341.429 156.583L343.254 156.51L343.461 161.745C343.728 161.24 344.109 160.84 344.603 160.544C345.109 160.237 345.671 160.071 346.291 160.046C347.313 160.006 348.129 160.296 348.74 160.916C349.35 161.535 349.681 162.482 349.731 163.756L349.925 168.663L348.117 168.735L347.931 164.017C347.866 162.364 347.173 161.564 345.853 161.616C345.164 161.643 344.6 161.907 344.16 162.407C343.731 162.907 343.534 163.604 343.57 164.5L343.744 168.908L341.919 168.98ZM356.077 168.628C355.239 168.661 354.486 168.506 353.817 168.165C353.159 167.811 352.634 167.309 352.24 166.658C351.847 166.007 351.632 165.239 351.597 164.355C351.562 163.46 351.709 162.667 352.038 161.975C352.379 161.283 352.863 160.736 353.491 160.331C354.13 159.927 354.88 159.707 355.741 159.673C356.579 159.64 357.315 159.801 357.95 160.155C358.585 160.498 359.086 160.973 359.455 161.579C359.824 162.185 360.023 162.861 360.052 163.608C360.057 163.722 360.056 163.849 360.05 163.987C360.055 164.113 360.055 164.257 360.05 164.418L353.404 164.681C353.494 165.505 353.788 166.125 354.288 166.543C354.798 166.948 355.375 167.138 356.018 167.112C356.534 167.092 356.96 166.96 357.295 166.717C357.642 166.462 357.893 166.13 358.049 165.722L359.874 165.649C359.677 166.462 359.244 167.152 358.576 167.718C357.92 168.285 357.087 168.588 356.077 168.628ZM355.783 161.172C355.175 161.196 354.642 161.401 354.186 161.787C353.73 162.161 353.464 162.712 353.389 163.439L358.21 163.249C358.15 162.585 357.893 162.066 357.442 161.693C356.99 161.32 356.437 161.146 355.783 161.172ZM362.13 168.182L361.793 159.641L363.428 159.577L363.647 161.189C363.923 160.615 364.319 160.157 364.834 159.815C365.361 159.46 366.003 159.268 366.76 159.238L366.836 161.15L366.337 161.169C365.831 161.189 365.381 161.293 364.987 161.481C364.603 161.657 364.298 161.951 364.073 162.362C363.859 162.762 363.765 163.311 363.793 164.012L363.955 168.11L362.13 168.182ZM372.438 167.982C371.6 168.015 370.847 167.86 370.178 167.519C369.52 167.166 368.994 166.663 368.601 166.012C368.207 165.361 367.993 164.593 367.958 163.709C367.923 162.814 368.07 162.021 368.399 161.329C368.739 160.638 369.223 160.09 369.851 159.685C370.491 159.281 371.241 159.061 372.102 159.027C372.94 158.994 373.676 159.155 374.311 159.509C374.945 159.852 375.447 160.327 375.816 160.933C376.184 161.539 376.384 162.215 376.413 162.962C376.418 163.076 376.417 163.203 376.411 163.341C376.416 163.467 376.416 163.611 376.411 163.772L369.764 164.035C369.854 164.859 370.149 165.479 370.648 165.897C371.159 166.302 371.735 166.492 372.378 166.466C372.895 166.446 373.321 166.314 373.656 166.071C374.002 165.816 374.254 165.484 374.41 165.076L376.235 165.004C376.037 165.816 375.604 166.506 374.937 167.072C374.281 167.639 373.448 167.942 372.438 167.982ZM372.144 160.526C371.535 160.55 371.003 160.755 370.547 161.141C370.09 161.515 369.825 162.066 369.75 162.794L374.571 162.603C374.51 161.939 374.254 161.42 373.802 161.047C373.351 160.674 372.798 160.5 372.144 160.526ZM386.728 167.417C385.901 167.45 385.165 167.284 384.518 166.918C383.871 166.553 383.357 166.039 382.974 165.376C382.592 164.712 382.383 163.95 382.349 163.089C382.315 162.228 382.463 161.458 382.793 160.778C383.122 160.087 383.594 159.539 384.211 159.136C384.838 158.72 385.565 158.496 386.392 158.463C387.069 158.437 387.665 158.545 388.181 158.789C388.708 159.033 389.124 159.39 389.43 159.861L389.226 154.695L391.051 154.623L391.541 167.02L389.905 167.085L389.663 165.767C389.404 166.179 389.039 166.55 388.569 166.879C388.099 167.208 387.486 167.388 386.728 167.417ZM386.993 165.82C387.773 165.79 388.4 165.495 388.872 164.936C389.356 164.376 389.581 163.672 389.547 162.822C389.513 161.962 389.233 161.277 388.707 160.769C388.192 160.249 387.545 160.004 386.764 160.035C385.984 160.066 385.351 160.361 384.868 160.921C384.383 161.469 384.158 162.173 384.192 163.034C384.215 163.596 384.349 164.091 384.596 164.518C384.843 164.945 385.172 165.277 385.584 165.514C386.006 165.739 386.476 165.841 386.993 165.82ZM394.474 156.73C394.13 156.744 393.839 156.652 393.601 156.454C393.374 156.245 393.255 155.979 393.242 155.658C393.229 155.336 393.328 155.068 393.538 154.853C393.759 154.626 394.041 154.505 394.386 154.492C394.73 154.478 395.016 154.576 395.242 154.786C395.48 154.983 395.605 155.243 395.618 155.564C395.631 155.885 395.526 156.16 395.306 156.387C395.096 156.602 394.818 156.717 394.474 156.73ZM393.963 166.925L393.625 158.385L395.451 158.313L395.788 166.853L393.963 166.925ZM402.096 166.811C401.27 166.843 400.533 166.677 399.887 166.312C399.24 165.946 398.725 165.432 398.343 164.769C397.96 164.106 397.752 163.344 397.718 162.483C397.684 161.622 397.832 160.851 398.161 160.172C398.49 159.48 398.963 158.933 399.579 158.529C400.207 158.113 400.934 157.889 401.76 157.857C402.437 157.83 403.034 157.939 403.549 158.183C404.076 158.426 404.493 158.783 404.799 159.254L404.595 154.089L406.42 154.017L406.909 166.414L405.274 166.478L405.032 165.16C404.772 165.573 404.408 165.943 403.938 166.272C403.468 166.601 402.854 166.781 402.096 166.811ZM402.361 165.214C403.142 165.183 403.768 164.888 404.24 164.329C404.724 163.77 404.949 163.065 404.916 162.216C404.882 161.355 404.602 160.67 404.076 160.162C403.561 159.642 402.913 159.398 402.133 159.428C401.352 159.459 400.72 159.754 400.236 160.314C399.752 160.862 399.527 161.566 399.561 162.427C399.583 162.99 399.718 163.484 399.964 163.911C400.211 164.339 400.54 164.671 400.952 164.907C401.375 165.132 401.845 165.234 402.361 165.214ZM413.618 166.149L413.142 154.096L414.967 154.024L415.443 166.077L413.618 166.149ZM425.575 165.884C424.496 165.926 423.596 165.697 422.875 165.197C422.154 164.697 421.725 164.012 421.587 163.144L423.429 163.071C423.536 163.458 423.768 163.788 424.124 164.061C424.479 164.323 424.938 164.443 425.5 164.421C426.051 164.399 426.448 164.269 426.692 164.029C426.935 163.789 427.051 163.52 427.039 163.222C427.022 162.786 426.833 162.5 426.471 162.365C426.12 162.218 425.633 162.093 425.008 161.992C424.521 161.907 424.034 161.789 423.545 161.635C423.068 161.482 422.662 161.256 422.328 160.959C422.006 160.65 421.834 160.226 421.813 159.686C421.783 158.94 422.046 158.309 422.6 157.793C423.154 157.265 423.948 156.981 424.981 156.94C425.933 156.902 426.712 157.101 427.315 157.537C427.93 157.973 428.306 158.608 428.442 159.442L426.686 159.511C426.614 159.146 426.431 158.866 426.135 158.67C425.852 158.475 425.475 158.386 425.004 158.405C424.545 158.423 424.193 158.534 423.948 158.74C423.703 158.933 423.586 159.179 423.598 159.478C423.61 159.776 423.791 160.005 424.142 160.163C424.505 160.321 424.976 160.458 425.555 160.573C426.134 160.677 426.668 160.805 427.157 160.958C427.657 161.099 428.062 161.325 428.374 161.634C428.685 161.944 428.853 162.409 428.877 163.029C428.919 163.809 428.641 164.469 428.041 165.01C427.453 165.551 426.631 165.842 425.575 165.884ZM434.971 165.513C434.134 165.546 433.38 165.392 432.711 165.05C432.054 164.697 431.528 164.194 431.134 163.543C430.741 162.892 430.526 162.124 430.492 161.24C430.456 160.345 430.603 159.552 430.932 158.861C431.273 158.169 431.757 157.621 432.385 157.217C433.024 156.812 433.774 156.593 434.635 156.559C435.473 156.526 436.21 156.686 436.844 157.041C437.479 157.383 437.98 157.858 438.349 158.464C438.718 159.07 438.917 159.747 438.947 160.493C438.951 160.608 438.95 160.734 438.944 160.872C438.949 160.999 438.949 161.142 438.944 161.303L432.298 161.566C432.388 162.39 432.683 163.011 433.182 163.428C433.692 163.833 434.269 164.023 434.912 163.998C435.428 163.977 435.854 163.845 436.189 163.602C436.536 163.347 436.787 163.015 436.943 162.607L438.769 162.535C438.571 163.347 438.138 164.037 437.471 164.604C436.815 165.17 435.982 165.473 434.971 165.513ZM434.677 158.057C434.069 158.081 433.537 158.286 433.08 158.672C432.624 159.047 432.358 159.597 432.283 160.325L437.104 160.134C437.044 159.47 436.788 158.951 436.336 158.578C435.884 158.205 435.331 158.032 434.677 158.057ZM445.027 165.116C444.189 165.149 443.435 164.995 442.767 164.653C442.109 164.3 441.583 163.797 441.189 163.146C440.796 162.495 440.582 161.727 440.547 160.843C440.511 159.948 440.658 159.155 440.987 158.464C441.328 157.772 441.812 157.224 442.44 156.82C443.079 156.415 443.829 156.196 444.69 156.162C445.528 156.129 446.265 156.289 446.899 156.644C447.534 156.986 448.035 157.461 448.404 158.067C448.773 158.673 448.972 159.35 449.002 160.096C449.006 160.211 449.005 160.337 448.999 160.475C449.004 160.602 449.004 160.745 448.999 160.906L442.353 161.169C442.443 161.993 442.738 162.614 443.237 163.031C443.747 163.436 444.324 163.626 444.967 163.601C445.483 163.58 445.909 163.448 446.245 163.205C446.591 162.95 446.842 162.618 446.999 162.21L448.824 162.138C448.626 162.95 448.193 163.64 447.526 164.207C446.87 164.773 446.037 165.076 445.027 165.116ZM444.732 157.66C444.124 157.684 443.592 157.889 443.136 158.275C442.679 158.65 442.413 159.201 442.339 159.928L447.16 159.737C447.099 159.073 446.843 158.554 446.391 158.181C445.94 157.808 445.387 157.635 444.732 157.66ZM458.999 164.357C458.161 164.39 457.487 164.216 456.977 163.834C456.468 163.44 456.192 162.721 456.151 161.676L455.984 157.458L454.521 157.515L454.46 155.983L455.924 155.925L456.062 153.747L457.663 153.684L457.749 155.853L460.159 155.758L460.22 157.29L457.809 157.386L457.976 161.604C457.994 162.075 458.105 162.398 458.307 162.574C458.521 162.738 458.874 162.81 459.368 162.791L460.349 162.752L460.41 164.302L458.999 164.357ZM462.378 164.224L461.889 151.827L463.714 151.755L463.921 156.989C464.188 156.484 464.569 156.084 465.063 155.789C465.568 155.481 466.131 155.315 466.751 155.291C467.772 155.25 468.589 155.54 469.199 156.16C469.81 156.78 470.141 157.726 470.191 159.001L470.385 163.908L468.577 163.979L468.391 159.261C468.325 157.608 467.633 156.808 466.313 156.86C465.624 156.887 465.06 157.151 464.619 157.651C464.191 158.151 463.994 158.849 464.03 159.744L464.204 164.152L462.378 164.224ZM475.435 163.915C474.712 163.944 474.11 163.847 473.63 163.624C473.15 163.402 472.788 163.1 472.543 162.719C472.297 162.326 472.165 161.895 472.147 161.424C472.114 160.597 472.409 159.93 473.033 159.423C473.657 158.915 474.566 158.638 475.76 158.591L477.998 158.503L477.992 158.348C477.966 157.682 477.762 157.19 477.382 156.871C477.013 156.553 476.541 156.405 475.967 156.427C475.462 156.447 475.025 156.591 474.657 156.858C474.299 157.114 474.089 157.484 474.028 157.97L472.203 158.042C472.236 157.42 472.421 156.883 472.76 156.433C473.11 155.971 473.555 155.614 474.097 155.363C474.65 155.1 475.26 154.955 475.925 154.929C477.119 154.881 478.056 155.161 478.735 155.766C479.414 156.36 479.774 157.197 479.817 158.276L480.024 163.527L478.44 163.59L478.228 162.132C478.005 162.612 477.671 163.022 477.224 163.362C476.778 163.701 476.181 163.886 475.435 163.915ZM475.738 162.42C476.232 162.401 476.641 162.27 476.964 162.027C477.299 161.772 477.551 161.446 477.719 161.049C477.899 160.651 478.002 160.215 478.03 159.743L475.998 159.823C475.275 159.852 474.763 159.998 474.463 160.263C474.175 160.528 474.038 160.849 474.053 161.228C474.068 161.618 474.224 161.922 474.52 162.141C474.827 162.347 475.233 162.44 475.738 162.42ZM485.566 163.308C484.728 163.342 484.054 163.167 483.545 162.785C483.035 162.391 482.759 161.672 482.718 160.627L482.551 156.409L481.088 156.466L481.027 154.934L482.491 154.876L482.629 152.698L484.23 152.635L484.316 154.804L486.726 154.709L486.787 156.241L484.376 156.337L484.543 160.555C484.562 161.026 484.672 161.349 484.874 161.525C485.088 161.689 485.441 161.761 485.935 161.742L486.916 161.703L486.978 163.253L485.566 163.308ZM493.284 163.004L492.794 150.607L494.619 150.535L495.109 162.932L493.284 163.004ZM498.052 152.641C497.708 152.655 497.417 152.563 497.179 152.365C496.952 152.155 496.833 151.89 496.82 151.569C496.807 151.247 496.906 150.979 497.116 150.764C497.337 150.537 497.619 150.416 497.964 150.403C498.308 150.389 498.594 150.487 498.82 150.696C499.058 150.894 499.183 151.153 499.196 151.475C499.209 151.796 499.104 152.071 498.884 152.298C498.674 152.513 498.396 152.627 498.052 152.641ZM497.541 162.836L497.203 154.295L499.029 154.223L499.366 162.764L497.541 162.836ZM501.775 162.668L501.438 154.128L503.056 154.064L503.253 155.557C503.496 155.018 503.865 154.59 504.358 154.272C504.862 153.941 505.447 153.763 506.113 153.737C507.146 153.696 507.968 153.985 508.579 154.605C509.201 155.224 509.537 156.171 509.588 157.445L509.781 162.352L507.974 162.424L507.787 157.706C507.722 156.053 507.012 155.253 505.658 155.307C504.98 155.334 504.427 155.597 503.999 156.097C503.582 156.596 503.391 157.293 503.426 158.189L503.6 162.596L501.775 162.668ZM511.931 162.268L511.442 149.87L513.267 149.798L513.558 157.185L516.69 153.526L518.877 153.44L515.397 157.457L519.748 161.959L517.441 162.05L513.584 157.822L513.756 162.195L511.931 162.268ZM522.347 158.287L522.168 155.483L522.822 155.457C523.442 155.432 524.008 155.353 524.52 155.217C525.043 155.082 525.453 154.841 525.75 154.496C526.058 154.151 526.2 153.651 526.174 152.996C526.149 152.365 525.934 151.879 525.53 151.539C525.125 151.187 524.607 151.023 523.976 151.048C523.322 151.074 522.812 151.273 522.447 151.643C522.082 152.014 521.912 152.504 521.936 153.112L520.214 153.18C520.176 152.492 520.301 151.877 520.59 151.337C520.89 150.797 521.322 150.366 521.884 150.045C522.458 149.723 523.135 149.547 523.915 149.516C524.673 149.486 525.35 149.603 525.947 149.867C526.544 150.131 527.013 150.526 527.356 151.053C527.71 151.568 527.901 152.198 527.931 152.944C527.963 153.759 527.812 154.438 527.477 154.98C527.141 155.511 526.668 155.914 526.059 156.191C525.448 156.457 524.741 156.606 523.938 156.637L523.949 158.223L522.347 158.287ZM523.301 161.922C522.946 161.936 522.654 161.838 522.428 161.629C522.2 161.408 522.081 161.143 522.068 160.833C522.056 160.511 522.154 160.237 522.364 160.01C522.573 159.772 522.855 159.646 523.211 159.632C523.544 159.619 523.824 159.723 524.051 159.944C524.289 160.153 524.415 160.418 524.427 160.739C524.44 161.049 524.335 161.324 524.115 161.562C523.905 161.789 523.634 161.909 523.301 161.922Z" fill="#05A8CD"/>
</g>
<g filter="url(#filter2_d_1_7100)">
<rect x="88" y="232" width="393" height="40" rx="20" fill="white" shape-rendering="crispEdges"/>
<path d="M105.136 257V245.8H108.768C110.08 245.8 111.157 246.029 112 246.488C112.853 246.947 113.483 247.597 113.888 248.44C114.304 249.272 114.512 250.264 114.512 251.416C114.512 252.557 114.304 253.549 113.888 254.392C113.483 255.224 112.853 255.869 112 256.328C111.157 256.776 110.08 257 108.768 257H105.136ZM106.832 255.56H108.704C109.717 255.56 110.517 255.395 111.104 255.064C111.701 254.733 112.128 254.259 112.384 253.64C112.651 253.021 112.784 252.28 112.784 251.416C112.784 250.552 112.651 249.805 112.384 249.176C112.128 248.547 111.701 248.067 111.104 247.736C110.517 247.395 109.717 247.224 108.704 247.224H106.832V255.56ZM117.282 247.56C116.962 247.56 116.695 247.464 116.482 247.272C116.279 247.069 116.178 246.819 116.178 246.52C116.178 246.221 116.279 245.976 116.482 245.784C116.695 245.581 116.962 245.48 117.282 245.48C117.602 245.48 117.863 245.581 118.066 245.784C118.279 245.976 118.386 246.221 118.386 246.52C118.386 246.819 118.279 247.069 118.066 247.272C117.863 247.464 117.602 247.56 117.282 247.56ZM116.434 257V249.064H118.13V257H116.434ZM123.985 257.192C123.217 257.192 122.54 257.011 121.953 256.648C121.366 256.285 120.908 255.789 120.577 255.16C120.246 254.531 120.081 253.816 120.081 253.016C120.081 252.216 120.246 251.507 120.577 250.888C120.908 250.259 121.366 249.768 121.953 249.416C122.55 249.053 123.233 248.872 124.001 248.872C124.63 248.872 125.18 248.995 125.649 249.24C126.129 249.485 126.502 249.832 126.769 250.28V245.48H128.465V257H126.945L126.769 255.768C126.513 256.141 126.161 256.472 125.713 256.76C125.265 257.048 124.689 257.192 123.985 257.192ZM124.289 255.72C125.014 255.72 125.606 255.469 126.065 254.968C126.534 254.467 126.769 253.821 126.769 253.032C126.769 252.232 126.534 251.587 126.065 251.096C125.606 250.595 125.014 250.344 124.289 250.344C123.564 250.344 122.966 250.595 122.497 251.096C122.028 251.587 121.793 252.232 121.793 253.032C121.793 253.555 121.9 254.019 122.113 254.424C122.326 254.829 122.62 255.149 122.993 255.384C123.377 255.608 123.809 255.72 124.289 255.72ZM137.963 257C137.184 257 136.565 256.813 136.107 256.44C135.648 256.056 135.419 255.379 135.419 254.408V250.488H134.059V249.064H135.419L135.627 247.048H137.115V249.064H139.355V250.488H137.115V254.408C137.115 254.845 137.205 255.149 137.387 255.32C137.579 255.48 137.904 255.56 138.363 255.56H139.275V257H137.963ZM141.103 257V245.48H142.799V250.344C143.066 249.885 143.434 249.528 143.903 249.272C144.383 249.005 144.911 248.872 145.487 248.872C146.437 248.872 147.183 249.171 147.727 249.768C148.271 250.365 148.543 251.256 148.543 252.44V257H146.863V252.616C146.863 251.08 146.25 250.312 145.023 250.312C144.383 250.312 143.85 250.536 143.423 250.984C143.007 251.432 142.799 252.072 142.799 252.904V257H141.103ZM153.229 257.192C152.557 257.192 152.002 257.08 151.565 256.856C151.127 256.632 150.802 256.339 150.589 255.976C150.375 255.603 150.269 255.197 150.269 254.76C150.269 253.992 150.567 253.384 151.165 252.936C151.762 252.488 152.615 252.264 153.725 252.264H155.805V252.12C155.805 251.501 155.634 251.037 155.293 250.728C154.962 250.419 154.53 250.264 153.997 250.264C153.527 250.264 153.117 250.381 152.765 250.616C152.423 250.84 152.215 251.176 152.141 251.624H150.445C150.498 251.048 150.69 250.557 151.021 250.152C151.362 249.736 151.789 249.421 152.301 249.208C152.823 248.984 153.394 248.872 154.013 248.872C155.122 248.872 155.981 249.165 156.589 249.752C157.197 250.328 157.501 251.117 157.501 252.12V257H156.029L155.885 255.64C155.661 256.077 155.335 256.445 154.909 256.744C154.482 257.043 153.922 257.192 153.229 257.192ZM153.565 255.816C154.023 255.816 154.407 255.709 154.717 255.496C155.037 255.272 155.282 254.979 155.453 254.616C155.634 254.253 155.746 253.853 155.789 253.416H153.901C153.229 253.416 152.749 253.533 152.461 253.768C152.183 254.003 152.045 254.296 152.045 254.648C152.045 255.011 152.178 255.299 152.445 255.512C152.722 255.715 153.095 255.816 153.565 255.816ZM162.65 257C161.871 257 161.253 256.813 160.794 256.44C160.335 256.056 160.106 255.379 160.106 254.408V250.488H158.746V249.064H160.106L160.314 247.048H161.802V249.064H164.042V250.488H161.802V254.408C161.802 254.845 161.893 255.149 162.074 255.32C162.266 255.48 162.591 255.56 163.05 255.56H163.962V257H162.65ZM176.222 260.52V255.768C175.966 256.141 175.614 256.472 175.166 256.76C174.718 257.048 174.142 257.192 173.438 257.192C172.67 257.192 171.993 257.011 171.406 256.648C170.819 256.285 170.361 255.789 170.03 255.16C169.699 254.531 169.534 253.816 169.534 253.016C169.534 252.216 169.699 251.507 170.03 250.888C170.361 250.259 170.819 249.768 171.406 249.416C172.003 249.053 172.686 248.872 173.454 248.872C174.083 248.872 174.633 248.995 175.102 249.24C175.582 249.485 175.955 249.832 176.222 250.28L176.398 249.064H177.918V260.52H176.222ZM173.742 255.72C174.467 255.72 175.059 255.469 175.518 254.968C175.987 254.467 176.222 253.821 176.222 253.032C176.222 252.232 175.987 251.587 175.518 251.096C175.059 250.595 174.467 250.344 173.742 250.344C173.017 250.344 172.419 250.595 171.95 251.096C171.481 251.587 171.246 252.232 171.246 253.032C171.246 253.555 171.353 254.019 171.566 254.424C171.779 254.829 172.073 255.149 172.446 255.384C172.83 255.608 173.262 255.72 173.742 255.72ZM182.984 257.192C182.024 257.192 181.267 256.893 180.712 256.296C180.168 255.699 179.896 254.808 179.896 253.624V249.064H181.592V253.448C181.592 254.984 182.222 255.752 183.48 255.752C184.11 255.752 184.627 255.528 185.032 255.08C185.438 254.632 185.64 253.992 185.64 253.16V249.064H187.336V257H185.832L185.704 255.608C185.459 256.099 185.096 256.488 184.616 256.776C184.147 257.053 183.603 257.192 182.984 257.192ZM193.206 257.192C192.449 257.192 191.766 257.021 191.158 256.68C190.561 256.328 190.086 255.843 189.734 255.224C189.382 254.595 189.206 253.864 189.206 253.032C189.206 252.2 189.382 251.475 189.734 250.856C190.097 250.227 190.582 249.741 191.19 249.4C191.798 249.048 192.475 248.872 193.222 248.872C193.979 248.872 194.657 249.048 195.254 249.4C195.862 249.741 196.342 250.227 196.694 250.856C197.057 251.475 197.238 252.2 197.238 253.032C197.238 253.864 197.057 254.595 196.694 255.224C196.342 255.843 195.862 256.328 195.254 256.68C194.646 257.021 193.963 257.192 193.206 257.192ZM193.206 255.736C193.611 255.736 193.985 255.635 194.326 255.432C194.678 255.229 194.961 254.931 195.174 254.536C195.387 254.131 195.494 253.629 195.494 253.032C195.494 252.435 195.387 251.939 195.174 251.544C194.971 251.139 194.694 250.835 194.342 250.632C194.001 250.429 193.627 250.328 193.222 250.328C192.817 250.328 192.438 250.429 192.086 250.632C191.745 250.835 191.467 251.139 191.254 251.544C191.041 251.939 190.934 252.435 190.934 253.032C190.934 253.629 191.041 254.131 191.254 254.536C191.467 254.931 191.745 255.229 192.086 255.432C192.427 255.635 192.801 255.736 193.206 255.736ZM202.088 257C201.309 257 200.69 256.813 200.232 256.44C199.773 256.056 199.544 255.379 199.544 254.408V250.488H198.184V249.064H199.544L199.752 247.048H201.24V249.064H203.48V250.488H201.24V254.408C201.24 254.845 201.33 255.149 201.512 255.32C201.704 255.48 202.029 255.56 202.488 255.56H203.4V257H202.088ZM208.737 257.192C207.958 257.192 207.265 257.021 206.657 256.68C206.06 256.328 205.59 255.843 205.249 255.224C204.908 254.605 204.737 253.885 204.737 253.064C204.737 252.232 204.902 251.501 205.233 250.872C205.574 250.243 206.044 249.752 206.641 249.4C207.249 249.048 207.953 248.872 208.753 248.872C209.532 248.872 210.209 249.048 210.785 249.4C211.361 249.741 211.809 250.2 212.129 250.776C212.449 251.352 212.609 251.987 212.609 252.68C212.609 252.787 212.604 252.904 212.593 253.032C212.593 253.149 212.588 253.283 212.577 253.432H206.401C206.454 254.2 206.705 254.787 207.153 255.192C207.612 255.587 208.14 255.784 208.737 255.784C209.217 255.784 209.617 255.677 209.937 255.464C210.268 255.24 210.513 254.941 210.673 254.568H212.369C212.156 255.315 211.729 255.939 211.089 256.44C210.46 256.941 209.676 257.192 208.737 257.192ZM208.737 250.264C208.172 250.264 207.67 250.435 207.233 250.776C206.796 251.107 206.529 251.608 206.433 252.28H210.913C210.881 251.661 210.662 251.171 210.257 250.808C209.852 250.445 209.345 250.264 208.737 250.264ZM222.16 257.192C221.381 257.192 220.683 257.016 220.064 256.664C219.456 256.312 218.976 255.827 218.624 255.208C218.283 254.579 218.112 253.853 218.112 253.032C218.112 252.211 218.283 251.491 218.624 250.872C218.976 250.243 219.456 249.752 220.064 249.4C220.683 249.048 221.381 248.872 222.16 248.872C223.141 248.872 223.963 249.128 224.624 249.64C225.296 250.152 225.728 250.845 225.92 251.72H224.144C224.037 251.283 223.803 250.941 223.44 250.696C223.077 250.451 222.651 250.328 222.16 250.328C221.744 250.328 221.36 250.435 221.008 250.648C220.656 250.851 220.373 251.155 220.16 251.56C219.947 251.955 219.84 252.445 219.84 253.032C219.84 253.619 219.947 254.115 220.16 254.52C220.373 254.915 220.656 255.219 221.008 255.432C221.36 255.645 221.744 255.752 222.16 255.752C222.651 255.752 223.077 255.629 223.44 255.384C223.803 255.139 224.037 254.792 224.144 254.344H225.92C225.739 255.197 225.312 255.885 224.64 256.408C223.968 256.931 223.141 257.192 222.16 257.192ZM231.472 257.192C230.714 257.192 230.032 257.021 229.424 256.68C228.826 256.328 228.352 255.843 228 255.224C227.648 254.595 227.472 253.864 227.472 253.032C227.472 252.2 227.648 251.475 228 250.856C228.362 250.227 228.848 249.741 229.456 249.4C230.064 249.048 230.741 248.872 231.488 248.872C232.245 248.872 232.922 249.048 233.52 249.4C234.128 249.741 234.608 250.227 234.96 250.856C235.322 251.475 235.503 252.2 235.503 253.032C235.503 253.864 235.322 254.595 234.96 255.224C234.608 255.843 234.128 256.328 233.52 256.68C232.912 257.021 232.229 257.192 231.472 257.192ZM231.472 255.736C231.877 255.736 232.25 255.635 232.592 255.432C232.944 255.229 233.226 254.931 233.44 254.536C233.653 254.131 233.76 253.629 233.76 253.032C233.76 252.435 233.653 251.939 233.44 251.544C233.237 251.139 232.96 250.835 232.608 250.632C232.266 250.429 231.893 250.328 231.488 250.328C231.082 250.328 230.704 250.429 230.352 250.632C230.01 250.835 229.733 251.139 229.52 251.544C229.306 251.939 229.2 252.435 229.2 253.032C229.2 253.629 229.306 254.131 229.52 254.536C229.733 254.931 230.01 255.229 230.352 255.432C230.693 255.635 231.066 255.736 231.472 255.736ZM237.338 257V249.064H238.842L238.986 250.184C239.242 249.779 239.578 249.459 239.994 249.224C240.42 248.989 240.911 248.872 241.466 248.872C242.724 248.872 243.599 249.368 244.09 250.36C244.378 249.901 244.762 249.539 245.242 249.272C245.732 249.005 246.26 248.872 246.826 248.872C247.818 248.872 248.596 249.171 249.162 249.768C249.727 250.365 250.01 251.256 250.01 252.44V257H248.314V252.616C248.314 251.08 247.727 250.312 246.554 250.312C245.956 250.312 245.466 250.536 245.082 250.984C244.708 251.432 244.522 252.072 244.522 252.904V257H242.826V252.616C242.826 251.08 242.234 250.312 241.05 250.312C240.463 250.312 239.978 250.536 239.594 250.984C239.22 251.432 239.034 252.072 239.034 252.904V257H237.338ZM255.706 257.192C254.927 257.192 254.234 257.021 253.626 256.68C253.029 256.328 252.559 255.843 252.218 255.224C251.877 254.605 251.706 253.885 251.706 253.064C251.706 252.232 251.871 251.501 252.202 250.872C252.543 250.243 253.013 249.752 253.61 249.4C254.218 249.048 254.922 248.872 255.722 248.872C256.501 248.872 257.178 249.048 257.754 249.4C258.33 249.741 258.778 250.2 259.098 250.776C259.418 251.352 259.578 251.987 259.578 252.68C259.578 252.787 259.573 252.904 259.562 253.032C259.562 253.149 259.557 253.283 259.546 253.432H253.37C253.423 254.2 253.674 254.787 254.122 255.192C254.581 255.587 255.109 255.784 255.706 255.784C256.186 255.784 256.586 255.677 256.906 255.464C257.237 255.24 257.482 254.941 257.642 254.568H259.338C259.125 255.315 258.698 255.939 258.058 256.44C257.429 256.941 256.645 257.192 255.706 257.192ZM255.706 250.264C255.141 250.264 254.639 250.435 254.202 250.776C253.765 251.107 253.498 251.608 253.402 252.28H257.882C257.85 251.661 257.631 251.171 257.226 250.808C256.821 250.445 256.314 250.264 255.706 250.264ZM265.769 257V250.488H264.633V249.064H265.769V247.912C265.769 247.048 265.982 246.429 266.409 246.056C266.846 245.672 267.46 245.48 268.249 245.48H269.081V246.92H268.505C268.132 246.92 267.865 247 267.705 247.16C267.545 247.309 267.465 247.565 267.465 247.928V249.064H269.289V250.488H267.465V257H265.769ZM270.9 257V249.064H272.42L272.564 250.568C272.841 250.045 273.225 249.635 273.716 249.336C274.217 249.027 274.82 248.872 275.524 248.872V250.648H275.06C274.591 250.648 274.169 250.728 273.796 250.888C273.433 251.037 273.14 251.299 272.916 251.672C272.703 252.035 272.596 252.541 272.596 253.192V257H270.9ZM280.472 257.192C279.714 257.192 279.032 257.021 278.424 256.68C277.826 256.328 277.352 255.843 277 255.224C276.648 254.595 276.472 253.864 276.472 253.032C276.472 252.2 276.648 251.475 277 250.856C277.362 250.227 277.848 249.741 278.456 249.4C279.064 249.048 279.741 248.872 280.488 248.872C281.245 248.872 281.922 249.048 282.52 249.4C283.128 249.741 283.608 250.227 283.96 250.856C284.322 251.475 284.503 252.2 284.503 253.032C284.503 253.864 284.322 254.595 283.96 255.224C283.608 255.843 283.128 256.328 282.52 256.68C281.912 257.021 281.229 257.192 280.472 257.192ZM280.472 255.736C280.877 255.736 281.25 255.635 281.592 255.432C281.944 255.229 282.226 254.931 282.44 254.536C282.653 254.131 282.76 253.629 282.76 253.032C282.76 252.435 282.653 251.939 282.44 251.544C282.237 251.139 281.96 250.835 281.608 250.632C281.266 250.429 280.893 250.328 280.488 250.328C280.082 250.328 279.704 250.429 279.352 250.632C279.01 250.835 278.733 251.139 278.52 251.544C278.306 251.939 278.2 252.435 278.2 253.032C278.2 253.629 278.306 254.131 278.52 254.536C278.733 254.931 279.01 255.229 279.352 255.432C279.693 255.635 280.066 255.736 280.472 255.736ZM286.338 257V249.064H287.842L287.986 250.184C288.242 249.779 288.578 249.459 288.994 249.224C289.42 248.989 289.911 248.872 290.466 248.872C291.724 248.872 292.599 249.368 293.09 250.36C293.378 249.901 293.762 249.539 294.242 249.272C294.732 249.005 295.26 248.872 295.826 248.872C296.818 248.872 297.596 249.171 298.162 249.768C298.727 250.365 299.01 251.256 299.01 252.44V257H297.314V252.616C297.314 251.08 296.727 250.312 295.554 250.312C294.956 250.312 294.466 250.536 294.082 250.984C293.708 251.432 293.522 252.072 293.522 252.904V257H291.826V252.616C291.826 251.08 291.234 250.312 290.05 250.312C289.463 250.312 288.978 250.536 288.594 250.984C288.22 251.432 288.034 252.072 288.034 252.904V257H286.338ZM305.089 257V245.8H306.785V257H305.089ZM308.994 257V249.064H310.498L310.626 250.456C310.871 249.965 311.229 249.581 311.698 249.304C312.178 249.016 312.727 248.872 313.346 248.872C314.306 248.872 315.058 249.171 315.602 249.768C316.157 250.365 316.434 251.256 316.434 252.44V257H314.754V252.616C314.754 251.08 314.125 250.312 312.866 250.312C312.237 250.312 311.714 250.536 311.298 250.984C310.893 251.432 310.69 252.072 310.69 252.904V257H308.994ZM321.599 257.192C320.597 257.192 319.77 256.947 319.119 256.456C318.469 255.965 318.095 255.315 317.999 254.504H319.711C319.797 254.867 319.999 255.181 320.319 255.448C320.639 255.704 321.061 255.832 321.583 255.832C322.095 255.832 322.469 255.725 322.703 255.512C322.938 255.299 323.055 255.053 323.055 254.776C323.055 254.371 322.89 254.099 322.559 253.96C322.239 253.811 321.791 253.677 321.215 253.56C320.767 253.464 320.319 253.336 319.871 253.176C319.434 253.016 319.066 252.792 318.767 252.504C318.479 252.205 318.335 251.805 318.335 251.304C318.335 250.611 318.602 250.035 319.135 249.576C319.669 249.107 320.415 248.872 321.375 248.872C322.261 248.872 322.975 249.085 323.519 249.512C324.074 249.939 324.399 250.541 324.495 251.32H322.863C322.81 250.979 322.65 250.712 322.383 250.52C322.127 250.328 321.781 250.232 321.343 250.232C320.917 250.232 320.586 250.323 320.351 250.504C320.117 250.675 319.999 250.899 319.999 251.176C319.999 251.453 320.159 251.672 320.479 251.832C320.81 251.992 321.242 252.136 321.775 252.264C322.309 252.381 322.799 252.52 323.247 252.68C323.706 252.829 324.074 253.053 324.351 253.352C324.629 253.651 324.767 254.088 324.767 254.664C324.778 255.389 324.495 255.992 323.919 256.472C323.354 256.952 322.581 257.192 321.599 257.192ZM329.65 257C328.871 257 328.253 256.813 327.794 256.44C327.335 256.056 327.106 255.379 327.106 254.408V250.488H325.746V249.064H327.106L327.314 247.048H328.802V249.064H331.042V250.488H328.802V254.408C328.802 254.845 328.893 255.149 329.074 255.32C329.266 255.48 329.591 255.56 330.05 255.56H330.962V257H329.65ZM335.479 257.192C334.807 257.192 334.252 257.08 333.815 256.856C333.377 256.632 333.052 256.339 332.839 255.976C332.625 255.603 332.519 255.197 332.519 254.76C332.519 253.992 332.817 253.384 333.415 252.936C334.012 252.488 334.865 252.264 335.975 252.264H338.055V252.12C338.055 251.501 337.884 251.037 337.543 250.728C337.212 250.419 336.78 250.264 336.247 250.264C335.777 250.264 335.367 250.381 335.015 250.616C334.673 250.84 334.465 251.176 334.391 251.624H332.695C332.748 251.048 332.94 250.557 333.271 250.152C333.612 249.736 334.039 249.421 334.551 249.208C335.073 248.984 335.644 248.872 336.263 248.872C337.372 248.872 338.231 249.165 338.839 249.752C339.447 250.328 339.751 251.117 339.751 252.12V257H338.279L338.135 255.64C337.911 256.077 337.585 256.445 337.159 256.744C336.732 257.043 336.172 257.192 335.479 257.192ZM335.815 255.816C336.273 255.816 336.657 255.709 336.967 255.496C337.287 255.272 337.532 254.979 337.703 254.616C337.884 254.253 337.996 253.853 338.039 253.416H336.151C335.479 253.416 334.999 253.533 334.711 253.768C334.433 254.003 334.295 254.296 334.295 254.648C334.295 255.011 334.428 255.299 334.695 255.512C334.972 255.715 335.345 255.816 335.815 255.816ZM344.976 254.568C344.56 254.568 344.176 254.52 343.824 254.424L343.136 255.096C343.254 255.171 343.398 255.235 343.568 255.288C343.739 255.341 343.979 255.389 344.288 255.432C344.598 255.475 345.019 255.517 345.552 255.56C346.608 255.656 347.371 255.912 347.84 256.328C348.31 256.733 348.544 257.277 348.544 257.96C348.544 258.429 348.416 258.872 348.16 259.288C347.915 259.715 347.526 260.056 346.992 260.312C346.47 260.579 345.798 260.712 344.976 260.712C343.867 260.712 342.966 260.499 342.272 260.072C341.59 259.656 341.248 259.021 341.248 258.168C341.248 257.837 341.334 257.507 341.504 257.176C341.686 256.856 341.968 256.552 342.352 256.264C342.128 256.168 341.931 256.067 341.76 255.96C341.6 255.843 341.456 255.725 341.328 255.608V255.224L342.704 253.816C342.086 253.283 341.776 252.584 341.776 251.72C341.776 251.197 341.899 250.723 342.144 250.296C342.4 249.859 342.768 249.512 343.248 249.256C343.728 249 344.304 248.872 344.976 248.872C345.424 248.872 345.84 248.936 346.224 249.064H349.184V250.184L347.776 250.264C348.032 250.701 348.16 251.187 348.16 251.72C348.16 252.253 348.032 252.733 347.776 253.16C347.531 253.587 347.168 253.928 346.688 254.184C346.219 254.44 345.648 254.568 344.976 254.568ZM344.976 253.24C345.467 253.24 345.862 253.112 346.16 252.856C346.47 252.589 346.624 252.216 346.624 251.736C346.624 251.245 346.47 250.872 346.16 250.616C345.862 250.36 345.467 250.232 344.976 250.232C344.475 250.232 344.07 250.36 343.76 250.616C343.462 250.872 343.312 251.245 343.312 251.736C343.312 252.216 343.462 252.589 343.76 252.856C344.07 253.112 344.475 253.24 344.976 253.24ZM342.848 258.008C342.848 258.467 343.051 258.808 343.456 259.032C343.862 259.267 344.368 259.384 344.976 259.384C345.563 259.384 346.038 259.256 346.4 259C346.763 258.755 346.944 258.424 346.944 258.008C346.944 257.699 346.822 257.432 346.576 257.208C346.331 256.995 345.867 256.861 345.184 256.808C344.672 256.776 344.219 256.728 343.824 256.664C343.451 256.867 343.195 257.085 343.056 257.32C342.918 257.555 342.848 257.784 342.848 258.008ZM350.697 257V249.064H352.217L352.361 250.568C352.638 250.045 353.022 249.635 353.513 249.336C354.014 249.027 354.617 248.872 355.321 248.872V250.648H354.857C354.388 250.648 353.966 250.728 353.593 250.888C353.23 251.037 352.937 251.299 352.713 251.672C352.5 252.035 352.393 252.541 352.393 253.192V257H350.697ZM359.463 257.192C358.791 257.192 358.236 257.08 357.799 256.856C357.362 256.632 357.036 256.339 356.823 255.976C356.61 255.603 356.503 255.197 356.503 254.76C356.503 253.992 356.802 253.384 357.399 252.936C357.996 252.488 358.85 252.264 359.959 252.264H362.039V252.12C362.039 251.501 361.868 251.037 361.527 250.728C361.196 250.419 360.764 250.264 360.231 250.264C359.762 250.264 359.351 250.381 358.999 250.616C358.658 250.84 358.45 251.176 358.375 251.624H356.679C356.732 251.048 356.924 250.557 357.255 250.152C357.596 249.736 358.023 249.421 358.535 249.208C359.058 248.984 359.628 248.872 360.247 248.872C361.356 248.872 362.215 249.165 362.823 249.752C363.431 250.328 363.735 251.117 363.735 252.12V257H362.263L362.119 255.64C361.895 256.077 361.57 256.445 361.143 256.744C360.716 257.043 360.156 257.192 359.463 257.192ZM359.799 255.816C360.258 255.816 360.642 255.709 360.951 255.496C361.271 255.272 361.516 254.979 361.687 254.616C361.868 254.253 361.98 253.853 362.023 253.416H360.135C359.463 253.416 358.983 253.533 358.695 253.768C358.418 254.003 358.279 254.296 358.279 254.648C358.279 255.011 358.412 255.299 358.679 255.512C358.956 255.715 359.33 255.816 359.799 255.816ZM365.713 257V249.064H367.217L367.361 250.184C367.617 249.779 367.953 249.459 368.369 249.224C368.795 248.989 369.286 248.872 369.841 248.872C371.099 248.872 371.974 249.368 372.465 250.36C372.753 249.901 373.137 249.539 373.617 249.272C374.107 249.005 374.635 248.872 375.201 248.872C376.193 248.872 376.971 249.171 377.537 249.768C378.102 250.365 378.385 251.256 378.385 252.44V257H376.689V252.616C376.689 251.08 376.102 250.312 374.929 250.312C374.331 250.312 373.841 250.536 373.457 250.984C373.083 251.432 372.897 252.072 372.897 252.904V257H371.201V252.616C371.201 251.08 370.609 250.312 369.425 250.312C368.838 250.312 368.353 250.536 367.969 250.984C367.595 251.432 367.409 252.072 367.409 252.904V257H365.713ZM388.112 257.192C387.355 257.192 386.672 257.021 386.064 256.68C385.467 256.328 384.992 255.843 384.64 255.224C384.288 254.595 384.112 253.864 384.112 253.032C384.112 252.2 384.288 251.475 384.64 250.856C385.003 250.227 385.488 249.741 386.096 249.4C386.704 249.048 387.381 248.872 388.128 248.872C388.885 248.872 389.563 249.048 390.16 249.4C390.768 249.741 391.248 250.227 391.6 250.856C391.963 251.475 392.144 252.2 392.144 253.032C392.144 253.864 391.963 254.595 391.6 255.224C391.248 255.843 390.768 256.328 390.16 256.68C389.552 257.021 388.869 257.192 388.112 257.192ZM388.112 255.736C388.517 255.736 388.891 255.635 389.232 255.432C389.584 255.229 389.867 254.931 390.08 254.536C390.293 254.131 390.4 253.629 390.4 253.032C390.4 252.435 390.293 251.939 390.08 251.544C389.877 251.139 389.6 250.835 389.248 250.632C388.907 250.429 388.533 250.328 388.128 250.328C387.723 250.328 387.344 250.429 386.992 250.632C386.651 250.835 386.373 251.139 386.16 251.544C385.947 251.939 385.84 252.435 385.84 253.032C385.84 253.629 385.947 254.131 386.16 254.536C386.373 254.931 386.651 255.229 386.992 255.432C387.333 255.635 387.707 255.736 388.112 255.736ZM393.978 257V249.064H395.498L395.642 250.568C395.92 250.045 396.304 249.635 396.794 249.336C397.296 249.027 397.898 248.872 398.602 248.872V250.648H398.138C397.669 250.648 397.248 250.728 396.874 250.888C396.512 251.037 396.218 251.299 395.994 251.672C395.781 252.035 395.674 252.541 395.674 253.192V257H393.978ZM406.776 257V247.176H403.464V245.8H411.768V247.176H408.472V257H406.776ZM414 257L411.664 249.064H413.36L414.896 255.048L416.624 249.064H418.512L420.24 255.048L421.776 249.064H423.472L421.136 257H419.392L417.568 250.76L415.744 257H414ZM425.829 247.56C425.509 247.56 425.242 247.464 425.029 247.272C424.826 247.069 424.725 246.819 424.725 246.52C424.725 246.221 424.826 245.976 425.029 245.784C425.242 245.581 425.509 245.48 425.829 245.48C426.149 245.48 426.41 245.581 426.613 245.784C426.826 245.976 426.933 246.221 426.933 246.52C426.933 246.819 426.826 247.069 426.613 247.272C426.41 247.464 426.149 247.56 425.829 247.56ZM424.981 257V249.064H426.677V257H424.981ZM432.244 257C431.465 257 430.846 256.813 430.388 256.44C429.929 256.056 429.7 255.379 429.7 254.408V250.488H428.34V249.064H429.7L429.908 247.048H431.396V249.064H433.636V250.488H431.396V254.408C431.396 254.845 431.486 255.149 431.668 255.32C431.86 255.48 432.185 255.56 432.644 255.56H433.556V257H432.244ZM438.713 257C437.934 257 437.315 256.813 436.857 256.44C436.398 256.056 436.169 255.379 436.169 254.408V250.488H434.809V249.064H436.169L436.377 247.048H437.865V249.064H440.105V250.488H437.865V254.408C437.865 254.845 437.955 255.149 438.137 255.32C438.329 255.48 438.654 255.56 439.113 255.56H440.025V257H438.713ZM445.362 257.192C444.583 257.192 443.89 257.021 443.282 256.68C442.685 256.328 442.215 255.843 441.874 255.224C441.533 254.605 441.362 253.885 441.362 253.064C441.362 252.232 441.527 251.501 441.858 250.872C442.199 250.243 442.669 249.752 443.266 249.4C443.874 249.048 444.578 248.872 445.378 248.872C446.157 248.872 446.834 249.048 447.41 249.4C447.986 249.741 448.434 250.2 448.754 250.776C449.074 251.352 449.234 251.987 449.234 252.68C449.234 252.787 449.229 252.904 449.218 253.032C449.218 253.149 449.213 253.283 449.202 253.432H443.026C443.079 254.2 443.33 254.787 443.778 255.192C444.237 255.587 444.765 255.784 445.362 255.784C445.842 255.784 446.242 255.677 446.562 255.464C446.893 255.24 447.138 254.941 447.298 254.568H448.994C448.781 255.315 448.354 255.939 447.714 256.44C447.085 256.941 446.301 257.192 445.362 257.192ZM445.362 250.264C444.797 250.264 444.295 250.435 443.858 250.776C443.421 251.107 443.154 251.608 443.058 252.28H447.538C447.506 251.661 447.287 251.171 446.882 250.808C446.477 250.445 445.97 250.264 445.362 250.264ZM450.994 257V249.064H452.514L452.658 250.568C452.935 250.045 453.319 249.635 453.81 249.336C454.311 249.027 454.914 248.872 455.618 248.872V250.648H455.154C454.685 250.648 454.263 250.728 453.89 250.888C453.527 251.037 453.234 251.299 453.01 251.672C452.797 252.035 452.69 252.541 452.69 253.192V257H450.994ZM458.304 253.688L458.24 251.08H458.848C459.424 251.08 459.952 251.027 460.432 250.92C460.923 250.813 461.312 250.605 461.6 250.296C461.899 249.987 462.048 249.528 462.048 248.92C462.048 248.333 461.867 247.875 461.504 247.544C461.141 247.203 460.667 247.032 460.08 247.032C459.472 247.032 458.992 247.197 458.64 247.528C458.288 247.859 458.112 248.307 458.112 248.872H456.512C456.501 248.232 456.64 247.667 456.928 247.176C457.227 246.685 457.643 246.301 458.176 246.024C458.72 245.747 459.355 245.608 460.08 245.608C460.784 245.608 461.408 245.741 461.952 246.008C462.496 246.275 462.917 246.659 463.216 247.16C463.525 247.651 463.68 248.243 463.68 248.936C463.68 249.693 463.515 250.317 463.184 250.808C462.853 251.288 462.4 251.645 461.824 251.88C461.248 252.104 460.587 252.216 459.84 252.216L459.792 253.688H458.304ZM459.056 257.096C458.725 257.096 458.459 256.995 458.256 256.792C458.053 256.579 457.952 256.328 457.952 256.04C457.952 255.741 458.053 255.491 458.256 255.288C458.459 255.075 458.725 254.968 459.056 254.968C459.365 254.968 459.621 255.075 459.824 255.288C460.037 255.491 460.144 255.741 460.144 256.04C460.144 256.328 460.037 256.579 459.824 256.792C459.621 256.995 459.365 257.096 459.056 257.096Z" fill="#05A8CD"/>
</g>
<g filter="url(#filter3_d_1_7100)">
<rect x="125" y="82.421" width="264" height="40" rx="20" transform="rotate(-1.85527 125 82.421)" fill="white" shape-rendering="crispEdges"/>
<path d="M145.224 106.795L141.838 95.6828L143.661 95.6238L146.184 104.827L148.443 95.4689L150.314 95.4083L153.093 104.603L155.015 95.256L156.838 95.1969L154.131 106.491L152.148 106.555L149.416 97.8546L147.174 106.716L145.224 106.795ZM158.692 106.343L158.319 94.8288L160.014 94.7739L160.172 99.6353C160.424 99.1683 160.78 98.7992 161.241 98.5282C161.712 98.2461 162.235 98.0957 162.811 98.0771C163.76 98.0463 164.516 98.3207 165.079 98.9001C165.642 99.4795 165.942 100.361 165.981 101.544L166.128 106.102L164.449 106.156L164.307 101.775C164.258 100.239 163.62 99.4916 162.394 99.5313C161.754 99.5521 161.228 99.7932 160.816 100.255C160.415 100.716 160.228 101.362 160.255 102.194L160.387 106.288L158.692 106.343ZM170.818 106.142C170.146 106.164 169.588 106.07 169.144 105.86C168.699 105.65 168.365 105.368 168.14 105.012C167.914 104.646 167.795 104.244 167.78 103.807C167.756 103.04 168.034 102.422 168.617 101.955C169.199 101.488 170.045 101.237 171.154 101.201L173.233 101.133L173.228 100.989C173.208 100.371 173.022 99.9128 172.671 99.6147C172.331 99.3162 171.894 99.1756 171.361 99.1929C170.892 99.208 170.485 99.3386 170.141 99.5846C169.807 99.8195 169.61 100.162 169.55 100.612L167.855 100.667C167.889 100.09 168.065 99.5931 168.383 99.1773C168.711 98.7504 169.127 98.4221 169.632 98.1923C170.147 97.9515 170.713 97.8211 171.332 97.8011C172.441 97.7652 173.308 98.0305 173.935 98.5972C174.561 99.1532 174.891 99.9323 174.923 100.934L175.081 105.812L173.61 105.86L173.422 104.505C173.212 104.949 172.899 105.328 172.482 105.64C172.065 105.952 171.511 106.12 170.818 106.142ZM171.109 104.756C171.567 104.741 171.948 104.622 172.25 104.399C172.563 104.165 172.798 103.863 172.957 103.495C173.127 103.127 173.226 102.724 173.254 102.285L171.367 102.346C170.695 102.368 170.219 102.501 169.939 102.745C169.67 102.988 169.54 103.286 169.552 103.638C169.564 104 169.706 104.284 169.98 104.488C170.263 104.682 170.64 104.771 171.109 104.756ZM180.228 105.645C179.449 105.67 178.825 105.504 178.355 105.146C177.884 104.777 177.633 104.107 177.601 103.137L177.474 99.219L176.115 99.263L176.069 97.8397L177.428 97.7957L177.571 95.774L179.058 95.7258L179.123 97.7408L181.362 97.6683L181.408 99.0915L179.169 99.164L179.296 103.082C179.31 103.519 179.411 103.82 179.598 103.985C179.795 104.138 180.122 104.208 180.581 104.193L181.492 104.163L181.539 105.603L180.228 105.645ZM191.864 105.46C191.245 105.48 190.692 105.376 190.205 105.146C189.728 104.916 189.343 104.581 189.052 104.143L188.915 105.364L187.396 105.413L187.023 93.899L188.718 93.8441L188.874 98.6576C189.118 98.2762 189.459 97.9343 189.897 97.6319C190.336 97.3296 190.907 97.167 191.61 97.1442C192.378 97.1193 193.061 97.2786 193.659 97.6221C194.257 97.9656 194.732 98.4465 195.082 99.0648C195.444 99.6828 195.638 100.392 195.664 101.191C195.689 101.991 195.542 102.711 195.221 103.351C194.911 103.98 194.468 104.485 193.894 104.866C193.319 105.237 192.642 105.435 191.864 105.46ZM191.528 103.998C192.253 103.975 192.842 103.71 193.296 103.205C193.748 102.689 193.962 102.031 193.936 101.231C193.919 100.709 193.797 100.248 193.571 99.8501C193.345 99.4519 193.041 99.1469 192.661 98.9351C192.28 98.7127 191.845 98.6094 191.354 98.6253C190.629 98.6488 190.04 98.9186 189.588 99.4349C189.145 99.9508 188.937 100.603 188.963 101.392C188.988 102.192 189.239 102.835 189.713 103.321C190.198 103.796 190.803 104.022 191.528 103.998ZM197.625 105.082L197.252 93.5677L198.947 93.5128L199.32 105.027L197.625 105.082ZM205.183 105.029C204.426 105.053 203.738 104.905 203.119 104.583C202.511 104.251 202.021 103.781 201.649 103.174C201.277 102.557 201.077 101.832 201.05 101.001C201.023 100.169 201.176 99.4384 201.508 98.8087C201.85 98.1679 202.319 97.6671 202.916 97.3063C203.512 96.9348 204.183 96.7369 204.93 96.7128C205.687 96.6883 206.369 96.8422 206.978 97.1747C207.596 97.4962 208.092 97.9657 208.464 98.5833C208.847 99.1899 209.051 99.909 209.078 100.741C209.105 101.572 208.948 102.308 208.605 102.949C208.274 103.579 207.81 104.079 207.213 104.451C206.617 104.812 205.94 105.004 205.183 105.029ZM205.136 103.574C205.541 103.561 205.911 103.447 206.245 103.234C206.591 103.02 206.863 102.712 207.064 102.311C207.264 101.899 207.354 101.394 207.335 100.797C207.316 100.2 207.193 99.7077 206.967 99.3202C206.751 98.9216 206.464 98.6268 206.106 98.4356C205.758 98.2441 205.382 98.1549 204.977 98.168C204.572 98.1811 204.196 98.2947 203.851 98.5086C203.517 98.7222 203.249 99.0351 203.049 99.4471C202.849 99.8484 202.758 100.348 202.777 100.945C202.797 101.542 202.92 102.039 203.146 102.438C203.372 102.825 203.659 103.115 204.007 103.306C204.354 103.498 204.731 103.587 205.136 103.574ZM213.786 102.125C213.37 102.138 212.985 102.103 212.63 102.018L211.964 102.712C212.083 102.783 212.229 102.842 212.402 102.89C212.574 102.938 212.815 102.978 213.126 103.011C213.437 103.043 213.859 103.072 214.394 103.098C215.452 103.159 216.223 103.391 216.705 103.791C217.187 104.181 217.44 104.717 217.462 105.4C217.477 105.869 217.363 106.315 217.121 106.739C216.889 107.174 216.511 107.527 215.987 107.801C215.473 108.084 214.806 108.239 213.985 108.266C212.876 108.302 211.968 108.118 211.261 107.714C210.566 107.32 210.204 106.697 210.176 105.844C210.166 105.513 210.24 105.18 210.4 104.844C210.571 104.518 210.844 104.205 211.218 103.905C210.991 103.816 210.79 103.721 210.616 103.62C210.453 103.508 210.305 103.396 210.173 103.282L210.161 102.899L211.491 101.447C210.855 100.934 210.523 100.246 210.495 99.382C210.478 98.8596 210.585 98.3812 210.817 97.9468C211.059 97.5014 211.415 97.143 211.887 96.8716C212.358 96.6002 212.93 96.4536 213.601 96.4319C214.049 96.4174 214.467 96.4679 214.855 96.5834L217.813 96.4875L217.85 97.607L216.445 97.7325C216.715 98.1613 216.859 98.6422 216.876 99.1753C216.893 99.7084 216.781 100.192 216.539 100.627C216.307 101.061 215.956 101.414 215.484 101.686C215.024 101.957 214.457 102.103 213.786 102.125ZM213.743 100.798C214.233 100.782 214.623 100.641 214.914 100.375C215.214 100.099 215.357 99.7208 215.341 99.241C215.325 98.7506 215.159 98.3825 214.841 98.1366C214.534 97.8904 214.136 97.7753 213.645 97.7912C213.144 97.8074 212.743 97.9484 212.442 98.2143C212.152 98.4799 212.015 98.8578 212.031 99.3482C212.046 99.828 212.208 100.196 212.515 100.453C212.832 100.699 213.242 100.814 213.743 100.798ZM211.77 105.632C211.785 106.09 211.999 106.425 212.411 106.636C212.824 106.857 213.334 106.958 213.942 106.938C214.528 106.919 214.998 106.776 215.352 106.508C215.707 106.252 215.878 105.915 215.864 105.499C215.854 105.19 215.723 104.928 215.47 104.712C215.218 104.506 214.75 104.388 214.066 104.357C213.553 104.342 213.099 104.308 212.702 104.257C212.336 104.472 212.087 104.699 211.956 104.938C211.825 105.177 211.763 105.408 211.77 105.632ZM225.194 104.189L222.603 96.3324L224.298 96.2775L226.027 102.209L227.56 96.1718L229.447 96.1107L231.368 102.036L232.709 96.005L234.405 95.9501L232.327 103.958L230.584 104.014L228.559 97.8364L226.938 104.132L225.194 104.189ZM238.392 103.953C237.72 103.975 237.162 103.881 236.718 103.671C236.273 103.462 235.939 103.179 235.714 102.823C235.488 102.457 235.369 102.055 235.354 101.618C235.329 100.851 235.608 100.233 236.191 99.7663C236.773 99.2992 237.619 99.0477 238.728 99.0118L240.807 98.9444L240.802 98.8005C240.782 98.1822 240.596 97.7239 240.245 97.4258C239.905 97.1273 239.468 96.9867 238.935 97.004C238.466 97.0192 238.059 97.1498 237.715 97.3957C237.381 97.6306 237.184 97.9732 237.124 98.4234L235.429 98.4783C235.463 97.9009 235.639 97.4042 235.957 96.9884C236.284 96.5616 236.701 96.2333 237.206 96.0035C237.721 95.7627 238.287 95.6322 238.906 95.6122C240.015 95.5763 240.882 95.8417 241.509 96.4084C242.135 96.9644 242.465 97.7434 242.497 98.7456L242.655 103.623L241.184 103.671L240.996 102.316C240.786 102.76 240.473 103.139 240.056 103.451C239.639 103.763 239.085 103.931 238.392 103.953ZM238.683 102.567C239.141 102.552 239.522 102.433 239.824 102.21C240.136 101.976 240.372 101.675 240.531 101.307C240.7 100.938 240.799 100.535 240.828 100.096L238.941 100.157C238.269 100.179 237.793 100.312 237.513 100.556C237.244 100.799 237.114 101.097 237.126 101.449C237.138 101.811 237.28 102.095 237.554 102.299C237.837 102.493 238.214 102.582 238.683 102.567ZM247.804 103.648C246.802 103.681 245.968 103.462 245.302 102.993C244.635 102.524 244.241 101.885 244.119 101.078L245.83 101.023C245.927 101.383 246.14 101.691 246.468 101.947C246.796 102.192 247.222 102.306 247.744 102.29C248.256 102.273 248.626 102.154 248.853 101.933C249.081 101.713 249.19 101.464 249.181 101.186C249.168 100.781 248.994 100.515 248.659 100.387C248.334 100.248 247.882 100.129 247.303 100.031C246.852 99.9492 246.4 99.8358 245.947 99.6904C245.505 99.5446 245.13 99.3327 244.822 99.0545C244.524 98.7653 244.367 98.3702 244.351 97.8691C244.329 97.1761 244.577 96.5918 245.095 96.1161C245.613 95.6298 246.351 95.371 247.311 95.34C248.196 95.3113 248.917 95.5014 249.474 95.9102C250.043 96.3187 250.387 96.9105 250.508 97.6857L248.877 97.7385C248.813 97.3991 248.644 97.1377 248.372 96.9545C248.11 96.7708 247.76 96.6861 247.323 96.7003C246.896 96.7141 246.569 96.8154 246.34 97.0043C246.111 97.1824 246.001 97.4101 246.01 97.6873C246.019 97.9645 246.186 98.1779 246.511 98.3274C246.847 98.4766 247.283 98.6066 247.82 98.7172C248.357 98.8172 248.852 98.9399 249.305 99.0854C249.768 99.2198 250.143 99.4317 250.43 99.7213C250.717 100.011 250.87 100.443 250.889 101.019C250.923 101.744 250.66 102.355 250.1 102.854C249.55 103.352 248.785 103.617 247.804 103.648ZM260.17 103.056C259.392 103.081 258.768 102.914 258.297 102.556C257.826 102.187 257.575 101.518 257.544 100.547L257.417 96.6295L256.057 96.6735L256.011 95.2502L257.371 95.2062L257.513 93.1845L259 93.1364L259.066 95.1513L261.304 95.0788L261.351 96.502L259.112 96.5746L259.239 100.492C259.253 100.93 259.353 101.231 259.54 101.395C259.737 101.549 260.065 101.618 260.523 101.603L261.435 101.574L261.481 103.013L260.17 103.056ZM263.309 102.954L262.936 91.44L264.631 91.3851L264.789 96.2466C265.041 95.7795 265.397 95.4105 265.858 95.1394C266.329 94.8573 266.852 94.707 267.428 94.6883C268.377 94.6576 269.133 94.9319 269.696 95.5113C270.259 96.0907 270.559 96.9721 270.598 98.1555L270.745 102.713L269.066 102.768L268.924 98.3858C268.875 96.8506 268.237 96.1029 267.011 96.1426C266.371 96.1633 265.845 96.4045 265.433 96.866C265.032 97.3273 264.845 97.9737 264.872 98.8052L265.004 102.899L263.309 102.954ZM275.435 102.753C274.763 102.775 274.205 102.681 273.761 102.471C273.316 102.262 272.982 101.979 272.757 101.623C272.531 101.257 272.412 100.856 272.397 100.418C272.373 99.6508 272.651 99.0335 273.234 98.5664C273.816 98.0993 274.662 97.8478 275.771 97.8119L277.85 97.7445L277.845 97.6006C277.825 96.9823 277.639 96.524 277.288 96.2259C276.948 95.9274 276.511 95.7868 275.978 95.8041C275.509 95.8193 275.102 95.9499 274.758 96.1958C274.424 96.4307 274.227 96.7733 274.167 97.2235L272.472 97.2784C272.506 96.701 272.682 96.2043 273 95.7885C273.328 95.3617 273.744 95.0334 274.249 94.8036C274.764 94.5628 275.331 94.4323 275.949 94.4123C277.058 94.3764 277.925 94.6418 278.552 95.2085C279.178 95.7645 279.508 96.5435 279.54 97.5457L279.698 102.423L278.227 102.471L278.039 101.116C277.829 101.561 277.516 101.939 277.099 102.251C276.682 102.564 276.128 102.731 275.435 102.753ZM275.726 101.367C276.184 101.352 276.565 101.233 276.867 101.01C277.18 100.776 277.415 100.475 277.574 100.107C277.744 99.7383 277.843 99.3349 277.871 98.8964L275.984 98.9576C275.312 98.9793 274.836 99.1121 274.556 99.356C274.287 99.5995 274.157 99.8972 274.169 100.249C274.181 100.611 274.323 100.895 274.597 101.1C274.88 101.293 275.257 101.382 275.726 101.367ZM284.845 102.256C284.066 102.282 283.442 102.115 282.972 101.757C282.501 101.388 282.25 100.718 282.218 99.7481L282.091 95.8302L280.732 95.8742L280.686 94.451L282.045 94.4069L282.188 92.3853L283.675 92.3371L283.74 94.352L285.979 94.2795L286.025 95.7028L283.786 95.7753L283.913 99.6932C283.927 100.13 284.028 100.431 284.215 100.596C284.412 100.75 284.739 100.819 285.198 100.804L286.109 100.775L286.156 102.214L284.845 102.256ZM292.127 105.542L291.756 94.0924L293.275 94.0432L293.491 95.2688C293.735 94.8874 294.076 94.5455 294.514 94.2432C294.953 93.9408 295.524 93.7782 296.227 93.7555C296.995 93.7306 297.678 93.8899 298.276 94.2334C298.874 94.5769 299.349 95.0578 299.699 95.6761C300.061 96.294 300.255 97.0028 300.281 97.8024C300.306 98.6019 300.159 99.3218 299.838 99.9618C299.528 100.591 299.085 101.096 298.511 101.478C297.936 101.848 297.259 102.046 296.481 102.072C295.862 102.092 295.309 101.987 294.822 101.757C294.345 101.527 293.96 101.193 293.669 100.754L293.822 105.487L292.127 105.542ZM296.145 100.61C296.87 100.586 297.459 100.322 297.913 99.8161C298.365 99.2998 298.579 98.6419 298.553 97.8423C298.536 97.3199 298.414 96.8596 298.188 96.4614C297.962 96.0632 297.658 95.7582 297.278 95.5464C296.897 95.3239 296.462 95.2206 295.971 95.2365C295.246 95.26 294.657 95.5299 294.205 96.0461C293.762 96.5621 293.554 97.2145 293.58 98.0034C293.605 98.803 293.856 99.4459 294.33 99.9321C294.815 100.407 295.42 100.633 296.145 100.61ZM305.958 101.765C305.201 101.789 304.513 101.641 303.895 101.319C303.286 100.987 302.796 100.517 302.424 99.9101C302.052 99.2924 301.853 98.5679 301.826 97.7363C301.799 96.9047 301.951 96.1741 302.283 95.5443C302.625 94.9036 303.094 94.4028 303.691 94.042C304.287 93.6705 304.959 93.4726 305.705 93.4485C306.462 93.4239 307.144 93.5779 307.753 93.9104C308.372 94.2319 308.867 94.7014 309.239 95.319C309.622 95.9256 309.826 96.6447 309.853 97.4763C309.88 98.3078 309.723 99.044 309.381 99.6847C309.049 100.314 308.585 100.815 307.989 101.187C307.392 101.547 306.715 101.74 305.958 101.765ZM305.911 100.309C306.316 100.296 306.686 100.183 307.021 99.9693C307.366 99.7553 307.639 99.4477 307.839 99.0463C308.039 98.6343 308.13 98.1297 308.11 97.5327C308.091 96.9357 307.968 96.4434 307.742 96.0559C307.527 95.6573 307.24 95.3624 306.881 95.1713C306.534 94.9798 306.157 94.8906 305.752 94.9037C305.347 94.9168 304.972 95.0304 304.626 95.2443C304.292 95.4579 304.024 95.7707 303.824 96.1828C303.624 96.5841 303.533 97.0833 303.553 97.6804C303.572 98.2774 303.695 98.775 303.921 99.1732C304.147 99.5608 304.434 99.8503 304.782 100.042C305.13 100.233 305.506 100.323 305.911 100.309ZM314.988 101.472C313.985 101.505 313.151 101.286 312.485 100.817C311.819 100.347 311.425 99.7092 311.302 98.9021L313.014 98.8467C313.111 99.2064 313.323 99.5143 313.652 99.7705C313.98 100.016 314.405 100.13 314.928 100.113C315.439 100.097 315.809 99.9781 316.037 99.7573C316.264 99.5365 316.374 99.2875 316.365 99.0103C316.352 98.6051 316.177 98.3386 315.842 98.2108C315.518 98.0719 315.066 97.9531 314.486 97.8545C314.035 97.773 313.583 97.6596 313.131 97.5142C312.688 97.3684 312.313 97.1565 312.005 96.8783C311.708 96.5891 311.551 96.194 311.535 95.6929C311.512 94.9999 311.76 94.4156 312.278 93.9399C312.796 93.4535 313.535 93.1948 314.494 93.1638C315.379 93.1351 316.1 93.3252 316.658 93.734C317.226 94.1425 317.571 94.7343 317.692 95.5095L316.061 95.5623C315.996 95.2229 315.828 94.9615 315.555 94.7783C315.293 94.5946 314.944 94.5099 314.506 94.5241C314.08 94.5379 313.752 94.6392 313.524 94.828C313.295 95.0062 313.185 95.2339 313.194 95.5111C313.203 95.7883 313.37 96.0017 313.695 96.1512C314.03 96.3004 314.467 96.4304 315.004 96.541C315.541 96.641 316.036 96.7637 316.489 96.9092C316.952 97.0436 317.327 97.2555 317.614 97.5451C317.901 97.8346 318.053 98.2672 318.072 98.8429C318.106 99.5675 317.843 100.179 317.283 100.677C316.734 101.175 315.968 101.44 314.988 101.472ZM323.028 101.02C322.25 101.045 321.625 100.878 321.155 100.52C320.684 100.151 320.433 99.4815 320.401 98.5113L320.274 94.5934L318.915 94.6374L318.869 93.2142L320.228 93.1701L320.371 91.1484L321.858 91.1003L321.923 93.1152L324.162 93.0427L324.208 94.4659L321.969 94.5385L322.096 98.4564C322.11 98.8935 322.211 99.1944 322.398 99.3591C322.595 99.5128 322.923 99.5823 323.381 99.5674L324.292 99.5379L324.339 100.977L323.028 101.02ZM330.596 100.774L330.385 94.2659L329.25 94.3026L329.204 92.8794L330.339 92.8426L330.302 91.6912C330.274 90.8277 330.467 90.2024 330.881 89.8155C331.306 89.4175 331.913 89.2058 332.702 89.1802L333.533 89.1533L333.58 90.5925L333.004 90.6112C332.631 90.6232 332.367 90.7118 332.212 90.8769C332.057 91.0314 331.986 91.2898 331.997 91.6523L332.034 92.7877L333.857 92.7287L333.903 94.1519L332.08 94.211L332.291 100.72L330.596 100.774ZM335.724 100.608L335.467 92.6765L336.987 92.6273L337.179 94.1258C337.44 93.5945 337.81 93.1716 338.291 92.8572C338.782 92.5318 339.379 92.3577 340.083 92.3349L340.14 94.11L339.677 94.125C339.207 94.1402 338.789 94.2338 338.421 94.4058C338.063 94.5668 337.779 94.8375 337.567 95.2179C337.365 95.5872 337.275 96.0971 337.296 96.7474L337.42 100.553L335.724 100.608ZM345.297 100.49C344.54 100.515 343.852 100.366 343.233 100.045C342.625 99.7125 342.135 99.2427 341.763 98.6358C341.391 98.0182 341.191 97.2936 341.164 96.462C341.137 95.6305 341.29 94.8998 341.622 94.2701C341.964 93.6293 342.433 93.1286 343.03 92.7677C343.626 92.3962 344.297 92.1984 345.044 92.1742C345.801 92.1497 346.483 92.3037 347.092 92.6361C347.71 92.9576 348.206 93.4271 348.578 94.0448C348.961 94.6514 349.165 95.3704 349.192 96.202C349.219 97.0336 349.062 97.7697 348.719 98.4105C348.388 99.0402 347.924 99.5408 347.327 99.9123C346.731 100.273 346.054 100.466 345.297 100.49ZM345.25 99.0351C345.655 99.022 346.025 98.9086 346.359 98.695C346.705 98.4811 346.978 98.1734 347.178 97.772C347.378 97.36 347.468 96.8555 347.449 96.2585C347.43 95.6614 347.307 95.1692 347.081 94.7816C346.865 94.383 346.578 94.0882 346.22 93.897C345.872 93.7055 345.496 93.6163 345.091 93.6294C344.686 93.6426 344.31 93.7561 343.965 93.9701C343.631 94.1837 343.363 94.4965 343.163 94.9085C342.963 95.3099 342.872 95.8091 342.891 96.4061C342.911 97.0031 343.034 97.5007 343.26 97.8989C343.486 98.2865 343.773 98.576 344.121 98.7675C344.468 98.9591 344.845 99.0482 345.25 99.0351ZM351.154 100.109L350.897 92.1767L352.4 92.128L352.58 93.2428C352.823 92.8294 353.148 92.4986 353.557 92.2506C353.976 92.0023 354.462 91.8691 355.016 91.8512C356.275 91.8104 357.165 92.2778 357.687 93.2534C357.96 92.7857 358.332 92.4108 358.803 92.1287C359.285 91.8463 359.809 91.6959 360.374 91.6776C361.365 91.6455 362.153 91.9188 362.737 92.4975C363.322 93.0763 363.633 93.9573 363.672 95.1407L363.819 99.6983L362.124 99.7532L361.982 95.3715C361.932 93.8363 361.321 93.0877 360.148 93.1257C359.551 93.145 359.068 93.3848 358.699 93.845C358.34 94.3048 358.174 94.9505 358.201 95.7821L358.334 99.876L356.639 99.9309L356.497 95.5492C356.447 94.014 355.831 93.2655 354.647 93.3039C354.061 93.3229 353.583 93.5625 353.214 94.0227C352.855 94.4825 352.689 95.1282 352.716 95.9598L352.849 100.054L351.154 100.109ZM366.927 96.2839L366.778 93.6793L367.386 93.6597C367.961 93.641 368.487 93.5706 368.964 93.4485C369.451 93.326 369.833 93.1055 370.111 92.787C370.399 92.4681 370.534 92.0049 370.514 91.3972C370.495 90.8108 370.299 90.3583 369.926 90.0395C369.552 89.7101 369.072 89.5549 368.486 89.5739C367.878 89.5936 367.404 89.7744 367.063 90.1163C366.722 90.4581 366.56 90.9116 366.579 91.4766L364.98 91.5284C364.948 90.8891 365.068 90.3196 365.34 89.8199C365.623 89.3198 366.026 88.9225 366.55 88.6281C367.085 88.3333 367.715 88.1741 368.44 88.1506C369.144 88.1278 369.772 88.2409 370.324 88.4898C370.876 88.7387 371.31 89.1089 371.625 89.6003C371.95 90.0807 372.123 90.6674 372.146 91.3603C372.17 92.1173 372.025 92.7463 371.711 93.2474C371.396 93.7379 370.954 94.1097 370.386 94.3629C369.818 94.6054 369.16 94.7388 368.414 94.7629L368.414 96.2357L366.927 96.2839ZM367.788 99.6658C367.458 99.6765 367.188 99.5838 366.979 99.3878C366.77 99.1812 366.66 98.9339 366.651 98.6461C366.641 98.3476 366.734 98.0937 366.93 97.8846C367.126 97.6648 367.389 97.5496 367.72 97.5389C368.029 97.5289 368.288 97.6272 368.498 97.8339C368.717 98.0295 368.832 98.2766 368.842 98.5751C368.851 98.8629 368.753 99.1169 368.546 99.3371C368.35 99.5462 368.098 99.6558 367.788 99.6658Z" fill="#05A8CD"/>
</g>
<defs>
<filter id="filter0_d_1_7100" x="22.9842" y="149.43" width="287.539" height="76.1124" filterUnits="userSpaceOnUse" color-interpolation-filters="sRGB">
<feFlood flood-opacity="0" result="BackgroundImageFix"/>
<feColorMatrix in="SourceAlpha" type="matrix" values="0 0 0 0 0 0 0 0 0 0 0 0 0 0 0 0 0 0 127 0" result="hardAlpha"/>
<feMorphology radius="17.7853" operator="erode" in="SourceAlpha" result="effect1_dropShadow_1_7100"/>
<feOffset dy="13.339"/>
<feGaussianBlur stdDeviation="12.2274"/>
<feComposite in2="hardAlpha" operator="out"/>
<feColorMatrix type="matrix" values="0 0 0 0 0.364706 0 0 0 0 0.691373 0 0 0 0 0.831373 0 0 0 0.44 0"/>
<feBlend mode="normal" in2="BackgroundImageFix" result="effect1_dropShadow_1_7100"/>
<feBlend mode="normal" in="SourceGraphic" in2="effect1_dropShadow_1_7100" result="shape"/>
</filter>
<filter id="filter1_d_1_7100" x="298.962" y="133.297" width="254.905" height="72.0695" filterUnits="userSpaceOnUse" color-interpolation-filters="sRGB">
<feFlood flood-opacity="0" result="BackgroundImageFix"/>
<feColorMatrix in="SourceAlpha" type="matrix" values="0 0 0 0 0 0 0 0 0 0 0 0 0 0 0 0 0 0 127 0" result="hardAlpha"/>
<feMorphology radius="17.2316" operator="erode" in="SourceAlpha" result="effect1_dropShadow_1_7100"/>
<feOffset dy="12.9237"/>
<feGaussianBlur stdDeviation="11.8467"/>
<feComposite in2="hardAlpha" operator="out"/>
<feColorMatrix type="matrix" values="0 0 0 0 0.364706 0 0 0 0 0.691373 0 0 0 0 0.831373 0 0 0 0.44 0"/>
<feBlend mode="normal" in2="BackgroundImageFix" result="effect1_dropShadow_1_7100"/>
<feBlend mode="normal" in="SourceGraphic" in2="effect1_dropShadow_1_7100" result="shape"/>
</filter>
<filter id="filter2_d_1_7100" x="82" y="232" width="405" height="58" filterUnits="userSpaceOnUse" color-interpolation-filters="sRGB">
<feFlood flood-opacity="0" result="BackgroundImageFix"/>
<feColorMatrix in="SourceAlpha" type="matrix" values="0 0 0 0 0 0 0 0 0 0 0 0 0 0 0 0 0 0 127 0" result="hardAlpha"/>
<feMorphology radius="16" operator="erode" in="SourceAlpha" result="effect1_dropShadow_1_7100"/>
<feOffset dy="12"/>
<feGaussianBlur stdDeviation="11"/>
<feComposite in2="hardAlpha" operator="out"/>
<feColorMatrix type="matrix" values="0 0 0 0 0.364706 0 0 0 0 0.691373 0 0 0 0 0.831373 0 0 0 0.44 0"/>
<feBlend mode="normal" in2="BackgroundImageFix" result="effect1_dropShadow_1_7100"/>
<feBlend mode="normal" in="SourceGraphic" in2="effect1_dropShadow_1_7100" result="shape"/>
</filter>
<filter id="filter3_d_1_7100" x="119" y="73.874" width="277.157" height="66.526" filterUnits="userSpaceOnUse" color-interpolation-filters="sRGB">
<feFlood flood-opacity="0" result="BackgroundImageFix"/>
<feColorMatrix in="SourceAlpha" type="matrix" values="0 0 0 0 0 0 0 0 0 0 0 0 0 0 0 0 0 0 127 0" result="hardAlpha"/>
<feMorphology radius="16" operator="erode" in="SourceAlpha" result="effect1_dropShadow_1_7100"/>
<feOffset dy="12"/>
<feGaussianBlur stdDeviation="11"/>
<feComposite in2="hardAlpha" operator="out"/>
<feColorMatrix type="matrix" values="0 0 0 0 0.364706 0 0 0 0 0.691373 0 0 0 0 0.831373 0 0 0 0.44 0"/>
<feBlend mode="normal" in2="BackgroundImageFix" result="effect1_dropShadow_1_7100"/>
<feBlend mode="normal" in="SourceGraphic" in2="effect1_dropShadow_1_7100" result="shape"/>
</filter>
<linearGradient id="paint0_linear_1_7100" x1="567" y1="351" x2="7" y2="6.49996" gradientUnits="userSpaceOnUse">
<stop stop-color="#05A8CD" stop-opacity="0.09"/>
<stop offset="1" stop-color="#05A8CD" stop-opacity="0.02"/>
</linearGradient>
</defs>
</svg>
