<svg width="576" height="360" viewBox="0 0 576 360" fill="none" xmlns="http://www.w3.org/2000/svg">
<rect width="576" height="360" rx="24" fill="url(#paint0_linear_1_6935)"/>
<rect x="57" y="48" width="63.9333" height="42" rx="4.2" fill="url(#paint1_linear_1_6935)"/>
<rect x="134.933" y="48" width="98.2813" height="6.3664" rx="3.1832" fill="url(#paint2_linear_1_6935)"/>
<rect x="134.933" y="59.5391" width="45" height="2" rx="1" fill="url(#paint3_linear_1_6935)"/>
<rect x="135" y="75" width="32" height="3" rx="1.5" fill="url(#paint4_linear_1_6935)"/>
<rect x="135" y="65.2148" width="84" height="7" rx="3.5" fill="url(#paint5_linear_1_6935)"/>
<rect x="57" y="122" width="63.9333" height="42" rx="4.2" fill="url(#paint6_linear_1_6935)"/>
<rect x="134.933" y="122" width="98.2813" height="6.3664" rx="3.1832" fill="url(#paint7_linear_1_6935)"/>
<rect x="134.933" y="133.539" width="45" height="2" rx="1" fill="url(#paint8_linear_1_6935)"/>
<rect x="135" y="149" width="32" height="3" rx="1.5" fill="url(#paint9_linear_1_6935)"/>
<rect x="135" y="139.215" width="84" height="7" rx="3.5" fill="url(#paint10_linear_1_6935)"/>
<rect x="57" y="196" width="63.9333" height="42" rx="4.2" fill="url(#paint11_linear_1_6935)"/>
<rect x="134.933" y="196" width="98.2813" height="6.3664" rx="3.1832" fill="url(#paint12_linear_1_6935)"/>
<rect x="134.933" y="207.539" width="45" height="2" rx="1" fill="url(#paint13_linear_1_6935)"/>
<rect x="135" y="223" width="32" height="3" rx="1.5" fill="url(#paint14_linear_1_6935)"/>
<rect x="135" y="213.215" width="84" height="7" rx="3.5" fill="url(#paint15_linear_1_6935)"/>
<rect x="57" y="270" width="63.9333" height="42" rx="4.2" fill="url(#paint16_linear_1_6935)"/>
<rect x="134.933" y="270" width="98.2813" height="6.3664" rx="3.1832" fill="url(#paint17_linear_1_6935)"/>
<rect x="134.933" y="281.539" width="45" height="2" rx="1" fill="url(#paint18_linear_1_6935)"/>
<rect x="135" y="297" width="32" height="3" rx="1.5" fill="url(#paint19_linear_1_6935)"/>
<rect x="135" y="287.215" width="84" height="7" rx="3.5" fill="url(#paint20_linear_1_6935)"/>
<g opacity="0.76">
<path d="M279.903 43.2555C280.187 42.6801 280.329 42.3924 280.522 42.3005C280.69 42.2205 280.885 42.2205 281.052 42.3005C281.245 42.3924 281.387 42.6801 281.671 43.2555L284.366 48.7144C284.45 48.8843 284.492 48.9692 284.553 49.0352C284.607 49.0936 284.672 49.1409 284.745 49.1745C284.826 49.2124 284.92 49.2261 285.107 49.2535L291.135 50.1345C291.769 50.2273 292.087 50.2737 292.234 50.4287C292.361 50.5636 292.422 50.7489 292.397 50.9331C292.369 51.1448 292.139 51.3686 291.68 51.8162L287.32 56.0627C287.184 56.195 287.116 56.2612 287.072 56.34C287.034 56.4097 287.009 56.4863 286.999 56.5655C286.988 56.655 287.004 56.7485 287.036 56.9355L288.065 62.9335C288.174 63.5661 288.228 63.8824 288.126 64.0701C288.037 64.2334 287.879 64.348 287.697 64.3818C287.487 64.4208 287.203 64.2714 286.635 63.9726L281.246 61.1389C281.078 61.0506 280.994 61.0065 280.906 60.9891C280.828 60.9738 280.747 60.9738 280.669 60.9891C280.58 61.0065 280.496 61.0506 280.328 61.1389L274.94 63.9726C274.372 64.2714 274.088 64.4208 273.878 64.3818C273.695 64.348 273.537 64.2334 273.449 64.0701C273.347 63.8824 273.401 63.5661 273.51 62.9335L274.538 56.9355C274.57 56.7485 274.586 56.655 274.576 56.5655C274.566 56.4863 274.541 56.4097 274.502 56.34C274.458 56.2612 274.39 56.195 274.254 56.0627L269.895 51.8162C269.435 51.3686 269.205 51.1448 269.177 50.9331C269.153 50.7489 269.213 50.5636 269.341 50.4287C269.488 50.2737 269.805 50.2273 270.44 50.1345L276.467 49.2535C276.655 49.2261 276.748 49.2124 276.83 49.1745C276.902 49.1409 276.967 49.0936 277.022 49.0352C277.083 48.9692 277.125 48.8843 277.209 48.7144L279.903 43.2555Z" fill="#FDB022" stroke="#FDB022" stroke-width="2.46455" stroke-linecap="round" stroke-linejoin="round"/>
<path d="M314.932 43.7286C315.216 43.1532 315.358 42.8655 315.551 42.7736C315.718 42.6936 315.913 42.6936 316.081 42.7736C316.274 42.8655 316.416 43.1532 316.7 43.7286L319.394 49.1876C319.478 49.3574 319.52 49.4424 319.581 49.5083C319.636 49.5667 319.701 49.614 319.773 49.6476C319.855 49.6856 319.948 49.6993 320.136 49.7267L326.163 50.6077C326.798 50.7004 327.115 50.7468 327.262 50.9019C327.39 51.0367 327.45 51.2221 327.426 51.4063C327.398 51.618 327.168 51.8418 326.708 52.2893L322.349 56.5358C322.213 56.6682 322.145 56.7344 322.101 56.8131C322.062 56.8829 322.037 56.9595 322.028 57.0387C322.017 57.1282 322.033 57.2217 322.065 57.4087L323.094 63.4066C323.202 64.0392 323.256 64.3555 323.154 64.5432C323.066 64.7066 322.908 64.8211 322.725 64.855C322.515 64.8939 322.231 64.7445 321.663 64.4458L316.275 61.6121C316.107 61.5238 316.023 61.4796 315.934 61.4623C315.856 61.4469 315.775 61.4469 315.697 61.4623C315.609 61.4796 315.525 61.5238 315.357 61.6121L309.968 64.4458C309.4 64.7445 309.116 64.8939 308.906 64.855C308.724 64.8211 308.566 64.7066 308.477 64.5432C308.375 64.3555 308.429 64.0392 308.538 63.4066L309.567 57.4087C309.599 57.2217 309.615 57.1282 309.604 57.0387C309.594 56.9595 309.569 56.8829 309.531 56.8131C309.487 56.7344 309.419 56.6682 309.283 56.5358L304.923 52.2893C304.464 51.8418 304.234 51.618 304.206 51.4063C304.182 51.2221 304.242 51.0367 304.369 50.9019C304.516 50.7468 304.834 50.7004 305.468 50.6077L311.496 49.7267C311.683 49.6993 311.777 49.6856 311.859 49.6476C311.931 49.614 311.996 49.5667 312.05 49.5083C312.111 49.4424 312.153 49.3574 312.237 49.1876L314.932 43.7286Z" fill="#FDB022" stroke="#FDB022" stroke-width="2.46455" stroke-linecap="round" stroke-linejoin="round"/>
</g>
<g opacity="0.76">
<path d="M279.903 116.83C280.187 116.255 280.329 115.967 280.522 115.875C280.69 115.795 280.885 115.795 281.052 115.875C281.245 115.967 281.387 116.255 281.671 116.83L284.366 122.289C284.45 122.459 284.492 122.544 284.553 122.61C284.607 122.668 284.672 122.716 284.745 122.749C284.826 122.787 284.92 122.801 285.107 122.828L291.135 123.709C291.769 123.802 292.087 123.848 292.234 124.003C292.361 124.138 292.422 124.324 292.397 124.508C292.369 124.72 292.139 124.943 291.68 125.391L287.32 129.637C287.184 129.77 287.116 129.836 287.072 129.915C287.034 129.984 287.009 130.061 286.999 130.14C286.988 130.23 287.004 130.323 287.036 130.51L288.065 136.508C288.174 137.141 288.228 137.457 288.126 137.645C288.037 137.808 287.879 137.923 287.697 137.957C287.487 137.995 287.203 137.846 286.635 137.547L281.246 134.714C281.078 134.625 280.994 134.581 280.906 134.564C280.828 134.548 280.747 134.548 280.669 134.564C280.58 134.581 280.496 134.625 280.328 134.714L274.94 137.547C274.372 137.846 274.088 137.995 273.878 137.957C273.695 137.923 273.537 137.808 273.449 137.645C273.347 137.457 273.401 137.141 273.51 136.508L274.538 130.51C274.57 130.323 274.586 130.23 274.576 130.14C274.566 130.061 274.541 129.984 274.502 129.915C274.458 129.836 274.39 129.77 274.254 129.637L269.895 125.391C269.435 124.943 269.205 124.72 269.177 124.508C269.153 124.324 269.213 124.138 269.341 124.003C269.488 123.848 269.805 123.802 270.44 123.709L276.467 122.828C276.655 122.801 276.748 122.787 276.83 122.749C276.902 122.716 276.967 122.668 277.022 122.61C277.083 122.544 277.125 122.459 277.209 122.289L279.903 116.83Z" fill="#FDB022" stroke="#FDB022" stroke-width="2.46455" stroke-linecap="round" stroke-linejoin="round"/>
<path d="M314.932 117.303C315.216 116.728 315.358 116.44 315.551 116.348C315.718 116.268 315.913 116.268 316.081 116.348C316.274 116.44 316.416 116.728 316.7 117.303L319.394 122.762C319.478 122.932 319.52 123.017 319.581 123.083C319.636 123.141 319.701 123.189 319.773 123.222C319.855 123.26 319.948 123.274 320.136 123.301L326.163 124.182C326.798 124.275 327.115 124.322 327.262 124.477C327.39 124.611 327.45 124.797 327.426 124.981C327.398 125.193 327.168 125.416 326.708 125.864L322.349 130.111C322.213 130.243 322.145 130.309 322.101 130.388C322.062 130.458 322.037 130.534 322.028 130.613C322.017 130.703 322.033 130.796 322.065 130.983L323.094 136.981C323.202 137.614 323.256 137.93 323.154 138.118C323.066 138.281 322.908 138.396 322.725 138.43C322.515 138.469 322.231 138.319 321.663 138.02L316.275 135.187C316.107 135.098 316.023 135.054 315.934 135.037C315.856 135.022 315.775 135.022 315.697 135.037C315.609 135.054 315.525 135.098 315.357 135.187L309.968 138.02C309.4 138.319 309.116 138.469 308.906 138.43C308.724 138.396 308.566 138.281 308.477 138.118C308.375 137.93 308.429 137.614 308.538 136.981L309.567 130.983C309.599 130.796 309.615 130.703 309.604 130.613C309.594 130.534 309.569 130.458 309.531 130.388C309.487 130.309 309.419 130.243 309.283 130.111L304.923 125.864C304.464 125.416 304.234 125.193 304.206 124.981C304.182 124.797 304.242 124.611 304.369 124.477C304.516 124.322 304.834 124.275 305.468 124.182L311.496 123.301C311.683 123.274 311.777 123.26 311.859 123.222C311.931 123.189 311.996 123.141 312.05 123.083C312.111 123.017 312.153 122.932 312.237 122.762L314.932 117.303Z" fill="#FDB022" stroke="#FDB022" stroke-width="2.46455" stroke-linecap="round" stroke-linejoin="round"/>
<path d="M346.788 117.303C347.072 116.728 347.214 116.44 347.407 116.348C347.575 116.268 347.77 116.268 347.937 116.348C348.13 116.44 348.272 116.728 348.556 117.303L351.251 122.762C351.335 122.932 351.376 123.017 351.438 123.083C351.492 123.141 351.557 123.189 351.629 123.222C351.711 123.26 351.805 123.274 351.992 123.301L358.019 124.182C358.654 124.275 358.972 124.322 359.118 124.477C359.246 124.611 359.306 124.797 359.282 124.981C359.254 125.193 359.024 125.416 358.565 125.864L354.205 130.111C354.069 130.243 354.001 130.309 353.957 130.388C353.918 130.458 353.893 130.534 353.884 130.613C353.873 130.703 353.889 130.796 353.921 130.983L354.95 136.981C355.058 137.614 355.113 137.93 355.011 138.118C354.922 138.281 354.764 138.396 354.582 138.43C354.371 138.469 354.087 138.319 353.519 138.02L348.131 135.187C347.963 135.098 347.879 135.054 347.791 135.037C347.712 135.022 347.632 135.022 347.554 135.037C347.465 135.054 347.381 135.098 347.213 135.187L341.825 138.02C341.257 138.319 340.973 138.469 340.763 138.43C340.58 138.396 340.422 138.281 340.334 138.118C340.232 137.93 340.286 137.614 340.394 136.981L341.423 130.983C341.455 130.796 341.471 130.703 341.46 130.613C341.451 130.534 341.426 130.458 341.387 130.388C341.343 130.309 341.275 130.243 341.139 130.111L336.779 125.864C336.32 125.416 336.09 125.193 336.062 124.981C336.038 124.797 336.098 124.611 336.226 124.477C336.373 124.322 336.69 124.275 337.325 124.182L343.352 123.301C343.54 123.274 343.633 123.26 343.715 123.222C343.787 123.189 343.852 123.141 343.906 123.083C343.968 123.017 344.01 122.932 344.093 122.762L346.788 117.303Z" fill="#FDB022" stroke="#FDB022" stroke-width="2.46455" stroke-linecap="round" stroke-linejoin="round"/>
<path d="M378.645 117.303C378.929 116.728 379.071 116.44 379.263 116.348C379.431 116.268 379.626 116.268 379.794 116.348C379.986 116.44 380.128 116.728 380.413 117.303L383.107 122.762C383.191 122.932 383.233 123.017 383.294 123.083C383.348 123.141 383.413 123.189 383.486 123.222C383.567 123.26 383.661 123.274 383.849 123.301L389.876 124.182C390.511 124.275 390.828 124.322 390.975 124.477C391.103 124.611 391.163 124.797 391.138 124.981C391.11 125.193 390.881 125.416 390.421 125.864L386.061 130.111C385.925 130.243 385.857 130.309 385.814 130.388C385.775 130.458 385.75 130.534 385.74 130.613C385.729 130.703 385.745 130.796 385.778 130.983L386.806 136.981C386.915 137.614 386.969 137.93 386.867 138.118C386.778 138.281 386.621 138.396 386.438 138.43C386.228 138.469 385.944 138.319 385.376 138.02L379.987 135.187C379.819 135.098 379.736 135.054 379.647 135.037C379.569 135.022 379.488 135.022 379.41 135.037C379.322 135.054 379.238 135.098 379.07 135.187L373.681 138.02C373.113 138.319 372.829 138.469 372.619 138.43C372.436 138.396 372.279 138.281 372.19 138.118C372.088 137.93 372.142 137.614 372.251 136.981L373.279 130.983C373.312 130.796 373.328 130.703 373.317 130.613C373.307 130.534 373.282 130.458 373.243 130.388C373.2 130.309 373.132 130.243 372.996 130.111L368.636 125.864C368.176 125.416 367.947 125.193 367.919 124.981C367.894 124.797 367.954 124.611 368.082 124.477C368.229 124.322 368.546 124.275 369.181 124.182L375.209 123.301C375.396 123.274 375.49 123.26 375.571 123.222C375.644 123.189 375.709 123.141 375.763 123.083C375.824 123.017 375.866 122.932 375.95 122.762L378.645 117.303Z" fill="#FDB022" stroke="#FDB022" stroke-width="2.46455" stroke-linecap="round" stroke-linejoin="round"/>
<path d="M410.501 117.303C410.785 116.728 410.927 116.44 411.12 116.348C411.287 116.268 411.482 116.268 411.65 116.348C411.843 116.44 411.985 116.728 412.269 117.303L414.963 122.762C415.047 122.932 415.089 123.017 415.15 123.083C415.205 123.141 415.27 123.189 415.342 123.222C415.424 123.26 415.517 123.274 415.705 123.301L421.732 124.182C422.367 124.275 422.684 124.322 422.831 124.477C422.959 124.611 423.019 124.797 422.995 124.981C422.967 125.193 422.737 125.416 422.278 125.864L417.918 130.111C417.782 130.243 417.714 130.309 417.67 130.388C417.631 130.458 417.606 130.534 417.597 130.613C417.586 130.703 417.602 130.796 417.634 130.983L418.663 136.981C418.771 137.614 418.825 137.93 418.723 138.118C418.635 138.281 418.477 138.396 418.294 138.43C418.084 138.469 417.8 138.319 417.232 138.02L411.844 135.187C411.676 135.098 411.592 135.054 411.503 135.037C411.425 135.022 411.345 135.022 411.266 135.037C411.178 135.054 411.094 135.098 410.926 135.187L405.538 138.02C404.969 138.319 404.685 138.469 404.475 138.43C404.293 138.396 404.135 138.281 404.046 138.118C403.944 137.93 403.999 137.614 404.107 136.981L405.136 130.983C405.168 130.796 405.184 130.703 405.173 130.613C405.163 130.534 405.139 130.458 405.1 130.388C405.056 130.309 404.988 130.243 404.852 130.111L400.492 125.864C400.033 125.416 399.803 125.193 399.775 124.981C399.751 124.797 399.811 124.611 399.939 124.477C400.085 124.322 400.403 124.275 401.037 124.182L407.065 123.301C407.252 123.274 407.346 123.26 407.428 123.222C407.5 123.189 407.565 123.141 407.619 123.083C407.68 123.017 407.722 122.932 407.806 122.762L410.501 117.303Z" fill="#FDB022" stroke="#FDB022" stroke-width="2.46455" stroke-linecap="round" stroke-linejoin="round"/>
</g>
<g opacity="0.76">
<path d="M279.903 190.405C280.187 189.829 280.329 189.542 280.522 189.45C280.69 189.37 280.885 189.37 281.052 189.45C281.245 189.542 281.387 189.829 281.671 190.405L284.366 195.864C284.45 196.034 284.492 196.119 284.553 196.185C284.607 196.243 284.672 196.29 284.745 196.324C284.826 196.362 284.92 196.376 285.107 196.403L291.135 197.284C291.769 197.377 292.087 197.423 292.234 197.578C292.361 197.713 292.422 197.898 292.397 198.083C292.369 198.294 292.139 198.518 291.68 198.966L287.32 203.212C287.184 203.344 287.116 203.411 287.072 203.489C287.034 203.559 287.009 203.636 286.999 203.715C286.988 203.804 287.004 203.898 287.036 204.085L288.065 210.083C288.174 210.716 288.228 211.032 288.126 211.22C288.037 211.383 287.879 211.497 287.697 211.531C287.487 211.57 287.203 211.421 286.635 211.122L281.246 208.288C281.078 208.2 280.994 208.156 280.906 208.139C280.828 208.123 280.747 208.123 280.669 208.139C280.58 208.156 280.496 208.2 280.328 208.288L274.94 211.122C274.372 211.421 274.088 211.57 273.878 211.531C273.695 211.497 273.537 211.383 273.449 211.22C273.347 211.032 273.401 210.715 273.51 210.083L274.538 204.085C274.57 203.898 274.586 203.804 274.576 203.715C274.566 203.636 274.541 203.559 274.502 203.489C274.458 203.411 274.39 203.344 274.254 203.212L269.895 198.966C269.435 198.518 269.205 198.294 269.177 198.083C269.153 197.898 269.213 197.713 269.341 197.578C269.488 197.423 269.805 197.377 270.44 197.284L276.467 196.403C276.655 196.376 276.748 196.362 276.83 196.324C276.902 196.29 276.967 196.243 277.022 196.185C277.083 196.119 277.125 196.034 277.209 195.864L279.903 190.405Z" fill="#FDB022" stroke="#FDB022" stroke-width="2.46455" stroke-linecap="round" stroke-linejoin="round"/>
<path d="M314.932 190.878C315.216 190.303 315.358 190.015 315.551 189.923C315.718 189.843 315.913 189.843 316.081 189.923C316.274 190.015 316.416 190.303 316.7 190.878L319.394 196.337C319.478 196.507 319.52 196.592 319.581 196.658C319.636 196.716 319.701 196.763 319.773 196.797C319.855 196.835 319.948 196.849 320.136 196.876L326.163 197.757C326.798 197.85 327.115 197.896 327.262 198.051C327.39 198.186 327.45 198.371 327.426 198.556C327.398 198.767 327.168 198.991 326.708 199.439L322.349 203.685C322.213 203.818 322.145 203.884 322.101 203.963C322.062 204.032 322.037 204.109 322.028 204.188C322.017 204.278 322.033 204.371 322.065 204.558L323.094 210.556C323.202 211.189 323.256 211.505 323.154 211.693C323.066 211.856 322.908 211.971 322.725 212.004C322.515 212.043 322.231 211.894 321.663 211.595L316.275 208.761C316.107 208.673 316.023 208.629 315.934 208.612C315.856 208.596 315.775 208.596 315.697 208.612C315.609 208.629 315.525 208.673 315.357 208.761L309.968 211.595C309.4 211.894 309.116 212.043 308.906 212.004C308.724 211.971 308.566 211.856 308.477 211.693C308.375 211.505 308.429 211.189 308.538 210.556L309.567 204.558C309.599 204.371 309.615 204.278 309.604 204.188C309.594 204.109 309.569 204.032 309.531 203.963C309.487 203.884 309.419 203.818 309.283 203.685L304.923 199.439C304.464 198.991 304.234 198.767 304.206 198.556C304.182 198.371 304.242 198.186 304.369 198.051C304.516 197.896 304.834 197.85 305.468 197.757L311.496 196.876C311.683 196.849 311.777 196.835 311.859 196.797C311.931 196.763 311.996 196.716 312.05 196.658C312.111 196.592 312.153 196.507 312.237 196.337L314.932 190.878Z" fill="#FDB022" stroke="#FDB022" stroke-width="2.46455" stroke-linecap="round" stroke-linejoin="round"/>
<path d="M346.788 190.878C347.072 190.303 347.214 190.015 347.407 189.923C347.575 189.843 347.77 189.843 347.937 189.923C348.13 190.015 348.272 190.303 348.556 190.878L351.251 196.337C351.335 196.507 351.376 196.592 351.438 196.658C351.492 196.716 351.557 196.763 351.629 196.797C351.711 196.835 351.805 196.849 351.992 196.876L358.019 197.757C358.654 197.85 358.972 197.896 359.118 198.051C359.246 198.186 359.306 198.371 359.282 198.556C359.254 198.767 359.024 198.991 358.565 199.439L354.205 203.685C354.069 203.818 354.001 203.884 353.957 203.963C353.918 204.032 353.893 204.109 353.884 204.188C353.873 204.278 353.889 204.371 353.921 204.558L354.95 210.556C355.058 211.189 355.113 211.505 355.011 211.693C354.922 211.856 354.764 211.971 354.582 212.004C354.371 212.043 354.087 211.894 353.519 211.595L348.131 208.761C347.963 208.673 347.879 208.629 347.791 208.612C347.712 208.596 347.632 208.596 347.554 208.612C347.465 208.629 347.381 208.673 347.213 208.761L341.825 211.595C341.257 211.894 340.973 212.043 340.763 212.004C340.58 211.971 340.422 211.856 340.334 211.693C340.232 211.505 340.286 211.189 340.394 210.556L341.423 204.558C341.455 204.371 341.471 204.278 341.46 204.188C341.451 204.109 341.426 204.032 341.387 203.963C341.343 203.884 341.275 203.818 341.139 203.685L336.779 199.439C336.32 198.991 336.09 198.767 336.062 198.556C336.038 198.371 336.098 198.186 336.226 198.051C336.373 197.896 336.69 197.85 337.325 197.757L343.352 196.876C343.54 196.849 343.633 196.835 343.715 196.797C343.787 196.763 343.852 196.716 343.906 196.658C343.968 196.592 344.01 196.507 344.093 196.337L346.788 190.878Z" fill="#FDB022" stroke="#FDB022" stroke-width="2.46455" stroke-linecap="round" stroke-linejoin="round"/>
</g>
<g opacity="0.76">
<path d="M279.903 263.979C280.187 263.404 280.329 263.116 280.522 263.024C280.69 262.944 280.885 262.944 281.052 263.024C281.245 263.116 281.387 263.404 281.671 263.979L284.366 269.438C284.45 269.608 284.492 269.693 284.553 269.759C284.607 269.817 284.672 269.865 284.745 269.898C284.826 269.936 284.92 269.95 285.107 269.977L291.135 270.858C291.769 270.951 292.087 270.998 292.234 271.153C292.361 271.287 292.422 271.473 292.397 271.657C292.369 271.869 292.139 272.093 291.68 272.54L287.32 276.787C287.184 276.919 287.116 276.985 287.072 277.064C287.034 277.134 287.009 277.21 286.999 277.289C286.988 277.379 287.004 277.472 287.036 277.659L288.065 283.657C288.174 284.29 288.228 284.606 288.126 284.794C288.037 284.957 287.879 285.072 287.697 285.106C287.487 285.145 287.203 284.995 286.635 284.697L281.246 281.863C281.078 281.775 280.994 281.73 280.906 281.713C280.828 281.698 280.747 281.698 280.669 281.713C280.58 281.73 280.496 281.775 280.328 281.863L274.94 284.697C274.372 284.995 274.088 285.145 273.878 285.106C273.695 285.072 273.537 284.957 273.449 284.794C273.347 284.606 273.401 284.29 273.51 283.657L274.538 277.659C274.57 277.472 274.586 277.379 274.576 277.289C274.566 277.21 274.541 277.134 274.502 277.064C274.458 276.985 274.39 276.919 274.254 276.787L269.895 272.54C269.435 272.093 269.205 271.869 269.177 271.657C269.153 271.473 269.213 271.287 269.341 271.153C269.488 270.998 269.805 270.951 270.44 270.858L276.467 269.977C276.655 269.95 276.748 269.936 276.83 269.898C276.902 269.865 276.967 269.817 277.022 269.759C277.083 269.693 277.125 269.608 277.209 269.438L279.903 263.979Z" fill="#FDB022" stroke="#FDB022" stroke-width="2.46455" stroke-linecap="round" stroke-linejoin="round"/>
<path d="M314.932 264.452C315.216 263.877 315.358 263.589 315.551 263.497C315.718 263.418 315.913 263.418 316.081 263.497C316.274 263.589 316.416 263.877 316.7 264.452L319.394 269.911C319.478 270.081 319.52 270.166 319.581 270.232C319.636 270.291 319.701 270.338 319.773 270.372C319.855 270.409 319.948 270.423 320.136 270.451L326.163 271.332C326.798 271.424 327.115 271.471 327.262 271.626C327.39 271.761 327.45 271.946 327.426 272.13C327.398 272.342 327.168 272.566 326.708 273.013L322.349 277.26C322.213 277.392 322.145 277.458 322.101 277.537C322.062 277.607 322.037 277.683 322.028 277.763C322.017 277.852 322.033 277.946 322.065 278.133L323.094 284.13C323.202 284.763 323.256 285.079 323.154 285.267C323.066 285.43 322.908 285.545 322.725 285.579C322.515 285.618 322.231 285.468 321.663 285.17L316.275 282.336C316.107 282.248 316.023 282.204 315.934 282.186C315.856 282.171 315.775 282.171 315.697 282.186C315.609 282.204 315.525 282.248 315.357 282.336L309.968 285.17C309.4 285.468 309.116 285.618 308.906 285.579C308.724 285.545 308.566 285.43 308.477 285.267C308.375 285.079 308.429 284.763 308.538 284.13L309.567 278.133C309.599 277.946 309.615 277.852 309.604 277.763C309.594 277.683 309.569 277.607 309.531 277.537C309.487 277.458 309.419 277.392 309.283 277.26L304.923 273.013C304.464 272.566 304.234 272.342 304.206 272.13C304.182 271.946 304.242 271.761 304.369 271.626C304.516 271.471 304.834 271.424 305.468 271.332L311.496 270.451C311.683 270.423 311.777 270.409 311.859 270.372C311.931 270.338 311.996 270.291 312.05 270.232C312.111 270.166 312.153 270.081 312.237 269.911L314.932 264.452Z" fill="#FDB022" stroke="#FDB022" stroke-width="2.46455" stroke-linecap="round" stroke-linejoin="round"/>
<path d="M346.788 264.452C347.072 263.877 347.214 263.589 347.407 263.497C347.575 263.418 347.77 263.418 347.937 263.497C348.13 263.589 348.272 263.877 348.556 264.452L351.251 269.911C351.335 270.081 351.376 270.166 351.438 270.232C351.492 270.291 351.557 270.338 351.629 270.372C351.711 270.409 351.805 270.423 351.992 270.451L358.019 271.332C358.654 271.424 358.972 271.471 359.118 271.626C359.246 271.761 359.306 271.946 359.282 272.13C359.254 272.342 359.024 272.566 358.565 273.013L354.205 277.26C354.069 277.392 354.001 277.458 353.957 277.537C353.918 277.607 353.893 277.683 353.884 277.763C353.873 277.852 353.889 277.946 353.921 278.133L354.95 284.13C355.058 284.763 355.113 285.079 355.011 285.267C354.922 285.43 354.764 285.545 354.582 285.579C354.371 285.618 354.087 285.468 353.519 285.17L348.131 282.336C347.963 282.248 347.879 282.204 347.791 282.186C347.712 282.171 347.632 282.171 347.554 282.186C347.465 282.204 347.381 282.248 347.213 282.336L341.825 285.17C341.257 285.468 340.973 285.618 340.763 285.579C340.58 285.545 340.422 285.43 340.334 285.267C340.232 285.079 340.286 284.763 340.394 284.13L341.423 278.133C341.455 277.946 341.471 277.852 341.46 277.763C341.451 277.683 341.426 277.607 341.387 277.537C341.343 277.458 341.275 277.392 341.139 277.26L336.779 273.013C336.32 272.566 336.09 272.342 336.062 272.13C336.038 271.946 336.098 271.761 336.226 271.626C336.373 271.471 336.69 271.424 337.325 271.332L343.352 270.451C343.54 270.423 343.633 270.409 343.715 270.372C343.787 270.338 343.852 270.291 343.906 270.232C343.968 270.166 344.01 270.081 344.093 269.911L346.788 264.452Z" fill="#FDB022" stroke="#FDB022" stroke-width="2.46455" stroke-linecap="round" stroke-linejoin="round"/>
<path d="M378.645 264.452C378.929 263.877 379.071 263.589 379.263 263.497C379.431 263.418 379.626 263.418 379.794 263.497C379.986 263.589 380.128 263.877 380.413 264.452L383.107 269.911C383.191 270.081 383.233 270.166 383.294 270.232C383.348 270.291 383.413 270.338 383.486 270.372C383.567 270.409 383.661 270.423 383.849 270.451L389.876 271.332C390.511 271.424 390.828 271.471 390.975 271.626C391.103 271.761 391.163 271.946 391.138 272.13C391.11 272.342 390.881 272.566 390.421 273.013L386.061 277.26C385.925 277.392 385.857 277.458 385.814 277.537C385.775 277.607 385.75 277.683 385.74 277.763C385.729 277.852 385.745 277.946 385.778 278.133L386.806 284.13C386.915 284.763 386.969 285.079 386.867 285.267C386.778 285.43 386.621 285.545 386.438 285.579C386.228 285.618 385.944 285.468 385.376 285.17L379.987 282.336C379.819 282.248 379.736 282.204 379.647 282.186C379.569 282.171 379.488 282.171 379.41 282.186C379.322 282.204 379.238 282.248 379.07 282.336L373.681 285.17C373.113 285.468 372.829 285.618 372.619 285.579C372.436 285.545 372.279 285.43 372.19 285.267C372.088 285.079 372.142 284.763 372.251 284.13L373.279 278.133C373.312 277.946 373.328 277.852 373.317 277.763C373.307 277.683 373.282 277.607 373.243 277.537C373.2 277.458 373.132 277.392 372.996 277.26L368.636 273.013C368.176 272.566 367.947 272.342 367.919 272.13C367.894 271.946 367.954 271.761 368.082 271.626C368.229 271.471 368.546 271.424 369.181 271.332L375.209 270.451C375.396 270.423 375.49 270.409 375.571 270.372C375.644 270.338 375.709 270.291 375.763 270.232C375.824 270.166 375.866 270.081 375.95 269.911L378.645 264.452Z" fill="#FDB022" stroke="#FDB022" stroke-width="2.46455" stroke-linecap="round" stroke-linejoin="round"/>
<path d="M410.501 264.452C410.785 263.877 410.927 263.589 411.12 263.497C411.287 263.418 411.482 263.418 411.65 263.497C411.843 263.589 411.985 263.877 412.269 264.452L414.963 269.911C415.047 270.081 415.089 270.166 415.15 270.232C415.205 270.291 415.27 270.338 415.342 270.372C415.424 270.409 415.517 270.423 415.705 270.451L421.732 271.332C422.367 271.424 422.684 271.471 422.831 271.626C422.959 271.761 423.019 271.946 422.995 272.13C422.967 272.342 422.737 272.566 422.278 273.013L417.918 277.26C417.782 277.392 417.714 277.458 417.67 277.537C417.631 277.607 417.606 277.683 417.597 277.763C417.586 277.852 417.602 277.946 417.634 278.133L418.663 284.13C418.771 284.763 418.825 285.079 418.723 285.267C418.635 285.43 418.477 285.545 418.294 285.579C418.084 285.618 417.8 285.468 417.232 285.17L411.844 282.336C411.676 282.248 411.592 282.204 411.503 282.186C411.425 282.171 411.345 282.171 411.266 282.186C411.178 282.204 411.094 282.248 410.926 282.336L405.538 285.17C404.969 285.468 404.685 285.618 404.475 285.579C404.293 285.545 404.135 285.43 404.046 285.267C403.944 285.079 403.999 284.763 404.107 284.13L405.136 278.133C405.168 277.946 405.184 277.852 405.173 277.763C405.163 277.683 405.139 277.607 405.1 277.537C405.056 277.458 404.988 277.392 404.852 277.26L400.492 273.013C400.033 272.566 399.803 272.342 399.775 272.13C399.751 271.946 399.811 271.761 399.939 271.626C400.085 271.471 400.403 271.424 401.037 271.332L407.065 270.451C407.252 270.423 407.346 270.409 407.428 270.372C407.5 270.338 407.565 270.291 407.619 270.232C407.68 270.166 407.722 270.081 407.806 269.911L410.501 264.452Z" fill="#FDB022" stroke="#FDB022" stroke-width="2.46455" stroke-linecap="round" stroke-linejoin="round"/>
</g>
<defs>
<linearGradient id="paint0_linear_1_6935" x1="567" y1="351" x2="7" y2="6.49996" gradientUnits="userSpaceOnUse">
<stop stop-color="#5705A8" stop-opacity="0.06"/>
<stop offset="1" stop-color="#4305A8" stop-opacity="0.03"/>
</linearGradient>
<linearGradient id="paint1_linear_1_6935" x1="119.934" y1="88.95" x2="56.1149" y2="51.5981" gradientUnits="userSpaceOnUse">
<stop stop-color="#4505CD" stop-opacity="0.21"/>
<stop offset="1" stop-color="#4505CD" stop-opacity="0.06"/>
</linearGradient>
<linearGradient id="paint2_linear_1_6935" x1="231.679" y1="54.2072" x2="228.044" y2="32.6292" gradientUnits="userSpaceOnUse">
<stop stop-color="#5D05CD" stop-opacity="0.28"/>
<stop offset="1" stop-color="#4505CD" stop-opacity="0.31"/>
</linearGradient>
<linearGradient id="paint3_linear_1_6935" x1="179.23" y1="61.4891" x2="178.435" y2="54.6098" gradientUnits="userSpaceOnUse">
<stop stop-color="#5D05CD" stop-opacity="0.09"/>
<stop offset="1" stop-color="#8105CD" stop-opacity="0.02"/>
</linearGradient>
<linearGradient id="paint4_linear_1_6935" x1="166.5" y1="77.925" x2="164.094" y2="68.0551" gradientUnits="userSpaceOnUse">
<stop stop-color="#5D05CD" stop-opacity="0.09"/>
<stop offset="1" stop-color="#8105CD" stop-opacity="0.02"/>
</linearGradient>
<linearGradient id="paint5_linear_1_6935" x1="217.688" y1="72.0398" x2="212.637" y2="48.7356" gradientUnits="userSpaceOnUse">
<stop stop-color="#5D05CD" stop-opacity="0.28"/>
<stop offset="1" stop-color="#4505CD" stop-opacity="0.31"/>
</linearGradient>
<linearGradient id="paint6_linear_1_6935" x1="119.934" y1="162.95" x2="56.1149" y2="125.598" gradientUnits="userSpaceOnUse">
<stop stop-color="#4505CD" stop-opacity="0.21"/>
<stop offset="1" stop-color="#4505CD" stop-opacity="0.06"/>
</linearGradient>
<linearGradient id="paint7_linear_1_6935" x1="231.679" y1="128.207" x2="228.044" y2="106.629" gradientUnits="userSpaceOnUse">
<stop stop-color="#5D05CD" stop-opacity="0.28"/>
<stop offset="1" stop-color="#4505CD" stop-opacity="0.31"/>
</linearGradient>
<linearGradient id="paint8_linear_1_6935" x1="179.23" y1="135.489" x2="178.435" y2="128.61" gradientUnits="userSpaceOnUse">
<stop stop-color="#5D05CD" stop-opacity="0.09"/>
<stop offset="1" stop-color="#8105CD" stop-opacity="0.02"/>
</linearGradient>
<linearGradient id="paint9_linear_1_6935" x1="166.5" y1="151.925" x2="164.094" y2="142.055" gradientUnits="userSpaceOnUse">
<stop stop-color="#5D05CD" stop-opacity="0.09"/>
<stop offset="1" stop-color="#8105CD" stop-opacity="0.02"/>
</linearGradient>
<linearGradient id="paint10_linear_1_6935" x1="217.688" y1="146.04" x2="212.637" y2="122.736" gradientUnits="userSpaceOnUse">
<stop stop-color="#5D05CD" stop-opacity="0.28"/>
<stop offset="1" stop-color="#4505CD" stop-opacity="0.31"/>
</linearGradient>
<linearGradient id="paint11_linear_1_6935" x1="119.934" y1="236.95" x2="56.1149" y2="199.598" gradientUnits="userSpaceOnUse">
<stop stop-color="#4505CD" stop-opacity="0.21"/>
<stop offset="1" stop-color="#4505CD" stop-opacity="0.06"/>
</linearGradient>
<linearGradient id="paint12_linear_1_6935" x1="231.679" y1="202.207" x2="228.044" y2="180.629" gradientUnits="userSpaceOnUse">
<stop stop-color="#5D05CD" stop-opacity="0.28"/>
<stop offset="1" stop-color="#4505CD" stop-opacity="0.31"/>
</linearGradient>
<linearGradient id="paint13_linear_1_6935" x1="179.23" y1="209.489" x2="178.435" y2="202.61" gradientUnits="userSpaceOnUse">
<stop stop-color="#5D05CD" stop-opacity="0.09"/>
<stop offset="1" stop-color="#8105CD" stop-opacity="0.02"/>
</linearGradient>
<linearGradient id="paint14_linear_1_6935" x1="166.5" y1="225.925" x2="164.094" y2="216.055" gradientUnits="userSpaceOnUse">
<stop stop-color="#5D05CD" stop-opacity="0.09"/>
<stop offset="1" stop-color="#8105CD" stop-opacity="0.02"/>
</linearGradient>
<linearGradient id="paint15_linear_1_6935" x1="217.688" y1="220.04" x2="212.637" y2="196.736" gradientUnits="userSpaceOnUse">
<stop stop-color="#5D05CD" stop-opacity="0.28"/>
<stop offset="1" stop-color="#4505CD" stop-opacity="0.31"/>
</linearGradient>
<linearGradient id="paint16_linear_1_6935" x1="119.934" y1="310.95" x2="56.1149" y2="273.598" gradientUnits="userSpaceOnUse">
<stop stop-color="#4505CD" stop-opacity="0.21"/>
<stop offset="1" stop-color="#4505CD" stop-opacity="0.06"/>
</linearGradient>
<linearGradient id="paint17_linear_1_6935" x1="231.679" y1="276.207" x2="228.044" y2="254.629" gradientUnits="userSpaceOnUse">
<stop stop-color="#5D05CD" stop-opacity="0.28"/>
<stop offset="1" stop-color="#4505CD" stop-opacity="0.31"/>
</linearGradient>
<linearGradient id="paint18_linear_1_6935" x1="179.23" y1="283.489" x2="178.435" y2="276.61" gradientUnits="userSpaceOnUse">
<stop stop-color="#5D05CD" stop-opacity="0.09"/>
<stop offset="1" stop-color="#8105CD" stop-opacity="0.02"/>
</linearGradient>
<linearGradient id="paint19_linear_1_6935" x1="166.5" y1="299.925" x2="164.094" y2="290.055" gradientUnits="userSpaceOnUse">
<stop stop-color="#5D05CD" stop-opacity="0.09"/>
<stop offset="1" stop-color="#8105CD" stop-opacity="0.02"/>
</linearGradient>
<linearGradient id="paint20_linear_1_6935" x1="217.688" y1="294.04" x2="212.637" y2="270.736" gradientUnits="userSpaceOnUse">
<stop stop-color="#5D05CD" stop-opacity="0.28"/>
<stop offset="1" stop-color="#4505CD" stop-opacity="0.31"/>
</linearGradient>
</defs>
</svg>
