<svg width="576" height="360" viewBox="0 0 576 360" fill="none" xmlns="http://www.w3.org/2000/svg">
<rect width="576" height="360" rx="24" fill="url(#paint0_linear_1_6928)"/>
<g opacity="0.67" filter="url(#filter0_di_1_6928)">
<path d="M121.266 98.5693C121.653 95.4676 126.374 89.5485 128.924 87.6356C137.238 81.4002 152.998 78.3704 163.257 81.086C174.195 83.9814 179.368 90.0959 186.128 98.358C189.926 103 189.61 112.957 189.72 118.535C189.947 130.145 190.67 141.991 190.67 153.766C190.67 168.621 199.482 180.111 212.221 187.517C227.865 196.613 247.76 200.884 265.357 195.018C274.915 191.832 285.94 186.266 288.598 175.633C290.832 166.695 300.106 152.173 293.14 143.466C289.654 139.108 283.778 128.096 276.713 133.747C272.247 137.32 268.992 141.955 266.731 147.269C263.804 154.145 259.993 161.844 252.681 164.911C236.939 171.512 223.095 156.068 214.228 145.367C193.235 120.031 195.08 79.4255 223.841 60.3279C236.623 51.8406 262.268 42.4213 276.555 53.4614C287.293 61.759 302.892 82.6129 290.499 96.2452C279.747 108.072 266.027 117.373 262.188 134.17C256.415 159.428 296.593 153.508 311.31 158.414C326.673 163.535 340.889 172.66 340.889 190.739C340.889 207.112 331.242 221.366 317.596 230.195C303.894 239.061 282.702 249.574 267.47 237.907C258.206 230.811 246.244 223.636 240.532 213.029C237.076 206.61 235.349 194.504 238.631 187.94C241.185 182.831 242.926 176.989 247.187 172.728C251.855 168.06 259.369 165.356 265.569 163.432C279.859 158.997 292.735 157.516 307.613 157.516C331.195 157.516 353.104 159.415 373.268 144.681C391.622 131.268 408.578 114.789 419.59 94.7662C427.027 81.2446 409.669 72.9537 402.741 64.8704C398.178 59.5475 387.907 60.5392 381.666 60.5392C368.662 60.5392 354.481 73.5509 349.076 84.6777C343.942 95.2479 336.836 113.454 344.164 124.662C351.217 135.449 365.11 145.271 377.969 147.797C389.966 150.154 403.473 150.989 413.622 158.467C426.751 168.141 429.72 183.54 431.686 198.874C434.855 223.594 421.57 251.715 398.251 262.521C382.853 269.657 362.662 271.553 350.925 257.133C345.681 250.691 344.997 244.126 343.953 236.006C343.659 233.724 343.729 223.328 339.938 223.118C330.425 222.589 325.213 225.594 319.761 234.315C304.549 258.655 302.159 291.132 277.981 309.583C270.511 315.284 264.37 318.258 255.005 318.193C239.503 318.085 223.571 316.013 210.636 306.889C192.722 294.253 177.61 276.091 163.521 259.458C154.699 249.042 147.801 237.505 142.499 224.914C136.173 209.89 132.675 192.162 132.675 175.791C132.675 164.585 140.84 156.914 149.999 151.811C156.671 148.095 164.197 147.616 171.655 148.008C177.84 148.334 183.592 160.353 186.128 164.805C188.964 169.784 192.572 174.601 192.572 180.492C192.572 187.754 191.621 194.95 191.621 202.148C191.621 212.791 198.25 223.613 209.263 226.445C224.758 230.43 236.542 227.832 244.335 213.663C251.026 201.498 250.015 183.605 250.621 169.981C251.039 160.572 252.34 147.194 261.977 142.093C266.693 139.596 271.777 137.55 277.189 137.55C292.016 137.55 298.022 127.203 308.035 119.01C310.884 116.68 313.118 113.52 316.592 111.88C322.794 108.951 330.707 109.028 337.403 109.028C348.612 109.028 353.767 113.241 361.806 121.387C366.48 126.124 372.264 132.628 372.264 139.663C372.264 157.093 365.273 172.916 365.609 190.37C365.966 208.942 403.212 203.095 413.622 202.148" stroke="url(#paint1_linear_1_6928)" stroke-width="4" stroke-linecap="round" shape-rendering="crispEdges"/>
</g>
<defs>
<filter id="filter0_di_1_6928" x="113.265" y="44.4468" width="326.883" height="285.747" filterUnits="userSpaceOnUse" color-interpolation-filters="sRGB">
<feFlood flood-opacity="0" result="BackgroundImageFix"/>
<feColorMatrix in="SourceAlpha" type="matrix" values="0 0 0 0 0 0 0 0 0 0 0 0 0 0 0 0 0 0 127 0" result="hardAlpha"/>
<feOffset dy="4"/>
<feGaussianBlur stdDeviation="3"/>
<feComposite in2="hardAlpha" operator="out"/>
<feColorMatrix type="matrix" values="0 0 0 0 0.2566 0 0 0 0 0.00166667 0 0 0 0 0.798333 0 0 0 0.25 0"/>
<feBlend mode="normal" in2="BackgroundImageFix" result="effect1_dropShadow_1_6928"/>
<feBlend mode="normal" in="SourceGraphic" in2="effect1_dropShadow_1_6928" result="shape"/>
<feColorMatrix in="SourceAlpha" type="matrix" values="0 0 0 0 0 0 0 0 0 0 0 0 0 0 0 0 0 0 127 0" result="hardAlpha"/>
<feOffset dy="1"/>
<feGaussianBlur stdDeviation="1"/>
<feComposite in2="hardAlpha" operator="arithmetic" k2="-1" k3="1"/>
<feColorMatrix type="matrix" values="0 0 0 0 1 0 0 0 0 1 0 0 0 0 1 0 0 0 1 0"/>
<feBlend mode="normal" in2="shape" result="effect2_innerShadow_1_6928"/>
</filter>
<linearGradient id="paint0_linear_1_6928" x1="567" y1="351" x2="7" y2="6.49996" gradientUnits="userSpaceOnUse">
<stop stop-color="#5705A8" stop-opacity="0.06"/>
<stop offset="1" stop-color="#4305A8" stop-opacity="0.03"/>
</linearGradient>
<linearGradient id="paint1_linear_1_6928" x1="168.937" y1="318.194" x2="181.753" y2="60.1454" gradientUnits="userSpaceOnUse">
<stop stop-color="#2D0077"/>
<stop offset="0.928811" stop-color="#9C1EFF"/>
</linearGradient>
</defs>
</svg>
