<svg width="1313" height="66" viewBox="0 0 1313 66" fill="none" xmlns="http://www.w3.org/2000/svg">
<path d="M25.7173 26L19.0002 33L25.7173 40" stroke="#D2D0DD" stroke-width="1.5" stroke-linecap="round" stroke-linejoin="round"/>
<line x1="0.75" y1="-0.75" x2="16.9831" y2="-0.75" transform="matrix(1 0 0 -1 19.2671 32.0317)" stroke="#D2D0DD" stroke-width="1.5" stroke-linecap="round"/>
<path d="M76.2827 26L82.9998 33L76.2827 40" stroke="#D2D0DD" stroke-width="1.5" stroke-linecap="round" stroke-linejoin="round"/>
<line x1="81.9829" y1="32.7817" x2="65.7498" y2="32.7817" stroke="#D2D0DD" stroke-width="1.5" stroke-linecap="round"/>
<path d="M122.502 26.9969C120.96 25.4562 118.844 24.5 116.495 24.5C111.795 24.5 108 28.3038 108 33C108 37.6962 111.795 41.5 116.495 41.5C120.46 41.5 123.767 38.7906 124.713 35.125H122.502C121.63 37.6006 119.27 39.375 116.495 39.375C112.976 39.375 110.116 36.5169 110.116 33C110.116 29.4831 112.976 26.625 116.495 26.625C118.26 26.625 119.833 27.3581 120.981 28.5163L117.558 31.9375H125V24.5L122.502 26.9969Z" fill="#D2D0DD"/>
<rect x="139" y="17" width="1087" height="32" rx="16" fill="#F9F9FB"/>
<path d="M175.074 40.8636V30.3636H176.207V31.5767H176.347C176.433 31.4441 176.552 31.2751 176.705 31.0696C176.86 30.8608 177.082 30.6752 177.371 30.5128C177.662 30.3471 178.057 30.2642 178.554 30.2642C179.197 30.2642 179.764 30.425 180.254 30.7464C180.745 31.0679 181.128 31.5237 181.403 32.1136C181.678 32.7036 181.815 33.3996 181.815 34.2017C181.815 35.0104 181.678 35.7114 181.403 36.3047C181.128 36.8946 180.746 37.352 180.259 37.6768C179.772 37.9983 179.21 38.1591 178.574 38.1591C178.083 38.1591 177.691 38.0779 177.396 37.9155C177.101 37.7498 176.874 37.5625 176.714 37.3537C176.555 37.1416 176.433 36.9659 176.347 36.8267H176.247V40.8636H175.074ZM176.227 34.1818C176.227 34.7585 176.312 35.2673 176.481 35.7081C176.65 36.1456 176.897 36.4886 177.222 36.7372C177.546 36.9825 177.944 37.1051 178.415 37.1051C178.905 37.1051 179.315 36.9759 179.643 36.7173C179.974 36.4555 180.223 36.1042 180.388 35.6634C180.558 35.2192 180.642 34.7254 180.642 34.1818C180.642 33.6449 180.559 33.161 180.393 32.7301C180.231 32.2959 179.984 31.9529 179.653 31.701C179.325 31.4458 178.912 31.3182 178.415 31.3182C177.938 31.3182 177.536 31.4392 177.212 31.6811C176.887 31.9197 176.642 32.2545 176.476 32.6854C176.31 33.1129 176.227 33.6117 176.227 34.1818ZM184.778 27.8182V38H183.605V27.8182H184.778ZM189.175 38.179C188.691 38.179 188.251 38.0878 187.857 37.9055C187.463 37.7199 187.149 37.4531 186.917 37.1051C186.685 36.7538 186.569 36.3295 186.569 35.8324C186.569 35.3949 186.656 35.0402 186.828 34.7685C187 34.4934 187.231 34.2779 187.519 34.1222C187.807 33.9664 188.126 33.8504 188.474 33.7741C188.825 33.6946 189.178 33.6316 189.532 33.5852C189.997 33.5256 190.373 33.4808 190.661 33.451C190.953 33.4179 191.165 33.3632 191.297 33.2869C191.433 33.2107 191.501 33.0781 191.501 32.8892V32.8494C191.501 32.3589 191.367 31.9777 191.099 31.706C190.833 31.4342 190.431 31.2983 189.89 31.2983C189.33 31.2983 188.891 31.4209 188.573 31.6662C188.255 31.9115 188.031 32.1733 187.902 32.4517L186.788 32.054C186.987 31.59 187.252 31.2287 187.584 30.9702C187.918 30.7083 188.283 30.526 188.677 30.4233C189.075 30.3172 189.466 30.2642 189.851 30.2642C190.096 30.2642 190.378 30.294 190.696 30.3537C191.017 30.41 191.327 30.5277 191.626 30.7067C191.927 30.8857 192.177 31.1558 192.376 31.517C192.575 31.8783 192.675 32.3622 192.675 32.9688V38H191.501V36.9659H191.442C191.362 37.1316 191.229 37.3089 191.044 37.4979C190.858 37.6868 190.611 37.8475 190.303 37.9801C189.995 38.1127 189.619 38.179 189.175 38.179ZM189.354 37.125C189.818 37.125 190.209 37.0339 190.527 36.8516C190.848 36.6693 191.09 36.4339 191.253 36.1456C191.418 35.8572 191.501 35.554 191.501 35.2358V34.1619C191.452 34.2216 191.342 34.2763 191.173 34.326C191.007 34.3724 190.815 34.4138 190.596 34.4503C190.381 34.4834 190.171 34.5133 189.965 34.5398C189.763 34.563 189.599 34.5829 189.473 34.5994C189.168 34.6392 188.883 34.7038 188.618 34.7933C188.356 34.8795 188.144 35.0104 187.981 35.1861C187.822 35.3584 187.743 35.5937 187.743 35.892C187.743 36.2997 187.894 36.608 188.195 36.8168C188.5 37.0223 188.886 37.125 189.354 37.125ZM198.137 30.3636V31.358H194.18V30.3636H198.137ZM195.333 28.5341H196.506V35.8125C196.506 36.1439 196.554 36.3925 196.651 36.5582C196.75 36.7206 196.876 36.83 197.028 36.8864C197.184 36.9394 197.348 36.9659 197.521 36.9659C197.65 36.9659 197.756 36.9593 197.839 36.946C197.922 36.9295 197.988 36.9162 198.038 36.9062L198.276 37.9602C198.197 37.9901 198.086 38.0199 197.943 38.0497C197.801 38.0829 197.62 38.0994 197.401 38.0994C197.07 38.0994 196.745 38.0282 196.427 37.8857C196.112 37.7431 195.85 37.526 195.641 37.2344C195.436 36.9427 195.333 36.5748 195.333 36.1307V28.5341ZM205.174 32.0739L204.12 32.3722C204.054 32.1965 203.956 32.0258 203.827 31.8601C203.701 31.6911 203.529 31.5518 203.31 31.4425C203.091 31.3331 202.811 31.2784 202.47 31.2784C202.002 31.2784 201.613 31.3861 201.301 31.6016C200.993 31.8137 200.839 32.0838 200.839 32.4119C200.839 32.7036 200.945 32.9339 201.157 33.103C201.369 33.272 201.701 33.4129 202.152 33.5256L203.285 33.804C203.968 33.9697 204.477 34.2232 204.811 34.5646C205.146 34.9027 205.314 35.3385 205.314 35.8722C205.314 36.3097 205.188 36.7008 204.936 37.0455C204.687 37.3902 204.339 37.6619 203.892 37.8608C203.444 38.0597 202.924 38.1591 202.331 38.1591C201.552 38.1591 200.907 37.9901 200.397 37.652C199.886 37.3139 199.563 36.8201 199.427 36.1705L200.541 35.892C200.647 36.303 200.847 36.6113 201.142 36.8168C201.441 37.0223 201.83 37.125 202.311 37.125C202.858 37.125 203.292 37.009 203.613 36.777C203.938 36.5417 204.1 36.2599 204.1 35.9318C204.1 35.6667 204.008 35.4446 203.822 35.2656C203.636 35.0833 203.351 34.9474 202.967 34.858L201.694 34.5597C200.995 34.3939 200.481 34.1371 200.153 33.7891C199.828 33.4377 199.666 32.9986 199.666 32.4716C199.666 32.0407 199.787 31.6596 200.029 31.3281C200.274 30.9967 200.607 30.7365 201.028 30.5476C201.452 30.3587 201.933 30.2642 202.47 30.2642C203.225 30.2642 203.819 30.4299 204.25 30.7614C204.684 31.0928 204.992 31.5303 205.174 32.0739ZM210.401 30.3636V31.358H206.443V30.3636H210.401ZM207.597 28.5341H208.77V35.8125C208.77 36.1439 208.818 36.3925 208.914 36.5582C209.014 36.7206 209.14 36.83 209.292 36.8864C209.448 36.9394 209.612 36.9659 209.784 36.9659C209.914 36.9659 210.02 36.9593 210.102 36.946C210.185 36.9295 210.252 36.9162 210.301 36.9062L210.54 37.9602C210.46 37.9901 210.349 38.0199 210.207 38.0497C210.064 38.0829 209.884 38.0994 209.665 38.0994C209.334 38.0994 209.009 38.0282 208.691 37.8857C208.376 37.7431 208.114 37.526 207.905 37.2344C207.7 36.9427 207.597 36.5748 207.597 36.1307V28.5341ZM214.413 38.179C213.929 38.179 213.49 38.0878 213.095 37.9055C212.701 37.7199 212.388 37.4531 212.156 37.1051C211.924 36.7538 211.808 36.3295 211.808 35.8324C211.808 35.3949 211.894 35.0402 212.066 34.7685C212.239 34.4934 212.469 34.2779 212.757 34.1222C213.046 33.9664 213.364 33.8504 213.712 33.7741C214.063 33.6946 214.416 33.6316 214.771 33.5852C215.235 33.5256 215.611 33.4808 215.899 33.451C216.191 33.4179 216.403 33.3632 216.536 33.2869C216.672 33.2107 216.74 33.0781 216.74 32.8892V32.8494C216.74 32.3589 216.605 31.9777 216.337 31.706C216.072 31.4342 215.669 31.2983 215.129 31.2983C214.569 31.2983 214.129 31.4209 213.811 31.6662C213.493 31.9115 213.269 32.1733 213.14 32.4517L212.026 32.054C212.225 31.59 212.49 31.2287 212.822 30.9702C213.157 30.7083 213.521 30.526 213.916 30.4233C214.313 30.3172 214.704 30.2642 215.089 30.2642C215.334 30.2642 215.616 30.294 215.934 30.3537C216.256 30.41 216.566 30.5277 216.864 30.7067C217.165 30.8857 217.416 31.1558 217.615 31.517C217.813 31.8783 217.913 32.3622 217.913 32.9688V38H216.74V36.9659H216.68C216.6 37.1316 216.468 37.3089 216.282 37.4979C216.097 37.6868 215.85 37.8475 215.541 37.9801C215.233 38.1127 214.857 38.179 214.413 38.179ZM214.592 37.125C215.056 37.125 215.447 37.0339 215.765 36.8516C216.087 36.6693 216.329 36.4339 216.491 36.1456C216.657 35.8572 216.74 35.554 216.74 35.2358V34.1619C216.69 34.2216 216.58 34.2763 216.411 34.326C216.246 34.3724 216.053 34.4138 215.835 34.4503C215.619 34.4834 215.409 34.5133 215.203 34.5398C215.001 34.563 214.837 34.5829 214.711 34.5994C214.406 34.6392 214.121 34.7038 213.856 34.7933C213.594 34.8795 213.382 35.0104 213.22 35.1861C213.061 35.3584 212.981 35.5937 212.981 35.892C212.981 36.2997 213.132 36.608 213.433 36.8168C213.738 37.0223 214.124 37.125 214.592 37.125ZM223.157 38.1591C222.441 38.1591 221.824 37.9901 221.307 37.652C220.79 37.3139 220.392 36.8482 220.114 36.255C219.836 35.6617 219.696 34.9839 219.696 34.2216C219.696 33.446 219.839 32.7616 220.124 32.1683C220.412 31.5717 220.813 31.1061 221.327 30.7713C221.844 30.4332 222.447 30.2642 223.137 30.2642C223.674 30.2642 224.158 30.3636 224.588 30.5625C225.019 30.7614 225.372 31.0398 225.647 31.3977C225.922 31.7557 226.093 32.1733 226.159 32.6506H224.986C224.897 32.3026 224.698 31.9943 224.39 31.7259C224.085 31.4541 223.674 31.3182 223.157 31.3182C222.699 31.3182 222.298 31.4375 221.953 31.6761C221.612 31.9115 221.345 32.2446 221.153 32.6754C220.964 33.103 220.87 33.6051 220.87 34.1818C220.87 34.7718 220.962 35.2855 221.148 35.723C221.337 36.1605 221.602 36.5002 221.944 36.7422C222.288 36.9841 222.693 37.1051 223.157 37.1051C223.462 37.1051 223.738 37.0521 223.987 36.946C224.235 36.84 224.446 36.6875 224.618 36.4886C224.791 36.2898 224.913 36.0511 224.986 35.7727H226.159C226.093 36.2235 225.929 36.6295 225.667 36.9908C225.409 37.3487 225.066 37.6338 224.638 37.8459C224.214 38.0547 223.72 38.1591 223.157 38.1591ZM228.968 35.2159L228.949 33.7642H229.187L232.528 30.3636H233.98L230.42 33.9631H230.321L228.968 35.2159ZM227.875 38V27.8182H229.048V38H227.875ZM232.727 38L229.744 34.2216L230.579 33.4062L234.218 38H232.727ZM236.345 38.0795C236.1 38.0795 235.889 37.9917 235.714 37.8161C235.538 37.6404 235.45 37.4299 235.45 37.1847C235.45 36.9394 235.538 36.7289 235.714 36.5533C235.889 36.3776 236.1 36.2898 236.345 36.2898C236.59 36.2898 236.801 36.3776 236.976 36.5533C237.152 36.7289 237.24 36.9394 237.24 37.1847C237.24 37.3471 237.198 37.4962 237.116 37.6321C237.036 37.768 236.928 37.8774 236.792 37.9602C236.66 38.0398 236.511 38.0795 236.345 38.0795ZM242.448 38.1591C241.732 38.1591 241.115 37.9901 240.598 37.652C240.081 37.3139 239.683 36.8482 239.405 36.255C239.127 35.6617 238.987 34.9839 238.987 34.2216C238.987 33.446 239.13 32.7616 239.415 32.1683C239.703 31.5717 240.104 31.1061 240.618 30.7713C241.135 30.4332 241.738 30.2642 242.428 30.2642C242.965 30.2642 243.449 30.3636 243.879 30.5625C244.31 30.7614 244.663 31.0398 244.938 31.3977C245.213 31.7557 245.384 32.1733 245.45 32.6506H244.277C244.188 32.3026 243.989 31.9943 243.681 31.7259C243.376 31.4541 242.965 31.3182 242.448 31.3182C241.99 31.3182 241.589 31.4375 241.244 31.6761C240.903 31.9115 240.636 32.2446 240.444 32.6754C240.255 33.103 240.161 33.6051 240.161 34.1818C240.161 34.7718 240.253 35.2855 240.439 35.723C240.628 36.1605 240.893 36.5002 241.235 36.7422C241.579 36.9841 241.984 37.1051 242.448 37.1051C242.753 37.1051 243.029 37.0521 243.278 36.946C243.526 36.84 243.737 36.6875 243.909 36.4886C244.082 36.2898 244.204 36.0511 244.277 35.7727H245.45C245.384 36.2235 245.22 36.6295 244.958 36.9908C244.7 37.3487 244.357 37.6338 243.929 37.8459C243.505 38.0547 243.011 38.1591 242.448 38.1591ZM250.268 38.1591C249.579 38.1591 248.974 37.995 248.453 37.6669C247.936 37.3388 247.532 36.8797 247.24 36.2898C246.952 35.6998 246.808 35.0104 246.808 34.2216C246.808 33.4261 246.952 32.7318 247.24 32.1385C247.532 31.5452 247.936 31.0845 248.453 30.7564C248.974 30.4283 249.579 30.2642 250.268 30.2642C250.957 30.2642 251.561 30.4283 252.078 30.7564C252.598 31.0845 253.002 31.5452 253.291 32.1385C253.582 32.7318 253.728 33.4261 253.728 34.2216C253.728 35.0104 253.582 35.6998 253.291 36.2898C253.002 36.8797 252.598 37.3388 252.078 37.6669C251.561 37.995 250.957 38.1591 250.268 38.1591ZM250.268 37.1051C250.792 37.1051 251.222 36.9709 251.561 36.7024C251.899 36.4339 252.149 36.081 252.311 35.6435C252.474 35.206 252.555 34.732 252.555 34.2216C252.555 33.7112 252.474 33.2356 252.311 32.7947C252.149 32.3539 251.899 31.9976 251.561 31.7259C251.222 31.4541 250.792 31.3182 250.268 31.3182C249.744 31.3182 249.313 31.4541 248.975 31.7259C248.637 31.9976 248.387 32.3539 248.225 32.7947C248.062 33.2356 247.981 33.7112 247.981 34.2216C247.981 34.732 248.062 35.206 248.225 35.6435C248.387 36.081 248.637 36.4339 248.975 36.7024C249.313 36.9709 249.744 37.1051 250.268 37.1051ZM255.519 38V30.3636H256.653V31.5568H256.752C256.911 31.1491 257.168 30.8326 257.523 30.6072C257.877 30.3786 258.303 30.2642 258.8 30.2642C259.304 30.2642 259.723 30.3786 260.058 30.6072C260.396 30.8326 260.66 31.1491 260.849 31.5568H260.928C261.124 31.1624 261.417 30.8492 261.808 30.6172C262.199 30.3819 262.668 30.2642 263.215 30.2642C263.898 30.2642 264.456 30.478 264.891 30.9055C265.325 31.3298 265.542 31.991 265.542 32.8892V38H264.369V32.8892C264.369 32.3258 264.214 31.9231 263.906 31.6811C263.598 31.4392 263.235 31.3182 262.817 31.3182C262.281 31.3182 261.865 31.4806 261.57 31.8054C261.275 32.1269 261.127 32.5346 261.127 33.0284V38H259.934V32.7699C259.934 32.3357 259.793 31.986 259.511 31.7209C259.23 31.4524 258.867 31.3182 258.423 31.3182C258.118 31.3182 257.833 31.3994 257.567 31.5618C257.306 31.7242 257.094 31.9496 256.931 32.2379C256.772 32.523 256.692 32.8527 256.692 33.2273V38H255.519Z" fill="#6C6685"/>
<path d="M159.867 30.3333H159.267V29.0952C159.267 27.3867 157.924 26 156.269 26C154.614 26 153.271 27.3867 153.271 29.0952V30.3333H152.671C152.012 30.3333 151.472 30.8905 151.472 31.5714V37.7619C151.472 38.4429 152.012 39 152.671 39H159.867C160.527 39 161.066 38.4429 161.066 37.7619V31.5714C161.066 30.8905 160.527 30.3333 159.867 30.3333ZM156.269 35.9048C155.61 35.9048 155.07 35.3476 155.07 34.6667C155.07 33.9857 155.61 33.4286 156.269 33.4286C156.929 33.4286 157.468 33.9857 157.468 34.6667C157.468 35.3476 156.929 35.9048 156.269 35.9048ZM158.128 30.3333H154.41V29.0952C154.41 28.0367 155.244 27.1762 156.269 27.1762C157.295 27.1762 158.128 28.0367 158.128 29.0952V30.3333Z" fill="#9D98B3"/>
</svg>
